<?xml version="1.0" encoding="UTF-8" standalone="no"?>
<!-- Created with Inkscape (http://www.inkscape.org/) -->

<svg
   version="1.1"
   id="svg219"
   width="2880.813"
   height="2881.6257"
   viewBox="0 0 2880.813 2881.6257"
   sodipodi:docname="cesam.png"
   xmlns:inkscape="http://www.inkscape.org/namespaces/inkscape"
   xmlns:sodipodi="http://sodipodi.sourceforge.net/DTD/sodipodi-0.dtd"
   xmlns:xlink="http://www.w3.org/1999/xlink"
   xmlns="http://www.w3.org/2000/svg"
   xmlns:svg="http://www.w3.org/2000/svg">
  <defs
     id="defs223" />
  <sodipodi:namedview
     id="namedview221"
     pagecolor="#ffffff"
     bordercolor="#000000"
     borderopacity="0.25"
     inkscape:showpageshadow="2"
     inkscape:pageopacity="0.0"
     inkscape:pagecheckerboard="0"
     inkscape:deskcolor="#d1d1d1"
     showgrid="false" />
  <g
     inkscape:groupmode="layer"
     inkscape:label="Image"
     id="g225">
    <image
       width="2880.813"
       height="2881.6257"
       preserveAspectRatio="none"
       xlink:href="cesam.png"
       id="image227" />
    <g
       id="g229">
      <path
         style="fill:#efefef;stroke-width:0.81287"
         d="m 1050.2287,1844.909 c 0,-0.1688 0.6401,-0.8089 1.4225,-1.4226 1.2893,-1.011 1.318,-0.9823 0.3069,0.307 -1.0619,1.354 -1.7294,1.7846 -1.7294,1.1156 z m 38.2049,-39.0178 c 0,-0.1688 0.6401,-0.8089 1.4225,-1.4226 1.2893,-1.011 1.318,-0.9823 0.3069,0.307 -1.0619,1.354 -1.7294,1.7846 -1.7294,1.1156 z m -9.0453,-55.5779 c -1.0111,-1.2893 -0.9824,-1.318 0.3069,-0.307 1.354,1.062 1.7847,1.7295 1.1156,1.7295 -0.1687,0 -0.8089,-0.6401 -1.4225,-1.4225 z m 739.003,-91.5517 c 0,-0.1687 0.6401,-0.8089 1.4225,-1.4225 1.2893,-1.011 1.318,-0.9824 0.3069,0.3069 -1.0619,1.354 -1.7294,1.7847 -1.7294,1.1156 z m 72.7519,-4.5703 c 0.8092,-0.8941 1.6542,-1.6257 1.8777,-1.6257 0.2236,0 -0.2556,0.7316 -1.0648,1.6257 -0.8093,0.8942 -1.6542,1.6258 -1.8778,1.6258 -0.2235,0 0.2557,-0.7316 1.0649,-1.6258 z m -81.6935,-3.5584 c 0,-0.1687 0.6401,-0.8089 1.4225,-1.4225 1.2893,-1.0111 1.318,-0.9824 0.307,0.3069 -1.062,1.354 -1.7295,1.7847 -1.7295,1.1156 z m -791.8396,-2.7413 c -1.011,-1.2893 -0.9823,-1.318 0.307,-0.3069 1.354,1.0619 1.7846,1.7294 1.1155,1.7294 -0.1687,0 -0.8088,-0.6401 -1.4225,-1.4225 z m 365.4118,-40.2371 -1.5485,-1.829 1.8289,1.5486 c 1.7188,1.4552 2.199,2.1094 1.5486,2.1094 -0.1543,0 -0.9773,-0.8231 -1.829,-1.829 z M 1738.73,1370.0931 c 1.05,-1.1177 2.092,-2.0322 2.3155,-2.0322 0.2236,0 -0.4527,0.9145 -1.5027,2.0322 -1.0499,1.1177 -2.092,2.0322 -2.3155,2.0322 -0.2235,0 0.4527,-0.9145 1.5027,-2.0322 z"
         id="path273" />
      <path
         style="fill:#d4eefa;stroke-width:0.81287"
         d="m 1797.6631,1429.8391 c 0.8092,-0.8942 1.6542,-1.6257 1.8777,-1.6257 0.2235,0 -0.2556,0.7315 -1.0649,1.6257 -0.8092,0.8942 -1.6541,1.6257 -1.8777,1.6257 -0.2235,0 0.2557,-0.7315 1.0649,-1.6257 z m 12.7278,-30.0762 c 0,-1.1177 0.1845,-1.5749 0.41,-1.0161 0.2255,0.5589 0.2255,1.4733 0,2.0322 -0.2255,0.5588 -0.41,0.1016 -0.41,-1.0161 z m -83.7899,-4.5385 c 0.039,-0.947 0.2317,-1.1396 0.4912,-0.4911 0.2348,0.5868 0.206,1.2879 -0.064,1.558 -0.2702,0.2701 -0.4623,-0.2101 -0.427,-1.0669 z"
         id="path271" />
      <path
         style="fill:#eff0d2;stroke-width:0.81287"
         d="m 1116.8225,1343.8781 -1.9706,-2.2354 2.2354,1.9706 c 1.2294,1.0839 2.2354,2.0898 2.2354,2.2354 0,0.6375 -0.6583,0.1187 -2.5002,-1.9706 z m -263.15006,-25.8087 c 0.0163,-1.3412 0.19874,-1.7915 0.40489,-1.0006 0.20606,0.7909 0.19257,1.8883 -0.0301,2.4386 -0.22264,0.5504 -0.39123,-0.097 -0.37473,-1.438 z m -72.09747,-29.6698 c 0.80921,-0.8941 1.65418,-1.6257 1.87772,-1.6257 0.22354,0 -0.25564,0.7316 -1.06485,1.6257 -0.8092,0.8942 -1.65417,1.6258 -1.87771,1.6258 -0.22354,0 0.25564,-0.7316 1.06484,-1.6258 z m 364.37873,-16.0194 c 1.0111,-0.1945 2.4743,-0.1871 3.2515,0.016 0.7771,0.2035 -0.05,0.3626 -1.8385,0.3535 -1.7883,-0.01 -2.4242,-0.1755 -1.413,-0.3699 z"
         id="path269" />
      <path
         style="fill:#e2e2e2;stroke-width:0.81287"
         d="m 801.29656,1473.1592 c 1.01114,-0.1945 2.4743,-0.1871 3.25148,0.016 0.77718,0.2035 -0.0502,0.3626 -1.83844,0.3535 -1.78831,-0.01 -2.42418,-0.1755 -1.41304,-0.3699 z m 13.80932,0 c 1.00593,-0.1938 2.65199,-0.1938 3.65792,0 1.00592,0.1937 0.18289,0.3522 -1.82896,0.3522 -2.01186,0 -2.83489,-0.1585 -1.82896,-0.3522 z m 602.33702,-0.8385 c 2.3472,-0.1642 6.188,-0.1642 8.5351,0 2.3472,0.1642 0.4268,0.2985 -4.2675,0.2985 -4.6943,0 -6.6148,-0.1343 -4.2676,-0.2985 z m 750.8119,-10.9842 -1.5485,-1.8289 1.8289,1.5485 c 1.7188,1.4552 2.199,2.1094 1.5486,2.1094 -0.1543,0 -0.9774,-0.823 -1.829,-1.829 z m -514.8762,0.7105 c 0,-0.1688 0.6401,-0.8089 1.4225,-1.4225 1.2893,-1.0111 1.318,-0.9824 0.3069,0.3069 -1.0619,1.354 -1.7294,1.7847 -1.7294,1.1156 z m -742.55722,-21.6406 c 0.80921,-0.8941 1.65419,-1.6257 1.87773,-1.6257 0.22354,0 -0.25565,0.7316 -1.06486,1.6257 -0.80921,0.8942 -1.65419,1.6258 -1.87773,1.6258 -0.22354,0 0.25565,-0.7316 1.06486,-1.6258 z m 322.43152,0 c 0,-1.1177 0.1845,-1.5749 0.41,-1.0161 0.2255,0.5589 0.2255,1.4734 0,2.0322 -0.2255,0.5589 -0.41,0.1016 -0.41,-1.0161 z m 81.4879,-0.2032 -1.5485,-1.829 1.8289,1.5486 c 1.7188,1.4552 2.199,2.1094 1.5485,2.1094 -0.1542,0 -0.9773,-0.8231 -1.8289,-1.829 z m 911.9439,-2.6418 c 0.01,-2.2354 0.164,-3.0534 0.3509,-1.8179 0.1868,1.2357 0.1818,3.0646 -0.011,4.0644 -0.1929,0.9998 -0.3458,-0.011 -0.3397,-2.2465 z m -993.496,-1.6935 c 0.039,-0.947 0.2316,-1.1395 0.4911,-0.4911 0.2348,0.5868 0.206,1.2879 -0.064,1.558 -0.2701,0.2701 -0.4623,-0.21 -0.427,-1.0669 z m 362.5402,-1.6257 c 0.039,-0.947 0.2317,-1.1396 0.4911,-0.4912 0.2349,0.5868 0.206,1.2879 -0.064,1.5581 -0.2701,0.2701 -0.4623,-0.2101 -0.427,-1.0669 z m -675.40108,-16.1897 c 0.0163,-1.3413 0.19874,-1.7915 0.40489,-1.0007 0.20606,0.791 0.19257,1.8883 -0.0301,2.4386 -0.22264,0.5504 -0.39123,-0.097 -0.37473,-1.4379 z m 501.60128,-5.0341 c 0.791,-0.2061 1.8883,-0.1926 2.4387,0.03 0.5503,0.2227 -0.097,0.3913 -1.438,0.3748 -1.3413,-0.016 -1.7915,-0.1988 -1.0007,-0.4049 z m -319.0671,-4.9233 c 18.8891,-0.1216 49.7985,-0.1216 68.6876,0 18.8891,0.1216 3.4344,0.2211 -34.3438,0.2211 -37.7781,0 -53.2328,-0.1 -34.3438,-0.2211 z m 356.2405,-6.3 c 1.05,-1.1177 2.092,-2.0322 2.3156,-2.0322 0.2235,0 -0.4527,0.9145 -1.5027,2.0322 -1.05,1.1177 -2.092,2.0321 -2.3156,2.0321 -0.2235,0 0.4527,-0.9144 1.5027,-2.0321 z m -547.93622,-5.8933 -1.97064,-2.2354 2.23539,1.9706 c 2.08932,1.8419 2.60818,2.5002 1.97064,2.5002 -0.14558,0 -1.15151,-1.006 -2.23539,-2.2354 z m 622.09602,-18.0864 c 0,-1.5648 0.1673,-2.2049 0.3717,-1.4225 0.2046,0.7824 0.2046,2.0626 0,2.845 -0.2044,0.7824 -0.3717,0.1423 -0.3717,-1.4225 z m -73.4506,-10.3641 c -1.0111,-1.2893 -0.9824,-1.318 0.3069,-0.3069 0.7824,0.6136 1.4225,1.2537 1.4225,1.4225 0,0.6691 -0.6675,0.2384 -1.7294,-1.1156 z m -736.08367,-51.4141 c 0,-3.3531 0.14348,-4.7248 0.31885,-3.0482 0.17537,1.6765 0.17537,4.42 0,6.0965 -0.17537,1.6765 -0.31885,0.3048 -0.31885,-3.0483 z m 581.20237,-63.4039 c 0,-3.353 0.1435,-4.7248 0.3189,-3.0482 0.1753,1.6765 0.1753,4.42 0,6.0965 -0.1754,1.6766 -0.3189,0.3048 -0.3189,-3.0483 z m 172.7157,-14.374 c 0.5868,-0.2349 1.2879,-0.206 1.5581,0.064 0.2701,0.2701 -0.2101,0.4623 -1.0669,0.427 -0.947,-0.039 -1.1396,-0.2317 -0.4912,-0.4911 z m 4.8773,0 c 0.5868,-0.2349 1.2879,-0.206 1.558,0.064 0.2701,0.2701 -0.2101,0.4623 -1.0669,0.427 -0.947,-0.039 -1.1396,-0.2317 -0.4911,-0.4911 z m -574.9535,-4.322 c 0.80921,-0.8941 1.65419,-1.6257 1.87773,-1.6257 0.22354,0 -0.25565,0.7316 -1.06486,1.6257 -0.80922,0.8942 -1.65419,1.6258 -1.87773,1.6258 -0.22354,0 0.25564,-0.7316 1.06486,-1.6258 z m 165.2159,-9.5408 c 2.3472,-0.1642 6.188,-0.1642 8.5352,0 2.3471,0.1642 0.4267,0.2985 -4.2676,0.2985 -4.6943,0 -6.6147,-0.1343 -4.2676,-0.2985 z m 336.1331,-4.8613 c 1.2356,-0.1868 3.0646,-0.1818 4.0644,0.011 0.9998,0.1929 -0.011,0.3458 -2.2466,0.3397 -2.2354,-0.01 -3.0534,-0.164 -1.8178,-0.3508 z m -491.93686,-12.0839 c 0.039,-0.947 0.23167,-1.1395 0.49114,-0.4911 0.23484,0.5868 0.20598,1.2879 -0.0642,1.558 -0.27011,0.2701 -0.46228,-0.21 -0.427,-1.0669 z m 412.46766,-17.409 c 1.7462,-1.7883 3.3579,-3.2515 3.5814,-3.2515 0.2235,0 -1.0223,1.4632 -2.7686,3.2515 -1.7462,1.7883 -3.3578,3.2515 -3.5814,3.2515 -0.2235,0 1.0224,-1.4632 2.7686,-3.2515 z m -422.34777,-3.0482 -1.97064,-2.2354 2.23539,1.9706 c 2.08932,1.8419 2.60818,2.5001 1.97064,2.5001 -0.14558,0 -1.15151,-1.0059 -2.23539,-2.2353 z m 496.92857,-26.7754 c 0.7824,-0.2045 2.0627,-0.2045 2.8451,0 0.7824,0.2044 0.1422,0.3717 -1.4225,0.3717 -1.5648,0 -2.2049,-0.1673 -1.4226,-0.3717 z m 13.4219,-0.015 c 1.0111,-0.1944 2.4743,-0.187 3.2515,0.016 0.7771,0.2035 -0.05,0.3625 -1.8385,0.3535 -1.7883,-0.01 -2.4242,-0.1755 -1.413,-0.3699 z m -614.93054,-0.8012 c 0.79089,-0.2061 1.88827,-0.1926 2.43861,0.03 0.55033,0.2226 -0.0968,0.3912 -1.438,0.3747 -1.34123,-0.016 -1.79151,-0.1987 -1.00061,-0.4049 z m 17.86768,0 c 0.78239,-0.2045 2.06266,-0.2045 2.84504,0 0.78239,0.2044 0.14226,0.3717 -1.42252,0.3717 -1.56478,0 -2.20491,-0.1673 -1.42252,-0.3717 z m 947.45136,0.01 c 0.5868,-0.2348 1.2879,-0.206 1.558,0.064 0.2701,0.2702 -0.21,0.4623 -1.0669,0.427 -0.947,-0.039 -1.1395,-0.2316 -0.4911,-0.4911 z m 4.8772,0 c 0.5868,-0.2348 1.2879,-0.206 1.558,0.064 0.2702,0.2702 -0.21,0.4623 -1.0668,0.427 -0.947,-0.039 -1.1396,-0.2316 -0.4912,-0.4911 z m 276.376,0 c 0.5868,-0.2348 1.2879,-0.206 1.558,0.064 0.2701,0.2702 -0.21,0.4623 -1.0669,0.427 -0.947,-0.039 -1.1395,-0.2316 -0.4911,-0.4911 z m 4.8772,0 c 0.5868,-0.2348 1.2879,-0.206 1.558,0.064 0.2701,0.2702 -0.21,0.4623 -1.0669,0.427 -0.947,-0.039 -1.1395,-0.2316 -0.4911,-0.4911 z"
         id="path267" />
      <path
         style="fill:#b8e3f8;stroke-width:0.81287"
         d="m 1766.1789,1441.4431 c 1.4611,-0.181 3.6558,-0.1772 4.8772,0.01 1.2215,0.1854 0.026,0.3334 -2.6564,0.3289 -2.6824,-0.01 -3.6818,-0.1563 -2.2208,-0.3372 z m -25.9269,-10.5879 c -1.0111,-1.2893 -0.9824,-1.318 0.3069,-0.307 0.7824,0.6137 1.4226,1.2538 1.4226,1.4226 0,0.669 -0.6676,0.2384 -1.7295,-1.1156 z m -3.2515,-3.2515 c -1.011,-1.2893 -0.9823,-1.318 0.3069,-0.3069 1.354,1.0619 1.7847,1.7294 1.1156,1.7294 -0.1687,0 -0.8089,-0.6401 -1.4225,-1.4225 z m 72.5133,-21.812 c 0.039,-0.947 0.2317,-1.1396 0.4912,-0.4911 0.2348,0.5868 0.206,1.2879 -0.064,1.558 -0.2702,0.2701 -0.4623,-0.21 -0.427,-1.0669 z m -82.7444,-5.6224 c 0.01,-2.2354 0.1639,-3.0534 0.3508,-1.8178 0.1868,1.2357 0.1819,3.0646 -0.011,4.0644 -0.1928,0.9998 -0.3457,-0.011 -0.3397,-2.2466 z m 82.7444,-6.5706 c 0.039,-0.947 0.2317,-1.1396 0.4912,-0.4912 0.2348,0.5868 0.206,1.2879 -0.064,1.558 -0.2702,0.2702 -0.4623,-0.21 -0.427,-1.0668 z m -47.363,-35.0346 c 0.5868,-0.2348 1.2879,-0.206 1.558,0.064 0.2701,0.2701 -0.21,0.4623 -1.0669,0.427 -0.947,-0.039 -1.1395,-0.2317 -0.4911,-0.4911 z m 11.3802,0 c 0.5868,-0.2348 1.2879,-0.206 1.558,0.064 0.2701,0.2701 -0.21,0.4623 -1.0669,0.427 -0.947,-0.039 -1.1395,-0.2317 -0.4911,-0.4911 z"
         id="path265" />
      <path
         style="fill:#d7d7d7;stroke-width:0.81287"
         d="m 1127.8578,1845.2159 c 0.8092,-0.8942 1.6542,-1.6257 1.8777,-1.6257 0.2236,0 -0.2556,0.7315 -1.0648,1.6257 -0.8092,0.8942 -1.6542,1.6257 -1.8778,1.6257 -0.2235,0 0.2557,-0.7315 1.0649,-1.6257 z m -9.4517,-40.4403 c -1.0111,-1.2893 -0.9824,-1.318 0.3069,-0.307 1.354,1.062 1.7847,1.7295 1.1156,1.7295 -0.1688,0 -0.8089,-0.6401 -1.4225,-1.4225 z m 260.6287,-52.2269 c 0.8092,-0.8942 1.6542,-1.6258 1.8777,-1.6258 0.2235,0 -0.2556,0.7316 -1.0649,1.6258 -0.8092,0.8941 -1.6541,1.6257 -1.8777,1.6257 -0.2235,0 0.2557,-0.7316 1.0649,-1.6257 z m -327.9933,-3.658 c 1.05,-1.1177 2.092,-2.0321 2.3156,-2.0321 0.2235,0 -0.4527,0.9144 -1.5027,2.0321 -1.05,1.1177 -2.092,2.0322 -2.3155,2.0322 -0.2236,0 0.4527,-0.9145 1.5026,-2.0322 z m -0.062,-44.911 -1.9707,-2.2354 2.2354,1.9706 c 2.0893,1.8419 2.6082,2.5001 1.9707,2.5001 -0.1456,0 -1.1516,-1.0059 -2.2354,-2.2353 z m 916.9796,-48.5691 c 1.05,-1.1177 2.092,-2.0321 2.3156,-2.0321 0.2235,0 -0.4527,0.9144 -1.5027,2.0321 -1.05,1.1177 -2.092,2.0322 -2.3155,2.0322 -0.2236,0 0.4527,-0.9145 1.5026,-2.0322 z m -913.6664,-5.69 c -1.9744,-2.0119 -3.407,-3.658 -3.1835,-3.658 0.2235,0 2.0219,1.6461 3.9964,3.658 1.9745,2.0118 3.4071,3.6579 3.1835,3.6579 -0.2235,0 -2.0219,-1.6461 -3.9964,-3.6579 z m 733.1055,-0.2033 c -1.0111,-1.2893 -0.9824,-1.318 0.3069,-0.3069 1.354,1.0619 1.7847,1.7295 1.1156,1.7295 -0.1688,0 -0.8089,-0.6402 -1.4225,-1.4226 z m -314.5809,-33.3277 c -1.0111,-1.2892 -0.9824,-1.3179 0.3069,-0.3069 1.354,1.0619 1.7847,1.7295 1.1156,1.7295 -0.1687,0 -0.8089,-0.6402 -1.4225,-1.4226 z m -129.9556,0.3028 c 0,-0.1688 0.6402,-0.8089 1.4226,-1.4226 1.2893,-1.011 1.318,-0.9823 0.3069,0.307 -1.0619,1.354 -1.7295,1.7846 -1.7295,1.1156 z m 165.4192,-174.4602 c 1.7462,-1.7884 3.3579,-3.2515 3.5814,-3.2515 0.2236,0 -1.0223,1.4631 -2.7685,3.2515 -1.7463,1.7883 -3.3579,3.2514 -3.5815,3.2514 -0.2235,0 1.0224,-1.4631 2.7686,-3.2514 z m -806.44477,-9.9577 -1.54851,-1.829 1.82896,1.5486 c 1.71877,1.4552 2.19901,2.1094 1.54851,2.1094 -0.15425,0 -0.97728,-0.8231 -1.82896,-1.829 z m -7.31583,-7.3158 -1.54851,-1.829 1.82896,1.5485 c 1.71876,1.4552 2.19901,2.1094 1.54851,2.1094 -0.15425,0 -0.97728,-0.823 -1.82896,-1.8289 z m 683.7013,-194.8857 c 0.8092,-0.8942 1.6542,-1.6258 1.8777,-1.6258 0.2236,0 -0.2556,0.7316 -1.0648,1.6258 -0.8092,0.8941 -1.6542,1.6257 -1.8778,1.6257 -0.2235,0 0.2557,-0.7316 1.0649,-1.6257 z"
         id="path263" />
      <path
         style="fill:#e3e2a4;stroke-width:0.81287"
         d="m 807.02798,1359.377 c 0.58679,-0.2349 1.28789,-0.206 1.558,0.064 0.27011,0.2701 -0.20999,0.4623 -1.06689,0.427 -0.94695,-0.039 -1.13956,-0.2317 -0.49111,-0.4911 z m 34.29297,-12.0443 c 1.04999,-1.1176 2.09201,-2.0321 2.31555,-2.0321 0.22353,0 -0.45269,0.9145 -1.50268,2.0321 -1.04998,1.1177 -2.092,2.0322 -2.31554,2.0322 -0.22354,0 0.45269,-0.9145 1.50267,-2.0322 z m -71.28072,-29.2633 c 0.005,-2.6825 0.15632,-3.6818 0.33723,-2.2208 0.18091,1.461 0.17718,3.6558 -0.008,4.8772 -0.18548,1.2215 -0.3335,0.026 -0.32894,-2.6564 z m 406.12187,-33.5309 -1.9707,-2.2354 2.2354,1.9707 c 1.2295,1.0838 2.2354,2.0898 2.2354,2.2354 0,0.6375 -0.6583,0.1186 -2.5001,-1.9707 z"
         id="path261" />
      <path
         style="fill:#c7c7c6;stroke-width:0.81287"
         d="m 807.38361,1473.1518 c 1.22947,-0.1862 3.24132,-0.1862 4.47079,0 1.22946,0.1864 0.22354,0.3387 -2.2354,0.3387 -2.45893,0 -3.46486,-0.1523 -2.23539,-0.3387 z m 19.96613,-0.7858 c 0.58681,-0.2349 1.28791,-0.206 1.55803,0.064 0.27012,0.2701 -0.21005,0.4623 -1.06689,0.427 -0.947,-0.039 -1.13957,-0.2317 -0.49114,-0.4912 z m 577.13806,-0.8129 c 0.5868,-0.2348 1.2879,-0.206 1.558,0.064 0.2701,0.2701 -0.21,0.4623 -1.0669,0.427 -0.947,-0.039 -1.1395,-0.2317 -0.4911,-0.4911 z m 540.9163,-33.9917 c 0.01,-1.7883 0.1755,-2.4243 0.3699,-1.413 0.1945,1.0111 0.1871,2.4743 -0.016,3.2514 -0.2035,0.7771 -0.3626,-0.05 -0.3536,-1.8384 z m -349.611,-0.4065 c 0,-1.1177 0.1845,-1.5749 0.41,-1.0161 0.2255,0.5589 0.2255,1.4734 0,2.0322 -0.2255,0.5589 -0.41,0.1016 -0.41,-1.0161 z m -178.7566,-24.1335 c 0.7824,-0.2045 2.0626,-0.2045 2.845,0 0.7824,0.2044 0.1423,0.3717 -1.4225,0.3717 -1.5648,0 -2.2049,-0.1673 -1.4225,-0.3717 z m 9.348,0.022 c 0.5588,-0.2255 1.4733,-0.2255 2.0322,0 0.5588,0.2255 0.1016,0.41 -1.0161,0.41 -1.1177,0 -1.575,-0.1845 -1.0161,-0.41 z m -616.96871,-1.6754 c 1.453,-0.1803 3.83065,-0.1803 5.28365,0 1.45301,0.1803 0.26419,0.3278 -2.64183,0.3278 -2.90601,0 -4.09483,-0.1475 -2.64182,-0.3278 z m -155.73958,-84.7633 c 0,-1.1177 0.18451,-1.575 0.41001,-1.0161 0.2255,0.5588 0.2255,1.4733 0,2.0321 -0.2255,0.5589 -0.41001,0.1017 -0.41001,-1.016 z m 69.90687,-3.2515 c 0,-1.1177 0.1845,-1.575 0.41,-1.0161 0.2255,0.5588 0.2255,1.4733 0,2.0322 -0.2255,0.5588 -0.41,0.1016 -0.41,-1.0161 z m 0,-14.6317 c 0,-1.1177 0.1845,-1.5749 0.41,-1.0161 0.2255,0.5589 0.2255,1.4733 0,2.0322 -0.2255,0.5588 -0.41,0.1016 -0.41,-1.0161 z m -69.90687,-1.6257 c 0,-1.1177 0.18451,-1.575 0.41001,-1.0161 0.2255,0.5588 0.2255,1.4733 0,2.0322 -0.2255,0.5588 -0.41001,0.1016 -0.41001,-1.0161 z m 717.84129,-60.5589 c 0.01,-1.7883 0.1755,-2.4242 0.37,-1.413 0.1944,1.0111 0.187,2.4743 -0.016,3.2515 -0.2035,0.7771 -0.3625,-0.05 -0.3535,-1.8385 z m 108.5672,-8.2775 c 0.5869,-0.2349 1.288,-0.206 1.5581,0.064 0.2701,0.2701 -0.2101,0.4623 -1.0669,0.427 -0.947,-0.039 -1.1396,-0.2317 -0.4912,-0.4911 z m -671.49991,-17.1017 c 1.44303,-0.1795 4.00357,-0.1826 5.69009,-0.01 1.68655,0.176 0.50585,0.3229 -2.6237,0.3265 -3.12955,0 -4.50943,-0.1404 -3.06639,-0.3199 z m 596.71591,-1.5943 c 0.5868,-0.2349 1.2879,-0.206 1.558,0.064 0.2701,0.2701 -0.2101,0.4623 -1.0669,0.427 -0.947,-0.039 -1.1396,-0.2317 -0.4911,-0.4912 z m 9.7036,0.017 c 0.5588,-0.2255 1.4733,-0.2255 2.0322,0 0.5588,0.2255 0.1016,0.41 -1.0161,0.41 -1.1177,0 -1.575,-0.1845 -1.0161,-0.41 z m -497.92796,-8.8098 c 0.0163,-1.3412 0.19874,-1.7915 0.40489,-1.0006 0.20606,0.7909 0.19257,1.8883 -0.0301,2.4386 -0.22264,0.5504 -0.39123,-0.097 -0.37473,-1.438 z m 594.11406,-6.5707 c 0.039,-0.947 0.2316,-1.1395 0.4911,-0.4911 0.2348,0.5868 0.206,1.2879 -0.064,1.558 -0.2701,0.2701 -0.4623,-0.21 -0.427,-1.0669 z m -101.4586,-44.0041 c 1.2356,-0.1868 3.0646,-0.1819 4.0643,0.011 0.9999,0.1929 -0.011,0.3458 -2.2465,0.3397 -2.2354,-0.01 -3.0534,-0.1639 -1.8178,-0.3508 z M 809.43727,1159.37 c 1.9119,-0.1717 4.83826,-0.1693 6.50294,0.01 1.66476,0.1747 0.10047,0.3152 -3.47616,0.3122 -3.57663,0 -4.93868,-0.1459 -3.02678,-0.3176 z"
         id="path259" />
      <path
         style="fill:#81cff4;stroke-width:0.81287"
         d="m 1755.8002,1439.3694 c -13.6441,-4.6688 -23.146,-14.5265 -27.1536,-28.1706 -1.4709,-5.0076 -1.68,-15.6961 -0.4146,-21.1904 1.4713,-6.3882 5.7775,-13.9577 10.9044,-19.1674 17.6953,-17.9813 47.4553,-15.962 62.6721,4.2524 12.3573,16.4159 10.6595,39.8116 -3.934,54.2105 -8.5951,8.4805 -17.2577,11.9325 -29.8488,11.8944 -5.0055,-0.015 -8.4155,-0.5253 -12.2255,-1.8289 z"
         id="path257" />
      <path
         style="fill:#bcbcbc;stroke-width:0.81287"
         d="m 1001.8275,1853.1391 c -0.2149,-0.5601 -0.2904,-15.1003 -0.1678,-32.3116 l 0.2231,-31.2932 0.1932,31.885 0.1933,31.8851 13.2092,0.2449 13.2091,0.2449 -13.2347,0.1817 c -9.9904,0.137 -13.3304,-0.068 -13.6254,-0.8368 z m 179.4765,0.4262 c 1.6766,-0.1753 4.42,-0.1753 6.0966,0 1.6765,0.1754 0.3048,0.3189 -3.0483,0.3189 -3.3531,0 -4.7248,-0.1435 -3.0483,-0.3189 z m 48.9363,-0.436 c -0.217,-0.5655 -0.2907,-10.8992 -0.1638,-22.9636 l 0.2307,-21.9354 0.1893,22.52 0.1894,22.52 5.4869,0.2843 5.4869,0.2845 -5.5124,0.1591 c -3.8178,0.1103 -5.6337,-0.1569 -5.907,-0.8689 z m 25.0349,0.436 c 1.6766,-0.1753 4.42,-0.1753 6.0966,0 1.6765,0.1754 0.3048,0.3189 -3.0483,0.3189 -3.3531,0 -4.7248,-0.1435 -3.0483,-0.3189 z m 55.2752,0 c 1.6766,-0.1753 4.42,-0.1753 6.0966,0 1.6765,0.1754 0.3048,0.3189 -3.0483,0.3189 -3.3531,0 -4.7248,-0.1435 -3.0483,-0.3189 z m 22.3359,0.01 c 1.443,-0.1795 4.0035,-0.1826 5.69,-0.01 1.6866,0.176 0.5059,0.3229 -2.6237,0.3265 -3.1295,0 -4.5094,-0.1404 -3.0663,-0.3199 z m 41.4745,-0.01 c 1.9001,-0.1711 5.0093,-0.1711 6.9094,0 1.9001,0.1711 0.3454,0.3112 -3.4547,0.3112 -3.8002,0 -5.3548,-0.1401 -3.4547,-0.3112 z m -95.9187,-15.455 c 4.1354,-0.1476 10.9026,-0.1476 15.0381,0 4.1354,0.1475 0.7519,0.2682 -7.5191,0.2682 -8.2709,0 -11.6545,-0.1207 -7.519,-0.2682 z m 0.2032,-10.5 c 8.876,-0.5951 17.8868,-0.6311 17.885,-0.072 0,0.3353 -4.8486,0.5437 -10.7724,0.4632 -5.9238,-0.081 -9.1245,-0.257 -7.1126,-0.3918 z m -218.5981,-6.4388 c 0.039,-0.947 0.2317,-1.1396 0.4912,-0.4911 0.2348,0.5868 0.206,1.2879 -0.064,1.558 -0.2701,0.2701 -0.4623,-0.21 -0.427,-1.0669 z m 310.5808,-10.909 c 0,-1.1177 0.1845,-1.575 0.41,-1.0161 0.2255,0.5588 0.2255,1.4733 0,2.0322 -0.2255,0.5588 -0.41,0.1016 -0.41,-1.0161 z m 12.1288,-0.4742 c 0.039,-0.947 0.2317,-1.1395 0.4912,-0.4911 0.2348,0.5868 0.2059,1.2879 -0.064,1.558 -0.2702,0.2701 -0.4623,-0.21 -0.4271,-1.0669 z m -99.4375,-21.2485 c 1.453,-0.1803 3.8306,-0.1803 5.2836,0 1.453,0.1803 0.2642,0.3278 -2.6418,0.3278 -2.906,0 -4.0948,-0.1475 -2.6418,-0.3278 z m -179.5936,-0.7801 c 0.5868,-0.2348 1.2879,-0.206 1.558,0.064 0.2702,0.2701 -0.21,0.4623 -1.0669,0.427 -0.947,-0.039 -1.1395,-0.2317 -0.4911,-0.4911 z m -101.8992,-61.2229 c 0,-17.6596 0.1073,-24.884 0.2386,-16.0542 0.1312,8.8298 0.1312,23.2786 0,32.1084 -0.1313,8.8298 -0.2386,1.6054 -0.2386,-16.0542 z m 484.4708,0 c 0,-17.6596 0.1073,-24.884 0.2386,-16.0542 0.1312,8.8298 0.1312,23.2786 0,32.1084 -0.1313,8.8298 -0.2386,1.6054 -0.2386,-16.0542 z m 99.9769,5.2837 c -4e-4,-14.7536 0.1095,-20.9039 0.2441,-13.6672 0.1346,7.2366 0.1348,19.3078 5e-4,26.8247 -0.1343,7.5169 -0.2444,1.5961 -0.2446,-13.1575 z m 120.311,-5.2837 c 0,-17.6596 0.1073,-24.884 0.2386,-16.0542 0.1312,8.8298 0.1312,23.2786 0,32.1084 -0.1313,8.8298 -0.2386,1.6054 -0.2386,-16.0542 z m -689.481,21.3501 c 2.1236,-0.1675 5.5986,-0.1675 7.7223,0 2.1236,0.1674 0.3861,0.3044 -3.8612,0.3044 -4.2472,0 -5.9847,-0.137 -3.8611,-0.3044 z m 428.7892,-0.01 c 5.0296,-0.1427 13.2599,-0.1427 18.2896,0 5.0296,0.1426 0.9144,0.2593 -9.1448,0.2593 -10.0593,0 -14.1745,-0.1167 -9.1448,-0.2593 z m 192.6503,0 c 5.0296,-0.1427 13.2599,-0.1427 18.2896,0 5.0296,0.1426 0.9144,0.2593 -9.1448,0.2593 -10.0593,0 -14.1745,-0.1167 -9.1448,-0.2593 z m 88.6029,0 c 5.0296,-0.1427 13.2599,-0.1427 18.2895,0 5.0297,0.1426 0.9145,0.2593 -9.1447,0.2593 -10.0593,0 -14.1745,-0.1167 -9.1448,-0.2593 z m -343.4826,-7.1151 c 0.016,-1.3412 0.1987,-1.7914 0.4049,-1.0006 0.206,0.7909 0.1926,1.8883 -0.03,2.4386 -0.2226,0.5504 -0.3912,-0.097 -0.3747,-1.438 z m 147.3269,-24.3861 c -4e-4,-12.0711 0.1127,-17.1226 0.2514,-11.2255 0.1387,5.897 0.139,15.7734 9e-4,21.9475 -0.1383,6.174 -0.2518,1.3492 -0.2523,-10.722 z m 219.3795,10.1609 c 0,-2.906 0.1475,-4.0948 0.3278,-2.6418 0.1803,1.453 0.1803,3.8306 0,5.2836 -0.1803,1.453 -0.3278,0.2642 -0.3278,-2.6418 z m -690.3232,-0.4741 c 0.039,-0.947 0.2317,-1.1396 0.4912,-0.4912 0.2348,0.5868 0.206,1.2879 -0.064,1.5581 -0.2701,0.2701 -0.4623,-0.2101 -0.427,-1.0669 z m 285.8631,-5.0024 c 2.3472,-0.1642 6.188,-0.1642 8.5351,0 2.3472,0.1642 0.4268,0.2985 -4.2675,0.2985 -4.6944,0 -6.6148,-0.1343 -4.2676,-0.2985 z m -328.7816,-16.2566 c 2.1372,-0.168 5.4293,-0.166 7.3159,0.01 1.8866,0.1704 0.138,0.3079 -3.8857,0.3054 -4.0237,0 -5.5673,-0.1419 -3.4302,-0.31 z m 428.7647,-0.01 c 5.0296,-0.1426 13.2599,-0.1426 18.2896,0 5.0296,0.1426 0.9144,0.2593 -9.1448,0.2593 -10.0593,0 -14.1745,-0.1167 -9.1448,-0.2593 z m 192.6503,0 c 5.0296,-0.1426 13.2599,-0.1426 18.2896,0 5.0296,0.1426 0.9144,0.2593 -9.1448,0.2593 -10.0593,0 -14.1745,-0.1167 -9.1448,-0.2593 z m 97.9125,0.01 17.6416,-0.242 0.2996,-4.6586 0.2996,-4.6586 -0.058,4.8773 -0.058,4.8772 -17.8832,0.024 -17.8831,0.024 17.6416,-0.242 z m -634.0006,-0.7715 c 0.7824,-0.2045 2.0627,-0.2045 2.845,0 0.7824,0.2045 0.1423,0.3718 -1.4225,0.3718 -1.5648,0 -2.2049,-0.1673 -1.4225,-0.3718 z m 504.0367,-4.3201 c 0,-2.906 0.1475,-4.0949 0.3278,-2.6418 0.1803,1.453 0.1803,3.8306 0,5.2836 -0.1803,1.453 -0.3278,0.2642 -0.3278,-2.6418 z M 1030.923,1665.011 c 0.7824,-0.2045 2.0627,-0.2045 2.845,0 0.7824,0.2045 0.1423,0.3717 -1.4225,0.3717 -1.5648,0 -2.2049,-0.1672 -1.4225,-0.3717 z m 326.7739,0 c 0.7824,-0.2045 2.0627,-0.2045 2.8451,0 0.7824,0.2045 0.1422,0.3717 -1.4225,0.3717 -1.5648,0 -2.205,-0.1672 -1.4226,-0.3717 z m 585.2668,0 c 0.7824,-0.2045 2.0626,-0.2045 2.845,0 0.7824,0.2045 0.1423,0.3717 -1.4225,0.3717 -1.5648,0 -2.2049,-0.1672 -1.4225,-0.3717 z m -873.6469,-33.7833 0.015,-31.9053 h 23.9797 23.9797 l 0.068,5.2836 0.068,5.2837 -0.3106,-5.0804 -0.3105,-5.0805 h -23.5251 -23.525 l -0.227,31.7021 -0.227,31.7021 z m 192.6503,0 0.015,-31.9053 14.4291,-0.029 14.4291,-0.029 -14.2164,0.2509 -14.2166,0.2509 -0.227,31.6834 -0.2269,31.6834 0.015,-31.9054 z m 331.6512,0 0.015,-31.9053 h 23.9797 23.9797 l 0.068,5.2836 0.068,5.2837 -0.3106,-5.0804 -0.3105,-5.0805 h -23.525 -23.5251 l -0.2269,31.7021 -0.2271,31.7021 z m 233.0898,-10.9368 -0.1881,-20.4878 -5.4869,-0.2843 -5.4869,-0.2844 5.5124,-0.1592 c 3.8265,-0.1106 5.6335,0.1562 5.9082,0.8722 0.2177,0.5673 0.2909,9.9864 0.1626,20.9314 l -0.2333,19.9 z m -55.0787,-0.8496 0.022,-20.1189 5.4901,-0.06 5.4901,-0.06 -5.2727,0.3003 -5.2729,0.3004 -0.239,19.8789 -0.2391,19.8789 0.022,-20.1189 z m -674.9023,17.08 16.0159,-0.2475 0.3102,-5.0633 0.3101,-5.0634 -0.068,5.2837 -0.068,5.2836 -16.2574,0.027 -16.2574,0.027 16.0158,-0.2475 z m 428.058,-0.01 c 4.6063,-0.1451 11.9222,-0.1446 16.2574,0 4.3352,0.1459 0.5664,0.2646 -8.3752,0.2639 -8.9416,-7e-4 -12.4886,-0.1201 -7.8822,-0.2652 z m 96.2435,0.01 16.0159,-0.2475 0.3101,-5.0633 0.3101,-5.0634 -0.068,5.2837 -0.068,5.2836 -16.2574,0.027 -16.2575,0.027 16.0159,-0.2475 z m -295.8447,-4.6841 c 0.01,-1.7883 0.1755,-2.4242 0.3699,-1.413 0.1945,1.0111 0.1871,2.4743 -0.016,3.2515 -0.2035,0.7771 -0.3626,-0.05 -0.3535,-1.8385 z m 67.4847,-0.4064 c 0,-2.0119 0.1585,-2.8349 0.3522,-1.829 0.1938,1.0059 0.1938,2.652 0,3.6579 -0.1937,1.006 -0.3522,0.1829 -0.3522,-1.8289 z m 585.2037,0.4064 c 0.016,-1.3412 0.1988,-1.7915 0.4049,-1.0006 0.2061,0.7909 0.1926,1.8883 -0.03,2.4386 -0.2226,0.5504 -0.3912,-0.097 -0.3747,-1.438 z m -90.3229,-0.067 c 0.039,-0.947 0.2317,-1.1395 0.4911,-0.4911 0.2349,0.5868 0.206,1.2879 -0.064,1.558 -0.2701,0.2701 -0.4623,-0.21 -0.427,-1.0669 z M 1674.31,1608.9453 c 0.5588,-0.2254 1.4733,-0.2254 2.0322,0 0.5588,0.2255 0.1016,0.4101 -1.0161,0.4101 -1.1177,0 -1.575,-0.1846 -1.0161,-0.4101 z m 335.7155,0 c 0.5588,-0.2254 1.4733,-0.2254 2.0322,0 0.5588,0.2255 0.1016,0.4101 -1.0161,0.4101 -1.1177,0 -1.575,-0.1846 -1.0161,-0.4101 z m -877.1054,-9.8027 c 1.443,-0.1795 4.0036,-0.1826 5.6901,-0.01 1.6865,0.176 0.5059,0.3229 -2.6237,0.3265 -3.1295,0 -4.5094,-0.1404 -3.0664,-0.3199 z m 45.1325,-0.01 c 1.6765,-0.1753 4.4199,-0.1753 6.0965,0 1.6765,0.1754 0.3048,0.3189 -3.0483,0.3189 -3.3531,0 -4.7248,-0.1435 -3.0482,-0.3189 z m 33.7853,-0.016 c 7.2931,-0.1348 18.9985,-0.1346 26.0118,6e-4 7.0133,0.1352 1.0462,0.2456 -13.2603,0.2452 -14.3065,-3e-4 -20.0447,-0.1109 -12.7515,-0.2458 z m 227.9961,0 c 3.4853,-0.1527 8.9721,-0.1518 12.1931,0 3.2209,0.1539 0.3692,0.2789 -6.3369,0.2778 -6.7062,0 -9.3415,-0.1271 -5.8562,-0.2798 z m 77.1855,0 c 6.5945,-0.1365 17.3853,-0.1365 23.9797,0 6.5944,0.1367 1.199,0.2485 -11.9898,0.2485 -13.1888,0 -18.5843,-0.1118 -11.9899,-0.2485 z m 205.3011,-5e-4 c 7.2931,-0.1348 18.9984,-0.1346 26.0118,6e-4 7.0133,0.1352 1.0462,0.2456 -13.2603,0.2453 -14.3066,-4e-4 -20.0448,-0.111 -12.7515,-0.2459 z m 125.5372,0.01 c 3.4649,-0.1524 9.1347,-0.1524 12.5995,0 3.4649,0.1523 0.63,0.277 -6.2997,0.277 -6.9297,0 -9.7646,-0.1247 -6.2998,-0.277 z m -173.9543,-0.769 c 0.7824,-0.2045 2.0627,-0.2045 2.8451,0 0.7824,0.2044 0.1422,0.3717 -1.4225,0.3717 -1.5648,0 -2.2049,-0.1673 -1.4226,-0.3717 z m 336.5284,0 c 0.7824,-0.2045 2.0627,-0.2045 2.8451,0 0.7824,0.2044 0.1422,0.3717 -1.4225,0.3717 -1.5648,0 -2.205,-0.1673 -1.4226,-0.3717 z m -404.6835,-137.018 -1.5485,-1.829 1.829,1.5485 c 1.7187,1.4552 2.1989,2.1094 1.5485,2.1094 -0.1543,0 -0.9773,-0.823 -1.829,-1.8289 z m 329.6962,-0.2043 c 1.05,-1.1177 2.092,-2.0322 2.3156,-2.0322 0.2235,0 -0.4527,0.9145 -1.5027,2.0322 -1.05,1.1177 -2.092,2.0322 -2.3155,2.0322 -0.2236,0 0.4526,-0.9145 1.5026,-2.0322 z m -1237.25038,-32.718 -1.97065,-2.2354 2.23539,1.9706 c 1.22947,1.0839 2.2354,2.0898 2.2354,2.2354 0,0.6376 -0.65826,0.1187 -2.50014,-1.9706 z m 526.31798,-10.9738 -1.5486,-1.8289 1.829,1.5485 c 1.7187,1.4552 2.199,2.1094 1.5485,2.1094 -0.1543,0 -0.9773,-0.823 -1.8289,-1.829 z m -473.4814,-30.4826 -1.97065,-2.2354 2.2354,1.9706 c 1.22946,1.0839 2.23539,2.0898 2.23539,2.2354 0,0.6376 -0.65826,0.1187 -2.50014,-1.9706 z m 760.8646,-65.0297 -2.8013,-3.0482 3.0482,2.8013 c 2.8373,2.6074 3.422,3.2952 2.8013,3.2952 -0.1358,0 -1.5075,-1.3717 -3.0482,-3.0483 z m -761.20951,-75.8001 c 1.74624,-1.7883 3.35789,-3.2515 3.58143,-3.2515 0.22354,0 -1.02232,1.4632 -2.76856,3.2515 -1.74624,1.7883 -3.35788,3.2515 -3.58142,3.2515 -0.22354,0 1.02231,-1.4632 2.76855,-3.2515 z m -57.30737,-36.0733 c 0,-0.1687 0.64014,-0.8088 1.42253,-1.4225 1.28926,-1.011 1.31801,-0.9823 0.3069,0.307 -1.0619,1.354 -1.72943,1.7846 -1.72943,1.1155 z m 8.94158,-8.9415 c 0,-0.1688 0.64013,-0.8089 1.42252,-1.4226 1.28926,-1.011 1.31802,-0.9823 0.30691,0.307 -1.06191,1.354 -1.72943,1.7846 -1.72943,1.1156 z m 1044.1321,-31.395 c 0.8093,-0.8942 1.6542,-1.6258 1.8778,-1.6258 0.2235,0 -0.2557,0.7316 -1.0649,1.6258 -0.8092,0.8941 -1.6542,1.6257 -1.8777,1.6257 -0.2236,0 0.2556,-0.7316 1.0648,-1.6257 z m 329.1354,-0.2033 -1.5486,-1.8289 1.829,1.5485 c 1.7187,1.4552 2.199,2.1094 1.5485,2.1094 -0.1543,0 -0.9773,-0.823 -1.8289,-1.829 z"
         id="path255" />
      <path
         style="fill:#f9ca6b;stroke-width:0.81287"
         d="m 1145.5489,1356.0974 c 1.2356,-0.1868 3.0646,-0.1818 4.0643,0.011 0.9999,0.1929 -0.011,0.3458 -2.2465,0.3397 -2.2354,-0.01 -3.0534,-0.1639 -1.8178,-0.3508 z m 29.049,-10.2383 c 0,-0.1399 1.1888,-1.3287 2.6418,-2.6418 l 2.6418,-2.3875 -2.3875,2.6418 c -2.2254,2.4626 -2.8961,3.0155 -2.8961,2.3875 z m -68.9657,-25.7575 c 0,-1.1177 0.1845,-1.5749 0.41,-1.0161 0.2255,0.5589 0.2255,1.4733 0,2.0322 -0.2255,0.5588 -0.41,0.1016 -0.41,-1.0161 z m 83.0364,-5.2837 c 0.01,-2.6824 0.1563,-3.6818 0.3371,-2.2208 0.181,1.461 0.1772,3.6558 -0.01,4.8772 -0.1854,1.2215 -0.3334,0.026 -0.3289,-2.6564 z m -83.1006,-5.7578 c 0.039,-0.947 0.2317,-1.1395 0.4911,-0.4911 0.2349,0.5868 0.206,1.2879 -0.064,1.558 -0.2701,0.2701 -0.4623,-0.21 -0.427,-1.0669 z m 34.7369,-35.8474 c 0.5868,-0.2348 1.2879,-0.206 1.558,0.064 0.2701,0.2701 -0.21,0.4623 -1.0669,0.427 -0.947,-0.039 -1.1395,-0.2316 -0.4911,-0.4911 z"
         id="path253" />
      <path
         style="fill:#a7a7a6;stroke-width:0.81287"
         d="m 794.83492,1472.366 c 0.58679,-0.2349 1.2879,-0.206 1.55801,0.064 0.2701,0.2701 -0.21,0.4623 -1.0669,0.427 -0.94695,-0.039 -1.13956,-0.2317 -0.49111,-0.4912 z m 30.07621,0 c 0.58681,-0.2349 1.28791,-0.206 1.55803,0.064 0.27012,0.2701 -0.21005,0.4623 -1.06689,0.427 -0.947,-0.039 -1.13957,-0.2317 -0.49114,-0.4912 z m 582.01527,-0.8129 c 0.5868,-0.2348 1.2879,-0.206 1.558,0.064 0.2701,0.2701 -0.21,0.4623 -1.0669,0.427 -0.947,-0.039 -1.1395,-0.2317 -0.4911,-0.4911 z m 27.6376,0 c 0.5868,-0.2348 1.2879,-0.206 1.558,0.064 0.2701,0.2701 -0.21,0.4623 -1.0669,0.427 -0.947,-0.039 -1.1395,-0.2317 -0.4911,-0.4911 z m 754.3438,-0.8129 c 0.5868,-0.2348 1.2879,-0.206 1.558,0.064 0.2701,0.2702 -0.21,0.4623 -1.0669,0.427 -0.947,-0.039 -1.1395,-0.2316 -0.4911,-0.4911 z M 1002.6655,1316.4437 c 1e-4,-68.8502 0.096,-96.8959 0.2134,-62.3239 0.1174,34.5719 0.1174,90.9038 0,125.182 -0.1174,34.2782 -0.2134,5.992 -0.2134,-62.8581 z m 303.806,102.0152 c 0,-1.5648 0.1672,-2.2049 0.3717,-1.4225 0.2045,0.7824 0.2045,2.0626 0,2.845 -0.2045,0.7824 -0.3717,0.1423 -0.3717,-1.4225 z m -501.88213,-7.0582 c 0.58678,-0.2349 1.28789,-0.206 1.558,0.064 0.27011,0.2701 -0.21,0.4623 -1.06689,0.427 -0.94695,-0.039 -1.13956,-0.2317 -0.49111,-0.4911 z m 12.95512,0.017 c 0.55885,-0.2254 1.47333,-0.2254 2.03218,0 0.55885,0.2255 0.10161,0.4101 -1.01609,0.4101 -1.1177,0 -1.57494,-0.1846 -1.01609,-0.4101 z m 714.78051,-24.3218 c 0.039,-0.947 0.2317,-1.1396 0.4911,-0.4912 0.2349,0.5868 0.206,1.2879 -0.064,1.558 -0.2701,0.2702 -0.4623,-0.21 -0.427,-1.0668 z m -646.44858,-0.081 c 0.58681,-0.2349 1.28791,-0.206 1.55802,0.064 0.27012,0.2701 -0.21004,0.4623 -1.06689,0.427 -0.94699,-0.039 -1.13956,-0.2317 -0.49113,-0.4912 z m 5.69009,0 c 0.58681,-0.2349 1.28791,-0.206 1.55803,0.064 0.27011,0.2701 -0.21005,0.4623 -1.06689,0.427 -0.947,-0.039 -1.13957,-0.2317 -0.49114,-0.4912 z m 574.91599,-5.609 c 0.039,-0.947 0.2317,-1.1396 0.4911,-0.4911 0.2349,0.5868 0.206,1.2879 -0.064,1.558 -0.2701,0.2701 -0.4623,-0.2101 -0.427,-1.0669 z m -742.96359,-55.2752 c 0.039,-0.947 0.23162,-1.1396 0.4911,-0.4911 0.23482,0.5868 0.20594,1.2879 -0.0641,1.558 -0.27011,0.2701 -0.46223,-0.21 -0.42694,-1.0669 z m -69.678,-9.2803 c 0,-4.2472 0.137,-5.9848 0.30445,-3.8611 0.16745,2.1236 0.16745,5.5986 0,7.7222 -0.16745,2.1237 -0.30445,0.3862 -0.30445,-3.8611 z m 69.678,-11.0415 c 0.039,-0.9469 0.23162,-1.1395 0.4911,-0.4911 0.23482,0.5868 0.20594,1.2879 -0.0641,1.558 -0.27011,0.2702 -0.46223,-0.21 -0.42694,-1.0669 z m 582.01519,-42.2692 c 0.039,-0.947 0.2317,-1.1396 0.4912,-0.4912 0.2348,0.5869 0.206,1.288 -0.064,1.5581 -0.2702,0.2701 -0.4623,-0.2101 -0.427,-1.0669 z m -421.72522,-20.411 c 0.79092,-0.206 1.8883,-0.1925 2.43861,0.03 0.5504,0.2227 -0.0967,0.3913 -1.43797,0.3748 -1.34123,-0.016 -1.79148,-0.1988 -1.00064,-0.4049 z M 803.7765,1221.189 c 0.58678,-0.2348 1.28789,-0.206 1.558,0.064 0.27011,0.2701 -0.21,0.4623 -1.06689,0.427 -0.94695,-0.039 -1.13956,-0.2317 -0.49111,-0.4911 z m 14.63167,0 c 0.58681,-0.2348 1.28791,-0.206 1.55802,0.064 0.27012,0.2701 -0.21004,0.4623 -1.06689,0.427 -0.94699,-0.039 -1.13956,-0.2317 -0.49113,-0.4911 z m 692.84643,-14.0764 c 0,-1.1177 0.1845,-1.5749 0.41,-1.0161 0.2255,0.5589 0.2255,1.4733 0,2.0322 -0.2255,0.5588 -0.41,0.1016 -0.41,-1.0161 z m -280.4103,-12.5995 c 0.016,-1.3412 0.1988,-1.7915 0.4049,-1.0006 0.2061,0.7909 0.1926,1.8883 -0.03,2.4386 -0.2227,0.5504 -0.3913,-0.097 -0.3748,-1.438 z m -434.38364,-34.2894 c 0.58679,-0.2348 1.2879,-0.206 1.55801,0.064 0.27011,0.2701 -0.21,0.4623 -1.0669,0.427 -0.94695,-0.039 -1.13956,-0.2316 -0.49111,-0.4911 z m 31.70195,0 c 0.58681,-0.2348 1.28791,-0.206 1.55803,0.064 0.27012,0.2701 -0.21005,0.4623 -1.06689,0.427 -0.947,-0.039 -1.13957,-0.2316 -0.49114,-0.4911 z"
         id="path251" />
      <path
         style="fill:#b1d15e;stroke-width:0.81287"
         d="m 810.22866,1359.3586 c 1.00592,-0.1938 2.65199,-0.1938 3.65791,0 1.00593,0.1937 0.1829,0.3522 -1.82896,0.3522 -2.01185,0 -2.83488,-0.1585 -1.82895,-0.3522 z m -28.29101,-12.2291 -2.80129,-3.0482 3.04826,2.8013 c 1.67655,1.5407 3.04827,2.9124 3.04827,3.0482 0,0.6208 -0.68787,0.036 -3.29524,-2.8013 z m 70.82762,-23.4377 c 0.039,-0.947 0.23167,-1.1396 0.49114,-0.4911 0.23484,0.5868 0.20598,1.2879 -0.0642,1.558 -0.27011,0.2701 -0.46228,-0.2101 -0.427,-1.0669 z m -74.03535,-31.5347 c 0,-0.1688 0.64014,-0.8089 1.42253,-1.4226 1.28926,-1.011 1.31801,-0.9823 0.30691,0.307 -1.06191,1.354 -1.72944,1.7846 -1.72944,1.1156 z m 62.13347,-3.9607 -2.38748,-2.6418 2.64182,2.3875 c 1.45301,1.3131 2.64183,2.5019 2.64183,2.6418 0,0.628 -0.6707,0.075 -2.89617,-2.3875 z m -24.89384,-11.7322 c 0.58682,-0.2349 1.28792,-0.206 1.55803,0.064 0.27012,0.2701 -0.21004,0.4623 -1.06689,0.427 -0.94699,-0.039 -1.13956,-0.2317 -0.49114,-0.4911 z"
         id="path249" />
      <path
         style="fill:#9a9a99;stroke-width:0.81287"
         d="m 1079.8212,1845.0127 -1.5485,-1.829 1.829,1.5485 c 1.7187,1.4552 2.1989,2.1094 1.5485,2.1094 -0.1543,0 -0.9773,-0.823 -1.829,-1.8289 z m -38.6378,-39.4242 c -1.0111,-1.2893 -0.9824,-1.318 0.3069,-0.307 1.354,1.062 1.7847,1.7295 1.1156,1.7295 -0.1688,0 -0.8089,-0.6402 -1.4225,-1.4225 z m 86.6744,-55.4784 c 0.8092,-0.8942 1.6542,-1.6258 1.8777,-1.6258 0.2236,0 -0.2556,0.7316 -1.0648,1.6258 -0.8092,0.8941 -1.6542,1.6257 -1.8778,1.6257 -0.2235,0 0.2557,-0.7316 1.0649,-1.6257 z m -38.7151,-7.1127 c -1.011,-1.2893 -0.9823,-1.318 0.307,-0.3069 0.7824,0.6136 1.4225,1.2538 1.4225,1.4225 0,0.6691 -0.6675,0.2384 -1.7295,-1.1156 z m 290.1948,-13.0059 c -1.0111,-1.2893 -0.9824,-1.318 0.3069,-0.3069 1.354,1.0619 1.7847,1.7294 1.1156,1.7294 -0.1687,0 -0.8089,-0.6401 -1.4225,-1.4225 z m -299.4391,-27.0279 c 0.8093,-0.8942 1.6542,-1.6258 1.8778,-1.6258 0.2235,0 -0.2557,0.7316 -1.0649,1.6258 -0.8092,0.8941 -1.6542,1.6257 -1.8777,1.6257 -0.2236,0 0.2556,-0.7316 1.0648,-1.6257 z m -24.7925,-46.6406 c 0,-0.1687 0.6401,-0.8089 1.4225,-1.4225 1.2893,-1.0111 1.318,-0.9824 0.307,0.3069 -1.062,1.354 -1.7295,1.7847 -1.7295,1.1156 z m 326.7739,0 c 0,-0.1687 0.6402,-0.8089 1.4225,-1.4225 1.2893,-1.0111 1.318,-0.9824 0.307,0.3069 -1.0619,1.354 -1.7295,1.7847 -1.7295,1.1156 z m 100.3895,-2.1317 c 0.8092,-0.8941 1.6542,-1.6257 1.8778,-1.6257 0.2235,0 -0.2557,0.7316 -1.0649,1.6257 -0.8092,0.8942 -1.6542,1.6258 -1.8777,1.6258 -0.2236,0 0.2556,-0.7316 1.0648,-1.6258 z m -109.3311,-5.1841 c 0,-0.1688 0.6402,-0.8089 1.4226,-1.4225 1.2893,-1.0111 1.318,-0.9824 0.3069,0.3069 -1.0619,1.354 -1.7295,1.7847 -1.7295,1.1156 z m -365.7917,-39.8307 c 0,-0.1687 0.6402,-0.8089 1.4226,-1.4225 1.2892,-1.011 1.3179,-0.9824 0.3069,0.3069 -1.0619,1.354 -1.7295,1.7847 -1.7295,1.1156 z m 986.0119,-3.2515 c 0,-0.1687 0.6402,-0.8088 1.4226,-1.4225 1.2892,-1.011 1.3179,-0.9823 0.3069,0.307 -1.0619,1.354 -1.7295,1.7846 -1.7295,1.1155 z m -105.7347,-144.9936 -1.9706,-2.2354 2.2354,1.9706 c 1.2295,1.0839 2.2354,2.0899 2.2354,2.2354 0,0.6376 -0.6583,0.1187 -2.5002,-1.9706 z m -876.6965,-2.0322 -1.5485,-1.8289 1.829,1.5485 c 1.7187,1.4552 2.1989,2.1094 1.5485,2.1094 -0.1543,0 -0.9773,-0.8231 -1.829,-1.829 z m -256.48708,-68.6875 c -1.0111,-1.2893 -0.98235,-1.318 0.30691,-0.307 1.35404,1.062 1.78464,1.7295 1.11561,1.7295 -0.16879,0 -0.80892,-0.6401 -1.42252,-1.4225 z m 571.50788,-80.4742 -2.8013,-3.0483 3.0483,2.8013 c 2.8372,2.6074 3.422,3.2953 2.8013,3.2953 -0.1358,0 -1.5076,-1.3718 -3.0483,-3.0483 z m 51.5838,-45.9272 -1.5485,-1.8289 1.829,1.5485 c 1.7187,1.4552 2.1989,2.1094 1.5485,2.1094 -0.1543,0 -0.9773,-0.8231 -1.829,-1.829 z m -155.181,-48.569 c 0.8092,-0.8942 1.6542,-1.6257 1.8777,-1.6257 0.2235,0 -0.2556,0.7315 -1.0649,1.6257 -0.8092,0.8942 -1.6541,1.6257 -1.8777,1.6257 -0.2235,0 0.2557,-0.7315 1.0649,-1.6257 z M 698.66218,1204.674 c 1.74624,-1.7883 3.35789,-3.2515 3.58143,-3.2515 0.22354,0 -1.02232,1.4632 -2.76856,3.2515 -1.74624,1.7883 -3.35788,3.2515 -3.58142,3.2515 -0.22354,0 1.02231,-1.4632 2.76855,-3.2515 z m 803.41872,-19.3057 c -1.011,-1.2893 -0.9823,-1.318 0.307,-0.3069 1.354,1.0619 1.7846,1.7294 1.1156,1.7294 -0.1688,0 -0.8089,-0.6401 -1.4226,-1.4225 z m -491.2765,-11.5834 c 0.8093,-0.8941 1.6542,-1.6257 1.8778,-1.6257 0.2235,0 -0.2557,0.7316 -1.0649,1.6257 -0.8092,0.8942 -1.6542,1.6258 -1.8777,1.6258 -0.2236,0 0.2556,-0.7316 1.0648,-1.6258 z m 211.2692,-0.2032 -1.5486,-1.829 1.829,1.5486 c 1.7187,1.4552 2.199,2.1094 1.5485,2.1094 -0.1543,0 -0.9773,-0.8231 -1.8289,-1.829 z m 804.4125,-2.5423 c 0,-0.1688 0.6402,-0.8089 1.4225,-1.4226 1.2893,-1.011 1.318,-0.9823 0.307,0.307 -1.062,1.354 -1.7295,1.7846 -1.7295,1.1156 z"
         id="path247" />
      <path
         style="fill:#f6a500;stroke-width:0.81287"
         d="m 1136.3929,1354.702 c -28.1723,-7.8601 -39.8899,-41.7726 -22.4419,-64.9507 17.3239,-23.0134 52.5456,-21.8547 68.1194,2.2409 7.9492,12.299 8.5986,28.649 1.6803,42.3106 -4.6185,9.1202 -15.4059,17.6 -25.8505,20.3204 -5.6571,1.4735 -16.3676,1.5127 -21.5073,0.079 z"
         id="path245" />
      <path
         style="fill:#868685;stroke-width:0.81287"
         d="m 790.92298,1472.0802 c -73.36074,-8.9143 -127.20312,-62.8328 -135.81981,-136.0116 -1.2359,-10.4961 -0.5297,-38.4318 1.20486,-47.6616 6.13897,-32.6662 19.40962,-59.1557 40.66441,-81.17 23.67829,-24.5244 52.01263,-39.1627 87.85401,-45.3875 11.64765,-2.023 44.25674,-2.0238 57.30737,0 23.16836,3.5902 44.01027,11.0017 58.85126,20.928 6.87412,4.5976 10.08699,8.2507 13.29961,15.1219 1.95089,4.1724 2.21857,5.7249 2.22239,12.8896 0.008,7.5756 -0.18322,8.5268 -2.67556,13.5895 -5.41778,11.0051 -15.22523,17.6531 -27.05233,18.3378 -8.50856,0.4926 -13.05616,-0.7722 -22.01562,-6.123 -19.27357,-11.5107 -38.35164,-16.5478 -58.32299,-15.3988 -40.60643,2.336 -72.97002,32.1076 -81.45229,74.9288 -1.83622,9.2699 -1.44195,33.9685 0.68896,43.1576 8.5992,37.0825 33.90195,63.5359 67.69711,70.7757 9.24395,1.9803 28.40332,1.9767 38.44576,-0.01 12.39855,-2.4493 23.95082,-7.2916 36.36425,-15.2426 3.37439,-2.1613 7.54547,-4.519 9.26908,-5.2392 15.16239,-6.3352 32.54587,0.5453 39.72506,15.7235 2.30238,4.8676 2.57542,6.2247 2.56762,12.7626 -0.008,6.206 -0.33702,8.0203 -2.17248,11.9595 -3.27278,7.0238 -5.98874,9.9485 -14.88098,16.0247 -19.66886,13.4402 -39.37292,21.1613 -63.40389,24.8451 -10.42523,1.5982 -39.20734,2.3114 -48.3658,1.1985 z m 612.47132,-0.8276 c -26.6557,-2.5894 -51.4123,-10.202 -75.9652,-23.3591 -14.2724,-7.6482 -19.5714,-14.9351 -20.174,-27.7432 -0.2622,-5.5712 0.01,-7.932 1.3486,-11.7294 4.3389,-12.3015 15.4687,-20.2342 28.5682,-20.3619 7.3353,-0.072 11.8998,1.3828 20.3218,6.4744 13.3792,8.0884 29.057,14.2513 43.6138,17.1441 10.2143,2.0299 32.7673,2.0489 40.1119,0.033 7.9777,-2.1889 13.3354,-4.9281 17.7907,-9.0954 5.7677,-5.395 7.6978,-9.8435 7.7624,-17.891 0.067,-8.4193 -1.6438,-12.9281 -6.7043,-17.6615 -8.8867,-8.3125 -22.7613,-13.6759 -61.485,-23.7683 -66.7145,-17.3873 -90.4921,-39.1621 -92.8615,-85.04 -1.9452,-37.6649 15.5119,-68.1955 48.5205,-84.8568 8.902,-4.4934 19.4771,-8.0122 31.0293,-10.3251 7.8331,-1.5682 11.8171,-1.8462 26.6845,-1.8615 29.0161,-0.03 48.783,4.0154 75.5403,15.4595 11.4553,4.8995 17.2555,9.7955 20.8654,17.6128 2.1046,4.5575 2.3581,5.9804 2.3581,13.2352 0,7.3363 -0.2313,8.5998 -2.3729,12.9616 -4.7369,9.6475 -14.6899,16.4706 -25.264,17.3194 -6.7499,0.5418 -10.7573,-0.521 -23.5739,-6.2523 -20.829,-9.3142 -36.0374,-12.803 -52.3671,-12.0132 -14.569,0.7048 -23.4488,4.1499 -30.0626,11.6636 -7.0575,8.0176 -7.6568,20.9107 -1.4109,30.349 4.6456,7.0199 18.1647,13.3232 43.693,20.3716 8.2217,2.2699 20.2526,5.6077 26.7352,7.4173 31.5656,8.8111 51.7722,18.974 65.8907,33.1396 14.7165,14.7655 20.5829,30.3986 20.6138,54.9333 0.017,13.1787 -1.0063,20.7246 -4.1873,30.8891 -11.1792,35.7207 -43.159,58.1893 -89.6056,62.9557 -9.3312,0.9575 -25.5499,0.957 -35.4139,0 z m 219.2299,-1.1759 c -10.005,-2.2262 -17.9829,-8.607 -22.7043,-18.1591 -2.8654,-5.7972 -3.0358,-6.5781 -3.0358,-13.907 0,-9.3781 0.8356,-11.82 8.4007,-24.5473 3.0173,-5.0763 35.0999,-60.7599 71.2946,-123.7414 45.382,-78.9681 66.9937,-115.826 69.6269,-118.7462 12.9583,-14.3707 36.1829,-14.4432 49.1466,-0.1532 2.8128,3.1004 23.0599,37.6028 70.9524,120.907 36.859,64.1127 69.012,119.822 71.451,123.7983 7.5106,12.2446 9.2492,22.0062 5.7626,32.3559 -8.0296,23.8358 -37.9849,30.8169 -55.5405,12.9437 -3.1341,-3.1909 -15.9137,-24.7893 -60.2659,-101.8543 -30.9586,-53.7925 -56.5322,-97.8046 -56.8301,-97.8046 -0.298,0 -25.7972,43.88 -56.6651,97.5112 -30.8679,53.6311 -57.1462,98.752 -58.3963,100.2686 -7.5582,9.1695 -21.2989,13.7757 -33.1968,11.1284 z m 564.4805,0.3596 c -5.8198,-0.9749 -13.7933,-5.206 -18.1871,-9.6511 -2.9742,-3.009 -16.5281,-25.9561 -60.274,-102.0462 -47.9879,-83.4684 -56.5847,-97.9622 -57.4237,-96.8147 -0.5428,0.7422 -17.716,30.428 -38.1627,65.9682 -20.4467,35.5403 -37.2615,64.5129 -37.3663,64.3834 -1.1699,-1.4456 -38.0735,-66.2929 -38.0664,-66.8907 0.01,-0.447 19.48,-34.6486 43.2773,-76.0033 32.332,-56.1865 44.2281,-76.1782 47.0678,-79.0982 2.2491,-2.3127 6.2715,-5.1329 9.8545,-6.9094 5.7743,-2.8629 6.4344,-3.0018 14.2674,-3.0018 7.8583,0 8.4806,0.1322 14.4066,3.0611 4.2943,2.1223 7.3639,4.3657 10.0099,7.3158 2.602,2.901 26.0839,42.9218 73.7998,125.7789 38.4908,66.8383 71.2007,123.9053 72.6885,126.8156 9.6171,18.813 -1.9613,42.2683 -23.0732,46.7413 -6.1412,1.3012 -7.0056,1.3248 -12.8184,0.3511 z m -1161.7633,-3.5399 c -8.8623,-2.1508 -17.474,-9.6969 -20.5996,-18.0509 -1.6746,-4.4757 -1.6786,-4.8481 -1.4662,-133.4747 l 0.213,-128.9864 1.7835,-3.8618 c 2.6608,-5.7611 9.1649,-12.1922 15.106,-14.9365 l 5.058,-2.3363 h 91.4479 91.448 l 5.058,2.3363 c 5.9411,2.7443 12.4452,9.1754 15.106,14.9365 2.5572,5.537 2.5717,18.4136 0.027,23.92 -2.2109,4.7839 -7.6399,10.7208 -12.3021,13.453 -7.2399,4.2428 -7.578,4.2609 -80.0311,4.2746 l -67.2649,0.013 v 92.2608 92.2608 l 68.8908,0.01 c 74.371,0.011 73.481,-0.037 80.9599,4.3455 4.6998,2.7543 9.192,7.8668 11.8006,13.4305 1.8183,3.8777 2.1421,5.6768 2.1421,11.9012 0,6.6472 -0.2499,7.8405 -2.6717,12.7599 -4.2205,8.573 -11.749,14.2671 -21.2441,16.0678 -6.7631,1.2826 -178.0879,0.9813 -183.4609,-0.3226 z"
         id="path243" />
      <path
         style="fill:#7f7f7f;stroke-width:0.81287"
         d="m 1102.0492,1854.3967 c 1.0059,-0.1938 2.652,-0.1938 3.6579,0 1.0059,0.1937 0.1829,0.3522 -1.829,0.3522 -2.0118,0 -2.8349,-0.1585 -1.8289,-0.3522 z m 228.1769,-32.7541 c 0,-17.6596 0.1074,-24.8839 0.2387,-16.0541 0.1312,8.8298 0.1312,23.2785 0,32.1083 -0.1313,8.8298 -0.2387,1.6055 -0.2387,-16.0542 z m 11.331,20.7282 c 0,-6.2591 0.1288,-8.7121 0.2835,-5.4512 0.1547,3.2608 0.1536,8.3819 0,11.3802 -0.156,2.9982 -0.2826,0.3301 -0.2813,-5.929 z m -238.2886,1.4719 c 0.7824,-0.2045 2.0626,-0.2045 2.845,0 0.7824,0.2044 0.1423,0.3717 -1.4225,0.3717 -1.5648,0 -2.2049,-0.1673 -1.4225,-0.3717 z m -86.1398,-0.8511 c 2.1372,-0.1679 5.4293,-0.166 7.3159,0.01 1.8866,0.1704 0.138,0.3079 -3.8857,0.3054 -4.0237,0 -5.5673,-0.142 -3.4302,-0.31 z m 324.426,-32.7291 c 0,-6.0356 0.1279,-8.5047 0.2844,-5.4869 0.1564,3.0178 0.1564,7.956 0,10.9737 -0.1565,3.0178 -0.2844,0.5487 -0.2844,-5.4868 z m -332.5393,-51.8167 c 3.9339,-0.1493 10.1523,-0.1486 13.8188,0 3.6665,0.1503 0.4478,0.2725 -7.1525,0.2715 -7.6004,0 -10.6002,-0.1239 -6.6663,-0.2732 z m 166.9868,0.02 c 1.4431,-0.1796 4.0036,-0.1826 5.6901,-0.01 1.6866,0.176 0.5059,0.3228 -2.6237,0.3265 -3.1295,0 -4.5094,-0.1404 -3.0664,-0.3199 z m 54.8869,-0.01 c 1.6766,-0.1754 4.42,-0.1754 6.0966,0 1.6765,0.1754 0.3048,0.3189 -3.0483,0.3189 -3.3531,0 -4.7248,-0.1435 -3.0483,-0.3189 z m 22.7604,0 c 1.6766,-0.1754 4.42,-0.1754 6.0965,0 1.6766,0.1754 0.3049,0.3189 -3.0482,0.3189 -3.3531,0 -4.7248,-0.1435 -3.0483,-0.3189 z m 48.9504,-0.3992 c -0.225,-0.5865 -0.3051,-10.7541 -0.1779,-22.5947 l 0.2312,-21.5283 0.189,22.1508 0.1892,22.1507 h 5.2836 5.2837 v -31.6664 -31.6663 l -5.4869,-0.2922 -5.4868,-0.2921 5.69,0.054 5.6901,0.054 v 32.1084 32.1084 l -5.498,0.2406 c -3.9652,0.1735 -5.6121,-0.057 -5.9072,-0.8256 z m 27.6273,-0.027 c -0.2149,-0.56 -0.2949,-15.1002 -0.1777,-32.3116 l 0.213,-31.2932 15.6485,-0.027 15.6483,-0.027 -15.4451,0.2477 -15.4452,0.2479 v 31.6675 31.6676 l 16.4606,0.2378 16.4606,0.2379 -16.4861,0.1854 c -12.5976,0.1417 -16.5783,-0.054 -16.8769,-0.8329 z m 66.6698,0.037 c -0.2229,-0.5806 -0.3093,-15.1376 -0.1921,-32.349 l 0.213,-31.2932 h 5.6901 5.6901 v 32.1084 32.1084 l -5.498,0.2406 c -3.9392,0.1724 -5.6129,-0.059 -5.9031,-0.8152 z m 10.9947,-31.5317 v -31.7019 h -5.2837 -5.2836 v 31.7019 31.702 h 5.2836 5.2837 z m 17.4461,31.5088 c -0.2176,-0.5669 -0.2997,-15.1126 -0.1825,-32.3239 l 0.2131,-31.2933 23.9797,-0.019 23.9797,-0.019 -23.7765,0.2346 -23.7765,0.2345 v 31.6897 31.6897 h 23.5345 23.5345 l 0.3105,-5.0805 0.3106,-5.0804 -0.068,5.2837 -0.068,5.2836 -23.7972,0.2155 c -18.6262,0.1688 -23.8832,-0.01 -24.1928,-0.8151 z m 63.6196,0.4194 c 1.443,-0.1796 4.0035,-0.1826 5.6901,-0.01 1.6865,0.176 0.5058,0.3229 -2.6237,0.3266 -3.1296,0 -4.5094,-0.1404 -3.0664,-0.32 z m 46.3663,0 c 1.461,-0.181 3.6558,-0.1772 4.8772,0.01 1.2215,0.1854 0.026,0.3334 -2.6564,0.3289 -2.6824,-0.01 -3.6818,-0.1563 -2.2208,-0.3372 z m 41.8483,0 c 1.6765,-0.1754 4.4199,-0.1754 6.0965,0 1.6765,0.1754 0.3048,0.3189 -3.0483,0.3189 -3.3531,0 -4.7248,-0.1435 -3.0482,-0.3189 z m 40.8113,-0.4262 c -0.2149,-0.5601 -0.2949,-15.1003 -0.1777,-32.3116 l 0.2131,-31.2932 23.9797,-0.019 23.9797,-0.019 -23.7765,0.2346 -23.7765,0.2345 v 31.6774 31.6774 l 23.7765,0.2282 23.7765,0.2283 -23.802,0.1904 c -18.4619,0.1477 -23.8896,-0.038 -24.1928,-0.8279 z m 100.6281,0.4104 c 6.5944,-0.1366 17.3853,-0.1366 23.9797,0 6.5944,0.1367 1.199,0.2485 -11.9898,0.2485 -13.1889,0 -18.5843,-0.1118 -11.9899,-0.2485 z m -377.071,-18.5 c 0,-4.9179 0.1357,-6.825 0.2975,-4.2379 0.1618,2.587 0.1603,6.6107 0,8.9415 -0.1636,2.3309 -0.296,0.2142 -0.2942,-4.7036 z m 95.1025,-0.4065 c 0,-4.6943 0.1343,-6.6147 0.2985,-4.2675 0.1642,2.3471 0.1642,6.1879 0,8.5351 -0.1642,2.3472 -0.2985,0.4268 -0.2985,-4.2676 z m 192.6503,0 c 0,-4.6943 0.1343,-6.6147 0.2985,-4.2675 0.1642,2.3471 0.1642,6.1879 0,8.5351 -0.1642,2.3472 -0.2985,0.4268 -0.2985,-4.2676 z m -430.5125,3.4587 c 4.1355,-0.1475 10.9027,-0.1475 15.0382,0 4.1354,0.1476 0.7519,0.2683 -7.5191,0.2683 -8.271,0 -11.6545,-0.1207 -7.5191,-0.2683 z m 142.7564,-30.2834 c 0,-4.6943 0.1342,-6.6147 0.2984,-4.2676 0.1642,2.3472 0.1642,6.188 0,8.5352 -0.1642,2.3471 -0.2984,0.4267 -0.2984,-4.2676 z m 95.1019,0.4064 c 0,-4.4707 0.1387,-6.196 0.3034,-3.8339 0.1647,2.3622 0.163,6.0202 0,8.1287 -0.1669,2.1087 -0.3017,0.176 -0.2996,-4.2948 z m 192.6503,0 c 0,-4.4707 0.1387,-6.196 0.3034,-3.8339 0.1647,2.3622 0.163,6.0202 0,8.1287 -0.1669,2.1087 -0.3017,0.176 -0.2996,-4.2948 z m -69.9667,-8.3258 c 3.0364,-0.1568 7.7917,-0.1556 10.5673,0 2.7757,0.1583 0.2914,0.2866 -5.5207,0.2852 -5.812,0 -8.083,-0.131 -5.0466,-0.2878 z m 32.0746,0 c 2.7942,-0.1587 7.3666,-0.1587 10.1609,0 2.7942,0.1588 0.508,0.2886 -5.0805,0.2886 -5.5885,0 -7.8746,-0.1298 -5.0804,-0.2886 z m -334.293,-9.9637 -6.503,-0.5147 6.2518,-0.1491 c 3.4622,-0.083 6.4759,0.2136 6.7542,0.6638 0.2763,0.447 0.3893,0.7458 0.2511,0.6638 -0.1381,-0.082 -3.1775,-0.3807 -6.7541,-0.6638 z m -248.5351,-0.6048 c 3.6884,-0.1506 9.7239,-0.1506 13.4123,0 3.6884,0.1506 0.6706,0.2738 -6.7062,0.2738 -7.3768,0 -10.3945,-0.1232 -6.7061,-0.2738 z m 480.3883,0.018 c 1.443,-0.1796 4.0035,-0.1826 5.6901,-0.01 1.6865,0.176 0.5058,0.3229 -2.6237,0.3266 -3.1296,0 -4.5094,-0.1404 -3.0664,-0.32 z m 44.7079,0 c 1.443,-0.1796 4.0035,-0.1826 5.6901,-0.01 1.6865,0.176 0.5058,0.3229 -2.6237,0.3266 -3.1296,0 -4.5094,-0.1404 -3.0664,-0.32 z m 33.3458,-0.021 c 7.265,-0.1347 19.1532,-0.1347 26.4183,0 7.265,0.1347 1.3209,0.245 -13.2092,0.245 -14.53,0 -20.4742,-0.1103 -13.2091,-0.245 z m 151.6003,3e-4 c 6.5944,-0.1366 17.3853,-0.1366 23.9797,0 6.5944,0.1366 1.199,0.2485 -11.9898,0.2485 -13.1889,0 -18.5843,-0.1119 -11.9899,-0.2485 z m -488.3745,-57.5125 c -3e-4,-14.7536 0.1095,-20.9038 0.2441,-13.6672 0.1346,7.2367 0.1348,19.3078 6e-4,26.8248 -0.1343,7.5169 -0.2445,1.596 -0.2447,-13.1576 z m 203.2238,-5.2836 c 0,-17.6596 0.1074,-24.884 0.2386,-16.0542 0.1312,8.8298 0.1312,23.2786 0,32.1084 -0.1312,8.8298 -0.2386,1.6054 -0.2386,-16.0542 z m 71.5326,0 c 0,-17.6596 0.1074,-24.884 0.2386,-16.0542 0.1312,8.8298 0.1312,23.2786 0,32.1084 -0.1312,8.8298 -0.2386,1.6054 -0.2386,-16.0542 z m 224.3461,5.2836 c -4e-4,-14.7536 0.1095,-20.9038 0.2441,-13.6672 0.1346,7.2367 0.1348,19.3078 5e-4,26.8248 -0.1342,7.5169 -0.2444,1.596 -0.2446,-13.1576 z m 11.3801,0 c -3e-4,-14.7536 0.1095,-20.9038 0.2442,-13.6672 0.1346,7.2367 0.1348,19.3078 5e-4,26.8248 -0.1343,7.5169 -0.2444,1.596 -0.2447,-13.1576 z m -63.9709,17.7512 c 0.5588,-0.2254 1.4733,-0.2254 2.0322,0 0.5588,0.2255 0.1016,0.4101 -1.0161,0.4101 -1.1177,0 -1.575,-0.1846 -1.0161,-0.4101 z m 336.1374,-0.025 c 0.7909,-0.206 1.8883,-0.1925 2.4386,0.03 0.5504,0.2227 -0.097,0.3913 -1.438,0.3748 -1.3412,-0.016 -1.7915,-0.1988 -1.0006,-0.4049 z m -568.0294,-22.6034 0.02,-21.9475 6.9094,-0.056 6.9094,-0.056 -6.693,0.2916 -6.693,0.2918 -0.2371,21.7116 -0.2371,21.7116 0.02,-21.9475 z m 71.4476,13.4123 c 0,-4.6943 0.1343,-6.6147 0.2985,-4.2675 0.1642,2.3471 0.1642,6.1879 0,8.5351 -0.1642,2.3472 -0.2985,0.4267 -0.2985,-4.2676 z m -239.0569,-3.85 c 2.1371,-0.1679 5.4292,-0.166 7.3158,0.01 1.8866,0.1704 0.1381,0.3079 -3.8857,0.3053 -4.0237,0 -5.5672,-0.1419 -3.4301,-0.3099 z m 622.6525,-9.9685 c 0,-2.0119 0.1585,-2.8349 0.3522,-1.829 0.1938,1.0059 0.1938,2.652 0,3.6579 -0.1937,1.006 -0.3522,0.1829 -0.3522,-1.8289 z m 22.7275,0 c 0,-1.5648 0.1673,-2.2049 0.3717,-1.4226 0.2045,0.7824 0.2045,2.0627 0,2.8451 -0.2044,0.7824 -0.3717,0.1422 -0.3717,-1.4225 z m -542.3091,0.3387 c 0.039,-0.947 0.2317,-1.1396 0.4912,-0.4911 0.2348,0.5868 0.2059,1.2879 -0.064,1.558 -0.2701,0.2701 -0.4622,-0.2101 -0.427,-1.0669 z m 529.9916,0 c 0.039,-0.947 0.2316,-1.1396 0.4911,-0.4911 0.2349,0.5868 0.206,1.2879 -0.064,1.558 -0.2701,0.2701 -0.4623,-0.2101 -0.427,-1.0669 z m -821.2233,-5.8228 c 4.6064,-0.1451 11.9222,-0.1445 16.2574,0 4.3352,0.1459 0.5664,0.2647 -8.3752,0.264 -8.9416,-8e-4 -12.4886,-0.1201 -7.8822,-0.2653 z m 427.2642,-0.4735 c -0.228,-0.5943 -0.308,-4.3437 -0.1777,-8.332 l 0.2369,-7.2515 17.8831,-0.024 17.8832,-0.024 -17.6799,0.242 -17.68,0.2422 v 7.6895 7.6895 l 16.0542,0.2386 16.0542,0.2386 -16.0797,0.185 c -12.7557,0.1468 -16.1654,-0.038 -16.4943,-0.8953 z m 97.0372,0.4735 c 4.6064,-0.1451 11.9222,-0.1445 16.2575,0 4.3352,0.1459 0.5664,0.2647 -8.3752,0.264 -8.9416,-8e-4 -12.4886,-0.1201 -7.8823,-0.2653 z m -298.848,-5.8961 c 0,-1.1177 0.1845,-1.575 0.41,-1.0161 0.2255,0.5588 0.2255,1.4733 0,2.0322 -0.2255,0.5588 -0.41,0.1016 -0.41,-1.0161 z m 674.6825,-2.4386 c 0,-1.1177 0.1846,-1.575 0.41,-1.0161 0.2255,0.5588 0.2255,1.4733 0,2.0322 -0.2254,0.5588 -0.41,0.1016 -0.41,-1.0161 z m -899.3663,-7.9227 c 5.0296,-0.1426 13.26,-0.1426 18.2896,0 5.0296,0.1426 0.9145,0.2593 -9.1448,0.2593 -10.0593,0 -14.1744,-0.1167 -9.1448,-0.2593 z m 160.6054,-4.6768 c 0,-3.1296 0.1506,-4.3103 0.3265,-2.6237 0.176,1.6865 0.173,4.2471 -0.01,5.6901 -0.1796,1.443 -0.3235,0.063 -0.3199,-3.0664 z m 27.1677,4.6844 c 2.3471,-0.1642 6.188,-0.1642 8.5351,0 2.3472,0.1642 0.4268,0.2985 -4.2675,0.2985 -4.6944,0 -6.6148,-0.1343 -4.2676,-0.2985 z m 336.5284,-0.01 c 5.0296,-0.1427 13.2599,-0.1427 18.2896,0 5.0296,0.1425 0.9144,0.2593 -9.1448,0.2593 -10.0593,0 -14.1745,-0.1168 -9.1448,-0.2593 z m 94.7629,-4.6769 c 0,-3.1295 0.1505,-4.3102 0.3265,-2.6237 0.176,1.6866 0.173,4.2471 -0.01,5.6901 -0.1796,1.443 -0.3236,0.063 -0.32,-3.0664 z m 52.0237,0 c 0,-3.1295 0.1505,-4.3102 0.3265,-2.6237 0.176,1.6866 0.173,4.2471 -0.01,5.6901 -0.1796,1.443 -0.3235,0.063 -0.32,-3.0664 z m 95.4488,4.6885 c 1.9001,-0.1711 5.0093,-0.1711 6.9094,0 1.9001,0.1711 0.3454,0.3112 -3.4547,0.3112 -3.8002,0 -5.3548,-0.1401 -3.4547,-0.3112 z m -825.0636,-0.7561 c 0.5589,-0.2255 1.4734,-0.2255 2.0322,0 0.5589,0.2255 0.1016,0.41 -1.0161,0.41 -1.1177,0 -1.5749,-0.1845 -1.0161,-0.41 z m 326.774,0 c 0.5588,-0.2255 1.4733,-0.2255 2.0321,0 0.5589,0.2255 0.1016,0.41 -1.016,0.41 -1.1177,0 -1.575,-0.1845 -1.0161,-0.41 z m 584.8757,-0.025 c 0.7909,-0.206 1.8883,-0.1925 2.4386,0.03 0.5504,0.2227 -0.097,0.3912 -1.4379,0.3747 -1.3413,-0.016 -1.7915,-0.1987 -1.0007,-0.4048 z m -912.0561,-10.5635 c 0.7824,-0.2045 2.0627,-0.2045 2.845,0 0.7824,0.2045 0.1423,0.3718 -1.4225,0.3718 -1.5648,0 -2.2049,-0.1673 -1.4225,-0.3718 z m 326.7739,0 c 0.7824,-0.2045 2.0627,-0.2045 2.8451,0 0.7824,0.2045 0.1422,0.3718 -1.4225,0.3718 -1.5648,0 -2.205,-0.1673 -1.4226,-0.3718 z m 585.2668,0 c 0.7824,-0.2045 2.0626,-0.2045 2.845,0 0.7824,0.2045 0.1423,0.3718 -1.4225,0.3718 -1.5648,0 -2.2049,-0.1673 -1.4225,-0.3718 z"
         id="path241" />
      <path
         style="fill:#93c01e;stroke-width:0.81287"
         d="m 799.81987,1357.5869 c -7.31465,-2.3408 -12.75779,-5.7652 -17.89779,-11.2598 -7.88244,-8.4263 -11.32086,-17.1394 -11.32086,-28.6874 0,-28.143 27.78617,-47.8877 54.72951,-38.8905 11.81166,3.9443 21.69015,13.7167 25.72744,25.4513 7.75104,22.5287 -5.45071,47.7851 -28.05525,53.6728 -6.43688,1.6766 -17.47504,1.5402 -23.18305,-0.2864 z"
         id="path239" />
      <path
         style="fill:#595959;stroke-width:0.81287"
         d="m 1118.9162,1837.9001 c 0.8092,-0.8942 1.6542,-1.6258 1.8778,-1.6258 0.2235,0 -0.2557,0.7316 -1.0649,1.6258 -0.8092,0.8941 -1.6542,1.6257 -1.8777,1.6257 -0.2236,0 0.2556,-0.7316 1.0648,-1.6257 z m 257.2735,-13.3129 c 0,-0.1688 0.6402,-0.8089 1.4226,-1.4225 1.2892,-1.0111 1.3179,-0.9824 0.3069,0.3069 -1.0619,1.354 -1.7295,1.7847 -1.7295,1.1156 z m -335.0063,-114.1046 c -1.0111,-1.2893 -0.9824,-1.318 0.3069,-0.3069 0.7824,0.6136 1.4225,1.2537 1.4225,1.4225 0,0.6691 -0.6675,0.2384 -1.7294,-1.1156 z m 86.5972,-7.7223 -1.5485,-1.8289 1.8289,1.5485 c 1.7187,1.4552 2.199,2.1094 1.5485,2.1094 -0.1542,0 -0.9773,-0.823 -1.8289,-1.829 z m 792.158,-47.5529 -1.9707,-2.2354 2.2354,1.9707 c 2.0893,1.8419 2.6082,2.5001 1.9706,2.5001 -0.1455,0 -1.1515,-1.0059 -2.2353,-2.2354 z m -585.309,0 c -1.011,-1.2893 -0.9823,-1.318 0.307,-0.3069 1.354,1.0619 1.7846,1.7295 1.1155,1.7295 -0.1687,0 -0.8088,-0.6402 -1.4225,-1.4226 z m 9.3745,-6.9094 -1.5485,-1.8289 1.829,1.5485 c 1.0059,0.8516 1.8289,1.6747 1.8289,1.8289 0,0.6505 -0.6542,0.1703 -2.1094,-1.5485 z m 537.3074,-32.5148 -1.5485,-1.8289 1.829,1.5485 c 1.7187,1.4552 2.1989,2.1094 1.5485,2.1094 -0.1543,0 -0.9773,-0.8231 -1.829,-1.829 z m -864.0041,-0.6096 c 0.8092,-0.8942 1.6542,-1.6258 1.8777,-1.6258 0.2236,0 -0.2556,0.7316 -1.0648,1.6258 -0.8092,0.8941 -1.6542,1.6257 -1.8777,1.6257 -0.2236,0 0.2556,-0.7316 1.0648,-1.6257 z m 902.2863,-6.503 c 0.8092,-0.8942 1.6541,-1.6257 1.8777,-1.6257 0.2235,0 -0.2557,0.7315 -1.0649,1.6257 -0.8092,0.8942 -1.6542,1.6257 -1.8777,1.6257 -0.2235,0 0.2556,-0.7315 1.0649,-1.6257 z m -863.2162,-0.5746 c -0.4412,-1.1585 -0.3478,-1.2518 0.455,-0.4551 0.5555,0.5515 0.8053,1.2074 0.555,1.4577 -0.2502,0.2502 -0.7048,-0.201 -1.01,-1.0026 z m 277.543,1.0805 c 0,-0.1687 0.6401,-0.8089 1.4225,-1.4225 1.2893,-1.011 1.318,-0.9824 0.3069,0.3069 -1.0619,1.354 -1.7294,1.7847 -1.7294,1.1156 z"
         id="path237" />
      <path
         style="fill:#3f3f3f;stroke-width:0.81287"
         d="m 1241.4465,1821.8815 -0.1933,-31.8696 -5.8933,-0.2805 -5.8933,-0.2805 5.9188,-0.1616 c 4.1176,-0.1123 6.0378,0.1484 6.3096,0.8569 0.2149,0.5601 0.2905,15.1003 0.1678,32.3116 l -0.223,31.2932 z m -228.2541,-0.6453 c -4e-4,-12.0711 0.1127,-17.1226 0.2514,-11.2256 0.1387,5.8971 0.139,15.7735 9e-4,21.9475 -0.1383,6.1741 -0.2518,1.3492 -0.2523,-10.7219 z m 331.905,9.5657 c 1.9001,-0.1711 5.0093,-0.1711 6.9094,0 1.9001,0.1711 0.3455,0.3112 -3.4547,0.3112 -3.8001,0 -5.3547,-0.1401 -3.4547,-0.3112 z m -274.3255,-9.1593 c 0,-2.0118 0.1585,-2.8348 0.3522,-1.8289 0.1938,1.0059 0.1938,2.652 0,3.6579 -0.1937,1.0059 -0.3522,0.1829 -0.3522,-1.829 z m -22.7933,0 c 0,-1.5647 0.1673,-2.2049 0.3718,-1.4225 0.2045,0.7824 0.2045,2.0627 0,2.8451 -0.2045,0.7824 -0.3718,0.1422 -0.3718,-1.4226 z m 89.4322,-0.4064 c 0.01,-1.7883 0.1755,-2.4242 0.37,-1.413 0.1944,1.0111 0.187,2.4743 -0.016,3.2515 -0.2035,0.7771 -0.3625,-0.05 -0.3535,-1.8385 z m 208.9059,-0.1943 c 2.5707,-0.1612 6.7773,-0.1612 9.3481,0 2.5707,0.1614 0.4674,0.2933 -4.6741,0.2933 -5.1414,0 -7.2447,-0.1319 -4.674,-0.2933 z m -242.591,-22.7149 c 0.5868,-0.2348 1.2879,-0.206 1.558,0.064 0.2702,0.2701 -0.21,0.4623 -1.0669,0.427 -0.947,-0.039 -1.1395,-0.2316 -0.4911,-0.4911 z m -94.7103,-8.9921 c 3.9339,-0.1494 10.1523,-0.1486 13.8188,0 3.6665,0.1503 0.4478,0.2724 -7.1525,0.2715 -7.6004,0 -10.6002,-0.1239 -6.6663,-0.2732 z m 172.7165,0.01 c 1.912,-0.1717 4.8383,-0.1693 6.503,0.01 1.6648,0.1746 0.1005,0.3151 -3.4762,0.3122 -3.5766,0 -4.9386,-0.1459 -3.0268,-0.3176 z m 156.9058,-0.01 c 4.6064,-0.1451 11.9222,-0.1446 16.2574,0 4.3352,0.1459 0.5664,0.2646 -8.3751,0.2639 -8.9416,-7e-4 -12.4887,-0.1201 -7.8823,-0.2652 z m -237.3506,-30.0247 c 0.5868,-0.2349 1.2879,-0.206 1.558,0.064 0.2701,0.2701 -0.21,0.4623 -1.0669,0.427 -0.947,-0.039 -1.1395,-0.2317 -0.4911,-0.4911 z m 4.8772,0 c 0.5868,-0.2349 1.2879,-0.206 1.558,0.064 0.2702,0.2701 -0.21,0.4623 -1.0668,0.427 -0.947,-0.039 -1.1396,-0.2317 -0.4912,-0.4911 z m 391.5005,-23.4246 c 4e-4,-12.5182 0.1132,-17.5257 0.2507,-11.1278 0.1375,6.398 0.1372,16.6401 -7e-4,22.7604 -0.1379,6.1203 -0.2504,0.8856 -0.25,-11.6326 z m 44.7205,-9.348 c 0,-17.6596 0.1074,-24.884 0.2387,-16.0542 0.1312,8.8298 0.1312,23.2786 0,32.1084 -0.1313,8.8298 -0.2387,1.6054 -0.2387,-16.0542 z m 123.4465,26.8247 c 0,-2.906 0.1476,-4.0948 0.3279,-2.6418 0.1802,1.453 0.1802,3.8307 0,5.2837 -0.1803,1.453 -0.3279,0.2641 -0.3279,-2.6419 z m 88.6029,0 c 0,-2.906 0.1475,-4.0948 0.3278,-2.6418 0.1803,1.453 0.1803,3.8307 0,5.2837 -0.1803,1.453 -0.3278,0.2641 -0.3278,-2.6419 z m -741.2431,-26.8247 c 0,-11.8476 0.1136,-16.6943 0.2526,-10.7705 0.1389,5.9238 0.1389,15.6172 0,21.541 -0.139,5.9238 -0.2526,1.0771 -0.2526,-10.7705 z m 704.7045,13.0059 c 0,-4.6943 0.1343,-6.6147 0.2985,-4.2675 0.1642,2.3471 0.1642,6.1879 0,8.5351 -0.1642,2.3472 -0.2985,0.4268 -0.2985,-4.2676 z m -345.7066,0.3388 c 0.039,-0.947 0.2317,-1.1396 0.4912,-0.4912 0.2348,0.5868 0.2059,1.2879 -0.064,1.5581 -0.2701,0.2701 -0.4622,-0.2101 -0.427,-1.0669 z m -25.0261,-9.071 c 3.0364,-0.1568 7.7917,-0.1557 10.5673,0 2.7757,0.1582 0.2914,0.2865 -5.5206,0.2851 -5.8121,0 -8.0831,-0.1309 -5.0467,-0.2877 z m -276.3915,-4.2737 c 0,-2.0118 0.1585,-2.8349 0.3522,-1.8289 0.1938,1.0059 0.1938,2.6519 0,3.6579 -0.1937,1.0059 -0.3522,0.1829 -0.3522,-1.829 z m -22.7933,0 c 0,-1.5648 0.1673,-2.2049 0.3718,-1.4225 0.2045,0.7824 0.2045,2.0626 0,2.845 -0.2045,0.7824 -0.3718,0.1423 -0.3718,-1.4225 z m 89.4322,-0.4064 c 0.01,-1.7883 0.1755,-2.4243 0.37,-1.413 0.1944,1.0111 0.187,2.4743 -0.016,3.2514 -0.2035,0.7771 -0.3625,-0.05 -0.3535,-1.8384 z m 307.713,-5.0776 c 4.6063,-0.1451 11.9222,-0.1446 16.2574,0 4.3352,0.1459 0.5664,0.2646 -8.3752,0.2639 -8.9416,-7e-4 -12.4886,-0.12 -7.8822,-0.2652 z m 192.6503,0 c 4.6063,-0.1451 11.9222,-0.1446 16.2574,0 4.3352,0.1459 0.5664,0.2646 -8.3752,0.2639 -8.9416,-7e-4 -12.4886,-0.12 -7.8822,-0.2652 z m 80.1685,-0.4736 c -0.228,-0.5943 -0.2917,-4.3437 -0.1417,-8.3319 l 0.273,-7.2516 0.1672,7.9084 0.1671,7.9082 16.0542,0.2386 16.0542,0.2387 -16.0797,0.185 c -12.7557,0.1467 -16.1654,-0.038 -16.4943,-0.8954 z m -615.0806,-27.1309 c 1.006,-0.1937 2.652,-0.1937 3.6579,0 1.006,0.1938 0.1829,0.3523 -1.8289,0.3523 -2.0119,0 -2.8349,-0.1585 -1.829,-0.3523 z m -9.5515,-30.1057 23.5735,-0.2342 v -4.443 -4.4429 l -18.0863,-0.2189 -18.0864,-0.2187 -0.042,-8.1287 -0.043,-8.1287 0.2741,7.91 0.2741,7.91 18.0581,0.2187 18.0581,0.2187 v 4.8772 4.8772 l -23.7768,0.019 -23.7767,0.019 23.5735,-0.2342 z m 40.0342,0.011 c 1.6765,-0.1753 4.42,-0.1753 6.0965,0 1.6765,0.1755 0.3048,0.3189 -3.0483,0.3189 -3.3531,0 -4.7248,-0.1434 -3.0482,-0.3189 z m 45.9272,0.01 c 1.453,-0.1803 3.8306,-0.1803 5.2836,0 1.453,0.1803 0.2642,0.3278 -2.6418,0.3278 -2.906,0 -4.0948,-0.1475 -2.6418,-0.3278 z m 39.5902,-0.4352 c -0.2159,-0.5626 -0.2906,-12.7252 -0.1659,-27.0279 l 0.2267,-26.0048 0.1915,26.5844 0.1913,26.5843 5.4869,0.2844 5.4869,0.2844 -5.5124,0.1592 c -3.8039,0.1099 -5.6341,-0.1579 -5.905,-0.864 z m 48.9893,0.4326 5.0571,-0.2955 0.2648,-10.7339 0.2647,-10.7339 -0.038,10.9737 -0.038,10.9738 -5.2836,0.055 -5.2837,0.055 5.0571,-0.2954 z m 39.0626,-0.01 c 1.9119,-0.1716 4.8383,-0.1693 6.5029,0.01 1.6648,0.1746 0.1005,0.3151 -3.4761,0.3122 -3.5766,0 -4.9387,-0.1459 -3.0268,-0.3176 z m 133.6957,-0.01 c 3.912,-0.149 10.3133,-0.149 14.2253,0 3.9119,0.149 0.7112,0.2709 -7.1127,0.2709 -7.8238,0 -11.0245,-0.1219 -7.1126,-0.2709 z m 88.3994,0 23.5735,-0.2342 v -4.443 -4.4429 l -17.8836,-0.2426 -17.8836,-0.2427 18.0868,0.024 18.0869,0.024 v 4.8772 4.8772 l -23.7768,0.019 -23.7767,0.019 23.5735,-0.2343 z m 88.6028,0 23.5736,-0.2342 v -4.443 -4.4429 l -18.0864,-0.2188 -18.0863,-0.2188 -0.042,-8.1287 -0.043,-8.1287 0.2741,7.9101 0.2741,7.9099 18.0582,0.2188 18.0581,0.2186 v 4.8773 4.8772 l -23.7768,0.019 -23.7767,0.019 23.5735,-0.2343 z m 114.3938,0.016 c 1.443,-0.1795 4.0035,-0.1825 5.6901,-0.01 1.6865,0.176 0.5058,0.3229 -2.6237,0.3266 -3.1296,0 -4.5094,-0.1404 -3.0664,-0.32 z m 116.665,-0.019 c 3.9119,-0.149 10.3133,-0.149 14.2252,0 3.912,0.149 0.7113,0.2709 -7.1126,0.2709 -7.8239,0 -11.0245,-0.1219 -7.1126,-0.2709 z m -816.9194,-8.8991 c 0.7909,-0.2061 1.8883,-0.1926 2.4386,0.03 0.5504,0.2226 -0.097,0.3912 -1.4379,0.3747 -1.3413,-0.016 -1.7915,-0.1987 -1.0007,-0.4049 z m 326.3521,0.025 c 0.5588,-0.2255 1.4733,-0.2255 2.0321,0 0.5589,0.2255 0.1016,0.41 -1.016,0.41 -1.1177,0 -1.575,-0.1845 -1.0161,-0.41 z m 585.2667,0 c 0.5589,-0.2255 1.4733,-0.2255 2.0322,0 0.5588,0.2255 0.1016,0.41 -1.0161,0.41 -1.1177,0 -1.5749,-0.1845 -1.0161,-0.41 z m -495.0167,-0.8708 c 1.912,-0.1716 4.8383,-0.1693 6.503,0.01 1.6648,0.1747 0.1005,0.3151 -3.4761,0.3122 -3.5767,0 -4.9387,-0.1459 -3.0269,-0.3176 z m 408.0396,0 c 1.9001,-0.1711 5.0093,-0.1711 6.9094,0 1.9001,0.1712 0.3454,0.3112 -3.4547,0.3112 -3.8002,0 -5.3548,-0.14 -3.4547,-0.3112 z m -40.9007,-33.951 c -6e-4,-11.1769 0.1139,-15.8621 0.2543,-10.4114 0.1405,5.4507 0.1409,14.5955 0,20.3218 -0.1399,5.7263 -0.2548,1.2666 -0.2552,-9.9104 z m -32.5158,-0.4064 c 0,-10.9534 0.1151,-15.4344 0.2557,-9.9577 0.1406,5.4768 0.1406,14.4387 0,19.9154 -0.1406,5.4767 -0.2557,0.9957 -0.2557,-9.9577 z m -783.75367,12.5995 c 0.009,-1.7883 0.1755,-2.4242 0.36994,-1.413 0.19444,1.0111 0.18704,2.4743 -0.0163,3.2515 -0.20346,0.7771 -0.36254,-0.05 -0.35352,-1.8385 z m 966.50297,0 c 0.01,-1.7883 0.1755,-2.4242 0.37,-1.413 0.1944,1.0111 0.187,2.4743 -0.016,3.2515 -0.2034,0.7771 -0.3625,-0.05 -0.3535,-1.8385 z m -486.2374,-0.067 c 0.039,-0.947 0.2317,-1.1395 0.4912,-0.4911 0.2348,0.5868 0.2059,1.2879 -0.064,1.558 -0.2701,0.2701 -0.4622,-0.21 -0.427,-1.0669 z m -206.2148,-10.9062 c 0,-6.0356 0.1279,-8.5047 0.2844,-5.4869 0.1564,3.0178 0.1564,7.9559 0,10.9737 -0.1565,3.0178 -0.2844,0.5487 -0.2844,-5.4868 z m -192.6719,-2.8451 c 0,-4.4708 0.1387,-6.196 0.3034,-3.8339 0.1647,2.3622 0.163,6.0201 0,8.1287 -0.1669,2.1087 -0.3017,0.176 -0.2995,-4.2948 z m 524.3015,0 c 0,-4.4708 0.1387,-6.196 0.3034,-3.8339 0.1646,2.3622 0.1629,6.0201 0,8.1287 -0.1669,2.1087 -0.3017,0.176 -0.2996,-4.2948 z m -406.4654,-13.0059 c 0,-3.1296 0.1505,-4.3103 0.3265,-2.6237 0.176,1.6865 0.173,4.2471 -0.01,5.6901 -0.1796,1.443 -0.3235,0.063 -0.3199,-3.0664 z m 93.061,4.7284 c 0.5868,-0.2349 1.2879,-0.206 1.558,0.064 0.2701,0.2701 -0.21,0.4623 -1.0669,0.427 -0.947,-0.039 -1.1395,-0.2317 -0.4911,-0.4912 z m 167.4513,0 c 0.5868,-0.2349 1.2879,-0.206 1.558,0.064 0.2702,0.2701 -0.21,0.4623 -1.0669,0.427 -0.9469,-0.039 -1.1395,-0.2317 -0.4911,-0.4912 z"
         id="path235" />
      <path
         style="fill:#2f2f2f;stroke-width:0.81287"
         d="m 1050.6351,1843.5902 c 0.8092,-0.8942 1.6542,-1.6258 1.8777,-1.6258 0.2236,0 -0.2556,0.7316 -1.0648,1.6258 -0.8092,0.8941 -1.6542,1.6257 -1.8778,1.6257 -0.2235,0 0.2557,-0.7316 1.0649,-1.6257 z m 766.9433,-184.8286 c 0,-0.1687 0.6401,-0.8089 1.4225,-1.4225 1.2893,-1.011 1.318,-0.9824 0.307,0.3069 -1.062,1.354 -1.7295,1.7847 -1.7295,1.1156 z m 72.7519,-4.5703 c 0.8092,-0.8941 1.6542,-1.6257 1.8777,-1.6257 0.2236,0 -0.2556,0.7316 -1.0648,1.6257 -0.8092,0.8942 -1.6542,1.6258 -1.8777,1.6258 -0.2236,0 0.2556,-0.7316 1.0648,-1.6258 z m -873.1001,-5.8933 -1.5485,-1.8289 1.8289,1.5485 c 1.006,0.8516 1.829,1.6747 1.829,1.8289 0,0.6505 -0.6542,0.1703 -2.1094,-1.5485 z m 365.3588,-40.2371 c -1.0111,-1.2893 -0.9824,-1.3179 0.3069,-0.3069 0.7824,0.6136 1.4225,1.2538 1.4225,1.4225 0,0.6691 -0.6675,0.2384 -1.7294,-1.1156 z"
         id="path233" />
      <path
         style="fill:#000000;stroke-width:0.81287"
         d="m 1093.7066,1852.7473 c -9.5309,-3.4174 -15.4803,-8.6221 -19.7242,-17.2555 -2.0191,-4.1074 -2.2127,-5.319 -2.2127,-13.8492 0,-8.4406 0.2115,-9.7992 2.1786,-13.996 11.7446,-25.058 48.0027,-25.5396 60.1871,-0.7995 2.5218,5.1204 2.664,5.8871 2.664,14.3698 0,8.3868 -0.1659,9.3112 -2.5896,14.4273 -3.1933,6.7409 -8.368,11.913 -15.3658,15.358 -4.5906,2.2599 -6.2788,2.6318 -13.1642,2.8993 -6.1383,0.2386 -8.8063,-0.019 -11.9732,-1.1542 z m 17.9236,-9.6995 c 5.4693,-1.8636 11.091,-7.6008 12.9592,-13.2256 1.8638,-5.6111 1.3935,-14.5108 -1.015,-19.2087 -2.0459,-3.9908 -7.408,-8.9949 -11.4541,-10.6899 -1.6272,-0.6815 -5.1533,-1.2392 -7.8357,-1.2392 -8.6894,0 -15.1976,4.0206 -19.0779,11.7856 -4.6152,9.236 -2.9696,20.4981 4.016,27.4837 6.0697,6.0697 14.1518,7.9071 22.4075,5.0941 z m -109.3609,-21.464 v -31.7608 l 16.9135,0.2621 16.9135,0.262 6.2002,3.0664 c 27.4209,13.5615 21.3174,53.4472 -9.0459,59.1139 -2.4082,0.4495 -10.3641,0.8172 -17.6799,0.8172 h -13.3014 z m 34.9915,19.0615 c 15.2472,-8.5152 14.5039,-31.7019 -1.2514,-39.0388 -3.5321,-1.6449 -5.3332,-1.8966 -13.6215,-1.9034 l -9.5513,-0.01 v 22.0457 22.0456 l 9.9957,-0.3327 c 9.3152,-0.3101 10.2975,-0.5013 14.4285,-2.8084 z m 141.4014,-19.0369 v -31.7361 l 6.2547,0.2374 6.2547,0.2374 9.1391,14.2084 c 5.0265,7.8146 9.4375,14.3077 9.802,14.4292 0.3647,0.1216 4.8685,-6.3569 10.0085,-14.3966 l 9.3454,-14.6177 5.8933,-0.015 5.8933,-0.015 v 31.702 31.7019 h -5.2709 -5.2711 l -0.2158,-22.8867 -0.2159,-22.8867 -9.7545,14.7382 c -5.3649,8.1059 -10.03,14.6551 -10.3667,14.5538 -0.3368,-0.1013 -5.0003,-6.7681 -10.3633,-14.815 l -9.7509,-14.6308 -8e-4,22.9636 v 22.9636 h -5.6901 -5.6901 v -31.7362 z m 74.7841,31.1604 c 0,-0.3575 6.1514,-14.7315 13.6697,-31.9423 l 13.6698,-31.2922 5.2294,-0.2172 5.2296,-0.2172 12.0534,27.6941 c 6.6293,15.2317 12.9417,29.7028 14.0275,32.158 l 1.9742,4.464 -5.8646,-0.2389 -5.8645,-0.2389 -3.1805,-7.5363 -3.1806,-7.5362 -15.4329,0.2203 -15.4329,0.2205 -3.0322,7.3158 -3.032,7.3159 -5.4168,0.2403 c -2.9791,0.1322 -5.4166,-0.052 -5.4166,-0.4097 z m 38.3405,-37.2227 c -2.9651,-6.9297 -5.6211,-12.5995 -5.9021,-12.5995 -0.2811,0 -1.6291,2.652 -2.9955,5.8933 -1.3664,3.2414 -3.7809,8.9111 -5.3655,12.5995 l -2.8811,6.7062 h 11.2676 11.2677 z m 38.8822,6.0965 v -31.7019 h 17.4462 c 15.4997,0 17.9347,0.1827 21.8244,1.6381 5.9206,2.2152 10.0257,6.4663 11.6544,12.069 2.9629,10.1919 -1.1054,19.4329 -10.5617,23.9903 l -3.6503,1.7594 4.6401,6.4866 c 2.552,3.5677 6.3948,8.9558 8.5395,11.9736 l 3.8996,5.4869 h -6.4067 -6.4066 l -8.0577,-11.3802 -8.0576,-11.3802 h -7.1482 -7.1481 v 11.3802 11.3802 h -5.2837 -5.2836 z m 34.6784,-1.8565 c 8.0409,-4.2627 8.1766,-14.7856 0.2436,-18.8879 -1.7182,-0.8885 -5.2062,-1.2031 -13.3405,-1.2031 h -11.0142 v 11.0679 11.068 l 10.7705,-0.3412 c 7.9968,-0.2533 11.4324,-0.692 13.3406,-1.7037 z m -266.7529,-60.8488 c -10.3919,-1.4571 -20.1013,-8.7075 -24.6462,-18.4044 -1.9671,-4.1969 -2.1786,-5.5555 -2.1786,-13.9961 0,-8.6949 0.1669,-9.6888 2.3887,-14.2252 3.0485,-6.2243 9.2702,-12.446 15.4945,-15.4945 4.5737,-2.24 5.4852,-2.3887 14.6487,-2.3887 9.3762,0 9.9881,0.1066 15.1235,2.6348 6.4455,3.1731 12.1537,8.9871 15.1957,15.4775 1.9671,4.1969 2.1786,5.5555 2.1786,13.9961 0,8.5302 -0.1936,9.7418 -2.2127,13.8491 -6.7721,13.7765 -20.3038,20.751 -35.9922,18.5514 z m 12.7565,-10.5961 c 4.0838,-1.2235 9.9888,-6.4159 12.1985,-10.7264 2.3768,-4.6363 2.9114,-13.6231 1.1296,-18.9875 -6.0284,-18.1501 -30.602,-20.0436 -39.7692,-3.0642 -2.3546,4.3611 -2.5494,17.2515 -0.3223,21.3268 5.5312,10.1214 16.1036,14.645 26.7634,11.4513 z m -109.0817,-21.8044 v -31.7019 h 14.4609 c 16.3797,0 21.4899,0.9167 28.5115,5.1148 19.6878,11.7712 19.225,41.9464 -0.8236,53.6932 -6.2616,3.6689 -11.8464,4.5959 -27.6879,4.5959 h -14.4609 z m 35.071,19.3216 c 7.3479,-4.3195 10.6013,-10.0756 10.691,-18.9152 0.073,-7.2219 -2.3458,-13.1168 -7.0272,-17.1239 -4.5145,-3.8642 -9.6799,-5.23 -19.7799,-5.23 h -8.3876 v 22.0291 22.0291 l 10.3641,-0.2848 c 9.5556,-0.2626 10.6586,-0.458 14.1396,-2.5043 z m 137.6947,9.3364 c 0.6995,-1.6741 6.9887,-16.1229 13.9761,-32.1084 l 12.7043,-29.0644 h 4.9686 4.9686 l 13.7185,31.4987 c 7.5452,17.3243 13.8714,31.7898 14.0583,32.1455 0.1869,0.3556 -2.283,0.5385 -5.4887,0.4064 l -5.8285,-0.2403 -3.1187,-7.3158 -3.1185,-7.3158 -15.3066,-0.2138 -15.3067,-0.2137 -3.2009,7.7327 -3.2009,7.7329 h -5.5484 -5.5483 z m 41.5495,-24.7969 c -6.3965,-15.1236 -9.8746,-22.4781 -10.3855,-21.9601 -0.6348,0.6433 -10.4665,23.3196 -10.4665,24.1402 0,0.2539 4.943,0.4618 10.9846,0.4618 h 10.9847 z m 34.4232,-3.8611 v -31.7019 h 5.9934 5.9936 l 9.633,14.9735 c 5.2982,8.2355 9.8264,14.8542 10.0627,14.7082 0.2362,-0.1461 4.6353,-6.8744 9.7756,-14.9518 l 9.3461,-14.6862 5.8933,-0.022 5.8933,-0.022 v 31.7019 31.702 h -5.2837 -5.2836 v -22.3539 c 0,-12.2947 -0.2744,-22.3457 -0.6097,-22.3356 -0.3353,0.01 -4.9665,6.6016 -10.2916,14.6479 l -9.682,14.6297 -9.8269,-14.767 -9.8269,-14.7669 -0.2161,22.4729 -0.216,22.4729 h -5.6773 -5.6772 v -31.702 z m 79.6613,0.053 v -31.7551 h 16.5163 c 18.1552,0 22.853,0.7875 27.3693,4.5877 3.5042,2.9486 5.0163,6.2837 5.055,11.1504 0.043,5.4509 -1.7358,9.5265 -5.3683,12.2973 l -2.9339,2.2377 4.2702,2.5434 c 5.8318,3.4736 8.2014,7.9904 7.6527,14.5874 -0.542,6.5168 -3.175,10.3027 -9.2345,13.2781 l -4.7155,2.3155 -19.3056,0.2564 -19.3057,0.2564 z m 36.9577,20.7391 c 5.3367,-2.2298 6.7754,-9.4289 2.6573,-13.2968 -2.6252,-2.4657 -7.7902,-3.3886 -19.09,-3.4112 l -9.9577,-0.019 v 8.9415 8.9416 h 11.8127 c 8.3703,0 12.6185,-0.3367 14.5777,-1.1552 z m -4.1166,-26.8029 c 3.4455,-1.4396 5.3638,-4.1705 5.3638,-7.6359 0,-6.8025 -3.0743,-8.3009 -17.0299,-8.3009 h -10.6077 v 8.5351 8.5352 h 9.7805 c 6.5257,0 10.6834,-0.3772 12.4933,-1.1335 z m 33.8143,6.011 v -31.7019 h 5.2836 5.2837 v 31.7019 31.702 h -5.2837 -5.2836 z m 28.4504,0 v -31.7019 h 23.5733 23.5732 v 4.8772 4.8772 h -18.2896 -18.2896 v 8.5351 8.5352 h 16.2575 16.2574 v 4.8772 4.8772 h -16.2574 -16.2575 v 8.5352 8.5351 h 18.2896 18.2896 v 4.8772 4.8773 h -23.5732 -23.5733 z m 60.9653,0 v -31.7019 h 5.1934 5.1936 l 16.9572,21.9587 16.9573,21.9586 0.2163,-21.9586 0.2162,-21.9587 h 5.2706 5.2706 v 31.7425 31.7425 l -4.6623,-0.2438 -4.6623,-0.2438 -16.9509,-21.9475 c -9.3231,-12.0711 -17.2843,-22.0694 -17.6917,-22.2184 -0.4343,-0.1589 -0.7407,9.0035 -0.7407,22.1507 v 22.4217 h -5.2836 -5.2837 z m 87.79,4.8772 v -26.8247 h -10.1609 -10.1608 v -4.8772 -4.8772 h 26.0118 26.0119 v 4.8772 4.8772 h -10.1609 -10.1609 v 26.8247 26.8248 h -5.6901 -5.6901 z m 43.895,-4.8772 v -31.7019 h 23.5733 23.5732 v 4.8772 4.8772 h -18.2896 -18.2895 v 8.5351 8.5352 h 16.2574 16.2574 v 4.8772 4.8772 h -16.2574 -16.2574 v 8.5352 8.5351 h 18.2895 18.2896 v 4.8772 4.8773 h -23.5732 -23.5733 z m 88.6029,0 v -31.7019 h 23.5733 23.5732 v 4.8772 4.8772 h -18.318 -18.3181 l 0.2317,8.3319 0.2317,8.332 16.0542,0.2203 16.0542,0.2205 v 4.86 4.86 h -16.2575 -16.2574 v 8.5352 8.5351 h 18.2896 18.2896 v 4.8772 4.8773 h -23.5732 -23.5733 z m -683.4203,-63.0341 c -9.7347,-2.6214 -16.5179,-8.2584 -20.7899,-17.2769 -2.1984,-4.6408 -2.6217,-6.5542 -2.86086,-12.93 -0.56145,-14.9677 5.78176,-25.507 19.10956,-31.7508 4.2714,-2.0011 5.6386,-2.2224 13.7276,-2.2224 8.7257,0 9.1591,0.087 15.0861,3.0159 3.3563,1.6588 6.7815,3.7664 7.6114,4.6834 1.4793,1.6346 1.4615,1.7263 -0.8975,4.6409 -3.6484,4.5077 -4.7685,4.9843 -6.9708,2.9656 -5.631,-5.1617 -14.6377,-7.111 -21.8254,-4.7237 -5.6312,1.8704 -11.3672,7.4891 -13.2318,12.9613 -6.0193,17.6657 7.2554,34.8534 24.2014,31.3355 3.6408,-0.7559 8.1541,-3.1204 13.1937,-6.9124 0.7862,-0.5916 1.99,0.125 4.5302,2.697 l 3.4595,3.5028 -3.2514,2.8662 c -8.34,7.3521 -20.2039,10.0794 -31.0918,7.1476 z m 326.9766,0.1293 c -20.2664,-4.9284 -30.5571,-27.5214 -21.1788,-46.4972 3.4749,-7.031 8.3217,-11.7211 15.7492,-15.2399 5.0365,-2.3861 6.0476,-2.5709 13.9648,-2.5527 10.7798,0.024 15.8523,1.8439 22.6256,8.1148 11.0565,10.2363 13.8132,26.3046 6.8326,39.8249 -6.7762,13.1246 -22.8365,20.036 -37.9934,16.3501 z m 17.0627,-10.6044 c 3.9954,-1.6694 8.4417,-6.0159 10.7919,-10.5497 1.8083,-3.4882 2.1394,-5.1581 2.1098,-10.6405 -0.041,-7.5088 -1.3045,-11.0134 -5.7445,-15.9279 -4.6256,-5.12 -8.4916,-6.7948 -15.6847,-6.7948 -7.1932,0 -11.0592,1.6748 -15.6848,6.7948 -11.6814,12.93 -5.5308,34.1289 11.1311,38.3645 3.1372,0.7975 9.6818,0.174 13.0812,-1.2464 z m 302.8018,10.8573 c -4.9956,-0.8447 -15.1648,-5.5132 -17.4079,-7.9918 -1.4084,-1.5563 -1.4024,-1.6965 0.1635,-3.8935 0.8935,-1.2534 2.3391,-2.9248 3.2124,-3.714 1.5209,-1.3742 1.6756,-1.3662 3.6562,0.1917 5.944,4.6756 15.1189,7.343 21.2812,6.187 1.576,-0.2958 3.9738,-1.4701 5.3282,-2.6098 2.0311,-1.7091 2.4625,-2.678 2.4625,-5.5317 0,-5.1327 -3.0825,-7.2919 -14.4486,-10.1207 -13.2344,-3.2939 -18.6446,-7.0044 -20.5544,-14.0968 -3.1177,-11.5782 5.2483,-21.9639 18.6534,-23.1566 7.83,-0.6967 18.1362,2.1508 23.9212,6.6091 1.3962,1.076 1.3169,1.357 -1.4798,5.2499 l -2.955,4.1131 -3.1152,-2.0616 c -6.2537,-4.1385 -15.6486,-5.5971 -20.3597,-3.1608 -2.9108,1.5051 -4.048,3.5032 -4.048,7.1122 0,4.8121 2.3648,6.1823 19.1024,11.0676 11.3522,3.3135 16.1678,8.5503 16.1416,17.5535 -0.015,5.3267 -1.9028,10.0231 -5.302,13.194 -4.7499,4.4305 -15.1446,6.5989 -24.252,5.0592 z m 121.1177,-0.2045 c -2.4589,-0.5724 -5.594,-1.6368 -6.9671,-2.3655 -4.0467,-2.1475 -8.377,-7.1897 -10.2985,-11.9918 -1.6681,-4.1687 -1.8123,-6.046 -2.0753,-27.0369 l -0.2826,-22.5572 h 5.3409 5.3411 v 19.0625 c 0,21.5529 0.6408,26.0929 4.2661,30.2218 3.5626,4.0577 6.6324,5.3813 12.4801,5.3813 6.6669,0 11.2985,-2.4675 14.1326,-7.5293 2.0178,-3.6037 2.0456,-3.9102 2.3047,-25.392 l 0.2621,-21.7443 h 5.282 5.2821 l -0.3049,22.5572 c -0.3486,25.7781 -0.6832,27.4585 -6.8284,34.2935 -5.92,6.5845 -17.5036,9.5289 -27.9349,7.1007 z m 144.2846,0 c -14.7198,-3.7683 -24.7528,-16.6766 -24.7528,-31.8467 0,-12.858 6.7452,-23.6567 18.3635,-29.3988 16.5386,-8.1738 36.4009,-1.8793 44.4422,14.0841 3.798,7.5396 4.6515,15.3786 2.5562,23.4758 -2.6351,10.1827 -10.2411,18.7562 -19.8809,22.4099 -5.5085,2.0877 -15.2211,2.6855 -20.7282,1.2757 z m 18.0506,-11.2156 c 7.3099,-3.5045 11.9374,-11.5112 11.9241,-20.6311 -0.011,-7.4055 -2.4352,-13.1001 -7.46,-17.5232 -10.9367,-9.6268 -27.4958,-6.0186 -33.7872,7.3623 -2.6088,5.5485 -2.3786,15.2456 0.4938,20.8013 5.6404,10.9098 17.9874,15.1886 28.8293,9.9907 z m 53.505,11.4638 c -5.6752,-1.0057 -10.7043,-3.0213 -15.6607,-6.2766 -4.6935,-3.0826 -4.6968,-3.1643 -0.3236,-8.1873 l 2.3426,-2.6908 5.013,3.24 c 4.7917,3.0971 10.6302,4.9918 15.3518,4.982 6.5416,-0.014 11.5434,-3.6044 11.5434,-8.2872 0,-5.2956 -2.0457,-6.7109 -14.8593,-10.2802 -10.4194,-2.9024 -15.7726,-5.6964 -18.4683,-9.6388 -1.7363,-2.5393 -2.0322,-3.8875 -2.0322,-9.2587 0,-5.6601 0.243,-6.6379 2.4386,-9.8108 4.7008,-6.7933 15.2764,-10.0919 25.7496,-8.0314 5.5114,1.0843 14.3074,5.1243 14.9815,6.8811 0.2308,0.6014 -0.7476,2.7496 -2.1743,4.7737 l -2.594,3.6801 -5.2497,-2.8856 c -4.1535,-2.2831 -6.3806,-2.9552 -10.6655,-3.2188 -6.0283,-0.371 -8.3571,0.478 -10.9716,3.9996 -1.3763,1.854 -1.5233,2.7214 -0.8912,5.262 0.9616,3.8652 4.4137,5.8985 14.3748,8.4666 9.2985,2.3972 14.8349,5.1975 17.9781,9.0931 2.1321,2.6426 2.5427,3.9126 2.8134,8.7028 0.5175,9.1584 -3.4541,15.2446 -11.8903,18.221 -4.5134,1.5925 -11.8428,2.1438 -16.8061,1.2642 z m -937.6691,-32.4976 v -31.702 h 23.5732 23.5732 v 4.8772 4.8773 h -18.2895 -18.2896 v 8.5351 8.5351 h 16.2574 16.2574 v 4.8773 4.8772 h -16.2849 -16.285 l 0.2308,8.7383 0.2307,8.7384 18.0864,0.2187 18.0863,0.2189 v 4.4552 4.4552 h -23.5732 -23.5732 z m 60.9652,0 v -31.702 h 5.1935 5.1935 l 16.9572,21.9587 16.9573,21.9587 0.2163,-21.9587 0.2162,-21.9587 h 5.6771 5.677 v 31.7407 31.7408 l -5.0543,-0.242 -5.0544,-0.242 -17.0964,-22.1104 -17.0963,-22.1104 -0.2161,22.3136 -0.2161,22.3136 h -5.6772 -5.6773 z m 88.6029,5.2836 v -26.4183 h -10.1609 -10.1608 v -5.2836 -5.2837 h 25.6054 25.6054 v 5.2837 5.2836 h -10.1609 -10.1609 v 26.4183 26.4183 h -5.2836 -5.2837 z m 43.0822,-5.362 v -31.7804 l 18.0863,0.3091 c 16.8788,0.2883 18.3737,0.4369 22.3893,2.2259 7.3369,3.2683 11.5481,9.8118 11.5481,17.9436 0,7.9167 -4.3312,14.8688 -10.9621,17.5958 -2.0149,0.8286 -3.6649,1.7781 -3.6666,2.1099 0,0.4902 12.6896,18.6262 15.6484,22.3603 0.6302,0.7953 -0.6091,1.0161 -5.7035,1.0161 h -6.5086 l -7.6287,-10.7705 -7.6287,-10.7706 -7.5033,-0.2337 -7.5033,-0.2337 v 11.0043 11.0042 h -5.2837 -5.2836 z m 34.8956,-1.3455 c 4.1252,-2.1034 6.0168,-5.1368 5.9502,-9.5418 -0.1253,-8.2919 -3.895,-10.4308 -19.1016,-10.8383 l -11.1769,-0.2994 v 11.0517 11.0517 h 10.7705 c 8.6476,0 11.32,-0.2814 13.5578,-1.4226 z m 136.62,1.4827 v -31.7608 l 13.2092,0.014 c 20.5598,0.022 28.4414,2.4328 36.3912,11.1311 8.747,9.5706 10.2969,24.1115 3.8606,36.2194 -3.1232,5.8753 -7.4369,9.8098 -14.3429,13.0819 l -5.3839,2.551 -16.8671,0.262 -16.8671,0.2621 v -31.7608 z m 31.9674,20.9539 c 4.3158,-1.3901 9.7604,-6.4227 11.9207,-11.0186 1.3456,-2.8626 1.8133,-5.3526 1.8133,-9.6528 0,-7.0061 -1.8432,-11.6137 -6.3803,-15.9494 -4.8446,-4.6296 -8.3073,-5.7416 -19.2025,-6.1669 l -9.5512,-0.3729 v 22.5749 22.5749 l 9.1447,-0.4936 c 5.0297,-0.2716 10.5445,-0.9446 12.2553,-1.4956 z m 39.5652,-21.0127 v -31.702 h 23.5733 23.5732 v 4.8772 4.8773 h -18.2896 -18.2895 v 8.5351 8.5351 h 16.2574 16.2574 v 4.8773 4.8772 h -16.2574 -16.2574 v 8.9416 8.9415 h 18.2895 18.2896 v 4.4708 4.4708 h -23.5732 -23.5733 z m 88.6029,0 v -31.702 h 23.5733 23.5732 v 4.8772 4.8773 h -18.2896 -18.2896 v 8.5351 8.5351 h 16.2574 16.2575 v 4.8773 4.8772 h -16.2849 -16.285 l 0.2308,8.7383 0.2307,8.7384 18.0863,0.2187 18.0864,0.2189 v 4.4552 4.4552 h -23.5732 -23.5733 z m 135.7494,5.2836 v -26.4183 h -10.1609 -10.1609 v -5.2836 -5.2837 h 25.6055 25.6054 v 5.2837 5.2836 h -10.1609 -10.1609 v 26.4183 26.4183 h -5.2836 -5.2837 z m 112.1761,-5.2258 v -31.7598 h 13.3014 c 15.8424,0 20.1671,0.6962 27.9079,4.4925 6.5737,3.2239 10.4461,7.1767 13.8855,14.1732 1.982,4.0319 2.2126,5.3908 2.2126,13.0363 0,7.6853 -0.2327,9.0387 -2.3364,13.5931 -2.8666,6.206 -9.2165,12.455 -15.7475,15.4972 -4.5337,2.1119 -5.2036,2.1868 -21.95,2.4529 l -17.2735,0.2744 z m 34.681,19.8276 c 7.4144,-3.6276 11.6526,-10.7123 11.6526,-19.479 0,-8.681 -4.2698,-15.8847 -11.6656,-19.6811 -3.6412,-1.869 -5.4271,-2.1954 -13.7366,-2.5107 l -9.5512,-0.3625 v 22.5784 22.5785 l 9.4986,-0.509 c 7.9198,-0.4244 10.2138,-0.859 13.8022,-2.6146 z"
         id="path231" />
    </g>
  </g>
</svg>
