<?xml version="1.0" encoding="UTF-8" standalone="no"?>
<!-- Created with Inkscape (http://www.inkscape.org/) -->

<svg
   version="1.1"
   id="svg2"
   width="100%"
   height="100%"
   viewBox="0 0 2711.8645 946.44067"
   xmlns:xlink="http://www.w3.org/1999/xlink"
   xmlns="http://www.w3.org/2000/svg"
   xmlns:svg="http://www.w3.org/2000/svg">
  <defs
     id="defs6" />
  <g
     id="g8">
    <image
       width="2711.8645"
       height="946.44067"
       preserveAspectRatio="none"
       style="image-rendering:optimizeQuality"
       xlink:href="1horizontal_color_ciceco_90_dpi.png"
       id="image10" />
    <g
       id="g116">
      <path
         style="fill:#d0ebeb;stroke-width:2.71186"
         d="m 1550.4825,930.84745 -0.9628,16.94915 v -33.8983 -33.89831 l 0.9628,16.94915 0.9628,16.94916 z m 35.26,-2.71186 -0.936,19.66101 v -39.32203 -39.32203 l 0.936,19.66101 0.9358,19.66102 z m 189.8247,2.71186 -0.9628,16.94915 v -33.8983 -33.89831 l 0.9628,16.94915 0.9628,16.94916 z m 648.0416,10.84746 -1.1752,6.10169 v -12.20339 -12.20339 l 1.1752,6.1017 1.1753,6.10169 z m 65.1845,-13.55932 -0.9359,19.66101 v -39.32203 -39.32203 l 0.9359,19.66101 0.9359,19.66102 z m -988.1083,15.59322 h -1.0239 v -1.0239 -1.02386 l 4.7457,-3.7219 4.7458,-3.72187 -3.7219,4.74576 -3.7219,4.74577 z m 521.5964,-6.1017 -1.1297,7.45763 v -14.91526 -14.91525 l 1.1297,7.45763 1.1298,7.45762 z m 94.9662,-5.42373 -1.0157,12.88136 v -25.76271 -25.76272 l 1.0157,12.88136 1.0157,12.88136 z m 278.9672,10.79097 -1.6384,1.6384 0.2139,-5.19772 0.214,-5.19775 1.4243,3.55932 1.4243,3.55932 -1.6384,1.63843 z m -211.1589,-20.16971 -0.9599,16.83637 0.01,-35.25424 0.01,-35.25423 0.9513,18.41787 0.9513,18.41787 -0.9599,16.83636 z m 168.0445,8.02281 -1.1753,6.10169 v -12.20339 -12.20338 l 1.1753,6.10169 1.1752,6.10169 z M 924.74579,918.50939 h -14.91525 l 7.45763,-1.12974 7.45762,-1.12973 7.45763,1.12973 7.45763,1.12974 z m 1309.15261,0.49806 -15.5932,0.31458 v -2.10558 -2.10554 l 11.5254,0.8931 11.5254,0.89309 4.0678,0.89788 4.0678,0.89789 z m 315.2542,-0.49806 h -14.9152 l 7.4576,-1.12974 7.4576,-1.12973 7.4577,1.12973 7.4576,1.12974 z m -871.2347,-12.06872 -1.0381,11.52542 V 894.91525 871.8644 l 1.0381,11.52542 1.0381,11.52543 z m -447.6473,5.42373 -1.3678,3.38983 v -6.77966 -6.77966 l 1.3678,3.38983 1.3679,3.38983 z m 764.7458,0 -1.3678,3.38983 v -6.77966 -6.77966 l 1.3678,3.38983 1.3679,3.38983 z m 428.6404,-5.42373 -1.0938,8.81356 v -17.62712 -17.62712 l 1.0938,8.81356 1.0937,8.81356 z m -401.4088,-5.38644 -1.1703,6.06441 0.037,-13.55933 0.037,-13.55932 1.1334,7.49492 1.1333,7.49491 z m 330.8524,-2.74915 -1.1753,6.10169 v -12.20339 -12.20339 l 1.1753,6.1017 1.1752,6.10169 z m -1255.7111,-18.98305 -1.3679,3.38983 v -6.77966 -6.77966 l 1.3679,3.38983 1.3678,3.38983 z m 509.6729,1.29944 -1.6384,1.6384 0.214,-5.19772 0.2139,-5.19775 1.4243,3.55932 1.4244,3.55932 -1.6384,1.63843 z m 268.6322,-1.29944 -1.3679,3.38983 v -6.77966 -6.77966 l 1.3679,3.38983 1.3678,3.38983 z m 393.2203,0 -1.3678,3.38983 v -6.77966 -6.77966 l 1.3678,3.38983 1.3679,3.38983 z m 62.2153,1.29944 -1.6384,1.6384 0.214,-5.19772 0.2139,-5.19775 1.4244,3.55932 1.4243,3.55932 -1.6384,1.63843 z m 327.5211,0.73445 h -1.0239 v -1.02389 -1.02386 l 4.7458,-3.7219 4.7457,-3.72187 -3.7218,4.74576 -3.7219,4.74576 z M 747.45071,878.64406 h -1.02386 l -3.7219,-4.74576 -3.72187,-4.74576 4.74576,3.72187 4.74576,3.72189 v 1.02387 1.02389 z m 40.11995,-43.60393 -5.19775,-0.21397 3.55932,-1.42432 3.55932,-1.42433 1.63843,1.6384 1.6384,1.63843 -5.19772,-0.21424 z m -230.50848,-21.69492 -5.19775,-0.21396 3.55932,-1.42433 3.55932,-1.42432 1.63843,1.6384 1.6384,1.63842 -5.19772,-0.21423 z m 113.8983,-5.42373 -5.19775,-0.21396 3.55933,-1.42433 3.55932,-1.42432 1.63843,1.6384 1.6384,1.63842 -5.19773,-0.21423 z m -29.27249,-2.49776 h -1.02386 l -3.7219,-4.74576 -3.72187,-4.74576 4.74576,3.72187 4.74577,3.7219 v 1.02386 1.02389 z m 13.55933,-2.71186 h -1.02387 l -3.7219,-4.74577 -3.72187,-4.74576 4.74577,3.72187 4.74576,3.7219 v 1.02387 1.02389 z m -132.79309,-5.42373 h -0.93562 l -5.16608,-6.1017 -5.16607,-6.10169 6.10169,5.16607 6.1017,5.16608 v 0.93562 0.93562 z m 95.85088,-3.14004 h -6.77967 l 3.38984,-1.36784 3.38983,-1.36784 3.38983,1.36784 3.38983,1.36784 z m -464.48514,-7.70742 h -0.75631 l -17.54878,-18.30508 -17.54877,-18.30509 18.30508,17.54877 18.30509,17.54878 v 0.75631 0.75631 z m 436.45064,-4.74576 -1.36784,3.38983 v -6.77966 -6.77966 l 1.36784,3.38983 1.36784,3.38983 z m 148.99496,1.29944 -1.63843,1.6384 0.21424,-5.19772 0.21397,-5.19775 1.42432,3.55932 1.42433,3.55933 -1.6384,1.63842 z m 454.80333,-18.24859 h -0.8485 v -0.84857 -0.84857 l 8.8135,-7.96499 8.8136,-7.96499 -7.965,8.81356 -7.965,8.81356 z m 1122.712,0 h -0.8486 v -0.84857 -0.84857 l 8.8135,-7.96499 8.8136,-7.96499 -7.965,8.81356 -7.965,8.81356 z M 598.29816,762.03389 h -1.02386 l -3.7219,-4.74576 -3.72187,-4.74576 4.74576,3.72187 4.74576,3.7219 v 1.02386 1.02389 z m 118.76402,-2.92596 -5.19775,-0.21397 3.55932,-1.42433 3.55933,-1.42432 1.63842,1.6384 1.6384,1.63843 -5.19772,-0.21424 z m 700.21902,-2.49777 h -1.0238 l -3.7219,-4.74576 -3.7219,-4.74576 4.7458,3.72187 4.7457,3.7219 v 1.02386 1.02389 z m 271.1865,-13.55932 h -1.0239 l -3.7219,-4.74576 -3.7218,-4.74576 4.7457,3.72187 4.7458,3.7219 v 1.02386 1.02389 z m -1134.11739,-11.06156 -5.19775,-0.21396 3.55932,-1.42433 3.55933,-1.42432 1.63842,1.6384 1.6384,1.63842 -5.19772,-0.21424 z m 640.64629,-2.49776 h -0.9356 l -5.1661,-6.1017 -5.166,-6.10169 6.1016,5.16607 6.1017,5.16608 v 0.93562 0.93562 z m 1122.7119,0 h -0.9356 l -5.1661,-6.1017 -5.166,-6.10169 6.1017,5.16607 6.1016,5.16608 v 0.93562 0.93562 z m -661.6949,-16.27119 h -0.9356 l -5.1661,-6.10169 -5.1661,-6.1017 6.1017,5.16608 6.1017,5.16607 v 0.93562 0.93562 z m 800,0 h -0.9356 l -5.1661,-6.10169 -5.1661,-6.1017 6.1017,5.16608 6.1017,5.16607 v 0.93562 0.93562 z m 139.6512,0 h -1.3559 l 6.3692,-6.77966 6.3691,-6.77966 h 1.356 1.3559 l -6.3692,6.77966 -6.3691,6.77966 z M 527.1256,677.9661 h -1.02389 v -1.0239 -1.02386 l 4.74577,-3.7219 4.74576,-3.72187 -3.72187,4.74576 -3.7219,4.74577 z m 6.08781,-35.25424 h -1.02386 l -3.7219,-4.74576 -3.72187,-4.74577 4.74576,3.72187 4.74577,3.7219 v 1.02387 1.02389 z m 105.76272,-2.71187 h -1.02386 l -3.7219,-4.74576 -3.72187,-4.74576 4.74576,3.72187 4.74576,3.7219 v 1.02386 1.02389 z m 808.31087,-3.35821 -1.2341,4.71415 0.055,-10.84746 0.055,-10.84746 1.1794,6.13332 1.1794,6.13331 -1.2341,4.71414 z m -81.3498,-2.74348 -1.2402,4.74576 v -9.49152 -9.49153 l 1.2402,4.74576 1.2402,4.74577 z m -778.37845,-14.91525 -1.36784,3.38983 v -6.77966 -6.77967 l 1.36784,3.38983 1.36783,3.38984 z m 129.50343,-22.58699 -5.19775,-0.21396 3.55932,-1.42433 3.55933,-1.42432 1.63842,1.6384 1.6384,1.63842 -5.19772,-0.21396 z m -48.81356,-10.84745 -5.19775,-0.21397 3.55932,-1.42433 3.55932,-1.42432 1.63843,1.6384 1.6384,1.63843 -5.19772,-0.21397 z m -115.02826,-2.92594 h -6.77966 l 3.38983,-1.36784 3.38983,-1.36784 3.38983,1.36784 3.38983,1.36784 z m 28.75707,-5.73001 -1.63843,1.6384 0.21397,-5.19772 0.21397,-5.19775 1.42432,3.55932 1.42433,3.55932 -1.6384,1.63843 z m 197.96611,-2.71186 -1.63843,1.6384 0.21424,-5.19773 0.21396,-5.19775 1.42433,3.55933 1.42433,3.55932 -1.6384,1.63843 z M 573.2273,561.35593 h -1.02389 v -1.02389 -1.02387 l 4.74576,-3.7219 4.74577,-3.72187 -3.72188,4.74576 -3.72189,4.74577 z m 1070.6779,-2.71187 h -1.3559 l 4.9084,-5.42373 4.9084,-5.42372 h 1.3559 1.356 l -4.9085,5.42372 -4.9084,5.42373 z m -170.8475,-2.71186 h -1.3559 l 4.9084,-5.42373 4.9084,-5.42373 h 1.356 1.3559 l -4.9084,5.42373 -4.9084,5.42373 z m -820.52225,-5.42373 h -1.02386 l -3.7219,-4.74576 -3.72187,-4.74577 4.74576,3.72188 4.74576,3.72189 v 1.02387 1.02389 z m -41.23598,-5.63783 -5.19775,-0.21397 3.55932,-1.42432 3.55932,-1.42433 1.63843,1.6384 1.6384,1.63843 -5.19772,-0.21397 z m 571.58873,-2.49776 h -1.3559 l 4.9084,-5.42373 4.9084,-5.42373 h 1.356 1.3559 l -4.9084,5.42373 -4.9084,5.42373 z m 1122.6071,0 h -1.3559 l 6.3692,-6.77966 6.3691,-6.77967 h 1.356 1.3559 l -6.3692,6.77967 -6.3691,6.77966 z M 505.43069,528.81355 h -1.02389 v -1.02389 -1.02386 l 4.74576,-3.7219 4.74576,-3.72187 -3.72187,4.74576 -3.7219,4.74576 z m 1173.72871,-2.71186 h -1.3559 l 4.9084,-5.42373 4.9084,-5.42373 h 1.356 1.3559 l -4.9084,5.42373 -4.9084,5.42373 z m -612.2667,-2.92597 -5.1977,-0.21396 3.5593,-1.42433 3.5593,-1.42432 1.6384,1.6384 1.6384,1.63842 -5.1977,-0.21396 z m 477.2882,0 -5.1978,-0.21396 3.5593,-1.42433 3.5593,-1.42432 1.6385,1.6384 1.6384,1.63842 -5.1977,-0.21396 z m 645.4237,0 -5.1977,-0.21396 3.5593,-1.42433 3.5593,-1.42432 1.6384,1.6384 1.6384,1.63842 -5.1977,-0.21396 z m 328.1356,0 -5.1977,-0.21396 3.5593,-1.42433 3.5593,-1.42432 1.6384,1.6384 1.6384,1.63842 -5.1977,-0.21396 z m 16.2712,0 -5.1978,-0.21396 3.5594,-1.42433 3.5593,-1.42432 1.6384,1.6384 1.6384,1.63842 -5.1977,-0.21396 z M 592.96271,517.9661 h -0.93563 l -5.16607,-6.1017 -5.16607,-6.10169 6.10169,5.16607 6.1017,5.16608 v 0.93562 0.93562 z m 2080.13009,0 h -0.8055 l -10.7199,-11.52543 -10.7199,-11.52542 11.5255,10.71986 11.5254,10.71987 v 0.80556 0.80556 z M 579.31511,515.25423 h -1.02386 l -3.7219,-4.74576 -3.72187,-4.74576 4.74576,3.72187 4.74576,3.7219 v 1.02386 1.02389 z m 349.16644,0 h -1.02389 v -1.02389 -1.02386 l 4.74576,-3.7219 4.74576,-3.72187 -3.72187,4.74576 -3.72189,4.74576 z M 727.80358,509.8305 h -1.02389 v -1.02389 -1.02386 l 4.74576,-3.7219 4.74576,-3.72187 -3.72187,4.74576 -3.7219,4.74576 z m 478.04052,-2.71186 h -0.9356 l -5.1661,-6.1017 -5.1661,-6.10169 6.1017,5.16607 6.1017,5.16608 v 0.93562 0.93562 z m 1122.7119,0 h -0.9356 l -5.1661,-6.1017 -5.1661,-6.10169 6.1017,5.16607 6.1017,5.16608 v 0.93562 0.93562 z M 939.32901,504.40678 h -1.02389 v -1.0239 -1.02386 l 4.74576,-3.7219 4.74576,-3.72187 -3.72187,4.74576 -3.7219,4.74577 z m -330.74141,-40.89207 -5.19775,-0.21397 3.55932,-1.42432 3.55933,-1.42433 1.63842,1.6384 1.6384,1.63843 -5.19772,-0.21397 z M 254.03205,366.10169 h -0.88322 l -6.57441,-7.45763 -6.57441,-7.45762 7.45763,6.5744 7.45762,6.57442 v 0.8832 0.88323 z M 237.6202,349.83051 h -1.02388 l -3.72188,-4.74577 -3.72189,-4.74576 4.74576,3.72187 4.74577,3.7219 v 1.02386 1.0239 z m -51.29956,-113.22034 -1.17524,6.10169 v -12.20339 -12.20339 l 1.17524,6.1017 1.17524,6.10169 z m 362.60594,-25.29884 -5.19775,-0.2141 3.55932,-1.42432 3.55933,-1.42432 1.63842,1.63841 1.6384,1.63842 z m 66.66666,-3.12693 h -9.49152 l 4.74576,-1.2402 4.74576,-1.2402 4.74576,1.2402 4.74577,1.2402 z m 85.19775,-2.2968 -5.19775,-0.2141 3.55933,-1.42432 3.55932,-1.42433 1.63843,1.63842 1.6384,1.63842 z m 127.96611,-68.31698 -1.63843,1.63842 0.21424,-5.19774 0.21397,-5.19774 1.42432,3.55932 1.42433,3.55932 -1.6384,1.63842 z M 573.33336,2.4977698 l -5.19775,-0.2140945 3.55932,-1.42432355 3.55933,-1.42432349 1.63842,1.63841804 1.6384,1.6384181 z"
         id="path134" />
      <path
         style="fill:#9fd8d8;stroke-width:2.71186"
         d="m 1374.2144,926.77965 -0.9487,18.30509 V 908.47457 871.8644 l 0.9487,18.30508 0.9487,18.30509 z m 799.9824,5.42373 -1.0157,12.88136 v -25.76271 -25.76272 l 1.0157,12.88136 1.0157,12.88136 z m -1589.50751,-0.0564 -1.63842,1.6384 0.21396,-5.19773 0.21397,-5.19775 1.42433,3.55933 1.42432,3.55932 -1.6384,1.63843 z m 1863.60641,-5.09666 -0.838,-0.40732 -12.2034,-1.89725 -12.2034,-1.89724 11.3654,-0.40732 11.3654,-0.4073 1.676,2.71186 1.676,2.71187 z M 672.5424,924.31758 h -6.77967 l 3.38984,-1.36784 3.38983,-1.36784 3.38983,1.36784 3.38983,1.36784 z m 497.6271,-0.25573 -10.8474,-0.0548 6.1333,-1.17939 6.1333,-1.17939 4.7141,1.23412 4.7142,1.23411 -10.8475,-0.0548 z m -550.73444,-48.34378 -5.19775,-0.21397 3.55932,-1.42432 3.55932,-1.42433 1.63843,1.6384 1.6384,1.63843 -5.19772,-0.21424 z m 27.7847,-9.95539 -1.36783,3.38983 v -6.77966 -6.77966 l 1.36783,3.38983 1.36784,3.38983 z M 584.73884,843.3898 h -1.02386 l -3.7219,-4.74577 -3.72187,-4.74576 4.74576,3.72187 4.74576,3.7219 v 1.02386 1.0239 z m -27.67666,-13.77343 -5.19775,-0.21396 3.55932,-1.42433 3.55932,-1.42432 1.63843,1.6384 1.6384,1.63842 -5.19772,-0.21423 z m 689.70762,-199.71156 -0.7274,174.16295 0.03,-174.91525 0.03,-174.91525 37.9661,-0.11173 37.9661,-0.11173 -37.2684,0.86397 -37.2683,0.86395 -0.7274,174.16295 z m -529.70762,172.59292 -5.19775,-0.21397 3.55932,-1.42432 3.55933,-1.42433 1.63842,1.6384 1.6384,1.63843 -5.19772,-0.21424 z m 228.35464,-40.46384 h -1.02387 l -3.72189,-4.74576 -3.72188,-4.74576 4.74577,3.72187 4.74576,3.7219 v 1.02386 1.02389 z m -10.84746,-10.84746 h -1.02386 l -3.7219,-4.74576 -3.72187,-4.74576 4.74576,3.72187 4.74576,3.7219 v 1.02386 1.02389 z m 1729.50544,0 h -1.0239 v -1.02389 -1.02386 l 4.7458,-3.7219 4.7458,-3.72187 -3.7219,4.74576 -3.7219,4.74576 z M 1203.0439,737.62711 h -1.0238 l -3.7219,-4.74576 -3.7219,-4.74576 4.7458,3.72187 4.7457,3.7219 v 1.02386 1.02389 z m 1122.7119,0 h -1.0238 l -3.7219,-4.74576 -3.7219,-4.74576 4.7458,3.72187 4.7457,3.7219 v 1.02386 1.02389 z M 1002.4542,713.22033 h -0.9356 l -5.16605,-6.10169 -5.16608,-6.1017 6.1017,5.16608 6.10173,5.16607 v 0.93562 0.93562 z m 622.8012,0 h -0.8486 v -0.84857 -0.84857 l 8.8136,-7.96499 8.8136,-7.96499 -7.965,8.81356 -7.965,8.81356 z m 499.9107,0 h -0.9356 l -5.166,-6.10169 -5.1661,-6.1017 6.1017,5.16608 6.1017,5.16607 v 0.93562 0.93562 z m 165.3355,-8.13559 h -1.0239 l -3.7219,-4.74576 -3.7218,-4.74577 4.7457,3.72188 4.7458,3.72189 v 1.02387 1.02389 z m -1702.94285,-4.74576 -1.36784,3.38983 v -6.77966 -6.77966 l 1.36784,3.38983 1.36783,3.38983 z m 26.45258,-14.45139 -5.19775,-0.21397 3.55932,-1.42432 3.55932,-1.42433 1.63843,1.6384 1.6384,1.63843 -5.19772,-0.21397 z m 103.05085,-10.84746 -5.19775,-0.21397 3.55932,-1.42432 3.55933,-1.42433 1.63842,1.6384 1.6384,1.63843 -5.19772,-0.21397 z m 1915.36022,-39.7859 -1.1752,6.1017 v -12.20339 -12.20339 l 1.1752,6.10169 1.1752,6.1017 z m -211.5699,-1.35593 -1.2402,4.74576 v -9.49152 -9.49153 l 1.2402,4.74576 1.2402,4.74577 z m -973.7903,-13.61581 -1.6384,1.6384 0.2139,-5.19772 0.214,-5.19775 1.4243,3.55932 1.4244,3.55932 -1.6384,1.63843 z m -558.64408,-5.42373 -1.63843,1.6384 0.21424,-5.19772 0.21396,-5.19775 1.42433,3.55932 1.42433,3.55932 -1.6384,1.63843 z m -244.06781,-2.71186 -1.63842,1.6384 0.21396,-5.19773 0.21397,-5.19774 1.42432,3.55932 1.42433,3.55932 -1.6384,1.63843 z m 995.44449,-50.79097 h -0.8832 l -6.5744,-7.45763 -6.5744,-7.45763 7.4576,6.5744 7.4576,6.57443 v 0.8832 0.88323 z m 806.8223,-5.42373 h -1.3559 l 4.9084,-5.42373 4.9084,-5.42373 h 1.3559 1.356 l -4.9085,5.42373 -4.9084,5.42373 z m -791.3559,-8.13559 h -1.0239 v -1.0239 -1.02386 l 4.7458,-3.7219 4.7458,-3.72187 -3.7219,4.74576 -3.7219,4.74577 z m -461.0169,-16.27119 h -1.0239 v -1.02389 -1.02387 l 4.7457,-3.72189 4.7458,-3.72188 -3.7219,4.74577 -3.7219,4.74576 z m -477.18212,-19.19715 -5.19775,-0.21397 3.55932,-1.42432 3.55933,-1.42433 1.63842,1.6384 1.6384,1.63843 -5.19772,-0.21397 z m 1667.18202,0.2141 h -1.3559 l 4.9084,-5.42373 4.9084,-5.42373 h 1.3559 1.356 l -4.9084,5.42373 -4.9085,5.42373 z m -327.627,-2.71187 h -1.0239 v -1.02389 -1.02386 l 4.7458,-3.7219 4.7457,-3.72187 -3.7219,4.74576 -3.7219,4.74576 z m -1003.2838,-54.45139 -5.1978,-0.21396 3.5594,-1.42433 3.5593,-1.42432 1.6384,1.6384 1.6384,1.63842 -5.1977,-0.21396 z m 515.2542,0 -5.1977,-0.21396 3.5593,-1.42433 3.5593,-1.42432 1.6385,1.6384 1.6384,1.63842 -5.1978,-0.21396 z m 283.6159,-1.03886 h -128.8136 l 64.4068,-0.77855 64.4068,-0.77852 64.4067,0.77852 64.4068,0.77855 z m 323.8418,1.03886 -5.1978,-0.21396 3.5594,-1.42433 3.5593,-1.42432 1.6384,1.6384 1.6384,1.63842 -5.1977,-0.21396 z m 330.8475,0 -5.1978,-0.21396 3.5593,-1.42433 3.5593,-1.42432 1.6385,1.6384 1.6384,1.63842 -5.1977,-0.21396 z m 37.9661,0 -5.1978,-0.21396 3.5593,-1.42433 3.5593,-1.42432 1.6385,1.6384 1.6384,1.63842 -5.1977,-0.21396 z M 202.54124,240.70958 l -1.23411,4.71415 0.0547,-10.84746 0.0547,-10.84746 1.17939,6.13331 1.17938,6.13332 z m 338.24975,-29.39825 -5.19775,-0.2141 3.55932,-1.42432 3.55932,-1.42432 1.63843,1.63841 1.6384,1.63842 z m 57.17513,-3.18166 -10.84746,-0.0547 6.13332,-1.17939 6.13332,-1.17938 4.71414,1.23411 4.71414,1.23411 z m 92.2034,-2.55665 -8.1356,-0.10048 4.79737,-1.25013 4.79737,-1.25014 3.33822,1.35062 3.33823,1.35062 -8.13559,-0.10047 z m 121.70186,-26.58997 h -1.02389 v -1.02388 -1.02388 l 4.74576,-3.72188 4.74576,-3.72189 -3.72187,4.74577 -3.7219,4.74576 z M 238.93605,105.76271 h -1.35593 l 9.19955,-9.491524 9.19955,-9.491526 h 1.35593 1.35593 l -9.19955,9.491526 -9.19955,9.491524 z M 565.19777,2.4977698 l -5.19775,-0.2140945 3.55932,-1.42432355 3.55932,-1.42432349 1.63843,1.63841804 1.6384,1.6384181 z"
         id="path132" />
      <path
         style="fill:#6fc5c5;stroke-width:2.71186"
         d="m 488.13561,946.01249 h -6.77966 l 3.38983,-1.36783 3.38983,-1.36784 3.38983,1.36784 3.38983,1.36783 z m 73.22034,-0.31042 h -12.20339 l 6.1017,-1.17524 6.10169,-1.17524 6.1017,1.17524 6.10169,1.17524 z m 111.18645,0 h -12.20339 l 6.10169,-1.17524 6.1017,-1.17524 6.10169,1.17524 6.1017,1.17524 z m 82.48588,0.5245 -5.19775,-0.21397 3.55933,-1.42432 3.55932,-1.42433 1.63843,1.6384 1.6384,1.63843 -5.19773,-0.21424 z m -37.9661,-59.66102 -5.19775,-0.21396 3.55932,-1.42433 3.55933,-1.42433 1.63842,1.6384 1.6384,1.63843 -5.19772,-0.21424 z m -70,-60.18137 -1.63843,1.6384 0.21397,-5.19772 0.21396,-5.19775 1.42433,3.55932 1.42432,3.55933 -1.6384,1.63842 z m 678.36002,-106.8653 -0.7542,87.26077 5e-4,-176.27118 6e-4,-176.27119 0.7536,89.01042 0.7536,89.01041 z m 737.2828,37.09128 h -1.0239 l -3.7219,-4.74576 -3.7218,-4.74576 4.7457,3.72187 4.7458,3.7219 v 1.02386 1.02389 z m 330.8475,0 h -1.0239 l -3.7219,-4.74576 -3.7219,-4.74576 4.7458,3.72187 4.7458,3.7219 v 1.02386 1.02389 z m -1182.373,-10.84745 h -1.0238 l -3.7219,-4.74577 -3.7219,-4.74576 4.7458,3.72187 4.7457,3.7219 v 1.02386 1.0239 z m 684.4138,-9.35474 h -93.5593 l 46.7796,-0.81039 46.7797,-0.81041 46.7796,0.81041 46.7797,0.81039 z m -226.1087,-9.62832 h -1.0238 l -3.7219,-4.74576 -3.7219,-4.74576 4.7458,3.72187 4.7457,3.7219 v 1.02386 1.02389 z m -496.2712,-16.27118 h -1.0238 l -3.7219,-4.74576 -3.7219,-4.74577 4.7458,3.72187 4.7457,3.7219 v 1.02387 1.02389 z m -683.72186,-8.13559 h -4.06779 v -1.06579 -1.06579 l 4.06779,-1.56098 4.0678,-1.56095 v 2.62674 2.62677 z m 35.69432,-42.71187 -1.36784,3.38983 v -6.77966 -6.77966 l 1.36784,3.38983 1.36784,3.38983 z M 1882.034,657.78372 h -80 l 40,-0.82877 40,-0.82877 40,0.82877 40,0.82877 z m -993.61588,-13.09445 -1.63843,1.6384 0.21424,-5.19772 0.21396,-5.19775 1.42433,3.55932 1.42433,3.55932 -1.6384,1.63843 z m 1122.71188,0 -1.6384,1.6384 0.214,-5.19772 0.2139,-5.19775 1.4244,3.55932 1.4243,3.55932 -1.6384,1.63843 z m 0,-24.40678 -1.6384,1.6384 0.214,-5.19772 0.2139,-5.19775 1.4244,3.55932 1.4243,3.55932 -1.6384,1.63843 z M 1683.044,507.11864 h -1.0239 l -3.7219,-4.74576 -3.7219,-4.74577 4.7458,3.72188 4.7458,3.72189 v 1.02387 1.02389 z m -621.575,-51.73953 -5.1978,-0.21396 3.5593,-1.42433 3.5594,-1.42432 1.6384,1.6384 1.6384,1.63842 -5.1977,-0.21396 z m 20.5649,-0.21396 h -6.7796 l 3.3898,-1.36784 3.3898,-1.36784 3.3899,1.36784 3.3898,1.36784 z m 456.7232,0.21396 -5.1977,-0.21396 3.5593,-1.42433 3.5593,-1.42432 1.6384,1.6384 1.6384,1.63842 -5.1977,-0.21396 z m 21.6949,0 -5.1977,-0.21396 3.5593,-1.42433 3.5593,-1.42432 1.6385,1.6384 1.6384,1.63842 -5.1978,-0.21396 z m 644.2938,-0.21407 h -6.7796 l 3.3898,-1.36784 3.3898,-1.36783 3.3899,1.36783 3.3898,1.36784 z m 310.2825,0.21397 -5.1977,-0.21397 3.5593,-1.42433 3.5593,-1.42432 1.6385,1.6384 1.6384,1.63843 -5.1978,-0.21397 z m 21.695,0 -5.1978,-0.21397 3.5593,-1.42433 3.5594,-1.42432 1.6384,1.6384 1.6384,1.63843 -5.1977,-0.21397 z M 296.61712,298.30508 h -1.02389 v -1.02389 -1.02386 l 4.74576,-3.7219 4.74577,-3.72187 -3.72188,4.74576 -3.72189,4.74576 z m 236.03827,-86.99375 -5.19774,-0.2141 3.55932,-1.42433 3.55932,-1.42432 1.63843,1.63842 1.6384,1.63842 z m 50.39548,-2.92596 h -6.77966 l 3.38983,-1.36783 3.38983,-1.36783 3.38983,1.36783 3.38983,1.36783 z m 94.91526,-2.71187 h -6.77967 l 3.38983,-1.36782 3.38984,-1.36783 3.38983,1.36783 3.38983,1.36782 z M 472.99438,2.4977698 l -5.19775,-0.2140945 3.55932,-1.42432355 3.55932,-1.42432349 1.63843,1.63841804 1.6384,1.6384181 z"
         id="path130" />
      <path
         style="fill:#9f9f9f;stroke-width:2.71186"
         d="m 892.20342,946.44067 h -5.42373 v -2.45798 -2.45798 l 5.42373,1.41833 5.42373,1.41834 v 1.03964 1.03965 z m 65.08475,-0.42818 h -6.77966 l 3.38983,-1.36783 3.38983,-1.36784 3.38983,1.36784 3.38983,1.36783 z m 40.83802,0.42818 h -5.2637 l -1.4339,-2.32011 -1.43393,-2.32013 6.6976,1.28032 6.69764,1.28033 v 1.03981 1.03978 z m 73.06031,-1.00328 h -28.4746 l 14.2373,-0.99601 14.2373,-0.99602 14.2373,0.99602 14.2373,0.99601 z m 48.8135,0.5751 h -6.7796 l 3.3898,-1.36783 3.3898,-1.36784 3.3899,1.36784 3.3898,1.36783 z m 33.2204,0.11363 -6.1017,0.31458 v -37.9661 -37.96611 l 18.3051,0.52253 18.3051,0.52252 -16.9492,0.96282 -16.9492,0.96279 v 34.92599 34.926 l 4.7458,1.24019 4.7458,1.24021 z m 48.2956,0.31458 h -5.2637 l -1.257,-2.0339 -1.257,-2.0339 h 6.5207 6.5207 v 2.0339 2.0339 z m 145.5945,-0.51469 -4.754,0.91553 -1.4354,-3.74067 -1.4354,-3.74069 0.7656,-33.74788 0.7657,-33.7479 h 5.4237 5.4238 v 36.57302 36.57304 l -4.754,0.91553 z m -0.6698,-2.1972 h 4.0678 v -35.25424 -35.25424 h -4.0678 -4.0678 v 35.25424 35.25424 z m 32.5424,1.84721 -5.4237,0.55322 4.7457,-1.39905 4.7458,-1.39908 v -25.56385 -25.56388 h 2.5518 2.5518 l 1.935,3.13088 1.935,3.13087 -3.0278,-1.87132 -3.0279,-1.8713 -0.781,25.15013 -0.781,25.15013 z m 54.0113,0.65055 -5.1977,-0.21397 3.5593,-1.42432 3.5593,-1.42433 1.6384,1.6384 1.6384,1.63843 -5.1977,-0.21424 z m 110.7345,-0.10048 -6.1017,0.31458 0.5831,-33.22034 0.5832,-33.22034 0.8572,31.68185 0.8573,31.68181 4.6613,1.22392 4.6613,1.22395 z m 46.7796,-0.55623 -5.4237,0.55938 4.7458,-1.39905 4.7457,-1.39908 v -34.85654 -34.85654 l -3.3898,-1.13796 -3.3898,-1.13792 4.0678,0.29825 4.0678,0.29828 v 36.53589 36.53589 z m 47.4577,0.44263 h -6.7797 l 3.3898,-1.36783 3.3899,-1.36784 3.3898,1.36784 3.3898,1.36783 z m 142.3728,-0.43826 -5.4237,0.55501 4.6613,-1.38278 4.6613,-1.38281 0.8915,-30.32588 0.8915,-30.32591 -0.1291,31.15368 -0.1291,31.15368 z m 69.1526,-0.13695 h -28.4746 l 14.2373,-0.99601 14.2373,-0.99602 14.2373,0.99602 14.2373,0.99601 z m 166.0252,0.68871 -6.1783,0.31457 0.7545,-37.28813 0.7545,-37.28814 h 25.5368 25.5367 l 0.7005,3.45763 0.7006,3.45763 -1.3785,-2.77967 -1.3786,-2.77966 h -24.1807 -24.1808 v 35.05541 35.05537 l 4.7457,1.24019 4.7458,1.24022 z m 96.2626,0 -4.8309,0.31457 -1.3585,-3.54026 -1.3586,-3.54025 0.7657,-33.52632 0.7657,-33.52632 3.4576,-0.69614 3.4576,-0.69613 -2.7796,1.37852 -2.7797,1.37855 v 34.8294 34.82939 l 4.7458,1.24019 4.7457,1.24022 z m 66.9777,0.10033 -5.1977,-0.21396 3.5593,-1.42433 3.5593,-1.42432 1.6385,1.6384 1.6384,1.63842 -5.1978,-0.21423 z m 21.695,0 -5.1978,-0.21396 3.5593,-1.42433 3.5594,-1.42432 1.6384,1.6384 1.6384,1.63842 -5.1977,-0.21423 z m 66.8267,0.21424 h -5.2637 l -1.4339,-2.32011 -1.4339,-2.32013 6.6976,1.28032 6.6976,1.28033 v 1.03981 1.03978 z m 32.3823,-0.42807 h -6.7797 l 3.3899,-1.36783 3.3898,-1.36784 3.3898,1.36784 3.3899,1.36783 z m 69.7454,-0.13939 -26.5258,0.56757 -1.3585,-3.54026 -1.3585,-3.54026 0.7656,-33.74787 0.7657,-33.74788 h 25.7256 25.7255 l 0.2983,4.0678 0.2983,4.06779 -1.138,-3.38983 -1.1379,-3.38983 h -24.2079 -24.208 v 35.15604 35.15604 l 26.4407,0.88657 26.4407,0.88656 z m 48.8136,0.25302 -4.8309,0.31458 -1.3586,-3.54026 -1.3585,-3.54026 0.7657,-33.74788 0.7657,-33.7479 16.2712,-0.19363 16.2711,-0.19362 -15.5932,1.00094 -15.5932,1.00093 v 34.92599 34.92599 l 4.7458,1.24019 4.7457,1.24022 -4.8308,0.31458 z m 47.9947,0.10034 -5.1978,-0.21397 3.5594,-1.42432 3.5593,-1.42433 1.6384,1.6384 1.6384,1.63843 -5.1977,-0.21424 z m 27.3446,-0.65671 -5.4237,0.55938 4.7457,-1.39905 4.7458,-1.39908 v -34.85654 -34.85654 l -3.3898,-1.13795 -3.3899,-1.13793 4.0678,0.29825 4.0678,0.29828 v 36.53589 36.53589 z m 23.0509,0.44264 h -6.7797 l 3.3898,-1.36784 3.3899,-1.36784 3.3898,1.36784 3.3898,1.36784 z m 65.2448,0.42828 h -5.2637 l -1.257,-2.0339 -1.2571,-2.0339 h 6.5207 6.5207 v 2.0339 2.0339 z m 41.8738,-0.99045 -27.1186,-0.0136 14.3281,-0.99916 14.3282,-0.99916 12.7905,1.01198 12.7904,1.01199 -27.1186,-0.0136 z m -1547.1187,-8.0927 h -23.0508 l 11.5254,-1.0381 11.5254,-1.03807 11.5254,1.03807 11.5255,1.0381 z m 181.6949,0.3184 h -9.4915 l 4.7458,-1.24021 4.7457,-1.24019 4.7458,1.24019 4.7458,1.24021 z m 451.5255,0.10061 -8.1356,-0.10061 4.7973,-1.25014 4.7974,-1.25014 3.3382,1.35062 3.3383,1.35064 -8.1356,-0.10061 z m 145.0847,-0.41887 h -23.0508 l 11.5254,-1.0381 11.5254,-1.03808 11.5254,1.03808 11.5255,1.0381 z m 100.339,0.3184 h -9.4915 l 4.7457,-1.24022 4.7458,-1.24019 4.7458,1.24019 4.7457,1.24022 z m 25.4307,0.62902 h -1.0239 v -1.02389 -1.02387 l 4.7457,-3.7219 4.7458,-3.72187 -3.7219,4.74576 -3.7219,4.74577 z m 392.1964,-0.94756 h -23.0508 l 11.5254,-1.0381 11.5254,-1.03807 11.5255,1.03807 11.5254,1.0381 z m 256.2712,0.019 -21.6949,-0.019 11.5971,-1.0416 11.5971,-1.04157 10.0978,1.0595 10.0978,1.05947 -21.6949,-0.019 z m -656.6032,-4.49516 h -1.0239 v -1.02389 -1.02387 l 4.7458,-3.7219 4.7457,-3.72187 -3.7219,4.74577 -3.7219,4.74576 z m -463.1143,-3.44632 -1.6384,1.6384 0.2139,-5.19772 0.214,-5.19775 1.4243,3.55932 1.4243,3.55932 -1.6384,1.63843 z m 230.5085,-5.42373 -1.6385,1.6384 0.214,-5.19772 0.214,-5.19775 1.4243,3.55932 1.4243,3.55932 -1.6384,1.63843 z m 720.7414,-4.68927 h -1.0239 v -1.0239 -1.02386 l 4.7458,-3.7219 4.7457,-3.72187 -3.7218,4.74576 -3.7219,4.74577 z m -1241.1885,-6.1017 -1.2402,4.74576 v -9.49152 -9.49153 l 1.2402,4.74577 1.2402,4.74576 z m 469.3053,-15.33944 -0.9444,20.0852 -0.5388,-22.17404 -0.5389,-22.17402 -4.7457,-1.24019 -4.7458,-1.24022 4.8309,-0.31458 4.8308,-0.31457 1.3982,3.6436 1.3982,3.64364 z m 349.8423,18.19813 -19.661,-0.53115 18.3051,-0.94869 18.3051,-0.94869 v -2.46406 -2.46405 l -18.3051,-0.94869 -18.3051,-0.94869 19.661,-0.53115 19.6611,-0.53115 v 5.42373 5.42373 z m -964.7738,-3.35119 -17.5991,0.18549 16.9492,-0.98731 16.9491,-0.98733 v -2.46406 -2.46405 l -18.3051,-0.94869 -18.305,-0.94869 19.8598,-0.53115 19.8599,-0.53115 -0.9049,4.74577 -0.9048,4.74576 -17.5991,0.18549 z m 778.3051,0 -17.5991,0.18549 16.9492,-0.98731 16.9491,-0.98733 v -2.46406 -2.46405 l -18.305,-0.94869 -18.3051,-0.94869 19.8598,-0.53115 19.8599,-0.53115 -0.9048,4.74577 -0.9049,4.74576 -17.5991,0.18549 z m 64.197,-0.86343 -1.3679,3.38983 v -6.77966 -6.77966 l 1.3679,3.38983 1.3678,3.38983 z m 67.7966,0 -1.3679,3.38983 v -6.77966 -6.77966 l 1.3679,3.38983 1.3678,3.38983 z m 386.0006,1.12214 h -20.339 l 10.1695,-1.06375 10.1695,-1.06376 10.1695,1.06376 10.1695,1.06375 z m 1.3559,-8.11371 -18.983,0.0217 8.753,-1.08925 8.7531,-1.08925 10.23,1.06737 10.23,1.06736 -18.9831,0.0217 z m 89.9316,-3.85589 -1.3678,3.38983 v -6.77966 -6.77966 l 1.3678,3.38983 1.3679,3.38983 z m -1006.1017,-5.42373 -1.3679,3.38983 v -6.77966 -6.77966 l 1.3679,3.38983 1.3678,3.38983 z m 1201.356,0 -1.3679,3.38983 v -6.77966 -6.77966 l 1.3679,3.38983 1.3678,3.38983 z m -728.0604,-0.67796 h -1.356 l 4.9085,-5.42373 4.9084,-5.42373 h 1.3559 1.3559 l -4.9084,5.42373 -4.9084,5.42373 z m 49.9862,-2.71187 h -1.0239 l -3.7219,-4.74576 -3.7218,-4.74576 4.7457,3.72187 4.7458,3.7219 v 1.02386 1.02389 z m -55.41,-5.42373 h -1.3559 l 4.9084,-5.42373 4.9084,-5.42372 h 1.356 1.3559 l -4.9084,5.42372 -4.9084,5.42373 z m 63.5456,0 h -1.0239 l -3.7219,-4.74576 -3.7218,-4.74576 4.7457,3.72187 4.7458,3.7219 v 1.02386 1.02389 z m -783.7289,-2.71186 h -1.0238 l -3.7219,-4.74576 -3.7219,-4.74577 4.7458,3.72187 4.7457,3.7219 v 1.02387 1.02389 z m 55.2612,-3.14004 h -6.7796 l 3.3898,-1.36784 3.3898,-1.36784 3.3899,1.36784 3.3898,1.36784 z m 225.0848,-0.20095 h -9.4915 l 4.7457,-1.24022 4.7458,-1.24019 4.7457,1.24019 4.7458,1.24022 z m 267.7176,-4.02951 -1.1212,3.30273 0.2936,-4.0678 0.2936,-4.06779 31.1539,-0.1459 31.154,-0.1459 -30.3264,0.91092 -30.3264,0.91094 -1.1211,3.3027 z m 204.1468,4.23046 h -6.7797 l 3.3899,-1.36784 3.3898,-1.36784 3.3898,1.36784 3.3899,1.36784 z m 729.4916,-0.20095 h -9.4916 l 4.7458,-1.24022 4.7458,-1.24019 4.7457,1.24019 4.7458,1.24022 z m -1296.6172,-2.34861 -1.01,-0.26603 -6.7797,-3.76193 -6.7796,-3.76193 4.4137,-0.0399 4.4137,-0.0399 3.376,4.06779 3.3759,4.0678 -1.01,-0.26604 z m 186.6058,-0.68328 -1.8531,1.8531 v -3.16383 -3.16385 l -30.5085,-0.57594 -30.5084,-0.57595 29.5986,-0.87626 29.5986,-0.87626 2.763,2.76293 2.7629,2.76296 z m -642.37102,-2.03303 -0.83802,-0.27032 -6.77967,-2.17123 -6.77966,-2.17123 5.94164,-0.27037 5.94167,-0.27037 1.67602,2.71186 1.67601,2.71187 -0.83799,-0.27038 z m 34.15726,-1.08562 h -6.52071 v -2.03389 -2.0339 h 5.26368 5.2637 l 1.257,2.0339 1.25703,2.03389 z m 61.49326,-0.62701 -6.4224,1.67949 2.8652,-2.86522 2.8653,-2.86522 3.5571,1.18573 3.5572,1.18571 z m 1149.8306,0 -6.4224,1.67949 2.8652,-2.86522 2.8652,-2.86522 3.5572,1.18573 3.5572,1.18571 z m 54.2373,0 -6.4224,1.67949 2.8652,-2.86522 2.8652,-2.86522 3.5572,1.18573 3.5572,1.18571 z m 316.1872,-0.25301 -7.6633,1.56244 2.6294,-2.62945 2.6295,-2.62943 5.0338,1.06699 5.0338,1.06701 z m -1478.4386,-1.46636 -27.1186,-0.0136 14.3282,-0.99916 14.3282,-0.99916 12.7904,1.01199 12.7905,1.01198 -27.1187,-0.0136 z M 1120,872.79216 h -6.7796 l 3.3898,-1.36784 3.3898,-1.36784 3.3899,1.36784 3.3898,1.36784 z m 131.2995,0.21396 -5.1978,-0.21396 3.5594,-1.42433 3.5593,-1.42433 1.6384,1.6384 1.6384,1.63843 -5.1977,-0.21424 z m 180.565,-0.21396 h -6.7797 l 3.3898,-1.36784 3.3899,-1.36784 3.3898,1.36784 3.3898,1.36784 z m 58.0791,0.21396 -5.1978,-0.21396 3.5593,-1.42433 3.5594,-1.42433 1.6384,1.6384 1.6384,1.63843 -5.1977,-0.21424 z m 148.0226,-0.81133 h -31.1865 l 15.5932,-0.9785 15.5933,-0.97849 15.5932,0.97849 15.5932,0.9785 z m 97.6271,0.59737 h -6.7797 l 3.3898,-1.36784 3.3899,-1.36784 3.3898,1.36784 3.3898,1.36784 z m 112.5424,-0.56228 -27.1187,-0.0136 14.3282,-0.99916 14.3282,-0.99916 12.7904,1.01199 12.7905,1.01198 -27.1186,-0.0136 z m 100.113,0.77635 -5.1978,-0.21397 3.5593,-1.42432 3.5594,-1.42433 1.6384,1.6384 1.6384,1.63843 -5.1977,-0.21424 z m 13.5593,0 -5.1978,-0.21397 3.5594,-1.42432 3.5593,-1.42433 1.6384,1.6384 1.6384,1.63843 -5.1977,-0.21424 z m 337.8531,-0.81144 h -31.1864 l 15.5932,-0.9785 15.5932,-0.97849 15.5932,0.97849 15.5932,0.9785 z m 303.7288,0.59737 h -6.7796 l 3.3898,-1.36784 3.3898,-1.36784 3.3899,1.36784 3.3898,1.36784 z"
         id="path128" />
      <path
         style="fill:#4fb9b9;stroke-width:2.71186"
         d="m 619.43506,932.66725 -5.19775,-0.21397 3.55932,-1.42433 3.55932,-1.42432 1.63843,1.6384 1.6384,1.63843 -5.19772,-0.21424 z m 1470.56384,-296.02547 -1.2341,4.71415 0.055,-10.84746 0.055,-10.84746 1.1794,6.13332 1.1794,6.13331 -1.2342,4.71414 z m -1201.34984,-2.74348 -1.24022,4.74576 v -9.49152 -9.49153 l 1.24022,4.74576 1.24019,4.74577 z m 78.64407,0 -1.24022,4.74576 v -9.49152 -9.49153 l 1.24022,4.74576 1.24019,4.74577 z m 1044.06787,0 -1.2403,4.74576 v -9.49152 -9.49153 l 1.2403,4.74576 1.2402,4.74577 z m -1269.38356,-19.03954 -1.63843,1.6384 0.21424,-5.19772 0.21396,-5.19775 1.42433,3.55932 1.42432,3.55932 -1.6384,1.63843 z M 1981.662,503.83509 l -0.9754,15.48694 0.011,-32.54237 0.011,-32.54238 0.9656,17.05543 0.9656,17.05544 -0.9754,15.48694 z m -570.9772,8.70728 h -1.3559 l 4.9084,-5.42373 4.9085,-5.42373 h 1.3559 1.3559 l -4.9084,5.42373 -4.9084,5.42373 z m -339.4983,-57.37733 h -6.7797 l 3.3898,-1.36784 3.3899,-1.36783 3.3898,1.36783 3.3898,1.36784 z m 478.6441,-0.10061 -8.1356,-0.10034 4.7973,-1.25014 4.7974,-1.25014 3.3382,1.35061 3.3383,1.35065 -8.1356,-0.10061 z m 642.7118,0 -8.1355,-0.10034 4.7973,-1.25014 4.7974,-1.25014 3.3382,1.35061 3.3382,1.35065 -8.1356,-0.10061 z m 333.5594,0 -8.1356,-0.10034 4.7974,-1.25014 4.7973,-1.25014 3.3383,1.35061 3.3382,1.35065 -8.1356,-0.10061 z M 573.33336,208.59946 l -5.19775,-0.21409 3.55932,-1.42432 3.55933,-1.42433 1.63842,1.63842 1.6384,1.63842 z m 92.42937,-3.02644 -8.13559,-0.10048 4.79737,-1.25013 4.79737,-1.25014 3.33822,1.35062 3.33823,1.35062 -8.1356,-0.10047 z m -540.339,-50.88342 -12.88135,12.09006 12.09005,-12.88136 12.09006,-12.88135 h 0.7913 0.7913 v 0.7913 0.7913 z m 137.9191,-51.63875 h -1.35593 l 9.19955,-9.491529 9.19954,-9.491525 h 1.35593 1.35593 l -9.19954,9.491525 -9.19955,9.491529 z M 481.12997,2.4977698 l -5.19775,-0.2140945 3.55932,-1.42432355 3.55932,-1.42432349 1.63843,1.63841804 1.6384,1.6384181 z m 70.50848,0 -5.19775,-0.2140946 3.55932,-1.42432353 3.55932,-1.42432349 1.63843,1.63841802 1.6384,1.6384182 z"
         id="path126" />
      <path
         style="fill:#2dacac;stroke-width:2.71186"
         d="m 530.452,907.74011 -1.63842,1.6384 0.21396,-5.19772 0.21397,-5.19775 1.42433,3.55933 1.42432,3.55932 -1.6384,1.63842 z m 26.61018,-13.03896 -5.19775,-0.21397 3.55932,-1.42433 3.55932,-1.42432 1.63843,1.6384 1.6384,1.63843 -5.19772,-0.21424 z m 505.98872,-89.7056 h -6.7797 l 3.3899,-1.36784 3.3898,-1.36784 3.3898,1.36784 3.3898,1.36784 z m 16.2712,0 h -6.7797 l 3.3898,-1.36784 3.3899,-1.36784 3.3898,1.36784 3.3898,1.36784 z m 462.1469,0.21396 -5.1978,-0.21396 3.5594,-1.42433 3.5593,-1.42433 1.6384,1.6384 1.6384,1.63843 -5.1977,-0.21424 z m 15.1412,-0.21396 h -6.7796 l 3.3898,-1.36784 3.3898,-1.36784 3.3899,1.36784 3.3898,1.36784 z m 170.1679,-85.47667 -0.7542,87.26077 6e-4,-176.27118 5e-4,-176.27119 0.7537,89.01042 0.7536,89.01041 z m 458.9847,85.47667 h -6.7797 l 3.3899,-1.36784 3.3898,-1.36784 3.3898,1.36784 3.3898,1.36784 z m 16.2712,0 h -6.7797 l 3.3898,-1.36784 3.3899,-1.36784 3.3898,1.36784 3.3898,1.36784 z m 315.7062,0.21396 -5.1977,-0.21396 3.5593,-1.42433 3.5593,-1.42433 1.6384,1.6384 1.6384,1.63843 -5.1977,-0.21424 z m 16.2712,0 -5.1978,-0.21396 3.5594,-1.42433 3.5593,-1.42433 1.6384,1.6384 1.6384,1.63843 -5.1977,-0.21424 z m -1762.20345,-22.21527 -1.63843,1.6384 0.21424,-5.19772 0.21396,-5.19775 1.42433,3.55933 1.42432,3.55932 -1.6384,1.63842 z m 651.03765,-23.67221 h -0.8832 l -6.5744,-7.45763 -6.5744,-7.45763 7.4576,6.5744 7.4577,6.57443 v 0.8832 0.88323 z m -347.5913,-19.51173 -8.1356,-0.10061 4.7974,-1.25014 4.7973,-1.25015 3.3382,1.35062 3.3383,1.35064 -8.1356,-0.10061 z m 480,0 -8.1356,-0.10061 4.7974,-1.25014 4.7973,-1.25015 3.3383,1.35062 3.3382,1.35064 -8.1356,-0.10061 z m 642.7119,0 -8.1356,-0.10061 4.7974,-1.25014 4.7973,-1.25015 3.3382,1.35062 3.3383,1.35064 -8.1356,-0.10061 z m 328.1356,0 -8.1356,-0.10061 4.7974,-1.25014 4.7973,-1.25015 3.3383,1.35062 3.3382,1.35064 -8.1356,-0.10061 z m -1809.03962,-21.38034 -5.19775,-0.21397 3.55932,-1.42432 3.55933,-1.42433 1.63842,1.6384 1.6384,1.63843 -5.19772,-0.21424 z m 430.46702,-5.20963 h -1.356 l 6.3692,-6.77966 6.3692,-6.77966 h 1.3559 1.3559 l -6.3691,6.77966 -6.3692,6.77966 z m 332.2132,0 h -0.9356 l -5.1661,-6.10169 -5.1661,-6.1017 6.1017,5.16608 6.1017,5.16607 v 0.93562 0.93562 z m 790.4987,0 h -1.356 l 6.3692,-6.77966 6.3692,-6.77966 h 1.3559 1.3559 l -6.3691,6.77966 -6.3692,6.77966 z M 579.31511,596.61016 h -1.02386 l -3.7219,-4.74576 -3.72187,-4.74576 4.74576,3.72187 4.74576,3.7219 v 1.02386 1.02389 z m 580.42729,-37.9661 h -0.9356 l -5.1661,-6.10169 -5.1661,-6.1017 6.1017,5.16608 6.1017,5.16607 v 0.93562 0.93562 z m 1122.7119,0 h -0.9356 l -5.1661,-6.10169 -5.1661,-6.1017 6.1017,5.16608 6.1017,5.16607 v 0.93562 0.93562 z M 1177.9731,545.08474 h -1.0239 v -1.02389 -1.02386 l 4.7458,-3.7219 4.7457,-3.72187 -3.7219,4.74576 -3.7219,4.74576 z m 1122.7119,0 h -1.0239 v -1.02389 -1.02386 l 4.7458,-3.7219 4.7457,-3.72187 -3.7218,4.74576 -3.7219,4.74576 z m -626.4407,-16.27119 h -1.0239 v -1.02389 -1.02386 l 4.7458,-3.7219 4.7457,-3.72187 -3.7218,4.74576 -3.7219,4.74576 z M 527.1256,515.25423 h -1.02389 v -1.02389 -1.02386 l 4.74577,-3.7219 4.74576,-3.72187 -3.72187,4.74576 -3.7219,4.74576 z m 1804.054,-2.71186 h -1.0239 l -3.7219,-4.74576 -3.7219,-4.74577 4.7458,3.72187 4.7458,3.7219 v 1.02387 1.02389 z M 1.6384181,473.84181 0,475.48021 l 0.21409457,-5.19772 0.21409457,-5.19775 1.42432356,3.55932 1.4243235,3.55933 z M 511.5185,469.15254 h -1.02387 l -3.72189,-4.74576 -3.72188,-4.74577 4.74577,3.72187 4.74576,3.7219 v 1.02387 1.02389 z m 238.38696,-2.71187 h -1.11078 l -1.78752,-2.89228 -1.78753,-2.89229 1.29248,-1.29247 1.29244,-1.29247 1.60586,4.18475 1.60583,4.18476 z M 550.50849,457.56648 H 538.3051 l 6.1017,-1.17524 6.10169,-1.17524 6.1017,1.17524 6.10169,1.17524 z m 115.25424,0.2099 -8.13559,-0.10034 4.79737,-1.25015 4.79737,-1.25014 3.33822,1.35062 3.33823,1.35064 -8.1356,-0.10061 z m 93.55933,-0.10034 h -9.49153 l 4.74577,-1.24022 4.74576,-1.24019 4.74576,1.24019 4.74577,1.24022 z M 245.84404,360.67796 h -0.93562 l -5.16607,-6.10169 -5.16607,-6.1017 6.10169,5.16608 6.1017,5.16607 v 0.93562 0.93562 z m 13.55933,-5.42373 h -0.93563 l -5.16607,-6.10169 -5.16607,-6.1017 6.1017,5.16608 6.10169,5.16607 v 0.93562 0.93562 z m 305.7944,-146.65477 -5.19775,-0.21409 3.55932,-1.42432 3.55932,-1.42433 1.63843,1.63842 1.6384,1.63842 z m 87.00564,-3.02644 -8.13559,-0.10048 4.79737,-1.25013 4.79737,-1.25014 3.33822,1.35062 3.33823,1.35062 -8.1356,-0.10047 z M 489.26556,2.4977698 l -5.19775,-0.2140945 3.55933,-1.42432355 3.55932,-1.42432349 1.63842,1.63841804 1.6384,1.6384181 z m 54.23729,0 -5.19775,-0.2140946 3.55933,-1.42432353 3.55932,-1.42432349 1.63842,1.63841802 1.6384,1.6384182 z"
         id="path124" />
      <path
         style="fill:#15a3a3;stroke-width:2.71186"
         d="m 527.74014,823.67232 -1.63843,1.6384 0.21397,-5.19772 0.21397,-5.19775 1.42432,3.55932 1.42433,3.55932 -1.6384,1.63843 z m 757.68366,-19.32627 h -39.3221 l 19.6611,-0.93591 19.661,-0.9359 19.661,0.9359 19.661,0.93591 z m 572.2034,-0.17735 h -131.5254 l 65.7627,-0.77671 65.7627,-0.7767 65.7627,0.7767 65.7627,0.77671 z m 668.2486,1.04078 -5.1977,-0.21396 3.5593,-1.42433 3.5593,-1.42432 1.6384,1.6384 1.6384,1.63842 -5.1977,-0.21423 z M 151.0845,781.01694 h -0.77991 l -13.45738,-14.23729 -13.45738,-14.23728 14.23729,13.45738 14.23729,13.45738 v 0.77991 0.7799 z m 1042.5464,-18.98305 h -1.356 l 6.3692,-6.77966 6.3692,-6.77966 h 1.3559 1.3559 l -6.3691,6.77966 -6.3692,6.77966 z m 1122.7119,0 h -1.356 l 6.3692,-6.77966 6.3692,-6.77966 h 1.3559 1.3559 l -6.3691,6.77966 -6.3692,6.77966 z m -627.8751,-16.27118 h -1.0239 l -3.7219,-4.74577 -3.7218,-4.74576 4.7457,3.72187 4.7458,3.7219 v 1.02386 1.0239 z m 114.2239,-29.15255 -0.9359,19.66102 v -39.32203 -39.32204 l 0.9359,19.66102 0.9359,19.66102 z m -610.4951,12.88136 h -1.0239 l -3.7219,-4.74576 -3.7218,-4.74577 4.7457,3.72188 4.7458,3.72189 v 1.02387 1.02389 z m 1122.7119,0 h -1.0239 l -3.7219,-4.74576 -3.7218,-4.74577 4.7457,3.72188 4.7458,3.72189 v 1.02387 1.02389 z m 280.7564,-13.55932 h -1.3559 l 6.3692,-6.77966 6.3691,-6.77966 h 1.356 1.3559 l -6.3692,6.77966 -6.3691,6.77966 z m -942.4513,-2.71187 h -1.0239 l -3.7219,-4.74576 -3.7219,-4.74576 4.7458,3.72187 4.7457,3.7219 v 1.02386 1.02389 z m 800.0883,0 h -0.9357 l -5.166,-6.10169 -5.1661,-6.1017 6.1017,5.16608 6.1017,5.16607 v 0.93562 0.93562 z M 636.26427,639.99999 h -1.02387 l -3.7219,-4.74576 -3.72187,-4.74576 4.74576,3.72187 4.74577,3.7219 v 1.02386 1.02389 z m 1705.94413,-6.10169 -1.2402,4.74576 v -9.49152 -9.49153 l 1.2402,4.74576 1.2402,4.74577 z m -1730.90893,-32.07851 -5.19775,-0.21396 3.55932,-1.42433 3.55932,-1.42433 1.63843,1.6384 1.6384,1.63843 -5.19772,-0.21396 z m 16.16512,-5.20963 h -1.02389 v -1.02389 -1.02386 l 4.74576,-3.7219 4.74577,-3.72187 -3.72188,4.74576 -3.72189,4.74576 z m 1175.20311,-38.6071 -0.8667,39.96304 0.1166,-40.67797 0.1166,-40.67796 88.1356,-0.0556 88.1356,-0.0556 -87.3853,0.77049 -87.3854,0.77053 -0.8667,39.96303 z m -332.3218,-2.07086 h -1.356 l 4.9085,-5.42373 4.9084,-5.42373 h 1.3559 1.3559 l -4.9084,5.42373 -4.9084,5.42373 z m 174.0679,0 h -1.0239 v -1.02389 -1.02387 l 4.7457,-3.7219 4.7458,-3.72187 -3.7219,4.74577 -3.7219,4.74576 z m 664.4068,-18.98305 h -1.0239 v -1.02389 -1.02387 l 4.7458,-3.7219 4.7457,-3.72187 -3.7219,4.74577 -3.7219,4.74576 z m -626.4407,-16.27119 h -1.0239 v -1.02389 -1.02386 l 4.7458,-3.7219 4.7457,-3.72187 -3.7219,4.74576 -3.7219,4.74576 z m -479.336,-13.55932 h -1.0238 l -3.7219,-4.74576 -3.7219,-4.74577 4.7458,3.72188 4.7457,3.72189 v 1.02387 1.02389 z M 1.6384181,441.29944 0,442.93784 l 0.21409457,-5.19772 0.21409457,-5.19775 1.42432356,3.55932 1.4243235,3.55932 z M 234.90833,349.83051 h -1.02388 l -3.72188,-4.74577 -3.72188,-4.74576 4.74576,3.72187 4.74576,3.7219 v 1.02386 1.0239 z m 406.22164,-143.94291 -5.19774,-0.2141 3.55932,-1.42432 3.55932,-1.42432 1.63843,1.63841 1.6384,1.63842 z M 498.98307,2.2836753 h -6.77966 l 3.38983,-1.36782636 3.38983,-1.36782635 3.38983,1.36782635 3.38983,1.36782636 z m 33.8983,-0.1004855 -8.13559,-0.1004854 4.79737,-1.25013698 4.79737,-1.25013699 3.33822,1.35062236 3.33823,1.35062241 z"
         id="path122" />
      <path
         style="fill:#009b9b;stroke-width:2.71186"
         d="m 487.72577,943.57046 -11.79355,-0.15837 -32.54237,-9.09009 -32.54238,-9.09009 -27.11864,-9.38449 -27.11865,-9.38446 -17.62712,-7.41152 -17.62712,-7.41153 L 290.1695,875.76333 258.98306,859.88669 230.50848,841.27376 202.03391,822.66082 181.69492,806.23115 161.35594,789.80148 131.52543,758.89076 101.69492,727.98003 83.359604,702.2951 65.024292,676.61016 47.629263,641.35593 30.234236,606.10169 22.135748,580.33898 14.037261,554.57627 9.6986683,533.51956 5.3600761,512.46286 2.8881989,481.99414 0.41632161,451.52542 2.8699456,421.14508 l 2.4536239,-30.38036 4.302388,-21.14506 4.3023875,-21.14509 9.393555,-28.28019 9.393556,-28.28016 16.229381,-31.38084 16.229381,-31.38084 17.113215,-23.12805 17.113216,-23.12805 17.418321,-18.68251 17.41832,-18.6825 23.23642,-19.38886 23.23643,-19.38887 22.86527,-15.051466 22.86528,-15.051471 28.47457,-14.284583 28.47458,-14.284583 23.62658,-9.125543 23.62657,-9.125546 h 1.71694 1.71691 l -29.41128,19.299642 -29.41131,19.299642 -27.29722,27.480019 -27.29722,27.480019 -11.16345,18.98305 -11.16346,18.98305 -6.03544,17.62712 -6.03544,17.62712 -1.26876,25.4887 -1.26875,25.4887 3.28413,15.18927 3.28413,15.18926 10.37861,21.69491 10.3786,21.69492 15.83716,18.83539 15.83716,18.83542 24.40057,18.5424 24.40056,18.5424 27.11865,13.31408 27.11864,13.31409 23.26409,8.05085 23.26408,8.05087 30.97321,6.89777 30.9732,6.89776 22.89082,2.82291 22.89083,2.82292 7.6609,7.33961 7.66091,7.3396 2.77313,10.29866 2.77315,10.29866 -2.85421,10.59973 -2.85421,10.59975 -9.6759,8.49554 -9.67591,8.49554 -7.86937,1.57389 -7.8694,1.57388 1.47198,2.38167 1.47194,2.38169 h 5.39838 5.39834 l 8.12084,4.19946 8.12087,4.19946 5.29364,8.6819 5.29367,8.68189 v 12.20339 12.20339 l -5.39501,8.84857 -5.39504,8.8486 -9.5101,4.53505 -9.51008,4.53502 v 2.2096 2.2096 h 5.05801 5.05801 l 7.19956,5.66319 7.19957,5.66316 4.31564,8.34555 4.31566,8.34554 -1.35976,12.06378 -1.35978,12.06379 -5.26368,7.14785 -5.26367,7.14782 -9.27181,4.61318 -9.27181,4.61318 -5.42373,1.90473 -5.42373,1.90471 9.93605,1.83083 9.93609,1.83081 6.97532,4.57041 6.97532,4.57039 4.2295,6.45508 4.22951,6.45505 1.55848,9.60366 1.55846,9.60369 -5.75046,11.87883 -5.75045,11.87886 -11.46555,6.44399 -11.46552,6.44398 8.07593,2.22262 8.07596,2.22259 4.19225,3.35807 4.19224,3.35805 4.62132,6.70511 4.62131,6.70509 v 13.0906 13.09058 l -3.79015,7.32935 -3.79016,7.32936 -5.48127,4.96049 -5.48128,4.96046 -11.57773,3.41852 -11.57774,3.4185 11.77557,1.88298 11.77554,1.88298 10.42955,10.42953 10.42954,10.42956 v 14.23623 14.23623 l -5.46647,8.84494 -5.4665,8.84496 -9.18063,4.3565 -9.18067,4.35651 -11.79354,-0.15838 z m 73.159,0.15837 h -12.24752 l -4.48811,-4.95929 -4.4881,-4.9593 v -5.46785 -5.46785 l 5.36791,-4.85792 5.36792,-4.8579 h 10.95908 10.95908 l 5.36792,4.8579 5.36792,4.85792 v 5.93904 5.93904 l -4.9593,4.4881 -4.95929,4.48811 z m 112.30527,-0.53518 -14.2676,0.82071 -1.61576,-4.21054 -1.61576,-4.21058 1.52996,-3.98698 1.52995,-3.98699 7.27661,-1.82633 7.27661,-1.8263 7.0768,2.48878 7.0768,2.48876 v 6.71436 6.71436 z m 82.06422,0.53516 h -5.69491 l -3.25424,-3.25424 -3.25424,-3.25424 v -4.78595 -4.78593 l 5.76676,-3.08629 5.76678,-3.08626 6.43661,2.93272 6.43663,2.93271 v 4.9395 4.9395 l -3.25423,3.25424 -3.25424,3.25424 z m -136.06259,-13.61964 -10.37809,-0.0602 -5.7843,-4.68548 -5.7843,-4.68545 -3.02926,-5.92342 -3.02926,-5.92341 v -7.22913 -7.22912 l 9.22034,-9.22034 9.22034,-9.22034 h 7.18552 7.18552 l 7.92054,4.09586 7.92052,4.09587 2.79227,5.21738 2.79224,5.21738 v 9.8784 9.87843 l -7.927,7.92697 -7.92697,7.927 -10.37811,-0.0602 z m 98.09649,-5.36342 h -6.17879 l -6.17614,-5.00113 -6.17613,-5.00114 v -8.98078 -8.98077 l 6.17613,-5.00114 6.17614,-5.00114 h 6.17879 6.17879 l 6.17614,5.00114 6.17614,5.00114 v 8.98077 8.98078 l -6.17614,5.00114 -6.17614,5.00113 z m 70.88046,-8.13559 h -1.3405 l -4.2615,-4.2615 -4.26151,-4.26151 v -3.68038 -3.68038 l 4.26151,-4.2615 4.2615,-4.26151 h 1.3405 1.34051 l 5.24545,2.80727 5.24545,2.80729 v 6.58883 6.58883 l -5.24545,2.80729 -5.24545,2.80727 z M 558.16276,892.20338 h -11.87119 l -6.04263,-4.2324 -6.0426,-4.23244 -4.05231,-7.83628 -4.05232,-7.83631 v -7.17389 -7.17388 l 4.62661,-7.83222 4.62663,-7.83222 8.66457,-4.11162 8.66459,-4.11162 h 5.82653 5.82652 l 7.95501,4.11371 7.95504,4.11368 4.11368,7.95504 4.11371,7.95501 v 9.89738 9.89738 l -9.22034,9.22034 -9.22034,9.22034 z m 117.0915,-6.92653 -6.77966,1.41323 -7.38945,-4.0739 -7.38945,-4.0739 -2.78004,-5.19454 -2.78004,-5.19458 v -6.8067 -6.80672 l 6.42823,-7.47328 6.42823,-7.47325 h 10.19438 10.19439 l 6.42823,7.47325 6.42823,7.47328 v 7.83313 7.83314 l -6.10169,6.8288 -6.1017,6.82878 z m 79.59341,-6.63279 h -3.26755 l -5.62056,-7.14538 -5.62055,-7.14539 v -1.74272 -1.74275 l 4.22156,-6.02712 4.22158,-6.02715 h 7.43944 7.43945 l 3.25424,3.25424 3.25424,3.25424 v 7.43945 7.43943 l -6.02715,4.22159 -6.02712,4.22156 z M 618.30511,848.81355 h -11.26468 l -7.92697,-7.92699 -7.927,-7.92697 v -9.65736 -9.65736 l 7.85806,-8.79471 7.85809,-8.79471 h 11.4025 11.40249 l 7.85809,8.79471 7.85806,8.79471 v 9.65736 9.65736 l -7.927,7.92697 -7.92697,7.92699 z m 97.82395,-8.13559 h -7.93877 l -5.62056,-7.14538 -5.62055,-7.14539 v -5.18126 -5.18129 l 6.6564,-6.65638 6.65638,-6.6564 h 6.39157 6.39159 l 5.93508,5.52938 5.93508,5.52936 v 8.02996 8.02994 l -5.42373,5.42373 -5.42373,5.42373 z m 71.75582,-8.13559 h -3.31542 l -4.70427,-5.19813 -4.70424,-5.19816 3.1104,-5.81185 3.11043,-5.81182 7.27522,0.84048 7.27523,0.84049 0.88613,6.25096 0.88616,6.25095 -3.2521,3.91854 -3.25209,3.91854 z m -232.54352,-21.80106 -3.47693,-0.10604 -8.26468,-3.59994 -8.26468,-3.59995 -4.61668,-7.04596 -4.61668,-7.04594 v -9.72163 -9.7216 l 3.83645,-7.41885 3.83642,-7.41884 7.15159,-3.82742 7.15157,-3.82742 9.00966,0.25546 9.00962,0.25546 5.91019,3.16304 5.91015,3.16301 5.26848,8.64048 5.26847,8.64049 v 6.77966 6.77966 l -5.47295,8.97676 -5.47297,8.97673 -9.34506,3.90463 -9.34503,3.90459 -3.47694,-0.10603 z m 118.37262,-6.43035 -8.31998,1.59328 -8.62918,-7.26099 -8.6292,-7.26099 v -10.13367 -10.13367 l 6.27647,-5.89646 6.27648,-5.89643 h 8.41697 8.41701 l 4.38988,1.68455 4.38989,1.68456 3.96751,7.6723 3.96748,7.6723 v 5.40718 5.40716 l -6.10169,6.9338 -6.1017,6.93378 z m 397.47252,-1.7885 -31.1865,-0.10929 -19.4646,-5.10204 -19.4645,-5.10205 -15.09359,-7.1404 -15.09359,-7.14039 -16.17058,-12.15563 -16.17057,-12.15566 -11.24662,-14.09665 -11.24659,-14.09668 -6.8576,-13.49836 -6.85757,-13.49839 -5.29552,-14.97619 -5.29548,-14.97621 -1.49022,-28.73823 -1.4902,-28.73819 4.61931,-20.76304 4.61933,-20.76301 9.19992,-18.29538 9.19992,-18.29537 10.81833,-13.01497 10.81834,-13.01494 13.01494,-10.87586 13.01497,-10.87582 21.69492,-10.45993 21.69495,-10.45993 21.3963,-4.64998 21.3964,-4.64996 31.485,1.35412 31.485,1.35412 21.6689,7.33779 21.6688,7.33778 14.9413,9.11653 14.9413,9.11653 11.5684,11.84713 11.5683,11.84711 -23.8333,21.85641 -23.8334,21.8564 -12.1418,-10.54177 -12.1417,-10.54173 -14.9153,-7.39322 -14.9153,-7.39322 h -32.5423 -32.5424 l -15.3902,7.21468 -15.3902,7.21464 -12.02557,11.08474 -12.02554,11.08475 -8.45373,15.86085 -8.45375,15.86086 -3.32659,19.39905 -3.32656,19.39908 3.32475,19.38839 3.32474,19.38837 6.89421,13.83197 6.89421,13.83194 12.40657,12.68093 12.40656,12.68092 15.9867,7.17443 15.9868,7.17442 17.0503,2.65448 17.0503,2.65449 16.916,-2.72424 16.9159,-2.72423 14.0752,-6.52477 14.0752,-6.52477 12.2033,-10.8531 12.2034,-10.85307 23.9152,22.21237 23.9152,22.21236 -16.5502,15.32252 -16.5501,15.32252 -19.6096,9.43181 -19.6095,9.43182 -17.586,4.14478 -17.586,4.14481 -31.1864,-0.10928 z m 214.2373,0.18929 h -37.9661 V 629.15243 455.59311 h 37.9661 37.9661 v 173.55932 173.55932 z m 263.295,-0.14942 -31.4306,-0.14943 -19.7545,-5.17567 -19.7545,-5.17565 -19.5675,-10.14888 -19.5676,-10.14888 -20.5949,-20.45833 -20.595,-20.45836 -11.3736,-23.05085 -11.3736,-23.05085 -4.1502,-23.05085 -4.1503,-23.05084 1.6815,-20.33899 1.6816,-20.33898 4.1598,-16.27119 4.1598,-16.27118 9.3859,-17.90441 9.3858,-17.90438 13.5381,-15.18945 13.5382,-15.18942 19.622,-13.12399 19.6219,-13.12398 22.9858,-7.6812 22.9857,-7.68119 31.485,-1.37288 31.485,-1.37286 21.3964,4.64996 21.3963,4.64998 21.6949,10.41434 21.6949,10.41435 14.9153,13.76309 14.9153,13.76306 -24.0834,23.07325 -24.0833,23.07325 -12.0519,-11.10902 -12.0519,-11.10902 -15.3902,-7.21464 -15.3902,-7.21435 h -31.1864 -31.1865 l -18.0373,8.54577 -18.0373,8.54576 -11.383,11.38305 -11.3831,11.38305 -8.4458,18.03729 -8.4458,18.03729 -1.0843,24.69293 -1.0842,24.69294 4.5583,15.98503 4.5582,15.98503 9.339,14.24317 9.339,14.24317 11.4939,8.46959 11.4938,8.46956 10.8474,4.89773 10.8475,4.89774 18.3051,3.17638 18.3051,3.17638 18.0031,-3.13511 18.0032,-3.1351 13.8612,-6.91146 13.8613,-6.91143 10.9752,-10.59547 10.9752,-10.5955 24.2791,23.06476 24.279,23.06476 -14.5795,13.41397 -14.5795,13.41396 -18.504,9.72358 -18.5039,9.72355 -20.9097,5.3478 -20.9097,5.3478 -31.4306,-0.14943 z m 308.9084,0.14953 H 1727.4577 V 629.15254 455.59322 h 126.1017 126.1017 v 29.79346 29.79344 l -88.8136,0.71503 -88.8135,0.71502 -0.7505,39.99999 -0.7505,40 h 80.0725 80.0725 v 29.78956 29.78954 l -79.322,0.71894 -79.322,0.71891 v 39.32204 39.32203 l 92.8813,0.71357 92.8814,0.71358 v 32.50676 32.50677 z m 336.2712,-0.18929 -31.1865,-0.10929 -19.4646,-5.10205 -19.4645,-5.10204 -15.0255,-7.10818 -15.0255,-7.1082 -16.196,-11.9228 -16.1959,-11.92276 -11.3989,-14.36174 -11.3989,-14.36173 -10.2197,-21.05972 -10.2196,-21.05969 -3.3056,-19.59772 -3.3056,-19.59769 1.4984,-27.1392 1.4983,-27.1392 5.3028,-15.0457 5.3028,-15.04572 6.1457,-12.07292 6.1456,-12.07295 11.138,-14.42994 11.1379,-14.42994 16.2712,-12.42093 16.2712,-12.42094 18.983,-8.79406 18.9831,-8.79409 21.3963,-4.71167 21.3964,-4.71168 31.485,1.35412 31.485,1.35411 21.6689,7.33779 21.6688,7.33779 14.9413,9.11653 14.9413,9.11653 11.4972,11.77459 11.4971,11.77456 -23.7705,21.92174 -23.7705,21.92171 -12.1334,-10.53454 -12.1334,-10.53462 -14.9153,-7.39322 -14.9152,-7.39322 h -32.5424 -32.5424 l -15.3902,7.21468 -15.3902,7.21464 -12.0256,11.08474 -12.0255,11.08475 -8.4537,15.86085 -8.4538,15.86086 -3.3266,19.39905 -3.3265,19.39908 3.3247,19.38839 3.3248,19.38837 6.8942,13.83197 6.8942,13.83194 12.4065,12.68093 12.4066,12.68092 15.9867,7.17443 15.9868,7.17442 17.0503,2.65448 17.0503,2.65449 17.2643,-2.78034 17.2644,-2.78034 14.0553,-6.87664 14.0553,-6.87661 11.8749,-10.44513 11.8748,-10.44512 23.9152,22.21237 23.9152,22.21236 -16.5502,15.32252 -16.5501,15.32252 -19.6096,9.43181 -19.6095,9.43182 -17.586,4.14478 -17.586,4.14481 -31.1864,-0.10928 z m 331.0916,0.0401 -31.4306,-0.14943 -19.7166,-5.16605 -19.7166,-5.16602 -20.9613,-10.90939 -20.9614,-10.90943 -14.1035,-12.34305 -14.1035,-12.34308 -13.4036,-20.03997 -13.4035,-20.04 -6.3913,-18.51083 -6.3912,-18.51089 0.016,-39.32203 0.016,-39.32204 6.3251,-17.62711 6.3251,-17.62712 9.4175,-15.54075 9.4175,-15.54074 15.6996,-15.6457 15.6997,-15.64569 17.3562,-10.23889 17.3563,-10.23889 21.6949,-6.99422 21.6949,-6.99425 29.9709,-1.4265 29.9709,-1.42649 22.6693,4.59338 22.6693,4.59338 17.0206,7.71756 17.0208,7.71753 12.1043,8.32803 12.1044,8.32803 12.938,12.93592 12.9379,12.93591 9.2018,14.38238 9.2017,14.38234 6.5901,17.50823 6.5901,17.50826 2.4251,21.67664 2.4252,21.67663 -2.3255,20.7363 -2.3254,20.7363 -5.7996,17.42763 -5.7995,17.42764 -13.5631,20.27845 -13.5631,20.27848 -16.2306,13.50731 -16.2307,13.50731 -19.0404,9.58856 -19.0403,9.58855 -20.4627,5.23349 -20.4627,5.23347 -31.4306,-0.14943 z m 10.3142,-64.03561 17.338,-1.41481 11.0208,-3.88835 11.0208,-3.88838 12.989,-8.33505 12.9891,-8.33505 8.1871,-10.337 8.187,-10.33701 7.4015,-15.82617 7.4016,-15.82614 -0.043,-29.83051 -0.043,-29.83051 -6.2755,-15.68699 -6.2755,-15.687 -14.5985,-15.76808 -14.5985,-15.76811 -17.0359,-7.86693 -17.0361,-7.86712 h -29.8305 -29.8305 l -17.036,7.86696 -17.036,7.86693 -14.5985,15.76811 -14.5985,15.76808 -5.9367,15.68699 -5.9366,15.687 -1.4351,22.05028 -1.435,22.05025 5.6692,18.66462 5.6692,18.6646 8.4519,12.76003 8.4519,12.76002 13.0669,9.592 13.0669,9.59198 10.4622,4.37255 10.4623,4.37256 12.2034,2.19246 12.2034,2.19246 17.338,-1.41483 z m -1781.0738,56.0492 h -5.44825 l -4.22158,-6.02714 -4.22156,-6.02712 v -3.46441 -3.46438 l 5.42373,-5.42372 5.42373,-5.42373 h 5.23002 5.23002 l 4.2615,4.2615 4.26151,4.26151 v 7.84645 7.84648 l -5.24545,2.8073 -5.24545,2.80726 z m -135.17584,-30.67183 -11.44545,1.53516 -9.56727,-9.56727 -9.56724,-9.56724 v -7.18552 -7.18552 l 3.8644,-7.47295 3.86444,-7.47297 7.11064,-3.23981 7.11065,-3.23984 h 8.21659 8.2166 l 7.92697,7.927 7.927,7.92696 v 10.90485 10.90484 l -6.10593,7.09857 -6.10595,7.09858 z m 95.69456,-7.29427 h -3.63975 l -5.60852,-4.74576 -5.60854,-4.74576 -1.62484,-6.89703 -1.62487,-6.89703 5.77386,-7.34026 5.77383,-7.34026 h 8.87439 8.87438 l 4.24337,4.74576 4.24333,4.74577 0.80708,4.06779 0.8071,4.0678 -1.85326,6.99271 -1.85323,6.9927 -6.97229,3.17679 -6.97228,3.17678 z m 76.61975,-11.3629 -7.27523,0.84049 -3.16651,-5.91664 -3.16651,-5.91666 5.73367,-5.73364 5.73364,-5.73367 4.7081,2.96979 4.70807,2.96976 v 7.84006 7.84002 z m -236.51564,-15.81749 -5.70067,-0.0618 -8.27482,-4.08385 -8.27482,-4.08385 -4.60654,-7.79824 -4.60653,-7.79824 v -9.54302 -9.543 l 6.86842,-8.16263 6.86839,-8.16265 9.17023,-3.02645 9.17022,-3.02644 9.04613,3.82707 9.0461,3.82709 4.9756,5.58753 4.97556,5.58752 1.23235,10.37996 1.23233,10.37999 -3.53557,6.69825 -3.53556,6.69827 -9.17508,6.18308 -9.17511,6.18311 -5.70063,-0.0618 z m 114.9773,-10.78571 h -7.83314 l -7.47327,-6.42823 -7.47325,-6.42823 v -10.19439 -10.19438 l 7.47325,-6.42823 7.47327,-6.42823 h 7.83314 7.83314 l 7.47328,6.42823 7.47324,6.42823 v 10.19438 10.19439 l -7.47324,6.42823 -7.47328,6.42823 z m 84.82032,-8.13559 h -3.46438 l -5.42373,-5.42373 -5.42373,-5.42373 v -5.23002 -5.23002 l 4.2615,-4.2615 4.26151,-4.26151 h 7.39951 7.39951 l 3.25424,3.25424 3.25424,3.25423 v 7.43946 7.43943 l -6.02715,4.22159 -6.02712,4.22156 z m -141.26805,-27.29055 -4.56922,-0.17193 -5.94359,-2.39412 -5.94362,-2.39409 -4.75398,-7.25551 -4.75401,-7.25551 0.2768,-9.76523 0.27683,-9.76521 8.42966,-7.53193 8.42967,-7.53191 h 9.40597 9.40597 l 8.18511,7.45763 8.18508,7.45763 1.45446,8.13559 1.45445,8.13559 -5.53022,8.88117 -5.53023,8.88114 -6.95495,2.64428 -6.95496,2.64426 -4.56922,-0.17193 z m 103.27073,-10.67555 h -6.39157 l -6.65638,-6.65641 -6.6564,-6.65638 v -5.18129 -5.18126 l 5.62055,-7.14538 5.62056,-7.14538 h 7.93877 7.93876 l 5.42373,5.42372 5.42373,5.42373 v 8.02994 8.02997 l -5.93508,5.52935 -5.93508,5.52939 z m 73.97489,-10.84746 h -5.99563 l -1.8079,-1.80792 -1.80791,-1.80789 v -5.99563 -5.99564 l 3.93765,-3.26796 3.93765,-3.26798 5.41516,1.71869 5.41516,1.7187 1.7187,5.41516 1.7187,5.41516 -3.26799,3.93766 -3.26796,3.93765 z M 553.70169,645.42372 h -11.87116 l -9.22034,-9.22034 -9.22034,-9.22033 v -12.68318 -12.6832 l 7.72756,-7.72754 7.72754,-7.72756 9.57015,-1.79536 9.57011,-1.79537 8.58495,4.43946 8.58498,4.43946 5.29364,8.6819 5.29367,8.68189 0.0108,6.23637 0.0109,6.23637 -4.05231,7.83631 -4.05231,7.83628 -6.04261,4.23244 -6.04263,4.2324 H 553.7031 Z M 669.51045,631.8644 h -10.77391 l -6.65638,-6.65641 -6.65641,-6.65637 v -8.10764 -8.10763 l 6.1017,-6.93381 6.10169,-6.93377 8.31995,-1.5933 8.31997,-1.59328 8.62918,7.26099 8.62921,7.26099 v 8.88472 8.88475 l -5.62056,7.14538 -5.62055,7.14538 z m 88.81345,-5.42373 h -6.29681 l -4.48811,-4.95929 -4.48811,-4.9593 v -5.69445 -5.69446 l 4.40874,-4.40873 4.40873,-4.40873 7.03116,0.82519 7.03113,0.8252 3.99203,7.14514 3.992,7.14513 -4.64695,7.09215 -4.64697,7.09215 z M 610.8948,599.32203 h -11.81928 l -6.54612,-6.54612 -6.54611,-6.54611 -1.83203,-7.29936 -1.832,-7.29937 4.40388,-9.23509 4.4039,-9.23506 9.23507,-4.40391 9.23509,-4.40388 7.29936,1.832 7.29937,1.83203 6.54611,6.54612 6.54612,6.54611 v 11.50031 11.50029 l -7.28703,7.60602 -7.28702,7.60602 z m 105.5878,-5.59563 -1.9063,-0.17194 -5.6704,-2.29304 -5.67043,-2.29305 -3.54368,-8.55522 -3.5437,-8.55526 5.41443,-7.2849 5.41443,-7.28491 8.7226,-0.863 8.72258,-0.863 4.194,3.48071 4.19398,3.4807 2.03602,5.50384 2.03598,5.50384 -2.47433,7.09787 -2.47433,7.0979 -6.77229,3.08564 -6.77228,3.08567 -1.90628,-0.17194 z m 77.86156,-13.92828 -7.01177,0.81508 -3.38175,-4.07476 -3.38177,-4.07477 1.68322,-5.30335 1.6832,-5.30335 4.16104,-1.59672 4.161,-1.59674 5.3898,2.88453 5.38981,2.88455 -0.84049,7.27523 -0.84049,7.27523 z m -237.05601,-14.64092 -8.13559,1.47515 -8.13559,-3.62362 -8.1356,-3.62365 -5.42372,-6.07894 -5.42373,-6.07897 V 534.23728 521.2474 l 5.42373,-6.08274 5.42372,-6.08271 8.64491,-3.65945 8.64494,-3.65944 8.3245,1.6649 8.32448,1.66489 8.11533,9.24285 8.11534,9.24284 v 10.79293 10.79292 l -8.81356,9.25882 -8.81356,9.25885 z m 111.18645,-12.16111 -2.71187,-0.20393 -4.06779,-1.48703 -4.0678,-1.48699 -6.10169,-5.55127 -6.1017,-5.55129 v -9.90203 -9.90202 l 6.1017,-5.49233 6.10169,-5.49237 4.89736,-1.73307 4.89733,-1.7331 9.3572,3.9097 9.35718,3.90966 2.80662,7.38197 2.80662,7.38194 -1.72673,7.86172 -1.72672,7.86172 -8.55477,5.21633 -8.55477,5.21635 -2.71186,-0.20393 z m 88.52421,-7.91135 h -7.43946 l -3.25424,-3.25424 -3.25424,-3.25423 v -7.39952 -7.39951 l 4.26151,-4.2615 4.2615,-4.26151 h 5.23002 5.23002 l 5.42373,5.42373 5.42373,5.42373 v 3.46438 3.46441 l -4.22156,6.02712 -4.22158,6.02714 z M 608.0644,517.9661 h -10.43151 l -6.10121,-5.68415 -6.10121,-5.68415 -2.62711,-6.90986 -2.62715,-6.90986 3.07284,-9.3108 3.07284,-9.31078 8.53397,-5.20372 8.53399,-5.20369 4.88044,-0.0108 4.88043,-0.0109 8.21456,4.24792 8.21457,4.24792 3.98771,9.54394 3.98772,9.54398 -2.98243,9.03685 -2.98243,9.03683 -6.54725,4.28992 -6.54723,4.28993 H 608.0644 Z m 108.58913,-8.1356 h -6.39157 l -6.65638,-6.6564 -6.6564,-6.65638 v -5.18129 -5.18126 l 5.62055,-7.14538 5.62056,-7.14539 h 7.93877 7.93876 l 5.42373,5.42373 5.42373,5.42373 v 8.02994 8.02997 l -5.93508,5.52935 -5.93508,5.52938 z m 77.92277,-10.84745 h -4.75962 l -3.26785,-3.93752 -3.26785,-3.93752 0.90188,-4.58538 0.90191,-4.58536 4.74577,-2.98866 4.74576,-2.98867 4.74576,2.98867 4.74576,2.98866 0.90192,4.58536 0.90188,4.58538 -3.26785,3.93752 -3.26785,3.93752 z m -238.64408,-12.87927 -6.77966,1.40849 -8.77912,-2.4688 -8.77912,-2.46883 -1.78969,-7.13079 -1.78972,-7.13077 2.71395,-4.32605 2.71392,-4.32602 15.54132,-0.82012 15.54134,-0.82012 3.83897,3.18606 3.839,3.18609 v 6.02731 6.02728 l -4.74576,4.12388 -4.74577,4.12387 z m 109.83051,-11.52751 h -8.82741 l -3.34731,-4.03328 -3.34731,-4.03324 1.57421,-4.10235 1.57421,-4.10232 h 11.99837 11.99835 l 1.69285,4.41153 1.69289,4.41152 -3.09072,3.72407 -3.09071,3.72407 z m 94.60896,-8.68505 -8.02422,0.80651 -1.93643,-1.93643 -1.93644,-1.93644 v -2.2599 -2.25988 h 11.07344 11.07346 l -1.11281,3.38983 -1.11279,3.38983 z m -499.73742,-114.88726 -2.41658,1.49353 -10.01236,-11.0825 -10.01236,-11.08249 -10.39787,-16.08751 -10.39787,-16.08754 -5.7203,-16.87534 -5.72031,-16.87533 -1.64671,-19.25156 -1.64671,-19.25156 4.71354,-21.18644 4.71354,-21.18645 11.54107,-22.42887 11.54108,-22.42887 14.13915,-17.76891 14.13914,-17.7689 20.81703,-19.251158 20.81701,-19.251154 24.21535,-16.251829 24.21535,-16.251829 15.1751,-7.660372 15.17511,-7.660372 11.81044,-3.180218 11.81041,-3.180217 15.23981,-2.5704976 15.23979,-2.5704974 38.46064,-2.3567574 38.46063,-2.35675752 42.60318,2.38228402 42.60315,2.3822839 32.83452,5.402286 32.83449,5.402286 25.26037,6.828528 25.26034,6.828527 20.0822,8.360233 20.08217,8.360233 16.20648,10.474761 16.20651,10.474763 11.40776,11.678855 11.40778,11.678856 6.56035,14.229223 6.56033,14.22923 1.51607,14.68922 1.51606,14.68923 -5.87823,12.1428 -5.87824,12.1428 -10.07021,6.64557 -10.07024,6.64557 -13.55932,4.40556 -13.55932,4.40557 -17.62712,2.87772 -17.62712,2.87772 -102.99757,3.9943 -102.99753,3.99429 -23.10416,2.77319 -23.10414,2.77318 -23.05085,4.13835 -23.05085,4.13834 -20.02335,5.53388 -20.02332,5.53387 -21.15588,8.92242 -21.1559,8.92243 -18.85267,12.53323 -18.85266,12.53323 -16.19016,17.30734 -16.19019,17.30734 -9.87962,16.26364 -9.87964,16.26362 v 2.87504 2.87506 z"
         id="path120" />
      <path
         style="fill:#676767;stroke-width:2.71186"
         d="m 1262.3729,945.07739 -10.8474,1.49942 -11.3456,-5.2787 -11.3456,-5.27867 -4.2476,-8.21405 -4.2477,-8.21402 v -11.1168 -11.1168 l 4.1137,-7.95501 4.1137,-7.95504 8.4391,-4.36401 8.4391,-4.36402 11.1778,-0.16894 11.1779,-0.16895 8.7862,4.54351 8.7862,4.54354 4.3375,6.6199 4.3375,6.61991 1.2538,10.27281 1.2537,10.27281 -4.8877,9.29877 -4.8878,9.29874 -6.7797,4.8631 -6.7796,4.86311 -10.8475,1.49944 z m -4.6111,-6.94422 6.2364,0.17193 7.4188,-3.83644 7.4189,-3.83642 3.7459,-6.9993 3.7459,-6.99932 v -8.15902 -8.15903 l -3.5564,-6.64526 -3.5564,-6.64523 -9.4891,-4.50286 -9.4891,-4.50286 -10.3118,3.08949 -10.3118,3.08952 -5.5693,7.0801 -5.5692,7.08009 v 10.11601 10.11601 l 5.7983,7.37134 5.7983,7.37131 5.7271,2.31403 5.7272,2.31403 6.2363,0.17194 z m 226.4094,7.12654 -10.2728,1.04249 -8.619,-3.32059 -8.6189,-3.3206 -1.8221,-1.85348 -1.8221,-1.85348 1.7814,-2.88233 1.7813,-2.88236 7.8471,4.05787 7.847,4.05785 h 9.4325 9.4325 l 4.2615,-4.26151 4.2615,-4.2615 v -3.81158 -3.81156 l -6.1017,-3.90958 -6.1017,-3.90956 -11.4034,-3.00429 -11.4034,-3.00425 -4.1898,-4.18983 -4.1899,-4.18986 v -6.76423 -6.76423 l 2.758,-5.15336 2.758,-5.15333 10.1234,-2.69833 10.1233,-2.69833 10.3844,2.36908 10.3843,2.36909 1.4127,1.41266 1.4126,1.41264 -1.565,2.5322 -1.565,2.53221 -11.069,-2.9545 -11.0691,-2.95452 -7.2985,4.09654 -7.2985,4.09654 v 6.67567 6.67568 l 16.58,5.42373 16.5801,5.42373 4.4369,3.72187 4.4369,3.7219 v 9.09695 9.09695 l -6.6764,4.37451 -6.6763,4.37451 z m 225.0685,1.07482 -4.8329,-0.10604 -8.638,-3.75696 -8.6381,-3.75693 -4.2433,-8.20565 -4.2433,-8.20561 v -24.54145 -24.54145 h 4.0678 4.0678 l 0.016,19.66102 0.016,19.66101 2.705,9.73798 2.7051,9.73801 6.8989,3.14335 6.899,3.14338 h 4.9304 4.9304 l 7.1454,-5.62056 7.1454,-5.62056 v -26.92181 -26.92182 h 5.7863 5.7862 l -1.2744,26.46728 -1.2745,26.46728 -3.3742,6.30468 -3.3741,6.30468 -9.1862,3.83821 -9.1861,3.83821 -4.8329,-0.10604 z m 243.3027,0.0315 -4.0678,-0.0445 -10.8474,-4.99398 -10.8475,-4.99398 -4.7457,-8.24624 -4.7458,-8.24623 v -12.5028 -12.50275 l 8.8136,-9.59504 8.8135,-9.59504 10.1695,-2.28296 10.1695,-2.28292 9.6898,2.18541 9.6898,2.18541 5.5031,4.98023 5.5031,4.98023 4.0922,7.91341 4.0922,7.91343 -1.3481,11.96011 -1.3481,11.96014 -7.6133,7.94663 -7.6134,7.94663 -9.6457,2.67957 -9.6457,2.67959 -4.0678,-0.0445 z m 2.7119,-8.0812 h 6.7797 l 8.6658,-5.28388 8.6659,-5.2839 3.1247,-10.42956 3.1248,-10.42956 -4.2354,-10.1367 -4.2354,-10.13674 -10.1367,-4.23539 -10.1367,-4.23539 -9.8584,2.95366 -9.8584,2.95363 -4.6252,5.1108 -4.6252,5.11078 -1.4592,9.14991 -1.4592,9.14992 2.8635,7.45637 2.8634,7.45638 8.8812,5.41484 8.8811,5.41483 z m 725.6971,7.9113 -5.6971,-0.24461 -8.68,-2.51021 -8.6801,-2.51024 -1.6495,-2.66894 -1.6494,-2.6689 1.5619,-2.52722 1.5619,-2.52721 7.4117,3.86644 7.4117,3.86644 9.7491,0.0163 9.7492,0.0163 5.0521,-5.58248 5.0521,-5.58245 -2.8933,-4.58674 -2.8932,-4.58671 -10.5521,-3.62767 -10.5521,-3.62766 -8.8135,-3.78638 -8.8136,-3.78639 v -10.82883 -10.8288 l 6.8365,-4.47943 6.8364,-4.47943 10.1127,-0.19227 10.1127,-0.19227 7.6503,1.99742 7.6503,1.99743 -1.1625,3.28981 -1.1625,3.28982 -5.1319,-0.86956 -5.1318,-0.86953 -6.7797,-1.36431 -6.7796,-1.36434 -7.6377,2.91317 -7.6376,2.91313 0.858,7.45633 0.8579,7.4563 16.5801,5.42373 16.5801,5.42373 4.4369,3.72187 4.4368,3.7219 v 6.62589 6.62587 l -2.6546,4.96022 -2.6546,4.96019 -8.5975,2.99713 -8.5975,2.99709 -5.697,-0.24461 z M 893.70042,943.72881 h -4.20886 v -1.39398 -1.39398 l 15.36363,-33.99011 15.36361,-33.99012 5.37849,0.80783 5.3785,0.80781 15.69185,34.57627 15.69188,34.57628 h -4.91854 -4.91853 l -3.36988,-8.1356 -3.36987,-8.13559 h -21.10063 -21.10062 l -2.83609,8.13559 -2.83607,8.1356 z m 31.00898,-24.40678 h 16.30758 v -1.1772 -1.17716 l -7.13413,-16.44996 -7.13415,-16.44992 h -2.0921 -2.09209 l -2.71331,7.45763 -2.71332,7.45762 -4.36803,10.16949 -4.36803,10.1695 z m 72.96483,24.40678 h -4.94099 l -2.45839,-4.74577 -2.45836,-4.74576 -12.55229,-29.00038 -12.5523,-29.00038 v -1.70693 -1.70695 l 4.46039,0.87682 4.46039,0.8768 13.01888,29.82433 13.01885,29.8243 7.22739,-16.26498 7.2273,-16.265 6.3306,-14.23729 6.3306,-14.23729 h 4.2534 4.2535 l -3.6899,8.81356 -3.6899,8.81356 -11.6491,26.44068 -11.6491,26.44068 z m 73.51227,0 h -27.1187 v -35.25424 -35.25424 h 25.7627 25.7628 v 4.0678 4.06779 h -20.339 -20.339 v 12.20339 12.20339 h 17.6271 17.6271 v 2.71187 2.71186 h -17.6271 -17.6271 v 13.55932 13.55933 h 21.6949 21.6949 v 2.71186 2.71187 z m 48.8135,0 h -5.4237 v -35.25424 -35.25424 h 5.4237 5.4238 v 35.25424 35.25424 z m 33.8983,0 h -4.0678 v -35.25424 -35.25424 h 20.5476 20.5476 l 7.927,7.927 7.927,7.92697 v 8.55281 8.55281 l -7.7965,7.79648 -7.7965,7.7965 6.4406,9.47816 6.4405,9.47813 v 1.49982 1.4998 h -4.0293 -4.0293 l -7.1785,-10.84746 -7.1785,-10.84746 h -11.843 -11.8431 v 10.84746 10.84746 z m 18.4648,-29.83051 h 14.3969 l 5.0381,-3.68393 5.0381,-3.68396 v -8.9033 -8.90329 l -5.0381,-3.68396 -5.0381,-3.68394 h -14.3969 -14.397 v 16.27119 16.27119 z m 174.0776,29.83051 h -4.0678 v -35.25424 -35.25424 h 4.0678 4.0678 v 35.25424 35.25424 z m 32.5424,0 h -4.0678 v -35.25424 -35.25424 h 3.9815 3.9814 l 21.1033,26.25169 21.1033,26.25166 0.7762,-26.25166 0.7761,-26.25169 h 5.3256 5.3255 v 35.25424 35.25424 h -4.7509 -4.7509 l -20.3287,-25.76272 -20.3287,-25.76271 h -2.0391 -2.039 v 25.76271 25.76272 z m 165.4237,0 h -4.0678 v -31.18644 -31.18645 h -13.5593 -13.5593 v -4.06779 -4.0678 h 29.8305 29.8305 v 4.0678 4.06779 h -12.2034 -12.2034 v 31.18645 31.18644 z m 46.1017,0 h -4.0678 v -35.25424 -35.25424 h 4.0678 4.0678 v 35.25424 35.25424 z m 47.4577,0 h -5.4238 v -31.18644 -31.18645 h -12.2034 -12.2034 v -4.06779 -4.0678 h 29.8306 29.8305 v 4.0678 4.06779 h -12.2034 -12.2034 v 31.18645 31.18644 z m 142.3728,0 h -4.0678 v -31.18644 -31.18645 h -12.2033 -12.2034 v -4.06779 -4.0678 h 30.0565 30.0565 l -1.116,3.38983 -1.1159,3.38983 -12.6694,0.82655 -12.6694,0.82655 v 31.03786 31.03786 z m 69.1526,0 h -27.1187 v -35.25424 -35.25424 h 25.7628 25.7627 v 4.0678 4.06779 h -20.339 -20.339 v 12.20339 12.20339 h 17.6271 17.6271 v 2.71187 2.71186 h -17.6271 -17.6271 v 13.55932 13.55933 h 21.6949 21.6949 v 2.71186 2.71187 z m 166.7797,0 h -4.0678 v -35.25424 -35.25424 h 24.4067 24.4068 v 4.0678 4.06779 h -20.339 -20.3389 v 13.55933 13.55932 h 17.6271 17.6271 v 2.71186 2.71187 h -17.6271 -17.6271 v 14.91525 14.91526 z m 94.817,0 h -3.9696 v -35.25424 -35.25424 h 3.474 3.474 l 14.4492,24.40678 14.4491,24.40678 h 1.8555 1.8554 l 14.2359,-24.40678 14.236,-24.40678 h 3.9516 3.9515 v 35.25424 35.25424 h -3.9696 -3.9696 l -0.7761,-26.44068 -0.7762,-26.44068 -13.1187,22.37288 -13.1187,22.37288 h -2.3258 -2.3258 l -13.0301,-21.7642 -13.0301,-21.76418 -0.7761,25.83198 -0.7762,25.832 z m 90.4895,0 h -4.6908 l 3.6929,-8.81356 3.6929,-8.81356 12.2826,-26.44068 12.2827,-26.44068 h 5.0572 5.0572 l 14.7611,32.9149 14.7611,32.9149 0.9039,2.33934 0.904,2.33934 h -4.2242 -4.2241 l -4.2071,-8.1356 -4.2071,-8.13559 h -20.5049 -20.5049 l -3.0708,8.13559 -3.0709,8.1356 z m 32.8493,-24.40678 h 16.122 l -6.8474,-15.59322 -6.8474,-15.59322 -2.1882,-2.26959 -2.1882,-2.26956 -7.0864,15.47864 -7.0863,15.47865 v 2.38413 2.38417 z m 65.234,24.40678 h -5.4237 v -31.18644 -31.18645 h -12.2034 -12.2034 v -4.06779 -4.0678 h 29.8305 29.8305 v 4.0678 4.06779 h -12.2034 -12.2034 v 31.18645 31.18644 z m 69.1525,0 h -25.7627 v -35.25424 -35.25424 h 24.4068 24.4068 v 4.0678 4.06779 h -20.4949 -20.4949 l 0.8339,11.52543 0.8339,11.52542 18.305,0.80187 18.3051,0.80187 v 2.58796 2.58796 h -18.983 -18.9831 v 13.55932 13.55933 h 21.6949 21.695 v 2.71186 2.71187 z m 48.8136,0 h -4.0678 v -35.25424 -35.25424 h 19.1613 19.1614 l 5.9234,3.15482 5.9234,3.15485 3.3036,4.30278 3.3036,4.30281 0.086,9.02215 0.086,9.02218 -7.8208,7.8208 -7.8208,7.8208 8.0554,10.95363 8.0554,10.95366 h -5.2979 -5.298 l -7.1785,-10.84746 -7.1785,-10.84746 h -12.1649 -12.1649 v 10.84746 10.84746 h -4.0678 z m 18.9831,-29.83051 h 14.9152 l 5.4237,-5.42373 5.4238,-5.42373 v -4.82031 -4.82034 l -4.2216,-6.02712 -4.2216,-6.02715 h -16.1174 -16.1174 v 16.27119 16.27119 z m 56.9491,29.83051 h -4.0678 v -35.25424 -35.25424 h 4.0678 4.0678 v 35.25424 35.25424 z m 22.9465,0 h -4.8701 l 15.8008,-34.57628 15.8008,-34.57627 5.2211,-0.80781 5.2211,-0.80783 15.3636,33.99012 15.3637,33.99011 v 1.39398 1.39398 h -4.2089 -4.2089 l -2.836,-8.1356 -2.8361,-8.13559 h -21.1006 -21.1007 l -3.3699,8.13559 -3.3698,8.1356 z m 32.6831,-24.40678 h 16.3076 l -4.368,-10.1695 -4.3681,-10.16949 -2.7133,-7.45762 -2.7133,-7.45763 h -2.0921 -2.0921 l -7.1341,16.44992 -7.1342,16.44996 v 1.17716 1.1772 z m 74.5399,24.40678 h -25.7627 v -35.25424 -35.25424 h 5.4237 5.4237 v 32.54237 32.54238 h 20.339 20.339 v 2.71186 2.71187 z"
         id="path118" />
    </g>
  </g>
</svg>
