<?xml version="1.0" encoding="UTF-8" standalone="no"?>
<!-- Created with Inkscape (http://www.inkscape.org/) -->

<svg
   version="1.1"
   id="svg2"
   height="100%"
   width="auto"
   viewBox="0 0 3177.4648 1260.8451"
   sodipodi:docname="dfis.png"
   xmlns:inkscape="http://www.inkscape.org/namespaces/inkscape"
   xmlns:sodipodi="http://sodipodi.sourceforge.net/DTD/sodipodi-0.dtd"
   xmlns:xlink="http://www.w3.org/1999/xlink"
   xmlns="http://www.w3.org/2000/svg"
   xmlns:svg="http://www.w3.org/2000/svg">
  <defs
     id="defs6" />
  <sodipodi:namedview
     id="namedview4"
     pagecolor="#ffffff"
     bordercolor="#000000"
     borderopacity="0.25"
     inkscape:showpageshadow="2"
     inkscape:pageopacity="0.0"
     inkscape:pagecheckerboard="0"
     inkscape:deskcolor="#d1d1d1"
     showgrid="false" />
  <g
     inkscape:groupmode="layer"
     inkscape:label="Image"
     id="g8">
    <image
       width="3177.4648"
       height="1260.8451"
       preserveAspectRatio="none"
       xlink:href="dfis.png"
       id="image10" />
    <path
       style="fill:#000000;stroke-width:3.38028"
       d="m 1139.1115,1251.7972 c -0.024,-1.5307 -0.1339,-38.5296 -0.2448,-82.2197 -0.1889,-74.6757 0.168,-79.4366 5.959,-79.4366 4.3733,0 5.9265,2.206 5.3549,7.6056 -0.9916,9.3656 2.9175,9.7166 10.8309,0.9723 8.6216,-9.5268 26.7409,-14.5985 42.5893,-11.9209 39.2149,6.6253 57.4624,66.939 31.472,104.0248 -17.2272,24.5814 -51.9597,29.781 -71.0972,10.6435 -4.5245,-4.5247 -8.8587,-8.2267 -9.6314,-8.2267 -0.7727,0 -1.8444,13.2927 -2.3816,29.5394 -0.8261,24.9853 -1.8887,29.7138 -6.8922,30.6704 -3.2535,0.622 -5.935,-0.1214 -5.9589,-1.6521 z m 79.8174,-62.255 c 8.7375,-8.2084 14.87,-25.6078 14.7808,-41.9365 -0.078,-14.2688 -11.3905,-37.545 -20.658,-42.5048 -11.6369,-6.2279 -35.9577,-4.8609 -44.0658,2.4767 -16.327,14.7758 -21.2484,43.6368 -11.4428,67.1049 10.1908,24.3901 42.8308,32.2913 61.3858,14.8597 z m -309.6675,16.3733 c -15.73132,-10.7066 -23.11977,-21.995 -26.54954,-40.5634 -10.68507,-57.8475 40.67114,-101.5874 80.21182,-68.3162 5.43579,4.574 10.89857,8.3162 12.1395,8.3162 1.24094,0 1.94326,-13.0148 1.56068,-28.9219 -0.43525,-18.0979 0.75157,-30.369 3.17128,-32.7887 9.19987,-9.1999 10.74223,3.9466 9.84496,83.9141 -0.76438,68.1232 -1.68419,80.8951 -5.82574,80.8951 -2.7049,0 -5.77362,-3.6244 -6.81938,-8.0543 -1.7977,-7.6152 -2.17457,-7.7248 -6.91295,-2.0115 -13.04552,15.7295 -43.27457,19.4724 -60.82063,7.5306 z m 47.82399,-14.6889 c 13.97199,-9.6826 17.52084,-19.4503 16.91043,-46.5439 -0.75174,-33.3673 -25.47772,-52.6834 -52.81632,-41.2606 -13.64052,5.6994 -20.62043,15.8216 -23.56679,34.1762 -3.29658,20.5367 2.80729,42.2417 14.93446,53.106 13.30736,11.9215 27.84324,12.0919 44.53822,0.5223 z m 85.73151,15.9711 c -20.614,-12.8029 -26.1076,-22.0232 -27.8586,-46.7571 -2.1512,-30.3874 3.0629,-48.5284 17.6223,-61.3117 32.8606,-28.8521 79.9832,-7.868 85.0113,37.8563 l 1.7035,15.4917 -44.9998,0.9447 -44.9998,0.9446 0.7406,10.1409 c 0.4074,5.5774 2.428,13.3058 4.4902,17.1741 4.6787,8.7759 20.4489,18.3188 30.2728,18.3188 12.6588,0 29.9225,-10.3153 34.4745,-20.599 4.2416,-9.5826 13.7965,-13.0976 17.836,-6.5616 3.4784,5.6281 -14.6972,29.0785 -27.1347,35.0096 -15.6015,7.4398 -34.5521,7.178 -47.1583,-0.6513 z m 59.1549,-74.3474 c 0,-12.8706 -10.8887,-26.1051 -25.4251,-30.9025 -9.9171,-3.273 -13.8011,-2.9078 -24.36,2.2905 -13.5254,6.6586 -26.4705,25.1172 -23.3386,33.2787 1.5341,3.9979 9.1639,5.0182 37.5247,5.0182 h 35.599 z m 181.2237,76.0074 c -25.934,-11.9733 -24.7556,-52.4876 1.8164,-62.4494 4.3702,-1.6384 18.2611,-4.0668 30.8685,-5.3965 18.6044,-1.9622 23.8749,-3.8708 27.9772,-10.1317 12.2267,-18.6604 -11.8386,-36.2406 -39.4367,-28.8092 -9.2903,2.5016 -13.8203,6.31 -18.0116,15.1427 -9.3498,19.7031 -22.6999,14.1479 -14.3019,-5.9513 8.5744,-20.5215 35.0266,-30.372 62.0324,-23.1001 22.2343,5.9871 26.0893,14.9468 27.5706,64.0791 1.1454,37.9886 1.8622,41.976 7.8262,43.5357 9.5368,2.4939 6.2168,12.4737 -4.5651,13.7229 -6.7043,0.7768 -10.5547,-1.2392 -14.8307,-7.7653 l -5.7755,-8.8145 -9.0839,8.7029 c -11.0085,10.5468 -37.0709,14.1668 -52.0859,7.2347 z m 47.3565,-17.2669 c 9.7686,-6.4006 19.0694,-25.8913 17.5251,-36.7252 -1.1372,-7.9781 -3.566,-8.0922 -36.1791,-1.6996 -18.8234,3.6896 -34.1515,14.8519 -34.1515,24.8699 0,2.9621 4.1831,9.264 9.2958,14.0044 7.584,7.0319 11.6536,8.3031 22.1006,6.9036 7.0426,-0.9435 16.6767,-4.2524 21.4091,-7.3531 z m 217.617,19.5516 c -2.7887,-1.0147 -9.2535,-5.7426 -14.3662,-10.5064 -10.6737,-9.9453 -12.3289,-25.5287 -4.3504,-40.9576 5.9162,-11.4406 9.3768,-12.9421 39.7586,-17.251 12.8944,-1.8288 26.3645,-4.8878 29.9336,-6.7979 8.254,-4.4174 8.5911,-20.6425 0.5737,-27.6093 -14.8883,-12.9373 -45.5656,-8.9443 -52.4913,6.8324 -7.1595,16.3094 -15.9594,17.3003 -15.9594,1.7971 0,-21.1032 34.1912,-36.2863 63.7748,-28.3203 22.8568,6.1547 27.4648,17.0174 27.4802,64.7795 0.014,36.9721 0.4642,39.6124 7.6183,44.4664 5.7237,3.8835 6.6565,6.1473 3.7701,9.1492 -5.858,6.0922 -19.4214,2.6495 -23.1633,-5.8794 -3.8859,-8.8575 -7.8808,-9.7569 -10.7004,-2.4093 -4.0799,10.6321 -36.0559,18.464 -51.8783,12.7066 z m 35.3386,-15.9304 c 15.3036,-6.3943 22.8291,-18.53 21.5006,-34.6719 -1.1762,-14.2912 0.1531,-13.9603 -31.1384,-7.7527 -20.4937,4.0656 -35.8416,14.874 -35.8416,25.2408 0,8.3839 15.6505,21.9718 25.307,21.9718 4.7921,0 13.8697,-2.1546 20.1724,-4.788 z m 284.098,12.5653 c -21.0374,-11.3543 -29.3244,-26.7687 -29.4411,-54.763 -0.1376,-32.9807 9.5544,-52.7347 30.3966,-61.9542 16.5517,-7.3216 36.7792,-6.3309 50.2115,2.4593 11.2711,7.3759 21.3529,26.3335 23.0797,43.3986 l 1.5748,15.5635 -44.6296,0.9424 c -50.2252,1.0605 -51.821,2.0244 -41.0234,24.7786 11.5604,24.3617 43.0155,28.4816 60.332,7.9021 4.7599,-5.6569 8.6545,-11.6897 8.6545,-13.4062 0,-3.9724 12.5153,-4.1028 14.9546,-0.1558 2.851,4.6129 -12.1814,24.7681 -24.8307,33.2924 -13.5811,9.1524 -34.3996,9.9729 -49.2789,1.9423 z m 57.9559,-70.3732 c 2.8806,-7.5069 -5.3604,-25.0038 -14.6409,-31.0846 -11.2254,-7.3552 -33.3375,-6.7772 -42.0405,1.0989 -9.4525,8.5544 -17.3996,24.4795 -15.1463,30.3515 2.7663,7.2087 69.0506,6.8711 71.8277,-0.3658 z m 252.2873,69.2439 c -25.0425,-12.7341 -36.9264,-54.1721 -24.688,-86.0846 12.969,-33.8176 54.7504,-45.2103 84.0993,-22.9317 30.373,23.0561 28.524,83.3771 -3.2492,106.0016 -15.2726,10.8751 -38.2758,12.1098 -56.1621,3.0147 z m 50.2983,-15.5886 c 17.4045,-15.7509 21.8274,-52.9207 8.6307,-72.5313 -15.2343,-22.6386 -48.4478,-23.8323 -63.7855,-2.2924 -10.1204,14.2128 -12.5381,44.6389 -4.7445,59.7099 11.7688,22.7584 42.8001,30.5882 59.8993,15.1138 z m 146.5008,19.2057 c -8.8269,-3.6917 -26.5536,-23.1868 -30.8495,-33.927 -1.859,-4.6479 -3.1154,-18.3381 -2.7918,-30.4226 0.9297,-34.728 16.0965,-54.8496 44.8033,-59.44 14.311,-2.2884 36.9285,5.776 40.2143,14.3387 0.9578,2.4958 3.48,4.5387 5.6051,4.5396 2.6949,0 3.5117,-9.0553 2.7003,-29.9387 -0.9198,-23.6739 -0.148,-30.33 3.6868,-31.8016 2.6676,-1.0237 6.2334,-0.8611 7.9239,0.3612 1.746,1.2624 2.6577,37.7302 2.1107,84.4195 -0.8846,75.4943 -1.4354,82.106 -6.7545,81.0816 -3.1853,-0.6134 -5.9427,-3.3767 -6.1277,-6.1406 -0.7127,-10.6514 -1.5951,-11.0595 -8.9716,-4.1496 -13.8723,12.995 -35.7345,17.6938 -51.5493,11.0795 z m 46.8416,-23.4339 c 8.8608,-8.8608 10.4804,-13.2819 11.6617,-31.8348 2.2047,-34.6235 -12.1948,-53.9464 -40.2009,-53.9464 -31.4574,0 -47.4732,37.5264 -32.6632,76.5329 9.0343,23.7945 41.7175,28.7333 61.2024,9.2483 z m 81.6091,21.9182 c -21.9076,-9.7369 -32.1127,-29.2602 -32.1127,-61.4348 0,-37.2269 27.733,-64.9826 60.6916,-60.7413 24.0489,3.0947 41.3257,22.9579 45,51.7366 l 1.8341,14.3662 h -43.7281 c -49.2799,0 -51.2528,1.0535 -42.9668,22.9438 10.752,28.4051 46.8701,32.1854 63.3794,6.6336 4.5045,-6.9718 10.2647,-12.676 12.8003,-12.676 8.8297,0 8.4888,10.2613 -0.7432,22.365 -15.2407,19.9816 -41.5211,26.8664 -64.1546,16.8069 z m 57.6463,-69.8881 c 3.5803,-5.7931 -8.4481,-28.8879 -17.5953,-33.7834 -15.3214,-8.1997 -31.8714,-5.0672 -44.1783,8.3619 -10.468,11.4226 -13.8796,21.7928 -8.8304,26.8419 3.8689,3.869 68.134,2.5761 70.604,-1.4204 z m 220.9223,69.2693 c -12.5205,-5.2022 -29.1494,-28.5357 -25.0563,-35.1586 3.216,-5.2036 15.2201,-4.0305 15.2201,1.4874 0,2.6851 3.4249,8.8636 7.6109,13.7302 19.9269,23.1663 70.2334,6.8351 56.7207,-18.4136 -2.288,-4.2751 -10.8664,-8.8237 -23.0041,-12.1976 -36.6471,-10.1868 -42.7149,-13.4198 -49.1195,-26.1713 -5.6326,-11.2143 -5.6922,-12.941 -0.7748,-22.4503 8.0854,-15.6354 20.4432,-22.0934 42.135,-22.0189 22.8979,0.079 35.5109,7.4646 40.9641,23.988 2.1384,6.4793 3.2897,12.3789 2.5584,13.1102 -3.5604,3.5604 -15.2393,-3.1892 -20.0638,-11.5954 -8.3981,-14.633 -33.253,-16.9231 -47.7311,-4.3978 -14.6347,12.6608 0.4366,27.8103 34.5623,34.7416 23.7525,4.8245 37.2687,16.6902 37.2687,32.7181 0,15.8972 -4.8578,23.3893 -20.2601,31.2469 -15.5595,7.9379 -34.0455,8.4382 -51.0305,1.3811 z m 164.0807,0.6359 c -45.3409,-19.7493 -45.6388,-96.612 -0.4539,-117.1266 17.8012,-8.082 27.3854,-8.0821 45.1861,-3e-4 14.6298,6.6422 26.8298,23.6496 23.3917,32.6092 -2.821,7.3515 -12.0144,5.6401 -15.2577,-2.8403 -7.7388,-20.2355 -35.4525,-27.2736 -53.8103,-13.6655 -16.143,11.9663 -22.1847,44.0309 -12.6128,66.9395 5.4859,13.1298 22.821,25.2859 36.0855,25.3049 10.6901,0.017 24.8564,-10.5296 30.7968,-22.9239 2.3972,-5.0014 7.2298,-9.6464 10.7392,-10.3223 5.4952,-1.0583 6.0862,0.2444 4.2577,9.3867 -3.0481,15.2406 -12.1821,26.2036 -26.8147,32.1843 -15.4202,6.3026 -27.7705,6.4378 -41.5076,0.4543 z m 103.2662,-0.962 c -20.7299,-10.7133 -24.4076,-42.4624 -6.4699,-55.8548 5.0324,-3.7572 19.0019,-7.8487 33.7273,-9.8784 35.1715,-4.8479 45.1236,-15.7576 30.664,-33.6144 -5.0748,-6.267 -9.6334,-7.7852 -23.3775,-7.7852 -18.3903,0 -25.4194,3.8982 -32.0774,17.7896 -5.2266,10.9051 -13.9143,11.5633 -15.3896,1.166 -0.7344,-5.1755 2.6541,-11.4428 10.3446,-19.1333 20.7669,-20.7669 58.4233,-19.4842 74.8745,2.5504 6.0743,8.1359 7.2744,15.2555 8.2612,49.0118 1.0118,34.6125 1.9863,40.146 7.8856,44.7765 6.0424,4.7427 6.1899,5.7324 1.4416,9.6732 -7.1761,5.9556 -21.2846,1.9518 -24.0722,-6.8313 -2.2043,-6.9453 -2.4077,-6.9135 -11.4928,1.7905 -12.507,11.9825 -37.709,14.9238 -54.3194,6.3394 z m 51.0393,-19.9565 c 9.6228,-9.2192 15.6269,-27.3157 12.1066,-36.4895 -1.5609,-4.0677 -5.3304,-4.0803 -26.2845,-0.088 -37.8438,7.2109 -51.5362,25.8142 -30.9459,42.0452 12.3755,9.7555 31.6749,7.4169 45.1238,-5.468 z m -1708.3872,20.1562 c -1.3037,-1.3037 -2.3704,-28.7366 -2.3704,-60.9619 0,-56.338 0.26,-58.5916 6.7605,-58.5916 5.4729,0 6.7606,2.2536 6.7606,11.831 0,6.5071 0.6085,11.831 1.3521,11.831 0.7437,0 6.6761,-5.3239 13.1831,-11.831 10.9128,-10.9128 13.4176,-11.831 32.2741,-11.831 h 20.443 l 1.0218,-17.7464 c 0.8723,-15.1524 2.0099,-17.7465 7.7822,-17.7465 5.7619,0 6.9105,2.5917 7.7753,17.5449 0.9844,17.0192 1.3389,17.5764 11.831,18.5916 14.8343,1.4353 14.6324,10.8202 -0.2636,12.2537 l -11.0799,1.0662 0.939,46.2288 0.939,46.2288 10.1409,1.7522 c 14.5046,2.5063 13.3111,11.56 -1.6902,12.8223 -23.1642,1.9491 -25.2126,-2.5897 -26.4537,-58.6159 l -1.1016,-49.7291 -19.1129,2.2464 c -37.6198,4.4215 -44.9387,15.1232 -45.7161,66.8466 -0.4728,31.4596 -1.4924,38.3351 -5.8087,39.1689 -2.8794,0.5563 -6.3019,-0.055 -7.6056,-1.359 z m 259.516,-1.9373 c -0.9785,-2.55 -1.3596,-29.6571 -0.8468,-60.2382 0.8355,-49.8345 1.5458,-55.7197 6.8477,-56.7378 4.097,-0.7867 5.9155,1.0186 5.9155,5.8726 0,8.7009 1.3431,8.7169 12.9247,0.1544 13.2656,-9.8077 31.0893,-11.9325 44.0169,-5.2474 5.8652,3.033 10.664,6.9966 10.664,8.808 0,4.9359 12.5386,3.9691 14.4905,-1.1173 0.9309,-2.426 8.072,-6.5162 15.8691,-9.0895 12.1631,-4.0142 16.1722,-3.9878 28.2285,0.1856 22.174,7.6756 26.3331,20.0936 25.171,75.1546 -0.888,42.0713 -1.331,44.6388 -7.7027,44.6388 -6.3644,0 -6.8597,-2.8169 -8.4507,-48.0615 -1.9487,-55.4132 -4.1503,-60.2387 -27.2072,-59.6341 -26.4016,0.6922 -33.5896,16.3105 -33.619,73.0477 -0.017,34.0783 -0.4393,36.3381 -6.7795,36.3381 -6.4463,0 -6.7605,-2.2536 -6.7605,-48.4902 0,-44.5629 -0.5602,-48.9972 -6.9171,-54.75 -13.6204,-12.3263 -37.7761,-5.481 -48.0796,13.6249 -2.0164,3.7391 -4.5375,24.9301 -5.6024,47.0911 -1.3349,27.7809 -3.2477,40.7264 -6.1597,41.6895 -2.323,0.7683 -5.0242,-0.6894 -6.0027,-3.2393 z m 310.8781,-0.2813 c -0.9192,-2.3953 -1.2517,-29.3953 -0.739,-60 0.9182,-54.8099 1.0463,-55.6611 8.5379,-56.725 5.7852,-0.8217 7.6056,0.5942 7.6056,5.9155 0,8.9456 2.6948,8.8165 12.7374,-0.61 6.4257,-6.0316 11.9166,-7.5682 26.531,-7.4246 16.1177,0.1582 19.7914,1.5428 29.2983,11.0414 l 10.8699,10.8605 1.0886,50.6486 c 1.0603,49.3325 0.9066,50.6487 -5.9155,50.6487 -6.7184,0 -7.0046,-1.758 -7.0167,-43.0986 -0.01,-36.374 -1.0144,-44.7414 -6.4332,-53.6278 -11.3541,-18.62 -40.3843,-17.6097 -53.5063,1.8621 -6.9251,10.2763 -7.6535,15.3309 -7.6535,53.1108 0,39.7152 -0.3353,41.7537 -6.8666,41.7537 -3.7767,0 -7.6188,-1.9598 -8.5379,-4.3551 z m 137.0946,-2.4053 c -6.1167,-6.1167 -6.7605,-11.2676 -6.7605,-54.0845 v -47.3239 h -10.3887 c -8.0679,0 -10.1381,-1.3216 -9.2669,-5.9155 0.6702,-3.5342 4.7842,-6.3395 10.2193,-6.9688 8.4169,-0.9744 9.1733,-2.3652 10.1119,-18.5915 0.8646,-14.9466 2.0136,-17.5383 7.7751,-17.5383 5.7723,0 6.9099,2.5941 7.7823,17.7465 0.9881,17.1637 1.3488,17.7464 10.9859,17.7464 7.7106,0 9.9642,1.529 9.9642,6.7606 0,5.2722 -2.2536,6.7606 -10.2363,6.7606 h -10.2362 l 0.9405,46.4788 0.9404,46.4789 9.2958,1.0696 c 6.567,0.7556 9.2958,2.9882 9.2958,7.6056 0,9.2232 -21.1308,9.0673 -30.4226,-0.2244 z m 569.6713,3.5321 c -1.2246,-1.9815 -1.896,-26.0235 -1.4919,-53.4266 l 0.7348,-49.8238 -9.8092,-1.7233 c -12.8097,-2.2505 -12.8421,-11.1959 -0.049,-13.4548 8.1094,-1.4318 9.9668,-3.6175 10.9807,-12.9217 0.6712,-6.1592 2.7355,-14.0296 4.5874,-17.4897 4.5278,-8.4605 23.3565,-17.5058 31.2349,-15.0053 8.9532,2.8417 5.9654,13.0451 -4.2035,14.355 -10.6276,1.3691 -16.8669,9.3348 -16.8669,21.5338 0,8.5976 1.1179,9.4947 11.831,9.4947 9.4485,0 11.831,1.3183 11.831,6.5464 0,4.9149 -2.738,6.8104 -10.9859,7.6057 l -10.9858,1.0592 -1.6901,52.3542 c -1.4599,45.2217 -2.4531,52.5003 -7.2905,53.4266 -3.0802,0.5898 -6.6023,-0.5488 -7.827,-2.5304 z m 54.671,1.0918 c -1.3037,-1.3037 -2.3704,-28.8424 -2.3704,-61.197 0,-57.6995 0.1348,-58.806 7.0409,-57.7465 6.8253,1.0471 7.0406,2.8912 7.0324,60.2351 -0.01,47.5561 -0.9225,59.3436 -4.6705,60.1169 -2.5641,0.529 -5.7287,-0.1048 -7.0324,-1.4085 z m 151.335,-1.9686 c -0.9719,-2.5327 -1.3476,-29.6451 -0.8349,-60.2498 0.9212,-54.983 1.0237,-55.6579 8.6169,-56.7354 l 7.6846,-1.0906 -0.924,60.2021 c -0.8329,54.2603 -1.5089,60.3143 -6.8498,61.3403 -3.2592,0.6261 -6.7209,-0.9339 -7.6928,-3.4666 z m -158.4511,-135.3313 c 13.1947,-23.0968 38.5485,-42.0786 38.5485,-28.8604 0,6.5529 -27.8323,33.0857 -34.7061,33.0857 -4.0389,0 -5.4008,-1.4976 -3.8424,-4.2253 z m 157.4993,-15.2113 c 0.8337,-10.0729 2.4376,-12.6761 7.8098,-12.6761 5.3721,0 6.976,2.6032 7.8097,12.6761 0.9675,11.6902 0.3601,12.676 -7.8097,12.676 -8.1699,0 -8.7773,-0.9858 -7.8098,-12.676 z M 916.76296,963.4329 c -25.81978,-6.1174 -31.94958,-22.10413 -30.47872,-79.48922 l 1.03971,-40.56338 h 11.83098 11.83099 l 1.69014,43.94366 c 0.92958,24.16902 2.98665,45.95166 4.57126,48.40591 7.27855,11.27297 29.96809,10.22657 40.02125,-1.8457 2.8947,-3.47611 5.00521,-20.01925 6.11172,-47.90674 l 1.69014,-42.59713 h 11.83098 11.83099 l 0.92305,60 0.92309,60 h -10.69126 c -5.8802,0 -12.38116,-2.31106 -14.44658,-5.13566 -3.31849,-4.53833 -5.31248,-4.34177 -17.14371,1.69014 -14.4626,7.37345 -14.94943,7.42746 -31.53403,3.49812 z m 429.34434,0.86366 c -15.7924,-1.93632 -36.1933,-22.39007 -41.3078,-41.4149 -14.198,-52.81363 28.8189,-97.71705 76.2564,-79.6005 19.1112,7.29863 30.667,23.77751 33.848,48.26816 l 2.3051,17.74648 h -42.7951 c -47.1577,0 -51.9416,2.20337 -41.0093,18.8881 11.9838,18.28952 36.5991,20.48856 51.0165,4.5576 6.9953,-7.72973 28.5367,-9.18642 28.5367,-1.92974 0,6.85085 -12.8466,21.91958 -23.1154,27.11389 -11.0165,5.57246 -28.9459,8.18427 -43.7351,6.37091 z m 43.1885,-76.71323 c 0,-2.64611 -3.938,-9.49119 -8.7512,-15.21126 -9.4466,-11.22663 -21.4733,-13.42584 -36.3508,-6.64719 -8.7097,3.96841 -17.1532,18.27292 -13.8964,23.54254 1.0629,1.71982 14.7724,3.12697 30.4655,3.12697 22.4254,0 28.5329,-1.02981 28.5329,-4.81106 z m 150.4225,75.98553 c -20.5772,-4.85953 -33.3344,-15.62204 -37.2862,-31.45616 -2.2368,-8.96285 -1.842,-9.29578 11.0251,-9.29578 10.8983,0 14.0399,1.52532 17.1357,8.31982 8.1593,17.90776 45.142,16.23053 47.3314,-2.14654 1.1372,-9.54558 -6.7875,-14.1622 -31.4454,-18.31873 -26.8493,-4.52589 -42.2535,-17.70605 -42.2535,-36.15286 0,-14.50891 5.8326,-22.59336 21.3994,-29.66129 33.1225,-15.03881 76.6287,0.56048 76.6287,27.47543 0,6.29057 -25.7769,3.40057 -32.1126,-3.60034 -3.9817,-4.39967 -10.362,-6.74247 -18.2704,-6.70881 -15.1103,0.0642 -21.6248,3.9763 -20.0696,12.05169 1.2076,6.27056 7.9652,9.30422 43.7411,19.63619 21.7887,6.2925 29.6257,13.47316 32.2318,29.53231 4.1987,25.87416 -33.8304,48.40766 -68.0555,40.32507 z m 167.324,-0.76053 c -16.2168,-4.55926 -33.1859,-21.78014 -37.6243,-38.18258 -4.659,-17.2174 -1.9423,-49.11323 5.0982,-59.85851 15.5117,-23.67387 46.614,-32.77396 68.2946,-19.98209 6.8241,4.02632 13.1657,6.56227 14.0925,5.63547 0.9268,-0.92681 1.876,-12.77737 2.1092,-26.33453 l 0.4241,-24.64945 12.6761,-1.04914 12.676,-1.0491 v 83.02093 83.02097 h -10.6132 c -6.1756,0 -12.4082,-2.45462 -14.906,-5.8706 -3.956,-5.41024 -4.7806,-5.44381 -10.5135,-0.42818 -8.279,7.24324 -27.1197,9.82983 -41.7137,5.72681 z m 43.0135,-32.22629 c 7.032,-10.73209 10.7141,-34.98676 6.8835,-45.34192 -8.6997,-23.51756 -35.3133,-31.39873 -51.4701,-15.24199 -10.3465,10.34653 -13.8825,33.09519 -7.9474,51.12865 8.333,25.31909 38.5734,30.76188 52.534,9.45526 z m 81.3332,33.75766 c -13.7401,-2.07431 -26.3186,-18.93648 -26.3186,-35.28159 0,-18.89375 13.2948,-31.89296 35.7885,-34.99288 32.9285,-4.53796 41.958,-8.05363 41.958,-16.33633 0,-10.96584 -6.2937,-15.75705 -20.6984,-15.75705 -8.4931,0 -15.8515,2.748 -22.6288,8.45071 -12.4071,10.43989 -31.039,11.72809 -31.039,2.146 0,-9.29385 13.0603,-24.27025 25.8111,-29.59788 14.3315,-5.98807 38.893,-5.96387 53.2923,0.0527 18.7118,7.81829 21.4608,14.92269 22.0869,57.08126 0.4757,32.02963 1.5148,38.62922 6.8678,43.61622 15.3036,14.25756 -6.4836,29.43235 -23.837,16.60242 -8.2847,-6.12517 -10.2947,-6.36716 -18.8597,-2.27057 -11.4574,5.47995 -29.7815,8.1956 -42.4231,6.28712 z m 45.5062,-30.45097 c 3.4238,-3.09853 5.9217,-10.19314 5.9217,-16.8193 0,-12.55207 1.5616,-12.29419 -34.2974,-5.66407 -11.6996,2.16318 -20.603,12.11284 -17.6726,19.7493 5.6977,14.84802 31.0024,16.35046 46.0483,2.73407 z m 91.3585,29.62283 c -28.0956,-6.76036 -39.7626,-25.79368 -39.6811,-64.73496 0.048,-22.87498 1.0951,-27.0956 9.4365,-38.03172 17.2548,-22.6222 43.9044,-28.97169 65.7346,-15.6618 6.0872,3.71135 11.7914,6.74793 12.676,6.74793 0.8847,0 1.6085,-12.16902 1.6085,-27.04226 V 797.7465 h 13.5812 13.5812 l -0.9051,81.97183 -0.9052,81.97183 -10.9859,1.05925 c -8.1613,0.78689 -10.9859,-0.29949 -10.9859,-4.22535 0,-6.54497 -4.7257,-6.72308 -14.4852,-0.54599 -10.2351,6.47821 -25.6038,8.67742 -38.6696,5.53349 z m 33.0603,-23.89342 c 18.1698,-9.72419 22.8818,-49.51612 7.963,-67.24607 -6.6821,-7.94127 -11.5299,-10.40022 -20.5039,-10.40022 -22.8309,0 -34.9703,14.56851 -34.9703,41.96802 0,28.03998 25.7094,47.34626 47.5112,35.67827 z m 105.0166,23.78819 c -34.6325,-8.27696 -54.0439,-51.42946 -39.1594,-87.05314 6.7092,-16.05735 13.8229,-23.7362 29.3139,-31.64244 14.9665,-7.63863 33.2655,-8.23298 46.2796,-1.50311 21.2003,10.9631 37.2724,38.80644 33.563,58.14497 -1.0804,5.63293 -5.4694,6.34688 -44.2565,7.19912 -23.6814,0.52033 -43.0571,2.32269 -43.0571,4.00529 0,8.1816 7.358,20.63635 15.2441,25.80359 12.5032,8.19231 27.8673,6.80021 38.6174,-3.49903 5.8497,-5.60438 12.8582,-8.66438 19.8446,-8.66438 13.0447,0 13.4884,3.6882 2.221,18.46053 -12.5516,16.45596 -36.3501,24.06873 -58.6106,18.7486 z m 41.7771,-74.29295 c 3.3802,-5.46939 -7.6016,-22.76346 -15.8596,-24.97558 -14.7111,-3.94077 -22.8871,-2.12893 -33.6042,7.44676 -17.3404,15.49366 -12.1067,20.80983 20.4871,20.80983 14.8219,0 27.8614,-1.47644 28.9767,-3.28101 z m 136.9627,73.67842 c -25.7283,-7.26933 -37.8591,-27.14275 -37.8591,-62.02314 0,-27.56322 1.8382,-32.25397 19.1779,-48.93765 11.19,-10.76664 14.0719,-11.83099 32.0352,-11.83099 14.0555,0 21.6212,1.70329 26.2756,5.91549 12.117,10.9657 14.4549,7.54865 14.4549,-21.12676 V 797.7465 h 11.831 11.831 v 82.8169 82.8169 h -9.9729 c -5.8366,0 -11.2948,-2.36224 -13.1603,-5.6956 -2.8964,-5.17572 -3.9146,-5.22227 -11.1539,-0.50998 -11.0731,7.20787 -29.4311,9.58063 -43.4594,5.61708 z m 39.7752,-27.4849 c 16.7915,-15.37197 18.0784,-47.73222 2.5638,-64.47269 -9.2293,-9.95865 -29.3709,-12.07728 -39.7679,-4.18307 -9.922,7.53353 -16.9228,28.76137 -14.5393,44.08581 2.5485,16.38524 6.8349,22.67645 20.4189,29.96907 11.552,6.20173 20.2992,4.69406 31.3245,-5.39912 z m 101.9011,28.2677 c -39.6276,-7.61966 -58.4289,-57.19568 -36.1247,-95.25502 12.7707,-21.79149 23.5472,-28.05722 48.5033,-28.20115 17.1919,-0.099 22.4785,1.36347 32.4821,8.98655 13.9842,10.65644 22.8972,27.63749 23.9681,45.66426 l 0.7625,12.83642 -42.1218,0.95482 c -27.3211,0.61934 -42.9723,2.33074 -44.5419,4.87055 -3.9789,6.43802 6.908,23.09919 18.1946,27.84487 12.157,5.11163 25.4598,1.85503 34.862,-8.5344 5.9434,-6.56731 31.917,-9.63729 31.917,-3.77246 0,7.46707 -24.6239,30.68886 -34.6892,32.71396 -6.0195,1.21112 -13.2263,2.65683 -16.015,3.21268 -2.7888,0.55586 -10.5274,-0.0385 -17.197,-1.32108 z m 42.424,-74.35812 c 1.0802,-1.74784 -2.7904,-8.59291 -8.6014,-15.21127 -10.9936,-12.521 -23.8973,-15.61582 -36.6508,-8.79035 -8.008,4.28576 -17.9752,19.74213 -15.4088,23.89474 2.608,4.21977 58.0587,4.3175 60.661,0.10682 z m 121.2504,73.78243 c -13.7638,-3.91731 -28.1676,-21.00768 -28.1676,-33.42142 0,-5.40474 3.8121,-14.1526 8.6975,-19.95851 9.0191,-10.7186 20.7093,-15.0366 51.3574,-18.96983 12.1985,-1.56551 18.848,-4.24019 21.1268,-8.49813 4.3346,-8.09926 4.2656,-8.61519 -1.9865,-14.86729 -8.7234,-8.72343 -32.5397,-6.94405 -42.0121,3.13883 -9.8155,10.44811 -30.4225,12.10238 -30.4225,2.44228 0,-25.02527 47.628,-42.99285 79.1034,-29.8416 19.3843,8.09926 22.305,15.75374 22.305,58.45505 0,34.54262 0.6155,38.33155 6.7606,41.62032 9.7339,5.20939 9.1288,20.11491 -0.8451,20.81727 -13.5092,0.95131 -20.997,-0.64726 -25.8736,-5.52386 -3.9867,-3.98667 -6.2168,-4.04643 -13.5343,-0.36257 -12.4011,6.24315 -33.9455,8.54515 -46.509,4.96946 z m 47.0375,-29.11018 c 3.3809,-3.05963 5.9217,-10.18286 5.9217,-16.60147 v -11.24242 l -16.0563,2.04007 c -23.6038,2.99899 -32.7758,8.13249 -34.0338,19.04843 -0.8979,7.79223 0.7556,10.10697 9.9948,13.9918 11.9664,5.03148 23.2604,2.63993 34.1736,-7.23641 z m 211.0549,29.46572 c -27.8374,-5.09764 -44.0217,-26.61688 -44.2137,-58.78794 -0.2265,-37.95924 19.1167,-61.84722 52.6453,-65.01468 13.7402,-1.29803 20.7766,-0.16462 29.8155,4.80233 14.863,8.16751 29.7912,32.03284 31.1072,49.73037 l 1.0054,13.52113 -43.2438,0.94715 c -47.4898,1.04015 -52.1213,3.23736 -41.3797,19.63109 12.1336,18.51823 34.1426,20.37306 51.2802,4.32165 5.1427,-4.81663 10.8104,-6.45393 19.6977,-5.69029 l 12.4775,1.07209 -7.8781,11.64821 c -13.4669,19.91148 -35.6314,28.5219 -61.3135,23.81889 z m 41.6274,-75.77112 c 0,-2.64611 -3.9381,-9.49119 -8.7512,-15.21126 -6.9613,-8.27308 -11.3938,-10.40022 -21.6714,-10.40022 -10.2776,0 -14.71,2.12714 -21.6713,10.40022 -15.0191,17.8491 -12.4222,20.02232 23.9249,20.02232 22.1106,0 28.169,-1.03471 28.169,-4.81106 z m 205.5407,74.31628 c -19.4355,-5.06958 -24.9145,-9.42578 -33.826,-26.8938 -4.9105,-9.62521 -6.9106,-19.90675 -6.8248,-35.08245 0.1518,-26.83599 10.1663,-43.86876 32.0106,-54.4434 48.5223,-23.48924 94.6351,14.98087 85.61,71.421 -5.7823,36.16056 -38.1984,55.11191 -76.9698,44.99865 z m 44.6318,-34.7898 c 6.1989,-7.85489 7.1593,-12.57667 5.9614,-29.30988 -1.186,-16.56842 -2.9913,-21.29138 -10.6595,-27.88732 -27.4548,-23.61556 -63.4835,7.17498 -52.9437,45.24625 4.8033,17.35028 7.0074,20.12694 20.4698,25.78743 13.8309,5.81547 24.9211,1.68737 37.172,-13.83648 z M 1014.0845,902.7393 v -61.04914 h 11.831 c 9.5775,0 11.831,1.28772 11.831,6.76056 0,8.55726 0.5151,8.50118 15.5329,-1.69014 19.217,-13.04106 36.15,-11.64764 52.0837,4.28603 l 12.7367,12.73673 -0.4584,48.95341 -0.4583,48.95341 -12.6761,1.04914 -12.676,1.04911 v -43.39559 c 0,-51.28722 -2.8408,-58.42097 -23.2644,-58.42097 -8.8909,0 -14.9277,2.32844 -19.98,7.7064 -6.4728,6.88989 -7.341,12.1725 -8.1949,49.85916 l -0.9551,42.15275 -12.676,1.04914 -12.6761,1.04911 z m 129.2373,56.51831 c -2.4184,-2.9139 -3.494,-23.84292 -3.0924,-60.17263 l 0.6157,-55.70468 h 13.5211 13.5211 v 59.15493 59.15493 l -10.4287,1.0177 c -5.7358,0.55971 -12.0974,-0.99289 -14.1368,-3.45025 z m 79.2114,1.58748 c -0.8403,-1.39436 -3.1136,-7.85915 -5.0518,-14.36619 -1.9381,-6.50705 -11.0297,-31.93042 -20.2034,-56.49638 -9.1738,-24.56596 -15.8636,-45.48145 -14.8661,-46.47887 3.5474,-3.54737 23.5749,-1.74342 26.7763,2.41186 2.5775,3.3454 14.3109,38.4527 26.6206,79.65087 1.6044,5.36961 8.1349,2.01944 8.1349,-4.17327 0,-6.95371 20.6944,-70.78688 24.4695,-75.4776 3.7785,-4.69504 26.2347,-5.87138 26.2347,-1.37425 0,1.56811 -3.2337,11.83572 -7.186,22.8169 -3.9523,10.98118 -10.7052,29.85313 -15.0063,41.93764 -12.0513,33.85953 -16.4985,45.26359 -19.443,49.85915 -2.9001,4.52617 -27.9338,5.91431 -30.4794,1.69014 z m 208.093,-57.46479 0.9231,-60 h 11.831 c 10.2542,0 11.7236,1.01361 11.0258,7.60564 -1.0576,9.98924 1.0032,9.61609 15.0615,-2.72728 8.0923,-7.10515 14.5672,-10.00895 20.7279,-9.29578 7.7883,0.90156 8.9594,2.58365 8.9594,12.86813 0,10.10335 -1.234,11.97491 -8.4507,12.81667 -26.4391,3.08387 -33.8028,17.20462 -33.8028,64.82123 v 33.91139 h -13.5991 -13.5991 z m 194.3227,57.9067 c -1.3275,-1.32757 -2.4137,-28.77992 -2.4137,-61.0053 v -58.59154 h 13.5991 13.5992 l -0.9231,60 -0.9231,60 -10.2623,1.00527 c -5.6443,0.55291 -11.3485,-0.0808 -12.6761,-1.40843 z m 1096.5942,-12.20407 c -3.6755,-8.06826 -7.7643,-19.18016 -9.0861,-24.69313 -1.3218,-5.51297 -3.5164,-11.54471 -4.8769,-13.40386 -1.3605,-1.85916 -4.3242,-9.46479 -6.586,-16.90141 -2.2618,-7.43662 -6.1456,-18.08451 -8.6306,-23.66197 -2.485,-5.57747 -5.561,-14.32395 -6.8355,-19.43662 -2.2471,-9.01434 -1.8946,-9.29578 11.6428,-9.29578 16.1252,0 14.8381,-2.06728 31.104,49.95583 5.9749,19.10951 12.4418,34.21846 14.3709,33.57543 1.9291,-0.64303 5.3326,-7.91189 7.5634,-16.15302 2.2307,-8.24112 7.7411,-26.39232 12.2452,-40.33599 l 8.1892,-25.35211 14.4089,-1.0538 c 12.6358,-0.9241 14.1574,-0.30017 12.3646,5.07042 -1.1245,3.36832 -10.7807,30.46226 -21.4583,60.20874 l -19.4139,54.0845 -14.1595,1.03116 c -13.7525,1.00151 -14.3515,0.60953 -20.8422,-13.63839 z m 213.3085,-45.70263 0.9231,-60 10.9859,-1.05924 10.9859,-1.05925 v 61.05925 61.05924 h -11.909 -11.909 z m 49.8458,56.82379 c -0.05,-1.97141 -0.091,-27.92238 -0.091,-57.66886 0,-29.74648 0.041,-55.69744 0.091,-57.66886 0.053,-2.06433 5.4667,-3.13943 12.7674,-2.53521 11.211,0.92789 12.5442,1.98477 11.5355,9.14438 -1.1225,7.96833 -0.9382,7.92858 11.7562,-2.53522 7.5974,-6.26247 16.7469,-10.63044 22.2672,-10.63044 8.6789,0 9.3707,0.99813 9.3707,13.52113 0,12.71303 -0.5948,13.52112 -9.9524,13.52112 -5.644,0 -14.058,3.52946 -19.4366,8.15314 -9.1778,7.88968 -9.5389,9.44613 -11.1744,48.16902 l -1.6901,40.01587 -12.6761,1.04914 c -7.3007,0.60423 -12.7148,-0.47087 -12.7674,-2.53521 z M 1142.9886,820.16372 c -1.7001,-2.10413 -2.8779,-7.62849 -2.6173,-12.27638 0.4181,-7.45727 2.188,-8.57415 15.0562,-9.50068 l 14.5825,-1.05002 -1.0613,12.79578 c -0.9798,11.81274 -1.899,12.83652 -11.9651,13.32636 -5.997,0.29172 -12.2948,-1.19094 -13.995,-3.29506 z m 481.3965,1.96793 c -1.0174,-1.01747 -1.8499,-6.92035 -1.8499,-13.11756 0,-10.91993 0.4235,-11.26759 13.7252,-11.26759 h 13.7252 l -1.0491,12.59084 c -0.9636,11.56421 -1.9319,12.6338 -11.8753,13.11755 -5.9544,0.28969 -11.6586,-0.30591 -12.6761,-1.32324 z m 1311.7246,0.17543 c -1.1138,-1.114 -2.0252,-7.09578 -2.0252,-13.29299 0,-10.66012 0.6489,-11.26759 12.0351,-11.26759 11.8317,0 12.0173,0.21329 10.9859,12.62183 -0.9087,10.932 -2.2488,12.71166 -10.0098,13.29286 -4.9284,0.36906 -9.8721,-0.24034 -10.986,-1.35424 z M 85.259213,767.18169 C 50.643147,760.19772 18.181777,732.13956 9.5546323,701.74599 7.3910681,694.12372 4.3561815,686.44227 2.8104397,684.67607 c -3.67365064,-4.1976 -3.67365064,-533.60524 0,-537.80283 1.5457418,-1.76619 4.744591,-10.05634 7.1085535,-18.42253 C 18.448843,98.263087 51.176512,69.728165 82.137005,65.484556 c 8.743616,-1.198445 17.861706,-0.442462 22.114395,1.833509 3.97998,2.130023 25.54793,26.635207 47.92876,54.455965 43.75899,54.39513 56.076,64.14147 81.05928,64.14147 19.01393,0 38.78658,-10.9836 49.85538,-27.69439 9.26151,-13.98229 9.30384,-14.31688 10.34849,-81.804361 0.61556,-39.766794 2.48313,-69.4927323 4.52018,-71.9472245 4.12966,-4.97593617 17.68523,-2.883028 41.75127,6.4461755 44.20013,17.13418 77.24448,64.45715 76.17063,109.0843 -0.30389,12.62452 7.67148,33.47871 17.58598,45.98489 7.00888,8.84103 31.84445,19.93061 44.63544,19.93061 22.1955,0 36.0024,-8.91975 61.04812,-39.43935 59.16257,-72.09281 69.05192,-82.250796 80.07573,-82.250796 18.75025,0 36.94989,7.782892 53.95795,23.074591 17.15919,15.427605 29.90998,35.709995 29.90998,47.577165 0,3.68266 1.52113,7.63584 3.38029,8.78487 4.46406,2.75894 4.66411,536.87406 0.20416,545.1163 -1.74686,3.22831 -4.04974,10.02176 -5.11754,15.09658 -3.36297,15.98291 -29.18295,43.92436 -50.81425,54.98937 l -19.84222,10.14987 -265.59536,0.5424 C 219.23622,769.85464 93.211718,768.78614 85.259213,767.18169 Z M 400.99717,698.14014 c 16.45799,-16.40471 28.19831,-25.27501 35.3445,-26.70423 5.88534,-1.17708 43.63677,-2.14012 83.8921,-2.14012 60.77317,0 74.46622,-0.8928 80.70423,-5.26208 7.48756,-5.24451 7.51271,-5.61154 7.51271,-109.61774 0,-90.36169 -0.71233,-105.06791 -5.31188,-109.66746 -4.52255,-4.52255 -16.92145,-5.31188 -83.43979,-5.31188 -88.49895,0 -97.83549,2.11737 -116.26722,26.36735 -18.46337,24.29155 -23.49461,27.31291 -44.16774,26.52358 -17.20908,-0.65706 -19.61415,-1.74081 -27.60543,-12.43917 -15.10832,-20.22632 -29.37745,-32.19079 -43.40309,-36.39299 -19.51525,-5.84691 -169.88537,-5.62976 -177.93594,0.2569 -5.40378,3.95135 -5.88517,13.15542 -5.7016,109.01409 0.19571,102.21222 0.36956,104.83886 7.32064,110.61387 6.35395,5.27892 16.02787,5.9155 89.89679,5.9155 95.75247,0 96.80117,0.25453 121.83167,29.55289 17.15712,20.08262 23.43207,23.71362 41.12923,23.79948 9.8667,0.048 15.161,-3.53638 36.20082,-24.50802 z m 564.07326,-26.61357 c -43.61294,-14.43366 -64.52309,-40.77262 -72.62336,-91.4783 -9.07964,-56.83629 13.99829,-112.22515 55.70065,-133.68592 22.48121,-11.56925 60.68778,-12.13443 81.32688,-1.20307 15.5365,8.22879 35.3141,27.15414 35.3141,33.7923 0,2.4358 1.1409,4.43017 2.5352,4.43189 1.3944,0.002 2.5353,-28.51937 2.5353,-63.38028 v -63.38346 l 10.8214,-0.54453 c 5.9518,-0.2995 12.4324,1.39656 14.4013,3.76898 2.4319,2.93016 3.2976,52.97016 2.6997,156.03745 l -0.8802,151.72402 h -11.831 -11.831 l -1.0217,-17.74648 c -0.5619,-9.76056 -1.7492,-17.74648 -2.6385,-17.74648 -0.8892,0 -6.377,5.42163 -12.1951,12.04807 -21.7449,24.76614 -63.11348,37.02957 -92.31367,27.36581 z m 60.84507,-28.44841 c 27.4382,-13.51694 39.1569,-34.85798 41.4761,-75.53216 2.8034,-49.16715 -10.0068,-82.40918 -37.8041,-98.10068 -10.8577,-6.12913 -19.0136,-7.80284 -38.12214,-7.82319 -22.09062,-0.0237 -25.48429,0.91974 -37.1831,10.33484 -25.08693,20.18975 -35.88609,45.45194 -35.95109,84.09938 -0.0609,36.15046 8.00217,58.69024 27.68211,77.38435 18.57552,17.64501 54.78262,22.01216 79.90222,9.63746 z m 422.5352,29.67968 c -43.2319,-6.61491 -75.7216,-35.91921 -75.9821,-68.53247 -0.074,-9.23666 0.072,-9.29578 22.9087,-9.29578 h 22.9829 l 4.3091,11.91675 c 7.6382,21.1229 33.3192,30.6414 67.6124,25.06005 22.1069,-3.598 30.8451,-10.70309 30.8451,-25.08047 0,-17.34203 -10.4245,-23.77809 -56.9922,-35.18688 -22.9795,-5.62982 -47.2365,-13.06722 -53.9044,-16.52758 -30.1778,-15.66088 -42.3619,-49.74223 -27.9101,-78.07011 16.4907,-32.32442 67.2253,-48.29074 118.5039,-37.29346 28.7362,6.16282 60.8636,36.14745 60.868,56.80834 0,8.71132 -0.2292,8.78961 -24.0357,8.14053 -13.2206,-0.36048 -24.2496,-1.12104 -24.5089,-1.69015 -8.9006,-19.53833 -24.2729,-27.12422 -51.8293,-25.57653 -24.2927,1.36439 -34.8392,8.45568 -34.8392,23.42522 0,15.3839 11.1411,20.7596 71.3081,34.40684 32.4868,7.36875 52.967,18.04716 62.6366,32.659 37.4508,56.59204 -27.8291,117.71159 -111.9729,104.8367 z m -283.3803,-5.71558 c -1.2394,-1.23942 -2.2535,-43.7515 -2.2535,-94.47124 v -92.2177 l -17.64,-1.02173 -17.6399,-1.02172 v -16.90141 -16.90141 l 16.935,-0.99728 16.935,-0.99725 3.6384,-27.17564 c 6.4456,-48.14198 22.3316,-59.33213 81.6022,-57.48098 l 14.5349,0.45397 -1.0138,19.43662 -1.0138,19.43662 -13.5211,0.027 c -27.2727,0.0554 -31.385,4.40924 -29.2371,30.9552 l 1.1855,14.65119 h 20.1179 20.118 l -1.0217,17.74648 -1.0217,17.74648 -19.6714,1.69014 -19.6714,1.69014 0.3353,88.19426 c 0.1843,48.50684 -0.6333,90.71811 -1.817,93.80282 -1.7097,4.45538 -6.8272,5.60856 -24.8891,5.60856 -12.5054,0 -23.7511,-1.01409 -24.9905,-2.25353 z M 1287.8873,556.20444 V 442.81691 h 25.3977 25.3977 l -0.8907,112.39437 -0.8906,112.39437 -24.507,0.99316 -24.5071,0.99316 z m 0.6907,-176.76781 0.9995,-22.8169 h 23.6619 23.662 l 0.9995,22.8169 0.9995,22.8169 h -25.661 -25.661 z"
       id="path116" />
  </g>
</svg>
