<?xml version="1.0" encoding="UTF-8" standalone="no"?>
<!-- Created with Inkscape (http://www.inkscape.org/) -->

<svg
   version="1.1"
   id="svg2"
   height="100%"
   width="auto"
   viewBox="0 0 816 572"
   sodipodi:docname="eps.png"
   xmlns:inkscape="http://www.inkscape.org/namespaces/inkscape"
   xmlns:sodipodi="http://sodipodi.sourceforge.net/DTD/sodipodi-0.dtd"
   xmlns:xlink="http://www.w3.org/1999/xlink"
   xmlns="http://www.w3.org/2000/svg"
   xmlns:svg="http://www.w3.org/2000/svg">
  <defs
     id="defs6" />
  <sodipodi:namedview
     id="namedview4"
     pagecolor="#ffffff"
     bordercolor="#000000"
     borderopacity="0.25"
     inkscape:showpageshadow="2"
     inkscape:pageopacity="0.0"
     inkscape:pagecheckerboard="0"
     inkscape:deskcolor="#d1d1d1"
     showgrid="false" />
  <g
     inkscape:groupmode="layer"
     inkscape:label="Image"
     id="g8">
    <image
       width="816"
       height="572"
       preserveAspectRatio="none"
       xlink:href="eps.png"
       id="image10" />
    <path
       style="fill:#000000"
       d="m 713.3516,469.90755 c -1.73161,-0.50164 -4.54747,-2.50554 -6.25745,-4.4531 C 703.80512,461.70845 698,451.00163 698,448.68143 c 0,-1.02534 -1.24352,-0.7602 -4.88358,1.04125 -2.68598,1.32927 -7.74848,2.90699 -11.25,3.50603 -5.72456,0.97937 -6.84924,0.87545 -11.15541,-1.03078 -8.97995,-3.97519 -10.83001,-13.81756 -5.19653,-27.64581 1.3327,-3.27133 2.32464,-5.9891 2.20431,-6.0395 -16.40994,-6.87206 -22.70746,-12.73692 -22.71505,-21.15447 -0.003,-3.48939 0.68942,-4.9128 4.39656,-9.03603 3.78336,-4.20801 10.89756,-8.7283 16.75076,-10.64325 1.48949,-0.48731 1.41659,-1.18611 -0.74499,-7.1412 -3.40952,-9.39311 -3.97531,-16.16553 -1.71413,-20.51774 4.20024,-8.08442 12.85381,-9.90033 26.05743,-5.46802 4.13092,1.3867 7.58637,2.39231 7.67877,2.23469 0.0924,-0.15763 1.69377,-3.35874 3.55861,-7.11357 C 705.38649,330.81419 712.67038,324 717.74012,324 c 6.78051,0 13.8792,6.55823 18.84919,17.41411 1.40652,3.07224 2.73266,5.58589 2.94698,5.58589 0.21432,0 2.76883,-0.94145 5.67669,-2.09212 6.44874,-2.55181 15.74577,-3.40663 20.38795,-1.87457 5.08184,1.67716 8.39907,7.1 8.39907,13.73037 0,4.95915 -3.08363,16.40417 -5.06842,18.81164 -0.58866,0.71402 0.97591,1.84726 4.65645,3.37276 3.04864,1.26359 7.7635,4.05266 10.47747,6.19793 l 4.9345,3.9005 v 8.10867 c 0,8.00882 -0.0442,8.15031 -3.58635,11.49103 -1.9725,1.8603 -6.70386,4.83481 -10.51415,6.61003 -5.1523,2.40045 -6.76666,3.61415 -6.29908,4.73571 6.97261,16.7247 6.12822,27.53628 -2.4692,31.61603 -4.56336,2.16545 -12.77991,1.42125 -21.0097,-1.90291 l -6.23015,-2.51646 -2.49305,5.65569 c -3.63388,8.24377 -7.20977,12.9609 -11.91599,15.71893 -4.42161,2.59123 -6.1189,2.79622 -11.13073,1.34432 z m 11.11078,-7.00866 c 3.37757,-2.96555 9.61533,-14.19451 9.46686,-17.04186 -0.0389,-0.74637 -3.56856,-3.62501 -7.84365,-6.397 l -7.77288,-5.03996 -7.67607,5.14301 c -4.22184,2.82866 -7.89811,5.36505 -8.16948,5.63643 -0.73665,0.73665 2.30323,7.65553 5.74887,13.08466 5.17607,8.15567 10.49325,9.666 16.24635,4.61472 z m -35.74989,-17.02238 c 3.18313,-1.16793 6.14524,-2.44816 6.58247,-2.84497 0.43723,-0.3968 -0.052,-4.9138 -1.08717,-10.03776 l -1.88213,-9.31629 -8.91283,-1.82602 c -4.90206,-1.00432 -9.42239,-1.64119 -10.04518,-1.41528 C 671.54503,421.09733 668,432.94801 668,438.37972 668,445.4635 670.54086,448 677.6368,448 c 2.9085,0 7.89256,-0.95557 11.07569,-2.12349 z m 77.83296,-0.33106 c 3.21867,-3.21866 3.21633,-8.76716 -0.008,-17.90314 -1.33096,-3.77173 -2.63226,-7.07003 -2.89178,-7.32955 -0.54353,-0.54352 -17.7958,2.77464 -18.8393,3.6234 -0.38126,0.31011 -1.41673,4.07439 -2.30104,8.36506 -0.88431,4.29067 -1.83294,8.38783 -2.10807,9.1048 -0.31668,0.82526 1.26149,2.05329 4.30104,3.34678 6.24287,2.65668 7.75359,2.99225 14.09672,3.1312 4.37925,0.0959 5.72014,-0.30868 7.75,-2.33855 z M 708.57881,435.4039 c 2.98166,-1.9791 5.3887,-3.89212 5.34899,-4.25114 -0.0397,-0.35902 -1.50945,-1.84264 -3.26609,-3.29694 -2.28205,-1.88927 -4.6168,-2.74576 -8.17781,-3 -5.62579,-0.40165 -5.40543,-0.97487 -3.43851,8.94463 1.41739,7.14811 1.22803,7.11626 9.53342,1.60345 z m 29.10157,-1.97857 c 1.99494,-9.59196 2.03791,-9.48225 -3.43038,-8.75765 -3.05522,0.40484 -6.10618,1.69119 -8.55101,3.6053 l -3.80101,2.97588 6.30101,4.31368 c 3.46556,2.37252 6.73931,4.19542 7.27502,4.0509 0.53571,-0.14453 1.52857,-2.92918 2.20637,-6.18811 z M 720.75047,426.25 c 0.27522,-0.8266 -0.66965,-1.25 -2.78958,-1.25 -2.77581,0 -3.03403,0.20694 -1.9253,1.54289 1.45049,1.74773 4.09003,1.58376 4.71488,-0.29289 z M 734.09723,414.33594 741,407.67188 v -9.56085 -9.56084 L 734.27682,381.7751 727.55364,375 h -9.44923 -9.44924 l -6.74112,6.75 -6.74111,6.75 -0.002,9 -0.002,9 7.23778,7.25 7.23778,7.25 h 8.77465 8.77465 l 6.90277,-6.66406 z m -24.48734,-1.70095 c -13.40017,-8.11142 -10.56923,-27.60686 4.60202,-31.69205 8.67006,-2.33461 18.19787,3.30572 20.70392,12.25642 4.13186,14.75755 -12.24958,27.33893 -25.30594,19.43563 z m 13.96597,-3.5301 c 6.84714,-3.10984 9.38445,-11.37761 5.46462,-17.80634 -5.41592,-8.88241 -17.52523,-8.12582 -22.12816,1.38256 -1.87486,3.87295 -2.02173,5.01036 -1.06102,8.21692 1.29988,4.33861 4.69271,7.84735 8.768,9.06755 4.09803,1.227 4.43027,1.19507 8.95656,-0.86069 z m -2.52389,-11.4682 c -0.49419,-1.29981 -1.83305,-2.60768 -2.97525,-2.90638 -2.47624,-0.64755 -2.75062,-3.25773 -0.43582,-4.14601 3.29187,-1.2632 9.01859,4.53353 7.74853,7.84326 -0.8985,2.34143 -3.31401,1.901 -4.33746,-0.79087 z m -22.10783,19.80385 c -1.32248,-1.40771 -2.56846,-2.06758 -2.76886,-1.46638 -0.50629,1.51887 1.74887,4.02584 3.62148,4.02584 1.18041,0 0.97632,-0.61264 -0.85262,-2.55946 z m 40.90781,-0.44801 c 0.34909,-2.46676 0.33482,-2.47153 -1.75,-0.5848 -2.55807,2.31503 -2.71735,3.85621 -0.35195,3.40538 0.97724,-0.18626 1.90541,-1.43176 2.10195,-2.82058 z m -48.64945,-4.06995 c -0.43171,-2.80992 -1.8007,-5.87124 -3.55154,-7.94193 l -2.84904,-3.36951 -1.90235,2.44443 c -2.66888,3.42939 -7.14433,11.033 -6.73495,11.44239 0.81818,0.81818 14.40392,3.18788 15.03788,2.62299 0.38638,-0.34428 0.38638,-2.68355 0,-5.19837 z m 61.2975,4.49078 c 2.2,-0.3813 5.03184,-1.07651 6.29297,-1.54491 2.28853,-0.84997 2.28483,-0.86377 -1.90481,-7.11004 -2.30878,-3.44212 -4.38008,-6.47287 -4.60288,-6.73498 -0.2228,-0.26212 -1.93624,1.31288 -3.80764,3.5 -2.82812,3.30524 -3.40889,4.78985 -3.44009,8.79396 -0.0322,4.1262 0.21354,4.74363 1.71245,4.30332 0.9625,-0.28274 3.55,-0.82605 5.75,-1.20735 z m -76.21645,-11.81971 5.29638,-7.90636 -5.03996,-7.77288 c -2.77199,-4.27509 -5.65063,-7.80473 -6.397,-7.84365 -2.84735,-0.14847 -14.07631,6.08929 -17.04186,9.46686 -3.44413,3.92265 -3.8048,6.20091 -1.64336,10.38069 1.92829,3.72888 15.80146,12.40282 18.78584,11.74547 0.40897,-0.0901 3.12696,-3.72164 6.03996,-8.07013 z M 773.5,410.75747 c 5.97383,-2.96587 10.3193,-6.50736 12.01995,-9.79605 1.32109,-2.55471 1.33562,-3.37133 0.11209,-6.29965 -0.77317,-1.85045 -2.76671,-4.33354 -4.4301,-5.51798 -3.33589,-2.37536 -13.11896,-7.11863 -14.71405,-7.13402 -0.55667,-0.005 -3.35239,3.52861 -6.21273,7.8533 l -5.20061,7.86307 5.21273,8.08496 c 5.7138,8.86214 5.49249,8.77929 13.21272,4.94637 z M 691,398 c 0,-3.14738 -1.64996,-4.07576 -2.64326,-1.48727 -0.49577,1.29196 1.1176,4.48727 2.2657,4.48727 C 690.8301,401 691,399.65 691,398 Z m 56.9438,1.10501 c 0.753,-1.40699 0.6333,-2.2111 -0.46481,-3.12245 -1.25161,-1.03874 -1.47899,-0.74741 -1.47899,1.895 0,3.58942 0.50802,3.91022 1.9438,1.22745 z M 691.29772,382.0848 c 0.28632,-2.52164 0.35669,-4.75207 0.15638,-4.95651 -0.5253,-0.53615 -12.85242,1.88182 -14.36748,2.81818 -0.95025,0.58728 -0.16758,2.48096 3.06891,7.42522 l 4.34447,6.63689 3.13857,-3.66949 c 2.18728,-2.55728 3.29635,-5.05913 3.65915,-8.25429 z m 64.49087,6.1652 c 2.12472,-3.1625 4.18006,-6.2915 4.56744,-6.95333 0.74309,-1.26958 -3.15901,-2.6342 -11.10603,-3.88394 L 745,376.74438 v 4.51967 c 0,3.60034 0.66107,5.3448 3.25,8.5762 1.7875,2.23109 3.34573,4.07975 3.46274,4.10814 0.11701,0.0284 1.95114,-2.53589 4.07585,-5.69839 z m -56.19632,-10.35195 c 1.88673,-2.08482 1.88196,-2.09909 -0.5848,-1.75 -1.38882,0.19654 -2.63432,1.12471 -2.82058,2.10195 -0.45083,2.3654 1.09035,2.20612 3.40538,-0.35195 z m 40.72166,0.1944 c -0.27436,-1.04915 -1.35723,-2.13202 -2.40638,-2.40638 -2.3436,-0.61286 -2.41555,0.0951 -0.25256,2.48519 2.14106,2.36584 3.28933,2.33181 2.65894,-0.0788 z m -56.61515,-4.59821 c 4.29067,-0.88431 8.05495,-1.91978 8.36506,-2.30104 0.69606,-0.85577 4.22211,-18.2762 3.7657,-18.60446 -2.45384,-1.76484 -12.51254,-4.93101 -16.9413,-5.33259 -5.2293,-0.47418 -5.9484,-0.2869 -8.431,2.19571 -2.53642,2.53641 -2.68239,3.15055 -2.22971,9.38112 0.5525,7.60429 4.32884,17.55124 6.36645,16.76933 0.71697,-0.27513 4.81413,-1.22376 9.1048,-2.10807 z m 82.13972,-3.97591 c 1.28618,-3.20829 2.58399,-8.2117 2.88401,-11.1187 0.50997,-4.94107 0.33759,-5.49337 -2.64559,-8.47655 -2.98318,-2.98318 -3.53548,-3.15556 -8.47655,-2.64559 -6.87987,0.71006 -17.15495,4.80935 -16.93337,6.75563 0.0919,0.80679 0.93529,5.13898 1.87432,9.62711 l 1.70732,8.16022 6.62568,1.23316 c 3.64412,0.67824 7.52568,1.58851 8.62568,2.02283 3.16147,1.24825 3.85298,0.64188 6.3385,-5.55811 z m -55.36193,-1.99597 c 2.18712,-1.8714 3.76212,-3.58484 3.5,-3.80764 -0.26211,-0.2228 -3.29286,-2.2941 -6.73498,-4.60288 -6.24627,-4.18964 -6.26007,-4.19334 -7.11004,-1.90481 -0.4684,1.26113 -1.16361,4.09297 -1.54491,6.29297 -0.3813,2.2 -0.92461,4.7875 -1.20735,5.75 -0.44031,1.49891 0.17712,1.74461 4.30332,1.71245 4.00411,-0.0312 5.48872,-0.61197 8.79396,-3.44009 z m 9.56093,1.02282 c -1.00798,-1.21453 -1.65937,-1.27514 -3.39251,-0.31565 -2.08101,1.15209 -2.05551,1.20554 0.85501,1.79213 3.67177,0.74 4.14735,0.46328 2.5375,-1.47648 z M 738.58727,366.75 c -0.3676,-2.3375 -1.11623,-5.93297 -1.66364,-7.98993 l -0.99529,-3.73992 -4.21417,2.6312 c -2.31779,1.44715 -5.45486,3.50053 -6.97125,4.56305 l -2.75708,1.93187 4.1017,3.42686 c 3.34577,2.79532 4.93713,3.42687 8.63488,3.42687 h 4.5332 z m -12.4328,-10.91307 c 4.31504,-2.83969 7.84113,-5.65219 7.83576,-6.25 -0.0149,-1.65525 -4.70458,-11.37703 -7.13402,-14.78887 -1.18444,-1.66339 -3.66753,-3.65693 -5.51798,-4.4301 -2.92832,-1.22353 -3.74494,-1.209 -6.29965,0.11209 -3.73045,1.92909 -7.23789,6.52933 -10.63375,13.94685 -2.32466,5.07773 -2.47394,5.95492 -1.14046,6.70117 0.84388,0.47226 4.39212,2.83646 7.88498,5.25378 3.49286,2.41732 6.53266,4.44531 6.75512,4.50664 0.22246,0.0613 3.93496,-2.21187 8.25,-5.05156 z M 226.29894,455.25 C 223.14215,451.72365 157,338.73399 157,336.86765 c 0,-0.47721 5.7375,-0.85571 12.75,-0.84111 l 12.75,0.0265 24.91582,43.01692 c 13.70371,23.65931 25.18225,43.18158 25.50787,43.38283 0.32562,0.20124 12.0635,-19.16121 26.08417,-43.02767 L 284.5,336.0316 l 12.85699,-0.0158 c 11.83162,-0.0145 12.80349,0.1236 12.18625,1.73213 -2.12784,5.54504 -69.24961,116.66866 -71.73369,118.75887 -4.25898,3.58369 -7.49357,3.23052 -11.51061,-1.2568 z M 26.179144,411.75 26.5,365.5 l 2.794236,-5.69009 c 5.173061,-10.53424 16.88963,-18.99084 30.882,-22.28953 7.729416,-1.8222 52.716074,-2.13941 61.024544,-0.43029 13.8403,2.84706 28.85445,13.28922 33.93001,23.59794 L 157.5,365.5 l 0.27879,46.25 0.27879,46.25 H 147.02879 136 V 439 420 H 92 48 v 19 19 H 36.929144 25.858289 Z M 137,386.96788 C 137,376.1156 135.7339,372.64 129.98941,367.72293 122.35512,361.18827 118.68751,360.5 91.5,360.5 h -24 l -6,3.15946 C 49.967004,369.73248 47.069912,374.75382 47.023857,388.75 L 47,396 h 45 45 z m 180,10.02498 v -61.00714 l 66.25,0.25714 66.25,0.25714 v 12 12 l -55.25,0.25847 -55.25,0.25846 V 367.50847 374 h 45 45 v 12.5 12.5 h -45 -45 v 17.51629 17.51629 l 54.25,-0.0328 c 29.8375,-0.0181 54.8125,-0.0254 55.5,-0.0163 0.92964,0.0123 1.25,3.092 1.25,12.01652 v 12 H 383.5 317 Z m 151,0.007 v -61 h 11 11 v 61 61 h -11 -11 z m 39,0 v -61 l 49.25,0.0349 c 59.97271,0.0425 65.7259,0.73698 75.22971,9.08144 6.87697,6.03806 7.47342,8.59666 7.49833,32.16579 0.0164,15.49567 -0.32927,21.60066 -1.3588,24 -1.96948,4.58992 -7.17902,9.17018 -14.11924,12.41374 -5.67009,2.64995 -6.95946,2.83163 -23.4494,3.30414 l -17.4494,0.5 33.39248,20 33.39247,20 -20.83001,0.27071 -20.83001,0.2707 -33.37317,-20.5207 L 540.9798,417 H 534.9899 529 v 20.5 20.5 h -11 -11 v -61 z m 107.67788,-6.60514 c 2.75381,-2.05419 2.82902,-2.36602 3.10729,-12.88239 0.23301,-8.80556 -0.0108,-11.10431 -1.33267,-12.56495 -3.4851,-3.851 -10.15871,-4.44752 -49.75708,-4.44752 h -37.80458 l 0.0268,15.75 c 0.0147,8.6625 0.0393,15.98933 0.0546,16.28184 0.0153,0.29251 18.67033,0.40501 41.45566,0.25 40.33202,-0.27438 41.50254,-0.33753 44.25,-2.38698 z M 418.80814,296.58836 403.5,283.17672 l -0.2794,12.96523 -0.2794,12.96523 -4.7206,-0.30359 L 393.5,308.5 393.22792,290.37318 c -0.43699,-29.11348 0.30006,-29.4421 22.27208,-9.9302 l 15,13.32051 0.27822,-13.38175 L 431.05644,267 H 435.52822 440 v 19.84501 c 0,17.95554 -0.17412,20.00259 -1.82874,21.5 -1.00581,0.91025 -2.32965,1.65499 -2.94186,1.65499 -0.61222,0 -8.00179,-6.03524 -16.42126,-13.41164 z M 633.7998,296.51586 618.5,283.03172 618.22097,296.01586 617.94195,309 h -4.49126 -4.49127 l 0.27029,-20.75 0.27029,-20.75 2.77562,-0.31889 c 2.33445,-0.26821 5.23519,1.84474 18.25,13.29364 L 646,294.08729 V 280.54364 267 h 4.5 4.5 v 19.92857 c 0,16.78355 -0.24799,20.17657 -1.57143,21.5 -0.86428,0.86429 -2.19188,1.57143 -2.9502,1.57143 -0.75833,0 -8.26368,-6.06786 -16.67857,-13.48414 z M 74.977778,308.5 c -0.01222,-0.275 -0.03246,-9.6125 -0.04497,-20.75 l -0.02274,-20.25 23.100515,-0.26857 23.100517,-0.26856 -0.30555,4.76856 L 120.5,276.5 h -18.25064 c -16.715128,0 -18.250577,0.14723 -18.249995,1.75 C 83.999941,279.83886 85.381194,280 99,280 h 15 v 4.5 4.5 H 99 84 v 5.5 5.5 h 18.5 18.5 v 4.5 4.5 H 98 c -12.65,0 -23.01,-0.225 -23.022222,-0.5 z M 124,288 v -21 l 18.75,0.002 c 26.05133,0.002 28.62781,1.4605 28.01397,15.85644 -0.27868,6.53565 -0.61226,7.61477 -2.98481,9.65554 -3.62629,3.11921 -10.81664,4.48682 -23.57838,4.48465 l -10.70078,-0.002 0.33882,6.00182 0.33882,6.00182 H 129.08882 124 v -21 z m 36.06574,-2.03518 C 161.41079,285.24497 162,283.86664 162,281.44007 162,276.71057 159.771,276 144.9349,276 H 133 v 5.5 5.5 h 12.56574 c 6.91116,0 13.43616,-0.46583 14.5,-1.03518 z m 13.12947,18.42268 0.30479,-4.61249 13.71605,0.16018 c 7.54383,0.0881 15.53133,-0.32862 17.75,-0.92605 3.7087,-0.99865 4.03395,-1.36056 4.03395,-4.48867 0,-1.87134 -0.5625,-3.75386 -1.25,-4.18339 -0.6875,-0.42952 -7.62639,-1.01858 -15.41976,-1.30902 -13.25126,-0.49383 -14.33702,-0.68521 -16.75,-2.95237 C 173.48867,284.11051 173,282.72498 173,278.75994 173,268.27922 175.82473,267 198.96788,267 H 216 v 5 5 h -16.44098 c -14.97033,0 -20.17807,0.781 -15.97149,2.39522 C 184.45436,279.72785 190.54912,280 197.13145,280 214.78828,280 218,282.23159 218,294.5 c 0,13.05508 -2.74262,14.5 -27.52267,14.5 h -17.58691 z m 76,0.10048 0.30479,-4.51202 13.70087,-0.23798 c 9.34604,-0.16234 14.0979,-0.63529 14.95,-1.48798 0.99925,-0.99995 -0.98149,-1.25 -9.90165,-1.25 -14.59002,0 -20.46199,-1.27572 -23.72583,-5.15457 C 242.16257,289.03975 242,288.14281 242,277.92327 V 267 h 4.5 4.5 v 8.96482 c 0,7.83979 0.24274,9.09472 1.93426,10 1.06384,0.56935 7.36384,1.03518 14,1.03518 H 279 v -10 -10 h 4.5 4.5 v 17.82569 c 0,17.39579 -0.0564,17.87869 -2.33987,20.02388 C 282.07978,308.21313 277.72716,309 262.70181,309 h -13.81139 z m 48.13547,2.57507 c -2.29312,-1.04116 -4.65562,-2.80169 -5.25,-3.91229 C 291.46031,301.99158 291,295.41066 291,287.7006 c 0,-15.32011 0.96929,-17.76472 7.79549,-19.66058 4.80383,-1.33418 26.61621,-1.33112 31.42503,0.004 6.17175,1.71406 6.77948,3.48394 6.77948,19.74381 0,7.88878 -0.43687,15.15954 -0.97083,16.15724 -1.92788,3.60228 -8.2248,5.05597 -21.79941,5.03255 -10.32199,-0.0178 -13.51837,-0.38002 -16.89908,-1.91499 z m 29.73506,-8.09823 c 1.69941,-0.9095 1.9324,-2.15404 1.91895,-10.25 -0.008,-5.06815 -0.44121,-9.88982 -0.96175,-10.71482 -0.72932,-1.15589 -3.57256,-1.57658 -12.39381,-1.83382 C 299.8436,275.70586 300,275.58759 300,287.98549 c 0,8.38802 0.26953,10.07212 1.75,10.93441 2.30045,1.33989 22.82801,1.37631 25.31574,0.0449 z m 21.4139,8.16492 C 342.5691,304.44476 342,302.36042 342,283.39816 v -16.50774 l 4.75,0.30479 4.75,0.30479 0.17359,14.87359 c 0.11049,9.46764 0.58283,15.28299 1.29955,16 1.25575,1.25625 21.38716,1.59441 24.27686,0.40779 1.5607,-0.64088 1.75,-2.39862 1.75,-16.25 V 267 h 5 5 v 17.27749 c 0,19.23681 -0.42799,20.74991 -6.59857,23.32814 -5.29108,2.21075 -28.73151,1.88191 -33.92179,-0.47589 z m 102.9222,-0.0348 c -2.25399,-1.02364 -4.39149,-2.62556 -4.75,-3.55983 C 446.29333,302.60082 446,295.42667 446,287.59253 c 0,-13.48028 0.12062,-14.3569 2.25,-16.3516 C 452.19005,267.55006 455.54543,267 474.11989,267 h 17.98969 l -0.30479,4.75 -0.30479,4.75 -18,0.55864 c -9.9,0.30726 -18.1125,0.64476 -18.25,0.75 -0.1375,0.10525 -0.25,4.67021 -0.25,10.14436 v 9.95299 l 3.75,1.04143 c 2.0625,0.57278 8.3625,1.04394 14,1.047 L 483,300 v -5.5 -5.5 h -12 -12 v -4.5 -4.5 h 15.3 c 10.56667,0 15.67124,0.37124 16.5,1.2 0.81303,0.81303 1.2,5.48889 1.2,14.5 V 309 l -18.25,-0.022 c -15.63067,-0.0188 -18.83819,-0.28909 -22.34816,-1.88313 z M 521,289.0567 c 0,-19.17055 0.0819,-20.00069 2.1148,-21.42456 1.16314,-0.81469 2.74818,-1.23821 3.52231,-0.94115 0.77412,0.29706 7.3336,7.29576 14.57662,15.55266 l 13.16913,15.01256 2.44429,-2.8781 c 10.04962,-11.83328 23.53076,-26.49929 25.15979,-27.37112 1.55816,-0.8339 2.38787,-0.63218 3.99014,0.97009 1.89263,1.89263 2.02292,3.28241 2.02292,21.57771 v 19.55479 L 583.25,308.80479 578.5,308.5 v -12.20257 c 0,-6.71142 -0.26035,-11.88642 -0.57854,-11.5 -0.3182,0.38641 -5.20139,5.99007 -10.85152,12.45257 -8.26859,9.45743 -10.78973,11.74992 -12.92146,11.74958 -2.14556,-3.5e-4 -4.64233,-2.31589 -13.14848,-12.19411 L 530.5,284.61178 530.21922,296.80589 529.93844,309 H 525.46922 521 Z M 594,288 v -21 h 4.5 4.5 v 21 21 h -4.5 -4.5 z m 66,0 v -21 h 17.97976 C 705.80891,267 707,267.87724 707,288.37361 c 0,11.92889 -0.11185,12.60587 -2.56428,15.52041 -3.64698,4.33419 -7.69738,5.0941 -27.18572,5.1004 L 660,309 Z M 695.04966,298.47432 698,296.94864 v -9.43914 c 0,-8.30874 -0.23164,-9.5631 -1.93426,-10.47432 C 695.0019,276.46583 688.4769,276 681.56574,276 H 669 v 12 12 h 11.54966 c 8.39691,0 12.35502,-0.41647 14.5,-1.52568 z m 16.14555,6.0182 0.30479,-4.50748 16,-0.29802 c 8.8,-0.16391 16.7875,-0.65869 17.75,-1.09951 2.03549,-0.93224 2.45078,-7.03637 0.55829,-8.20599 -0.65544,-0.40509 -7.60019,-0.99979 -15.43279,-1.32157 -13.26319,-0.54487 -14.41737,-0.75066 -16.80829,-2.99681 C 711.48953,284.11126 711,282.71865 711,278.75994 711,268.27922 713.82473,267 736.96788,267 H 754 v 5 5 h -16.44098 c -9.55093,0 -16.6924,0.40679 -17.0409,0.97068 -0.90786,1.46894 2.73323,1.95757 16.81635,2.2567 l 12.83447,0.27262 2.91553,3.26578 C 755.7377,286.73774 756,287.68487 756,294.29327 756,307.58311 753.34839,309 728.47733,309 H 710.89042 Z M 190.39159,239.5 c 0.33463,-1.375 0.88064,-3.61882 1.21337,-4.98627 0.49653,-2.04064 0.0496,-2.8024 -2.49368,-4.25 -4.56166,-2.59648 -4.05072,-4.4845 1.11271,-4.11169 4.11925,0.29742 4.25035,0.21105 5.28688,-3.48332 1.40933,-5.02306 2.53356,-5.03543 4.19665,-0.0462 l 1.37419,4.12256 4.45914,-0.50261 c 5.42349,-0.61131 5.79901,0.76629 1.01488,3.72305 l -3.44426,2.12867 1.96939,4.59442 c 1.08317,2.52693 1.75385,4.80998 1.49039,5.07344 -0.26346,0.26346 -2.32842,-0.98574 -4.5888,-2.77599 l -4.10979,-3.25501 -3.23394,3.13445 c -3.90653,3.78637 -5.05597,3.95807 -4.24713,0.63446 z M 226,231.08985 c 0,-0.63475 0.65184,-2.71415 1.44853,-4.6209 1.43981,-3.44597 1.42783,-3.48087 -1.99469,-5.80653 C 221.44052,217.9353 221.86637,217 227.12135,217 c 3.52287,0 3.83308,-0.24015 4.43163,-3.43073 0.9291,-4.9525 2.94801,-5.17817 4.35363,-0.48664 1.08005,3.60487 1.46962,3.92682 4.88353,4.03579 2.04042,0.0651 4.15986,0.0556 4.70986,-0.0213 0.55,-0.0768 -0.5511,1.16809 -2.44689,2.76651 l -3.44689,2.90624 1.68614,4.29248 c 0.92737,2.36087 1.49553,4.48309 1.26257,4.71606 -0.23297,0.23296 -2.04358,-0.81207 -4.02358,-2.3223 -3.83564,-2.92558 -4.83294,-2.81397 -10.28135,1.1506 -1.42119,1.03414 -2.25,1.21211 -2.25,0.48314 z m 227.65854,-30.32923 -2.73915,-4.90604 -5.4597,3.08126 c -3.00283,1.69469 -5.45969,2.7577 -5.45969,2.36224 0,-0.39545 1.41702,-3.45207 3.14894,-6.79248 l 3.14895,-6.07346 -2.64895,-4.1962 c -3.27321,-5.1851 -3.36748,-6.45112 -0.39894,-5.35762 7.27408,2.67953 7.4773,2.60487 10.79416,-3.96581 1.69774,-3.36319 3.37306,-5.82863 3.72293,-5.47875 0.34988,0.34988 0.65792,3.65295 0.68453,7.34015 l 0.0484,6.70401 4.25,0.90312 c 2.3375,0.49672 4.229,1.40169 4.20333,2.01104 -0.0257,0.60936 -1.93817,2.04277 -4.25,3.18536 l -4.20333,2.07744 v 7.00659 c 0,4.23219 -0.41623,7.00632 -1.05116,7.0059 -0.57814,-3.9e-4 -2.28377,-2.20842 -3.7903,-4.90675 z M 128,203.96788 c 0,-0.56766 0.66167,-2.61571 1.47037,-4.55121 l 1.47037,-3.51909 -3.47037,-2.04756 C 122.82941,191.11178 123.09805,190 128.40066,190 c 4.2445,0 4.43149,-0.13034 5.26933,-3.67311 1.18968,-5.03049 2.76286,-5.16323 4.20354,-0.35468 1.17483,3.92125 1.32472,4.02779 5.66661,4.02779 5.17747,0 5.71873,1.29765 1.45986,3.5 -3.44532,1.78164 -3.54451,2.26103 -1.48687,7.18566 0.83222,1.99178 1.32351,3.81104 1.09175,4.04279 -0.23175,0.23175 -2.25817,-0.79417 -4.50316,-2.27983 l -4.08179,-2.7012 -3.44324,2.62629 C 128.81119,205.2458 128,205.52835 128,203.96788 Z m 124,0.65424 c 0,-0.20783 0.72282,-2.10783 1.60627,-4.22222 l 1.60627,-3.84435 -3.85627,-3.2629 -3.85627,-3.2629 4.59831,-0.0149 c 4.44799,-0.0144 4.6508,-0.1485 6.20392,-4.10237 1.83551,-4.67274 3.18018,-4.48505 4.12972,0.57644 0.6361,3.39071 0.81136,3.51105 5.11336,3.51105 4.62145,0 5.72892,1.20027 2.70469,2.93133 -4.46021,2.55302 -4.45036,2.52745 -2.67959,6.95303 0.92397,2.30924 1.42817,4.45039 1.12045,4.75811 -0.30773,0.30773 -2.09403,-0.61094 -3.96957,-2.04148 -4.17914,-3.18759 -4.2346,-3.1883 -7.90366,-0.10099 C 254.17097,204.72702 252,205.68331 252,204.62212 Z M 185.5,200 c -0.33992,-0.55 -1.4196,-1 -2.39929,-1 -3.64913,0 -14.07288,-6.23347 -19.39532,-11.59853 C 158.53311,182.18777 152,171.18418 152,167.6863 c 0,-0.86255 -0.45,-1.84638 -1,-2.1863 -0.55,-0.33992 -1,-4.34603 -1,-8.90247 0,-13.77353 4.62468,-24.33811 14.75112,-33.69737 5.86667,-5.42221 15.36358,-10.83559 19.84811,-11.31372 1.32218,-0.14097 2.70325,-0.55559 3.06904,-0.92137 0.36578,-0.36579 3.66962,-0.66507 7.34185,-0.66507 6.9077,0 14.0487,1.94871 21.99339,6.00179 4.36386,2.22628 15.99649,12.51645 15.99649,14.15043 0,2.21466 -4.01551,0.38673 -8.68952,-3.95563 -5.62011,-5.22133 -13.62456,-9.60281 -19.58524,-10.7206 l -3.77475,-0.70786 5.02475,7.294 c 5.38339,7.81458 5.83306,8.93787 3.57798,8.93787 -0.79573,0 -3.60823,-3.14773 -6.25,-6.99497 -2.64177,-3.84723 -5.14072,-6.99723 -5.55322,-7 C 197.3375,117.00227 197,120.15 197,124 c 0,5.55556 -0.30952,7 -1.5,7 -1.19048,0 -1.5,-1.44444 -1.5,-7 0,-3.85 -0.40213,-7 -0.89362,-7 -0.4915,0 -3.04593,3.15 -5.67652,7 -4.28459,6.27071 -7.42986,8.80227 -7.42986,5.98013 0,-1.4627 4.78104,-8.9749 7.87063,-12.36671 l 2.62937,-2.88658 -3.91662,0.60075 c -2.15414,0.33041 -6.29062,1.76224 -9.19219,3.18184 C 171.73592,121.2763 162,129.41483 162,131.37536 c 0,0.84589 2.05201,1.07407 7.0961,0.78905 6.5009,-0.36733 7.06625,-0.24426 6.74012,1.46731 -0.30495,1.60046 -1.57303,1.93995 -8.8461,2.36828 l -8.49012,0.5 -2.2146,6.5 c -3.51228,10.30881 -3.71964,10 6.7146,10 7.33333,0 9,0.27778 9,1.5 0,1.22379 -1.68098,1.5 -9.12883,1.5 h -9.12883 l 0.69102,5.20919 c 0.38006,2.86505 1.61845,7.36505 2.75198,10 L 159.24629,176 h 9.41204 c 8.64093,0 9.33811,-0.14337 8.5097,-1.75 -1.2632,-2.44985 -3.53512,-15.21624 -2.83287,-15.91849 1.50112,-1.50112 3.66484,0.83427 3.66484,3.9556 0,1.84244 0.69243,5.68156 1.53874,8.53139 L 181.07748,176 H 187.53874 194 v -9 c 0,-7.33333 0.27778,-9 1.5,-9 1.22222,0 1.5,1.66667 1.5,9 v 9 h 6.37843 6.37842 l 1.62158,-6.45552 C 212.27029,165.99395 213,161.91095 213,160.47116 c 0,-1.95544 0.44279,-2.53216 1.75,-2.27929 1.34497,0.26017 1.6768,1.14506 1.43374,3.82333 -0.30669,3.37944 -1.72145,9.61651 -2.84611,12.54735 -0.45588,1.188 1.10309,1.43745 8.98353,1.43745 h 9.53514 l 1.93775,-5.25 c 1.06576,-2.8875 2.24052,-6.92171 2.61058,-8.96492 0.37006,-2.04321 1.14461,-4.0065 1.72123,-4.36287 4.61113,-2.84983 1.69495,12.47973 -4.04813,21.27992 -7.32529,11.22464 -15.98403,17.73608 -27.61269,20.76496 C 199.85338,201.18921 186.4456,201.53002 185.5,200 Z m 0.21456,-8.75 c -1.90068,-2.6125 -4.20056,-6.2125 -5.11085,-8 L 178.94864,180 h -7.97432 C 166.58844,180 163,180.36172 163,180.80383 c 0,2.40208 11.03927,10.62071 17.83587,13.27864 8.00299,3.1297 8.85604,2.63443 4.87869,-2.83247 z m 27.55117,1.29129 C 218.61522,189.98379 228,182.58317 228,180.92219 228,180.41499 224.37907,180 219.95349,180 c -7.99008,0 -8.05846,0.022 -9.75,3.13717 -0.93692,1.72545 -3.16599,5.10434 -4.95349,7.50866 -1.7875,2.40431 -3.25,4.64883 -3.25,4.98782 0,1.09451 5.88969,-0.52217 11.26573,-3.09236 z M 193.5846,187.25 l -0.10918,-6.75 -5.39043,-0.30756 -5.39043,-0.30755 1.78667,2.80755 c 3.0162,4.73962 7.98574,11.24401 8.61566,11.27664 0.3283,0.017 0.54777,-3.00658 0.48771,-6.71908 z m 10.40397,-1.2322 C 205.64486,183.43671 207,181.0268 207,180.66245 207,180.2981 204.75,180 202,180 h -5 v 7.15499 c 0,7.07794 0.0214,7.13561 1.98857,5.35535 1.09372,-0.9898 3.34372,-3.91144 5,-6.49254 z m 493.64112,-11.19345 -6.84255,-6.17565 -7.64357,2.06017 c -4.20396,1.1331 -8.43107,2.38529 -9.39357,2.78264 -2.77326,1.14491 -2.08712,-0.62804 2.89036,-7.46856 4.62321,-6.35365 4.6327,-6.38342 2.56698,-8.05614 -5.98326,-4.84495 -11.45868,-10.04881 -11.02719,-10.48029 0.26908,-0.26909 4.01062,0.41136 8.31451,1.51211 4.3039,1.10076 8.54078,1.99913 9.4153,1.99639 0.87452,-0.003 3.3591,-2.70273 5.52128,-6 2.16218,-3.29726 4.26195,-5.99502 4.66615,-5.99502 0.4042,0 1.50577,3.56776 2.44793,7.92836 l 1.71303,7.92835 7.12082,1.51681 c 3.91646,0.83424 7.9321,1.65398 8.92365,1.82164 3.65439,0.61792 1.62594,2.25511 -4.99781,4.03382 -3.74276,1.00505 -7.3339,2.01268 -7.98033,2.23915 -1.07716,0.3774 4.6e-4,7.38725 2.27242,14.78187 0.91333,2.97267 -0.86406,1.98539 -7.96741,-4.42565 z M 118,168.62573 c 0,-0.20585 0.64798,-2.21085 1.43996,-4.45555 l 1.43996,-4.08128 -3.43996,-2.12601 C 112.82404,155.1101 113.10829,154 118.45469,154 c 4.302,0 4.47726,-0.12034 5.11336,-3.51105 0.94215,-5.02208 2.16899,-5.18663 4.02809,-0.54028 1.55006,3.87398 1.81326,4.05133 6.01244,4.05133 5.13292,0 5.58283,1.18314 1.39142,3.65907 -3.31005,1.95529 -3.64411,3.5902 -1.5,7.34093 2.75946,4.82717 1.17975,5.38299 -4.02228,1.41521 l -3.38883,-2.58479 -3.38884,2.58479 C 119.56103,168.80946 118,169.54364 118,168.62573 Z m 56.30335,-18.9713 c 0.32591,-3.49006 1.41842,-8.73493 2.42781,-11.65526 l 1.83525,-5.30969 6.46679,-0.0947 c 6.30679,-0.0924 6.4745,-0.028 6.77797,2.60088 0.29918,2.59165 0.10936,2.70736 -4.92139,3 -7.16375,0.41672 -7.6769,2.60042 -0.70494,2.99986 4.94187,0.28313 5.33705,0.49419 5.62682,3.0052 0.30604,2.65193 0.19917,2.70609 -5.92063,3 -3.86901,0.18582 -6.38879,0.77332 -6.64499,1.54932 -0.30217,0.91521 1.35052,1.25 6.17063,1.25 H 192 v 3 3 h -9.1446 -9.14461 l 0.59256,-6.34557 z M 194,144.54531 v -11.45468 l 3.51258,-0.65897 c 1.93192,-0.36243 6.02042,-0.34563 9.08556,0.0373 5.04132,0.62988 5.69917,0.99847 6.89576,3.86366 0.72753,1.74204 1.6391,4.85485 2.02573,6.91735 l 0.70295,3.75 H 208.11129 200 v 4.5 c 0,4.33333 -0.11111,4.5 -3,4.5 h -3 V 144.54528 Z M 209,140 c 0,-0.55 -2.025,-1 -4.5,-1 -2.475,0 -4.5,0.45 -4.5,1 0,0.55 2.025,1 4.5,1 2.475,0 4.5,-0.45 4.5,-1 z m -7,14.5 c 0,-1.2 1.5,-1.5 7.5,-1.5 6,0 7.5,0.3 7.5,1.5 0,1.2 -1.5,1.5 -7.5,1.5 -6,0 -7.5,-0.3 -7.5,-1.5 z m 17,-1.5 v -3 h 7.58333 c 5.62044,0 7.47635,-0.32355 7.17001,-1.25 -0.26602,-0.80452 -2.94216,-1.35418 -7.50916,-1.54231 l -7.09583,-0.29231 -1.9068,-6.20769 c -2.58183,-8.40529 -2.06465,-8.91568 8.55805,-8.4456 6.83878,0.30264 8.72409,0.73361 9.83093,2.24731 2.69428,3.68465 1.76288,4.4906 -5.18955,4.4906 -4.11803,0 -6.32901,0.37216 -5.94098,1 0.33992,0.55 3.49532,1 7.01201,1 h 6.39398 l 1.04143,3.75 c 0.57278,2.0625 1.04394,5.4375 1.047,7.5 L 240,156 H 229.5 219 Z m 103.3125,-9.8125 c 0.30937,-1.54688 0.70312,-3.40081 0.875,-4.11986 0.18619,-0.77893 -1.25812,-1.76415 -3.57331,-2.4375 -4.86998,-1.41638 -4.82224,-3.02944 0.10224,-3.45465 4.76987,-0.41187 6.28357,-1.68813 6.28357,-5.29793 0,-3.76288 2.08048,-3.70419 4.34093,0.12244 1.92872,3.26507 2.34308,3.37398 7.9144,2.08025 5.03079,-1.16821 5.6445,0.31782 1.29501,3.13568 -1.93907,1.25624 -3.53115,2.54313 -3.53796,2.85976 -0.007,0.31662 1.11262,1.63256 2.48762,2.92431 4.19934,3.94507 3.16518,5.0606 -2.64485,2.85296 l -5.14484,-1.95488 -3.79652,3.05096 c -4.68597,3.76575 -5.31325,3.79826 -4.60129,0.23846 z m 218.18518,-4.24275 -3.99768,-6.95989 -7.75,0.59373 c -9.43119,0.72253 -9.916,-0.3417 -2.67029,-5.86167 l 4.96582,-3.78309 -2.69196,-4.71691 c -1.48058,-2.59431 -3.32014,-5.45975 -4.08791,-6.36764 -0.94362,-1.11585 -1.05081,-1.86403 -0.3308,-2.30902 1.02354,-0.63258 1.46147,0.0416 1.15878,1.78407 -0.0788,0.45338 0.2863,0.55889 0.81123,0.23446 0.52493,-0.32442 3.25588,0.76713 6.06878,2.42567 2.8129,1.65855 5.4031,3.01554 5.756,3.01554 0.3529,0 2.77633,-1.8 5.3854,-4 2.60907,-2.2 5.0626,-4 5.45229,-4 0.38969,0 0.41234,3.26852 0.0503,7.26337 l -0.65819,7.26338 6.52026,3.31216 C 558.06588,128.6606 561,130.56708 561,131.07554 561,131.58399 557.9125,132 554.13889,132 h -6.86111 l -0.55455,6.11566 c -0.305,3.36361 -0.93105,6.49216 -1.39121,6.95232 -0.46016,0.46016 -2.63561,-2.2953 -4.83434,-6.12323 z M 128,131.96788 c 0,-0.56766 0.64745,-2.58168 1.43877,-4.47558 1.3805,-3.30401 1.33454,-3.52545 -1.13486,-5.46788 C 126.88842,120.91099 125.34097,120 124.86514,120 124.38931,120 124,119.50122 124,118.89159 c 0,-0.65446 0.93384,-0.87403 2.28015,-0.53613 4.11158,1.03195 6.62038,-0.30832 7.2935,-3.89638 0.90885,-4.84458 2.92278,-5.01493 4.45354,-0.37671 1.31388,3.98111 2.03222,4.36899 7.47281,4.03514 l 3,-0.18409 -3.44689,2.91822 -3.44689,2.91823 1.68614,4.29248 c 0.92737,2.36087 1.49553,4.48309 1.26257,4.71606 -0.23297,0.23296 -1.9581,-0.74688 -3.83364,-2.17742 -4.18052,-3.18864 -4.26078,-3.18962 -8.31018,-0.10099 C 128.80933,133.24721 128,133.51653 128,131.96788 Z M 417.41367,115.39055 413.5,110.7811 409,111.95007 c -2.475,0.64293 -5.2875,1.39751 -6.25,1.67684 -2.75751,0.80025 -2.09336,-1.92377 1.25,-5.12691 1.65,-1.5808 3,-3.1474 3,-3.48133 0,-0.33393 -1.81798,-2.55676 -4.03996,-4.93962 -2.22198,-2.382853 -3.87081,-4.50161 -3.66408,-4.708346 0.20674,-0.206736 3.03722,0.548942 6.28996,1.679283 l 5.91408,2.055167 3.55321,-4.082699 C 418.84844,90.661673 420,90.680089 420,95.101567 c 0,5.575313 1.54398,7.596733 6.83902,8.953813 3.41556,0.87538 4.81136,1.69214 4.45937,2.60942 -0.2818,0.73436 -1.47672,1.34134 -2.65538,1.34885 -1.17865,0.008 -3.19937,0.29647 -4.49048,0.64212 -2.20716,0.59091 -2.30745,0.9487 -1.67804,5.98635 0.37931,3.03593 0.2758,5.35788 -0.23886,5.35788 -0.49956,0 -2.66944,-2.07425 -4.82196,-4.60945 z M 154.32806,104.36432 c 0.34309,-1.57538 0.9032,-3.84273 1.24469,-5.038571 0.49597,-1.736782 -0.0253,-2.508421 -2.59083,-3.835098 -3.7045,-1.915674 -2.99301,-3.209341 2.01808,-3.669354 3.12511,-0.286883 3.59982,-0.725392 4.43191,-4.093994 1.10893,-4.489344 2.505,-4.375466 4.08317,0.333066 0.98089,2.926542 1.70466,3.514216 4.85201,3.939631 2.03453,0.275 3.79674,0.796743 3.91603,1.15943 0.11928,0.362686 -1.01526,1.628628 -2.5212,2.813204 l -2.73808,2.153773 2.05784,4.033703 c 1.13181,2.21853 1.8096,4.28194 1.50619,4.58535 -0.3034,0.30341 -2.27148,-0.6402 -4.37351,-2.09691 -4.42344,-3.06545 -5.49008,-3.22618 -7.25967,-1.09395 -0.70961,0.85502 -2.18125,2.03147 -3.27031,2.61431 -1.80738,0.96729 -1.92569,0.80987 -1.35632,-1.80459 z M 226,105.96788 c 0,-0.56766 0.65562,-2.60123 1.45693,-4.51904 1.45216,-3.475514 1.44566,-3.494219 -1.98762,-5.717881 -1.89451,-1.227027 -3.45012,-2.568459 -3.45693,-2.980959 -0.007,-0.4125 1.96792,-0.75 4.38828,-0.75 4.2445,0 4.43149,-0.130342 5.26933,-3.67311 1.18968,-5.03049 2.76286,-5.163231 4.20354,-0.354685 1.18541,3.956564 1.29005,4.028271 5.91661,4.054696 l 4.70986,0.0269 -3.44689,2.858032 -3.44689,2.858032 1.68614,4.292485 c 0.92737,2.36087 1.47822,4.5004 1.2241,4.75452 -0.25411,0.25411 -2.05615,-0.75387 -4.00451,-2.23996 -3.84747,-2.93461 -6.0733,-2.82409 -9.03505,0.44862 -1.94898,2.15359 -3.4769,2.56771 -3.4769,0.94235 z m -36,-9.999999 c 0,-0.567665 0.64456,-2.574774 1.43236,-4.460243 1.42289,-3.405446 1.40966,-3.442158 -2,-5.549441 C 184.83566,83.117281 185.10898,82 190.40066,82 c 4.22632,0 4.43431,-0.142277 5.25,-3.591372 1.03884,-4.392658 2.49198,-4.445734 3.93272,-0.143643 0.97231,2.903318 1.55903,3.286282 5.72223,3.735015 4.98337,0.537135 5.06664,1.354713 0.43797,4.300356 l -2.75642,1.75416 2.07618,4.069647 c 1.1419,2.238306 1.82894,4.316893 1.52675,4.619081 -0.30219,0.302188 -2.39159,-0.66965 -4.64312,-2.159641 l -4.09369,-2.709073 -3.35992,2.562735 C 190.81027,97.246494 190,97.522505 190,95.967881 Z M 639.447,92.25 c -1.53471,-2.0625 -2.88737,-3.886749 -3.00591,-4.053887 -0.11854,-0.167138 -1.72878,0.61868 -3.57831,1.746262 -5.20216,3.171543 -5.8964,2.527871 -3.04368,-2.821959 l 2.60197,-4.879584 -2.66729,-3.496995 c -2.99805,-3.930644 -2.71734,-5.060679 0.91414,-3.679993 4.06034,1.543737 5.28447,1.103857 7.01251,-2.519883 C 640.30003,67.050594 642,67.200315 642,72.924396 642,77.948413 642.87957,79 647.08179,79 c 3.0079,0 2.24697,2.481448 -1.27196,4.147987 -3.09062,1.463689 -3.18198,1.687809 -2.9275,7.181426 C 643.0268,93.448236 642.94079,96 642.69119,96 c -0.2496,0 -1.70948,-1.6875 -3.24419,-3.75 z"
       id="path158" />
  </g>
</svg>
