<?xml version="1.0" encoding="UTF-8" standalone="no"?>
<!-- Created with Inkscape (http://www.inkscape.org/) -->

<svg
   version="1.1"
   id="svg62"
   width="4234.7207"
   height="804.06091"
   viewBox="0 0 4234.7207 804.06091"
   sodipodi:docname="fisua.png"
   xmlns:inkscape="http://www.inkscape.org/namespaces/inkscape"
   xmlns:sodipodi="http://sodipodi.sourceforge.net/DTD/sodipodi-0.dtd"
   xmlns:xlink="http://www.w3.org/1999/xlink"
   xmlns="http://www.w3.org/2000/svg"
   xmlns:svg="http://www.w3.org/2000/svg">
  <defs
     id="defs66" />
  <sodipodi:namedview
     id="namedview64"
     pagecolor="#ffffff"
     bordercolor="#000000"
     borderopacity="0.25"
     inkscape:showpageshadow="2"
     inkscape:pageopacity="0.0"
     inkscape:pagecheckerboard="0"
     inkscape:deskcolor="#d1d1d1"
     showgrid="false" />
  <g
     inkscape:groupmode="layer"
     inkscape:label="Image"
     id="g68">
    <image
       width="4234.7207"
       height="804.06091"
       preserveAspectRatio="none"
       xlink:href="fisua.png"
       id="image70" />
    <path
       style="fill:#000000;stroke-width:1.62437"
       d="m 912.89338,709.84771 c 0,-4.76886 0.17481,-4.87309 8.1728,-4.87309 5.99525,0 8.43869,-0.69288 9.17071,-2.60048 1.36926,-3.56823 -2.23713,-5.46692 -10.43996,-5.49648 l -6.90355,-0.0249 v -7.08339 -7.08338 l -8.0345,-0.95157 c -9.63503,-1.14112 -15.86759,-4.16056 -22.70831,-11.00126 -9.9428,-9.94283 -14.66358,-30.4872 -11.57688,-50.38152 2.75208,-17.73757 8.97544,-27.48909 22.01512,-34.49593 5.75592,-3.09294 9.60265,-3.55504 33.70558,-4.04906 l 27.20812,-0.55768 v 8.08171 8.08169 l -23.95939,0.63893 c -26.65642,0.71084 -31.33763,2.06284 -37.17664,10.73713 -7.81982,11.617 -6.46661,39.41122 2.40055,49.30556 5.64118,6.29464 12.81613,7.80955 37.21264,7.85707 l 19.89848,0.0387 v 8.0586 8.05857 l -14.08211,0.46934 c -9.47106,0.31565 -14.30233,1.13418 -14.75465,2.49979 -0.44316,1.33791 1.07835,2.03046 4.46086,2.03046 3.55535,0 6.65462,1.52121 10.08187,4.94845 4.27824,4.27825 4.81802,5.76325 3.98537,10.96446 -1.41601,8.84523 -5.88214,11.7013 -18.29769,11.7013 H 912.89338 Z M 2272.407,681.74541 c -11.2045,-3.17331 -18.9659,-8.73301 -23.8934,-17.11521 l -4.4527,-7.57437 -0.5142,-37.76649 -0.5141,-37.7665 h 9.0421 9.042 v 34.19234 c 0,39.13038 0.5752,41.40678 11.839,46.85958 13.7821,6.67176 30.1924,3.0119 35.6711,-7.95547 2.4297,-4.86376 2.8405,-10.55575 2.8426,-39.39087 v -33.70558 h 9.065 9.0647 l -0.5428,37.7665 c -0.5093,35.42483 -0.7682,38.1887 -4.1768,44.57595 -3.8487,7.2119 -11.2518,13.76172 -18.797,16.63038 -7.5268,2.86173 -25.6164,3.533 -33.6781,1.24974 z m 140.5879,0.39193 c -5.9142,-1.90444 -11.0061,-6.04071 -13.7516,-11.1705 -1.125,-2.10239 -6.7245,-18.29369 -12.443,-35.98071 -5.7185,-17.687 -11.5052,-33.26596 -12.8591,-34.61989 -2.5098,-2.50977 -7.0609,-1.84888 -9.2464,1.34269 -0.6564,0.95857 -1.2046,19.46873 -1.2182,41.13371 l -0.025,39.39086 h -9.7462 -9.7462 v -41.01523 c 0,-45.87101 0.6158,-48.93614 11.2021,-56.00823 7.3167,-4.88782 21.0616,-5.09267 28.6118,-0.4264 6.3504,3.92481 8.4111,8.55596 21.7955,48.9851 5.7566,17.38803 11.0383,30.70125 12.385,31.21806 3.6303,1.3931 7.3191,-0.66688 8.9701,-5.00951 0.825,-2.16983 1.4999,-20.70972 1.4999,-41.19979 v -37.25466 h 8.934 8.9341 v 41.60625 c 0,39.22075 -0.1951,41.95327 -3.402,47.659 -1.8709,3.32901 -5.4097,7.2389 -7.864,8.68867 -5.7961,3.42385 -15.8814,4.64167 -22.0335,2.66058 z m 120.203,-0.76287 c -3.5736,-1.28742 -6.6614,-2.35179 -6.8618,-2.36524 -1.4122,-0.0949 -7.391,-15.36942 -20.0018,-51.09958 -8.0101,-22.69513 -15.0062,-42.41655 -15.5468,-43.82535 -0.8261,-2.15301 0.5343,-2.56063 8.531,-2.55631 l 9.5139,0.005 14.395,41.31213 c 7.9173,22.72168 15.4082,41.70092 16.6465,42.17613 3.551,1.36263 5.8846,-3.83415 20.1715,-44.91989 l 13.4153,-38.57868 h 9.4241 9.4241 l -8.0327,22.74111 c -4.4179,12.50762 -11.6995,33.12312 -16.1812,45.81223 -8.7515,24.77761 -11.9209,29.63716 -20.9693,32.15072 -7.0051,1.94593 -5.9874,2.00821 -13.9278,-0.85243 z m 210.3553,-16.92089 -31.6751,-19.3311 -0.4576,18.5555 -0.4577,18.55552 h -8.8824 -8.8825 v -50.35533 -50.35533 h 30.5187 c 28.4188,0 31.0176,0.2515 37.7665,3.65482 18.1419,9.14841 19.4759,38.19273 2.2884,49.82816 -4.1221,2.79061 -8.9858,4.21206 -16.6737,4.8731 l -10.8542,0.93326 20.3046,11.37426 20.3045,11.37428 0.4836,10.14856 c 0.2661,5.58173 -0.099,10.13211 -0.8122,10.11199 -0.7126,-0.0201 -15.5496,-8.73558 -32.9709,-19.36769 z m 8.0949,-42.78617 c 4.8594,-2.45869 7.3933,-8.84766 5.8878,-14.84584 -1.6861,-6.71747 -9.266,-9.05508 -29.362,-9.05508 h -17.108 v 12.99493 12.99492 l 18.2741,-0.0239 c 11.4003,-0.0146 19.7915,-0.79168 22.3081,-2.06499 z m 993.3264,59.70706 c -3.5736,-1.28742 -6.6613,-2.35179 -6.8618,-2.36524 -1.4122,-0.0949 -7.391,-15.36942 -20.0018,-51.09958 -8.01,-22.69513 -15.0062,-42.41655 -15.5468,-43.82535 -0.8261,-2.15301 0.5343,-2.56063 8.531,-2.55631 l 9.5139,0.005 14.395,41.31213 c 7.9173,22.72168 15.4082,41.70092 16.6465,42.17613 3.551,1.36263 5.8846,-3.83415 20.1715,-44.91989 l 13.4153,-38.57868 h 9.4241 9.4241 l -8.0326,22.74111 c -4.418,12.50762 -11.6995,33.12312 -16.1813,45.81223 -8.7515,24.77761 -11.9209,29.63716 -20.9693,32.15072 -7.0051,1.94593 -5.9874,2.00821 -13.9278,-0.85243 z m 242.8427,-16.92089 -31.6752,-19.3311 -0.4576,18.5555 -0.4577,18.55552 h -8.8824 -8.8825 v -50.35533 -50.35533 h 30.5188 c 28.4187,0 31.0175,0.2515 37.7665,3.65482 18.1418,9.14841 19.4758,38.19273 2.2884,49.82816 -4.1222,2.79061 -8.9859,4.21206 -16.6738,4.8731 l -10.8542,0.93326 20.3046,11.37426 20.3045,11.37428 0.4836,10.14856 c 0.2661,5.58173 -0.099,10.13211 -0.8122,10.11199 -0.7126,-0.0201 -15.5495,-8.73558 -32.9708,-19.36769 z m 8.0948,-42.78617 c 4.8595,-2.45869 7.3933,-8.84766 5.8879,-14.84584 -1.6861,-6.71747 -9.2661,-9.05508 -29.3621,-9.05508 h -17.108 v 12.99493 12.99492 l 18.2742,-0.0239 c 11.4002,-0.0146 19.7914,-0.79168 22.308,-2.06499 z m -3783.11894,60.16 c 6.5e-4,-0.22335 7.31182,-20.8731 16.24705,-45.88833 18.39957,-51.51179 20.17239,-54.41624 33.21479,-54.41624 9.83643,0 14.96015,2.26344 18.57336,8.20488 1.68479,2.77042 7.9967,19.05261 14.02646,36.18263 6.02976,17.13002 13.03933,36.81046 15.57682,43.73432 l 4.61363,12.58883 h -9.56996 -9.56997 l -2.30119,-6.90355 -2.30119,-6.90356 h -27.47883 -27.47886 l -2.38647,6.90356 -2.38645,6.90355 h -9.3902 c -5.16459,0 -9.38964,-0.18274 -9.38899,-0.40609 z m 71.47089,-31.6032 c 0,-0.63048 -3.77967,-12.03129 -8.39928,-25.33512 -8.03858,-23.14997 -10.92378,-27.94167 -14.60672,-24.25873 -1.95315,1.95316 -17.60313,45.00175 -17.60313,48.42117 0,1.88545 3.79628,2.31903 20.30456,2.31903 11.16752,0 20.30457,-0.51585 20.30457,-1.14635 z m 45.48223,23.98791 v -8.02137 l 30.19756,-0.50655 c 29.48772,-0.49463 30.27045,-0.59667 33.29949,-4.34131 4.16635,-5.15067 4.01735,-13.51188 -0.31074,-17.43631 -2.91566,-2.64372 -6.79919,-3.21426 -26.66456,-3.91735 -23.01799,-0.81467 -23.31452,-0.87334 -29.48072,-5.83286 -8.4537,-6.79938 -11.10672,-12.59812 -11.07692,-24.21098 0.0318,-12.39401 4.57457,-20.32337 14.35619,-25.05857 6.26829,-3.03443 9.92237,-3.36398 37.29915,-3.36398 h 30.3501 v 8.01712 8.01712 l -28.30001,0.5108 c -27.37748,0.49415 -28.43651,0.63917 -32.48731,4.44876 -5.20981,4.89961 -5.42827,11.41843 -0.53248,15.88882 3.2046,2.92614 6.38226,3.43501 25.79546,4.13089 19.04507,0.68267 23.04948,1.30443 28.64101,4.44702 9.93234,5.5823 13.87927,13.93144 13.10058,27.71231 -0.75191,13.30705 -3.89441,18.52907 -14.37227,23.883 -6.68652,3.41664 -9.19446,3.65482 -38.48359,3.65482 h -31.33094 z m 92.58883,0 v -8.02137 l 30.19756,-0.50655 c 29.48772,-0.49463 30.27045,-0.59667 33.29949,-4.34131 4.16635,-5.15067 4.01735,-13.51188 -0.31074,-17.43631 -2.91566,-2.64372 -6.79919,-3.21426 -26.66456,-3.91735 -23.01799,-0.81467 -23.31452,-0.87334 -29.48072,-5.83286 -8.4537,-6.79938 -11.10672,-12.59812 -11.07692,-24.21098 0.0318,-12.39401 4.57457,-20.32337 14.35619,-25.05857 6.26829,-3.03443 9.92237,-3.36398 37.29915,-3.36398 h 30.3501 v 8.01712 8.01712 l -28.30001,0.5108 c -27.37748,0.49415 -28.43651,0.63917 -32.48731,4.44876 -5.20981,4.89961 -5.42827,11.41843 -0.53248,15.88882 3.2046,2.92614 6.38226,3.43501 25.79546,4.13089 19.04507,0.68267 23.04948,1.30443 28.64101,4.44702 9.93234,5.5823 13.87927,13.93144 13.10058,27.71231 -0.75191,13.30705 -3.89441,18.52907 -14.37227,23.883 -6.68652,3.41664 -9.19446,3.65482 -38.48359,3.65482 h -31.33094 z m 123.2117,5.84424 c -15.71423,-5.83176 -23.77664,-18.07745 -26.44181,-40.16139 -1.33868,-11.09252 1.34989,-28.99282 5.60839,-37.34015 8.23825,-16.14831 21.23314,-21.71995 48.4799,-20.7861 15.43819,0.52912 18.09284,1.07773 25.10543,5.18834 14.85777,8.70924 21.71325,25.95414 20.17081,50.73944 -1.27944,20.55907 -7.93448,32.98402 -21.51513,40.16876 -5.37098,2.84148 -9.87689,3.52001 -25.98985,3.91376 -13.44997,0.32866 -21.32917,-0.20534 -25.41774,-1.72266 z m 42.50334,-17.23726 c 2.24986,-1.03448 5.90468,-4.52828 8.12182,-7.76396 3.67115,-5.35771 4.03116,-7.42753 4.03116,-23.17697 0,-15.78019 -0.35544,-17.81369 -4.06091,-23.23275 -5.44827,-7.96779 -11.20889,-10.0568 -27.61422,-10.01397 -22.1075,0.0578 -29.62803,6.26192 -31.76363,26.20388 -2.2057,20.59638 4.65699,36.42396 17.16772,39.59436 7.28037,1.84494 28.81348,0.82844 34.11806,-1.61059 z m 69.57787,17.15504 c -15.5988,-5.57249 -23.77262,-17.96196 -26.44181,-40.07917 -1.25971,-10.43813 1.28346,-28.86361 5.00215,-36.24106 3.64883,-7.23884 10.10479,-13.76052 17.61883,-17.79817 5.75592,-3.09294 9.60265,-3.55504 33.70558,-4.04906 l 27.20812,-0.55768 v 8.08171 8.08169 l -23.95939,0.63893 c -26.65642,0.71084 -31.33763,2.06284 -37.17664,10.73713 -7.81982,11.617 -6.46661,39.41122 2.40055,49.30556 5.64118,6.29464 12.81613,7.80955 37.21264,7.85707 l 19.89848,0.0387 v 8.12183 8.12183 l -24.77158,-0.0713 c -16.06856,-0.0463 -26.85332,-0.81499 -30.69693,-2.18807 z m 70.0878,-48.09597 v -50.35533 h 8.93401 8.93401 v 50.35533 50.35533 h -8.93401 -8.93401 z m 29.23976,49.94924 c 6.5e-4,-0.22335 7.31182,-20.8731 16.24705,-45.88833 18.39958,-51.51179 20.17239,-54.41624 33.2148,-54.41624 9.83642,0 14.96014,2.26344 18.57335,8.20488 1.68479,2.77042 7.9967,19.05261 14.02646,36.18263 6.02976,17.13002 13.03933,36.81046 15.57682,43.73432 l 4.61364,12.58883 h -9.56997 -9.56996 l -2.30119,-6.90355 -2.30119,-6.90356 h -27.47884 -27.47886 l -2.38647,6.90356 -2.38645,6.90355 h -9.39019 c -5.16459,0 -9.38965,-0.18274 -9.389,-0.40609 z m 71.47089,-31.6032 c 0,-0.63048 -3.77967,-12.03129 -8.39928,-25.33512 -8.03858,-23.14997 -10.92378,-27.94167 -14.60672,-24.25873 -1.95315,1.95316 -17.60313,45.00175 -17.60313,48.42117 0,1.88545 3.79629,2.31903 20.30457,2.31903 11.16751,0 20.30456,-0.51585 20.30456,-1.14635 z m 134.82352,31.6032 c 6.5e-4,-0.22335 7.31182,-20.8731 16.24705,-45.88833 18.39958,-51.51179 20.17239,-54.41624 33.21476,-54.41624 9.8365,0 14.9602,2.26344 18.5734,8.20488 1.6848,2.77042 7.9967,19.05261 14.0264,36.18263 6.0298,17.13002 13.0394,36.81046 15.5769,43.73432 l 4.6136,12.58883 h -9.57 -9.5699 l -2.3012,-6.90355 -2.3012,-6.90356 h -27.4788 -27.4789 l -2.38646,6.90356 -2.38646,6.90355 h -9.39019 c -5.16459,0 -9.38965,-0.18274 -9.389,-0.40609 z m 71.47091,-31.6032 c 0,-0.63048 -3.7797,-12.03129 -8.3993,-25.33512 -8.0386,-23.14997 -10.9238,-27.94167 -14.6067,-24.25873 -1.9532,1.95316 -17.60315,45.00175 -17.60315,48.42117 0,1.88545 3.79629,2.31903 20.30455,2.31903 11.1675,0 20.3046,-0.51585 20.3046,-1.14635 z m 67.9833,29.83215 c -15.7143,-5.83176 -23.7767,-18.07745 -26.4419,-40.16139 -1.3386,-11.09252 1.3499,-28.99282 5.6084,-37.34015 8.2383,-16.14831 21.2332,-21.71995 48.4799,-20.7861 15.4382,0.52912 18.0929,1.07773 25.1055,5.18834 14.8577,8.70924 21.7132,25.95414 20.1708,50.73944 -1.2795,20.55907 -7.9345,32.98402 -21.5152,40.16876 -5.3709,2.84148 -9.8768,3.52001 -25.9898,3.91376 -13.45,0.32866 -21.3292,-0.20534 -25.4177,-1.72266 z m 42.5033,-17.23726 c 2.2499,-1.03448 5.9047,-4.52828 8.1218,-7.76396 3.6712,-5.35771 4.0312,-7.42753 4.0312,-23.17697 0,-15.78019 -0.3555,-17.81369 -4.0609,-23.23275 -5.4483,-7.96779 -11.2089,-10.0568 -27.6143,-10.01397 -22.1075,0.0578 -29.628,6.26192 -31.7636,26.20388 -2.2057,20.59638 4.657,36.42396 17.1677,39.59436 7.2804,1.84494 28.8135,0.82844 34.1181,-1.61059 z m 90.9347,-30.94093 v -50.61334 l 29.6447,0.5388 c 26.9177,0.48924 30.2652,0.87032 36.3911,4.14278 14.9367,7.97927 21.6799,22.26566 21.6799,45.93176 0,23.66609 -6.7432,37.95249 -21.6799,45.93176 -6.1259,3.27246 -9.4734,3.65354 -36.3911,4.14278 l -29.6447,0.5388 z m 58.2134,30.21489 c 7.9391,-4.14607 11.8908,-14.18757 11.8908,-30.21489 0,-9.20921 -0.8999,-14.79313 -3.2346,-20.07116 -4.5689,-10.32874 -9.9057,-12.64751 -31.4605,-13.66917 l -17.5411,-0.83141 v 34.55036 34.55035 l 17.4619,-0.74137 c 12.2684,-0.52089 19.0745,-1.5835 22.8835,-3.57271 z m 59.5531,17.83813 c -16.0064,-7.14458 -21.9784,-30.27697 -11.1415,-43.15593 l 4.0932,-4.86454 -3.2869,-4.17868 c -11.194,-14.23087 -6.9601,-36.07457 8.3383,-43.01924 5.9811,-2.71509 10.8108,-3.12323 37.3268,-3.15429 l 30.4569,-0.0357 v 8.01712 8.01712 l -28.3,0.5108 c -27.3775,0.49415 -28.4365,0.63917 -32.4873,4.44876 -5.0766,4.77426 -5.4255,11.1763 -0.8753,16.06032 3.1696,3.40223 4.5659,3.55502 32.4873,3.55502 h 29.1753 V 631.06599 640 h -26.8827 c -32.9758,0 -38.2115,1.86274 -38.0403,13.53387 0.069,4.70993 3.3083,8.71235 8.7144,10.76776 2.4422,0.92852 16.0882,1.68821 30.3245,1.68821 h 25.8841 v 8.12183 8.12183 l -30.4569,-0.0635 c -21.8174,-0.0455 -31.8391,-0.6806 -35.3299,-2.23874 z m 124.5746,-33.02764 c 0.637,-38.4449 1.6306,-43.34272 10.74,-52.94064 9.3855,-9.88884 15.0381,-11.51866 42.1473,-12.15248 l 24.7716,-0.57916 v 8.03419 8.03419 l -21.0439,0.85351 c -16.5128,0.66972 -22.1596,1.50691 -26.2261,3.88824 -6.1189,3.58321 -10.648,9.42051 -12.1221,15.62357 l -1.0616,4.46701 h 30.2268 30.2269 V 631.06599 640 h -30.0508 -30.0507 v 21.11675 21.11675 h -9.0713 -9.0714 z m 90.6538,-15.02538 v -50.35533 h 8.934 8.934 v 50.35533 50.35533 h -8.934 -8.934 z m 35.7361,42.33395 v -8.02137 l 30.1976,-0.50655 c 29.4876,-0.49463 30.2703,-0.59667 33.2994,-4.34131 4.1664,-5.15067 4.0174,-13.51188 -0.3107,-17.43631 -2.9157,-2.64372 -6.7993,-3.21426 -26.6646,-3.91735 -23.018,-0.81467 -23.3145,-0.87334 -29.4807,-5.83286 -8.4537,-6.79938 -11.1067,-12.59812 -11.0769,-24.21098 0.032,-12.39401 4.5745,-20.32337 14.3561,-25.05857 6.2683,-3.03443 9.9224,-3.36398 37.2992,-3.36398 h 30.3501 v 8.01712 8.01712 l -28.3,0.5108 c -27.3774,0.49415 -28.4365,0.63917 -32.4873,4.44876 -5.2098,4.89961 -5.4283,11.41843 -0.5325,15.88882 3.2045,2.92614 6.3823,3.43501 25.7954,4.13089 19.0452,0.68267 23.0496,1.30443 28.641,4.44702 9.9325,5.5823 13.8794,13.93144 13.1007,27.71231 -0.752,13.30705 -3.8945,18.52907 -14.3723,23.883 -6.6865,3.41664 -9.1945,3.65482 -38.4836,3.65482 h -31.3309 z m 97.4619,-42.33395 v -50.35533 h 8.934 8.934 v 50.35533 50.35533 h -8.934 -8.934 z m 58.2371,48.09597 c -15.5988,-5.57249 -23.7726,-17.96196 -26.4418,-40.07917 -1.2597,-10.43813 1.2834,-28.86361 5.0021,-36.24106 3.6488,-7.23884 10.1048,-13.76052 17.6188,-17.79817 5.756,-3.09294 9.6026,-3.55504 33.7056,-4.04906 l 27.2081,-0.55768 v 8.08171 8.08169 l -23.9594,0.63893 c -26.6565,0.71084 -31.3375,2.06284 -37.1767,10.73713 -7.8198,11.617 -6.4666,39.41122 2.4007,49.30556 5.6411,6.29464 12.8161,7.80955 37.2126,7.85707 l 19.8985,0.0387 v 8.12183 8.12183 l -24.7716,-0.0713 c -16.0686,-0.0463 -26.8534,-0.81499 -30.6969,-2.18807 z m 66.8402,1.85327 c 6e-4,-0.22335 7.3119,-20.8731 16.247,-45.88833 18.3997,-51.51179 20.1725,-54.41624 33.2149,-54.41624 9.8363,0 14.9601,2.26344 18.5733,8.20488 1.6848,2.77042 7.9968,19.05261 14.0264,36.18263 6.0298,17.13002 13.0394,36.81046 15.5769,43.73432 l 4.6136,12.58883 h -9.5699 -9.57 l -2.3012,-6.90355 -2.3012,-6.90356 h -27.4788 -27.4789 l -2.3865,6.90356 -2.3864,6.90355 h -9.3902 c -5.1646,0 -9.3897,-0.18274 -9.389,-0.40609 z m 71.4709,-31.6032 c 0,-0.63048 -3.7797,-12.03129 -8.3993,-25.33512 -8.0386,-23.14997 -10.9238,-27.94167 -14.6068,-24.25873 -1.9531,1.95316 -17.603,45.00175 -17.603,48.42117 0,1.88545 3.7963,2.31903 20.3045,2.31903 11.1675,0 20.3046,-0.51585 20.3046,-1.14635 z m 87.7157,-18.34604 v -50.61334 l 29.6447,0.5388 c 26.9178,0.48924 30.2652,0.87032 36.3911,4.14278 14.9367,7.97927 21.68,22.26566 21.68,45.93176 0,23.66609 -6.7433,37.95249 -21.68,45.93176 -6.1259,3.27246 -9.4733,3.65354 -36.3911,4.14278 l -29.6447,0.5388 z m 58.2134,30.21489 c 7.9391,-4.14607 11.8908,-14.18757 11.8908,-30.21489 0,-9.20921 -0.8999,-14.79313 -3.2346,-20.07116 -4.5688,-10.32874 -9.9057,-12.64751 -31.4605,-13.66917 l -17.541,-0.83141 v 34.55036 34.55035 l 17.4619,-0.74137 c 12.2683,-0.52089 19.0744,-1.5835 22.8834,-3.57271 z m 40.8741,19.73435 c 6e-4,-0.22335 7.3119,-20.8731 16.247,-45.88833 18.3997,-51.51179 20.1725,-54.41624 33.2149,-54.41624 9.8363,0 14.9601,2.26344 18.5733,8.20488 1.6848,2.77042 7.9968,19.05261 14.0264,36.18263 6.0298,17.13002 13.0394,36.81046 15.5769,43.73432 l 4.6136,12.58883 h -9.5699 -9.57 l -2.3012,-6.90355 -2.3012,-6.90356 h -27.4788 -27.4789 l -2.3865,6.90356 -2.3864,6.90355 h -9.3902 c -5.1646,0 -9.3897,-0.18274 -9.389,-0.40609 z m 71.4709,-31.6032 c 0,-0.63048 -3.7797,-12.03129 -8.3993,-25.33512 -8.0386,-23.14997 -10.9238,-27.94167 -14.6067,-24.25873 -1.9532,1.95316 -17.6031,45.00175 -17.6031,48.42117 0,1.88545 3.7963,2.31903 20.3045,2.31903 11.1675,0 20.3046,-0.51585 20.3046,-1.14635 z m 303.7563,-18.34604 v -50.35533 h 8.9341 8.934 v 50.35533 50.35533 h -8.934 -8.9341 z m 151.8782,48.05302 c -16.0063,-7.14458 -21.9785,-30.27697 -11.1415,-43.15593 l 4.0932,-4.86454 -3.2869,-4.17868 c -11.194,-14.23087 -6.9601,-36.07457 8.3384,-43.01924 5.9811,-2.71509 10.8106,-3.12323 37.3268,-3.15429 l 30.4568,-0.0357 v 8.01712 8.01712 l -28.3,0.5108 c -27.3774,0.49415 -28.4365,0.63917 -32.4873,4.44876 -5.0765,4.77426 -5.4254,11.1763 -0.8752,16.06032 3.1696,3.40223 4.5657,3.55502 32.4873,3.55502 h 29.1752 V 631.06599 640 h -26.8828 c -32.9757,0 -38.2114,1.86274 -38.0402,13.53387 0.07,4.70993 3.3082,8.71235 8.7144,10.76776 2.4423,0.92852 16.0882,1.68821 30.3245,1.68821 h 25.8841 v 8.12183 8.12183 l -30.4568,-0.0635 c -21.8175,-0.0455 -31.8392,-0.6806 -35.33,-2.23874 z m 179.4924,-5.71907 v -8.02137 l 30.1976,-0.50655 c 29.4876,-0.49463 30.2704,-0.59667 33.2995,-4.34131 4.1663,-5.15067 4.0174,-13.51188 -0.3108,-17.43631 -2.9157,-2.64372 -6.7992,-3.21426 -26.6646,-3.91735 -23.018,-0.81467 -23.3145,-0.87334 -29.4807,-5.83286 -8.4537,-6.79938 -11.1066,-12.59812 -11.0769,-24.21098 0.032,-12.39401 4.5745,-20.32337 14.3561,-25.05857 6.2683,-3.03443 9.9225,-3.36398 37.2992,-3.36398 h 30.3501 v 8.01712 8.01712 l -28.3,0.5108 c -27.3774,0.49415 -28.4365,0.63917 -32.4873,4.44876 -5.2098,4.89961 -5.4283,11.41843 -0.5325,15.88882 3.2046,2.92614 6.3823,3.43501 25.7954,4.13089 19.0452,0.68267 23.0496,1.30443 28.641,4.44702 9.9325,5.5823 13.8794,13.93144 13.1007,27.71231 -0.7519,13.30705 -3.8944,18.52907 -14.3722,23.883 -6.6866,3.41664 -9.1946,3.65482 -38.4837,3.65482 h -31.3309 z m 97.4619,-42.33395 v -50.35533 h 8.934 8.934 v 50.35533 50.35533 h -8.934 -8.934 z m 32.4873,0 v -50.61334 l 29.6447,0.5388 c 26.9178,0.48924 30.2652,0.87032 36.3911,4.14278 14.9367,7.97927 21.68,22.26566 21.68,45.93176 0,23.66609 -6.7433,37.95249 -21.68,45.93176 -6.1259,3.27246 -9.4733,3.65354 -36.3911,4.14278 l -29.6447,0.5388 z m 58.2134,30.21489 c 7.9391,-4.14607 11.8908,-14.18757 11.8908,-30.21489 0,-9.20921 -0.8999,-14.79313 -3.2346,-20.07116 -4.5688,-10.32874 -9.9057,-12.64751 -31.4605,-13.66917 l -17.5411,-0.83141 v 34.55036 34.55035 l 17.462,-0.74137 c 12.2683,-0.52089 19.0744,-1.5835 22.8834,-3.57271 z m 40.8741,19.73435 c 6e-4,-0.22335 7.3119,-20.8731 16.247,-45.88833 18.3997,-51.51179 20.1725,-54.41624 33.2149,-54.41624 9.8363,0 14.9601,2.26344 18.5733,8.20488 1.6848,2.77042 7.9968,19.05261 14.0264,36.18263 6.0298,17.13002 13.0394,36.81046 15.5768,43.73432 l 4.6137,12.58883 h -9.5699 -9.57 l -2.3012,-6.90355 -2.3012,-6.90356 h -27.4788 -27.4789 l -2.3865,6.90356 -2.3864,6.90355 h -9.3903 c -5.1645,0 -9.3896,-0.18274 -9.3889,-0.40609 z m 71.4709,-31.6032 c 0,-0.63048 -3.7797,-12.03129 -8.3993,-25.33512 -8.0386,-23.14997 -10.9238,-27.94167 -14.6068,-24.25873 -1.9531,1.95316 -17.603,45.00175 -17.603,48.42117 0,1.88545 3.7963,2.31903 20.3045,2.31903 11.1675,0 20.3046,-0.51585 20.3046,-1.14635 z m 42.2335,-18.34604 v -50.61334 l 29.6447,0.5388 c 26.9178,0.48924 30.2651,0.87032 36.3911,4.14278 14.9367,7.97927 21.6799,22.26566 21.6799,45.93176 0,23.66609 -6.7432,37.95249 -21.6799,45.93176 -6.126,3.27246 -9.4733,3.65354 -36.3911,4.14278 l -29.6447,0.5388 z m 58.2134,30.21489 c 7.939,-4.14607 11.8908,-14.18757 11.8908,-30.21489 0,-9.20921 -0.8999,-14.79313 -3.2346,-20.07116 -4.5689,-10.32874 -9.9057,-12.64751 -31.4605,-13.66917 l -17.5411,-0.83141 v 34.55036 34.55035 l 17.4619,-0.74137 c 12.2684,-0.52089 19.0745,-1.5835 22.8835,-3.57271 z m 59.5531,17.83813 c -16.0063,-7.14458 -21.9785,-30.27697 -11.1415,-43.15593 l 4.0932,-4.86454 -3.2869,-4.17868 c -11.194,-14.23087 -6.9601,-36.07457 8.3384,-43.01924 5.981,-2.71509 10.8106,-3.12323 37.3267,-3.15429 l 30.4569,-0.0357 v 8.01712 8.01712 l -28.3,0.5108 c -27.3774,0.49415 -28.4365,0.63917 -32.4873,4.44876 -5.0765,4.77426 -5.4254,11.1763 -0.8752,16.06032 3.1696,3.40223 4.5657,3.55502 32.4873,3.55502 h 29.1752 V 631.06599 640 h -26.8828 c -32.9757,0 -38.2114,1.86274 -38.0402,13.53387 0.07,4.70993 3.3082,8.71235 8.7144,10.76776 2.4423,0.92852 16.0882,1.68821 30.3245,1.68821 h 25.8841 v 8.12183 8.12183 l -30.4569,-0.0635 c -21.8175,-0.0455 -31.8391,-0.6806 -35.3299,-2.23874 z m 124.2639,-48.05302 v -50.61334 l 29.6447,0.5388 c 26.9179,0.48924 30.2652,0.87032 36.3912,4.14278 14.9367,7.97927 21.6799,22.26566 21.6799,45.93176 0,23.66609 -6.7432,37.95249 -21.6799,45.93176 -6.126,3.27246 -9.4733,3.65354 -36.3912,4.14278 l -29.6447,0.5388 z m 58.2134,30.21489 c 7.9391,-4.14607 11.8908,-14.18757 11.8908,-30.21489 0,-9.20921 -0.8998,-14.79313 -3.2345,-20.07116 -4.5689,-10.32874 -9.9058,-12.64751 -31.4606,-13.66917 l -17.541,-0.83141 v 34.55036 34.55035 l 17.4619,-0.74137 c 12.2683,-0.52089 19.0744,-1.5835 22.8834,-3.57271 z m 59.5531,17.83813 c -16.0063,-7.14458 -21.9784,-30.27697 -11.1415,-43.15593 l 4.0933,-4.86454 -3.2869,-4.17868 c -11.194,-14.23087 -6.9601,-36.07457 8.3383,-43.01924 5.9811,-2.71509 10.8106,-3.12323 37.3268,-3.15429 l 30.4568,-0.0357 v 8.01712 8.01712 l -28.3,0.5108 c -27.3774,0.49415 -28.4364,0.63917 -32.4873,4.44876 -5.0765,4.77426 -5.4254,11.1763 -0.8752,16.06032 3.1696,3.40223 4.5658,3.55502 32.4873,3.55502 h 29.1752 V 631.06599 640 h -26.8827 c -32.9758,0 -38.2114,1.86274 -38.0402,13.53387 0.07,4.70993 3.3082,8.71235 8.7144,10.76776 2.4422,0.92852 16.0882,1.68821 30.3244,1.68821 h 25.8841 v 8.12183 8.12183 l -30.4568,-0.0635 c -21.8175,-0.0455 -31.8392,-0.6806 -35.33,-2.23874 z m 121.0164,1.89622 c 7e-4,-0.22335 7.3119,-20.8731 16.2471,-45.88833 18.3996,-51.51179 20.1725,-54.41624 33.2148,-54.41624 9.8364,0 14.9601,2.26344 18.5734,8.20488 1.6847,2.77042 7.9967,19.05261 14.0263,36.18263 6.0299,17.13002 13.0395,36.81046 15.5769,43.73432 l 4.6137,12.58883 h -9.57 -9.5699 l -2.3013,-6.90355 -2.3012,-6.90356 h -27.4787 -27.4789 l -2.3866,6.90356 -2.3863,6.90355 h -9.3903 c -5.1645,0 -9.3896,-0.18274 -9.389,-0.40609 z m 71.4709,-31.6032 c 0,-0.63048 -3.7797,-12.03129 -8.3992,-25.33512 -8.0387,-23.14997 -10.9239,-27.94167 -14.6068,-24.25873 -1.9531,1.95316 -17.6031,45.00175 -17.6031,48.42117 0,1.88545 3.7963,2.31903 20.3046,2.31903 11.1675,0 20.3045,-0.51585 20.3045,-1.14635 z m 137.2589,29.70698 c -16.0063,-7.14458 -21.9784,-30.27697 -11.1415,-43.15593 l 4.0932,-4.86454 -3.2869,-4.17868 c -11.194,-14.23087 -6.96,-36.07457 8.3384,-43.01924 5.9811,-2.71509 10.8106,-3.12323 37.3268,-3.15429 l 30.4568,-0.0357 v 8.01712 8.01712 l -28.3,0.5108 c -27.3774,0.49415 -28.4365,0.63917 -32.4873,4.44876 -5.0765,4.77426 -5.4254,11.1763 -0.8752,16.06032 3.1696,3.40223 4.5658,3.55502 32.4873,3.55502 h 29.1752 V 631.06599 640 h -26.8827 c -32.9758,0 -38.2114,1.86274 -38.0402,13.53387 0.07,4.70993 3.3081,8.71235 8.7144,10.76776 2.4422,0.92852 16.0882,1.68821 30.3244,1.68821 h 25.8841 v 8.12183 8.12183 l -30.4568,-0.0635 c -21.8175,-0.0455 -31.8392,-0.6806 -35.33,-2.23874 z m 80.4061,-48.05302 v -50.35533 h 8.934 8.934 v 50.35533 50.35533 h -8.934 -8.934 z m 152.4503,48.17819 c -15.7143,-5.83176 -23.7767,-18.07745 -26.4418,-40.16139 -1.3388,-11.09252 1.3499,-28.99282 5.6083,-37.34015 8.2383,-16.14831 21.2332,-21.71995 48.48,-20.7861 15.4382,0.52912 18.0929,1.07773 25.1054,5.18834 14.8577,8.70924 21.7132,25.95414 20.1709,50.73944 -1.2795,20.55907 -7.9346,32.98402 -21.5152,40.16876 -5.371,2.84148 -9.877,3.52001 -25.9899,3.91376 -13.4499,0.32866 -21.3292,-0.20534 -25.4177,-1.72266 z m 42.5033,-17.23726 c 2.2499,-1.03448 5.9047,-4.52828 8.1218,-7.76396 3.6712,-5.35771 4.0312,-7.42753 4.0312,-23.17697 0,-15.78019 -0.3554,-17.81369 -4.0609,-23.23275 -5.4483,-7.96779 -11.2089,-10.0568 -27.6142,-10.01397 -22.1075,0.0578 -29.6281,6.26192 -31.7637,26.20388 -2.2057,20.59638 4.6571,36.42396 17.1678,39.59436 7.2804,1.84494 28.8135,0.82844 34.118,-1.61059 z M 995.1984,576.95314 c -3.5854,-3.96182 -3.42377,-5.59308 0.94371,-9.52438 5.80629,-5.22643 8.82489,-5.54547 18.43799,-1.94875 l 9.0235,3.37614 3.6597,-3.43805 c 3.5484,-3.33357 3.742,-3.347 6.3707,-0.44231 3.7185,4.1088 3.4183,6.0088 -1.5688,9.93169 -5.203,4.09269 -8.8331,4.21364 -18.8382,0.62767 -7.5522,-2.70681 -7.7535,-2.6923 -11.5021,0.82935 -3.69705,3.47322 -3.89946,3.49148 -6.5265,0.58864 z m 578.8117,-1.28227 c 0,-0.53838 2.0102,-4.55794 4.467,-8.93235 4.2727,-7.60759 4.7727,-7.95356 11.4962,-7.95514 l 7.0291,-0.002 -7.6325,8.93401 c -5.2847,6.18573 -8.8211,8.93401 -11.4962,8.93401 -2.125,-4e-5 -3.8636,-0.44053 -3.8636,-0.97891 z m 1070.4568,-72.62342 c 0,-0.2782 9.7966,-22.38988 21.7703,-49.13705 l 21.7702,-48.63121 50.9201,-0.4333 c 58.0358,-0.49386 65.8268,0.39581 73.8658,8.43484 10.0806,10.08054 8.7849,25.05554 -4.5354,52.41564 -10.3807,21.32225 -25.2399,32.40205 -48.461,36.13503 -9.1403,1.46939 -115.33,2.58906 -115.33,1.21605 z m 114.9876,-22.00173 c 8.1038,-4.20271 10.3711,-7.56682 19.7846,-29.35596 8.1725,-18.91652 8.0248,-23.35149 -0.9015,-27.08116 -4.0442,-1.68976 -10.44,-2.25069 -21.9311,-1.92341 l -16.222,0.46202 -13.7472,30.65462 c -7.5608,16.86005 -13.747,31.01935 -13.747,31.46512 0,0.44578 8.9543,0.49136 19.8985,0.10136 16.4943,-0.58789 21.0904,-1.32736 26.8657,-4.32253 z m 75.9309,20.12351 c -4.9648,-1.33246 -9.5685,-3.91131 -11.9733,-6.70717 -3.4614,-4.02408 -3.8116,-5.66422 -3.0699,-14.3753 1.6442,-19.30799 18.2975,-47.54924 35.5112,-60.22126 19.3041,-14.21091 20.5172,-14.42677 84.6541,-15.06347 34.638,-0.34386 56.4467,0.031 56.4467,0.97018 0,0.84181 -1.4692,4.8521 -3.2651,8.91178 l -3.265,7.38123 -36.1259,0.54928 c -40.8269,0.62073 -45.9489,1.83787 -56.0242,13.31321 -9.6347,10.97357 -10.3386,10.7728 37.7665,10.7728 23.6752,0 43.0457,0.34592 43.0457,0.76873 0,0.4228 -1.6076,4.07762 -3.5725,8.12182 l -3.5723,7.3531 h -43.6171 -43.6171 l -2.2685,5.42933 c -1.2476,2.98613 -1.8485,7.03571 -1.335,8.99906 1.9067,7.29077 7.4737,8.31273 45.2837,8.31273 27.4906,0 35.0018,0.44372 34.3706,2.03045 -0.4443,1.11676 -2.0637,5.13706 -3.5989,8.93401 l -2.7912,6.90356 -55.4581,-0.10965 c -40.785,-0.0806 -57.5922,-0.68239 -63.5244,-2.27443 z m 134.2254,1.1116 c 0.2978,-0.69984 1.9934,-4.67481 3.7682,-8.83326 l 3.2268,-7.56081 51.1894,-0.50683 c 55.2004,-0.54655 56.2158,-0.69937 64.4039,-9.69261 5.3282,-5.85226 6.2294,-10.59585 2.4019,-12.64424 -2.0542,-1.09935 -20.0065,-1.72329 -49.5837,-1.72329 h -46.3638 l -2.7091,-4.13453 c -7.7447,-11.81995 13.6714,-37.80848 39.6061,-48.06187 8.9419,-3.5353 11.6597,-3.71135 66.5814,-4.31317 35.95,-0.39395 57.2589,-0.047 57.2589,0.93254 0,0.85801 -1.4693,4.88155 -3.2652,8.94123 l -3.2649,7.38123 -36.1259,0.54928 c -40.4245,0.61462 -46.3235,1.96564 -55.3329,12.67271 -8.52,10.12529 -5.5664,11.03781 36.4173,11.25138 28.6504,0.1457 32.098,0.45861 34.5178,3.13246 8.3759,9.25526 -4.9376,32.84418 -25.2583,44.75289 -13.4388,7.87574 -24.4454,9.0702 -83.8638,9.10116 -29.7802,0.0162 -53.902,-0.54441 -53.6041,-1.24427 z m 162.1658,0.76662 c 0,-0.2782 9.7965,-22.38988 21.7702,-49.13705 l 21.7702,-48.63121 50.9202,-0.4333 c 58.0358,-0.49386 65.8267,0.39581 73.8657,8.43484 10.0806,10.08054 8.7849,25.05554 -4.5354,52.41564 -10.3807,21.32225 -25.2399,32.40205 -48.461,36.13503 -9.1403,1.46939 -115.3299,2.58906 -115.3299,1.21605 z m 114.9875,-22.00173 c 8.1038,-4.20271 10.3711,-7.56682 19.7846,-29.35596 8.1725,-18.91652 8.0249,-23.35149 -0.9015,-27.08116 -4.0442,-1.68976 -10.44,-2.25069 -21.9311,-1.92341 l -16.222,0.46202 -13.7472,30.65462 c -7.5608,16.86005 -13.747,31.01935 -13.747,31.46512 0,0.44578 8.9543,0.49136 19.8985,0.10136 16.4943,-0.58789 21.0904,-1.32736 26.8657,-4.32253 z m 75.931,20.12351 c -4.9649,-1.33246 -9.5685,-3.91131 -11.9734,-6.70717 -3.4614,-4.02408 -3.8116,-5.66422 -3.0699,-14.3753 1.6442,-19.30799 18.2975,-47.54924 35.5112,-60.22126 19.3042,-14.21091 20.5172,-14.42677 84.6542,-15.06347 34.6379,-0.34386 56.4467,0.031 56.4467,0.97018 0,0.84181 -1.4693,4.8521 -3.2652,8.91178 l -3.2649,7.38123 -36.1259,0.54928 c -40.827,0.62073 -45.9489,1.83787 -56.0242,13.31321 -9.6348,10.97357 -10.3386,10.7728 37.7665,10.7728 23.6751,0 43.0456,0.34592 43.0456,0.76873 0,0.4228 -1.6076,4.07762 -3.5724,8.12182 l -3.5723,7.3531 h -43.6172 -43.6171 l -2.2684,5.42933 c -1.2477,2.98613 -1.8486,7.03571 -1.3351,8.99906 1.9067,7.29077 7.4737,8.31273 45.2837,8.31273 27.4906,0 35.0019,0.44372 34.3706,2.03045 -0.4442,1.11676 -2.0637,5.13706 -3.5989,8.93401 l -2.7911,6.90356 -55.4582,-0.10965 c -40.785,-0.0806 -57.5922,-0.68239 -63.5243,-2.27443 z m 221.6703,1.93116 c 0,-0.24909 9.7493,-22.36077 21.665,-49.13705 l 21.6651,-48.68415 30.2502,-0.4417 30.2504,-0.4417 -7.7895,17.49754 c -4.2841,9.62365 -14.2119,31.93408 -22.0618,49.57875 l -14.2723,32.08122 h -29.8535 c -16.4195,0 -29.8536,-0.20381 -29.8536,-0.45291 z m 79.5939,-0.46424 c 0,-0.50443 1.5519,-4.52474 3.4487,-8.93401 l 3.4488,-8.01686 h 44.5629 c 26.7361,0 47.3715,-0.7072 51.5837,-1.76783 8.1005,-2.03975 17.7595,-9.40862 21.2954,-16.24639 l 2.4445,-4.7269 -32.9352,-0.013 c -36.8721,-0.0146 -58.2799,-1.90794 -64.0118,-5.66365 -5.106,-3.34562 -5.0945,-11.9276 0.031,-22.75042 4.8643,-10.27199 12.3606,-17.39622 23.7363,-22.55856 13.9631,-6.33643 26.9011,-7.78646 64.3031,-7.20664 30.1188,0.46691 34.696,0.89503 40.3637,3.77535 12.5596,6.38283 15.1243,14.80599 10.773,35.3823 -2.2613,10.6928 -13.6915,29.08836 -24.86,40.00912 -8.3347,8.14996 -23.2264,15.77255 -35.167,18.00102 -9.0449,1.68807 -109.0168,2.34448 -109.0168,0.71579 z m 136.64,-62.4379 c 4.1605,-13.88605 -5.6458,-20.11383 -25.8182,-16.39691 -12.8104,2.3604 -20.5841,6.70538 -24.0752,13.4564 -4.6089,8.91288 -3.2849,9.44277 23.5941,9.44277 h 24.3512 z m 22.5478,62.4379 c 0,-0.50443 1.5519,-4.52474 3.4487,-8.93401 l 3.4489,-8.01686 h 44.5628 c 26.7361,0 47.3715,-0.7072 51.5837,-1.76783 8.1005,-2.03975 17.7595,-9.40862 21.2954,-16.24639 l 2.4445,-4.7269 -32.9351,-0.013 c -36.8722,-0.0146 -58.28,-1.90794 -64.0119,-5.66365 -5.106,-3.34562 -5.0945,-11.9276 0.031,-22.75042 4.8643,-10.27199 12.3606,-17.39622 23.7363,-22.55856 13.9631,-6.33643 26.9011,-7.78646 64.3031,-7.20664 30.1189,0.46691 34.696,0.89503 40.3637,3.77535 12.5596,6.38283 15.1243,14.80599 10.773,35.3823 -2.2613,10.6928 -13.6915,29.08836 -24.86,40.00912 -8.3347,8.14996 -23.2264,15.77255 -35.167,18.00102 -9.0449,1.68807 -109.0168,2.34448 -109.0168,0.71579 z m 136.64,-62.4379 c 4.1605,-13.88605 -5.6458,-20.11383 -25.8181,-16.39691 -12.8104,2.3604 -20.5842,6.70538 -24.0753,13.4564 -4.6089,8.91288 -3.2849,9.44277 23.5941,9.44277 h 24.3512 z m 19.5699,62.08258 c 0.2977,-0.69984 2.0033,-4.71741 3.7901,-8.92791 l 3.2487,-7.65546 45.9813,-0.006 c 29.3648,-0.003 48.6738,-0.6841 53.4322,-1.8823 8.1603,-2.05475 22.4892,-14.14052 21.2337,-17.90954 -0.5684,-1.7065 -11.8363,-2.2303 -55.3024,-2.57076 l -54.5885,-0.42759 3.3663,-8.10033 3.3665,-8.10034 h 54.2735 54.2734 l 3.9872,-3.98709 c 5.8324,-5.83252 5.1627,-13.77155 -1.4832,-17.58088 -2.4179,-1.38584 -17.9686,-2.23058 -51.4989,-2.79751 l -48.0353,-0.81219 3.7397,-8.52791 3.7394,-8.52792 h 52.5287 c 56.8616,0 65.148,0.99023 72.3389,8.64456 8.9254,9.50069 6.8517,25.99636 -4.462,35.49487 -5.472,4.59403 -6.0514,5.72311 -4.5866,8.93799 1.2568,2.75861 0.9906,5.47605 -1.0639,10.8557 -5.5735,14.59385 -26.6459,29.85519 -46.284,33.52023 -10.2296,1.90916 -112.7943,2.2393 -111.9948,0.36048 z M 210.92283,489.3401 c 0.8217,-1.56345 18.48372,-41.21827 39.24892,-88.12183 37.60163,-84.93292 43.54922,-97.04917 59.00485,-120.20304 36.33062,-54.42638 89.92162,-94.32384 146.45791,-109.03503 32.89492,-8.55951 26.68502,-8.29775 214.82233,-9.05504 96.71065,-0.38928 175.83755,-0.13824 175.83755,0.55795 0,0.69615 -5.66497,14.26644 -12.58883,30.15621 l -12.58883,28.89048 -95.02538,0.0184 c -107.03425,0.0208 -132.39226,1.22755 -153.33885,7.29764 -39.58867,11.47234 -65.68886,34.94663 -76.40847,68.7211 l -1.1315,3.56508 h 144.67799 c 79.5729,0 144.67799,0.61147 144.67799,1.35883 0,0.74737 -5.09816,12.62554 -11.32922,26.39594 l -11.32922,25.03711 -145.82814,0.45251 -145.82814,0.4525 -30.05076,68.13788 -30.05076,68.13786 -100.36171,0.039 c -95.07578,0.037 -100.28304,-0.11062 -98.86773,-2.80357 z M 773.0832,445.48223 c 11.37262,-25.68528 44.31247,-99.87817 73.19964,-164.87309 l 52.52214,-118.17259 h 99.80681 c 94.36681,0 99.75021,0.15496 98.76841,2.84264 -0.5711,1.56345 -33.36,75.73714 -72.8641,164.83042 l -71.82577,161.98778 -100.14231,0.0427 -100.14231,0.0427 z m 247.5478,17.11987 13.352,-29.7087 161.5871,-0.84059 c 160.9486,-0.83727 161.6386,-0.85491 174.5821,-4.46579 16.7805,-4.68126 33.6653,-13.10065 43.7264,-21.80358 5.9356,-5.13435 9.5906,-10.32652 14.2132,-20.191 8.9407,-19.07887 8.1439,-26.64354 -3.1363,-29.77627 -3.9924,-1.10874 -57.2604,-1.69259 -155.5139,-1.7045 -95.0724,-0.0114 -151.5795,-0.61196 -155.318,-1.6504 -8.2843,-2.30114 -16.1469,-7.99066 -19.8829,-14.38751 -7.0481,-12.06812 -1.5466,-43.55993 10.8194,-61.93163 14.1566,-21.03199 45.1466,-53.91188 63.5793,-67.4566 38.2681,-28.1202 77.284,-41.19196 133.2895,-44.6568 28.3504,-1.75394 341.9289,-2.15382 341.9289,-0.43604 0,0.63589 -5.6649,14.15686 -12.5888,30.04663 l -12.5888,28.89048 -95.0254,0.0184 c -52.264,0.01 -104.9684,0.73543 -117.1211,1.61179 -42.6208,3.07354 -73.7205,16.59736 -94.736,41.19633 -12.0911,14.15279 -13.1489,24.83135 -3.1115,31.41152 4.1597,2.72697 12.0403,2.98325 114.9963,3.73978 101.8582,0.74846 111.0387,1.0413 117.0059,3.73235 16.5054,7.44341 22.2476,20.37042 18.7563,42.22475 -3.0304,18.96954 -10.4239,36.24824 -22.3174,52.15563 -30.5857,40.90815 -72.0367,71.3429 -112.9458,82.92867 -35.6834,10.10582 -25.1849,9.63864 -229.7806,10.22526 l -187.122,0.53652 13.3521,-29.70869 z m 643.5314,27.06427 c -36.3782,-5.66852 -58.2029,-18.40543 -68.0556,-39.71713 -5.0634,-10.95219 -4.8873,-41.52028 0.3368,-58.47716 2.0643,-6.70051 25.3882,-60.97462 51.8307,-120.60914 l 48.0775,-108.42639 h 99.7508 c 94.2632,0 99.701,0.15642 98.8441,2.84264 -0.4985,1.56345 -22.5353,51.45177 -48.9705,110.86294 -55.5858,124.92477 -55.4258,124.40369 -42.6547,138.94915 16.0782,18.31232 57.8595,23.11129 103.6835,11.9091 30.5134,-7.45933 53.7506,-23.82324 64.6053,-45.49573 2.8475,-5.68543 25.9973,-57.11886 51.4439,-114.29653 l 46.2668,-103.95939 59.3004,-0.42605 59.3006,-0.42606 -2.9955,6.92352 c -32.1431,74.29531 -95.2128,213.14456 -101.2436,222.88976 -32.9441,53.23528 -77.5058,83.10783 -142.3966,95.45741 -18.2769,3.47834 -22.5525,3.59786 -140.6772,3.93222 -97.8277,0.27692 -124.7074,-0.10396 -136.4467,-1.93316 z m 455.5292,-58.80343 c 14.9401,-33.72589 47.8906,-107.95391 73.2233,-164.95116 l 46.0594,-103.63137 133.3047,0.53088 c 118.2847,0.47105 134.1823,0.83047 141.0937,3.18986 10.7971,3.68592 17.5181,9.25663 22.7372,18.84584 4.1389,7.60447 5.8846,18.30693 24.7399,151.66741 11.1578,78.91709 20.7136,146.23591 21.2352,149.59739 l 0.9484,6.11179 -58.9581,-0.42651 -58.9581,-0.42651 -6.5972,-45.48224 -6.5971,-45.48223 -59.2677,-0.4257 -59.2677,-0.4257 -20.2978,46.2736 -20.2979,46.27359 -100.1319,0.0404 -100.132,0.0405 27.1637,-61.3198 z m 323.354,-88.67887 c 0,-1.19977 -4.0203,-27.92879 -8.934,-59.3978 -4.9137,-31.46902 -8.934,-57.89856 -8.934,-58.73231 0,-0.83374 -2.7972,-1.51589 -6.216,-1.51589 h -6.2159 l -26.5556,59.69543 c -14.6057,32.83249 -26.8363,60.24366 -27.1794,60.91371 -0.3431,0.67005 18.4244,1.21827 41.7056,1.21827 34.3428,0 42.3293,-0.41158 42.3293,-2.18141 z"
       id="path156" />
  </g>
</svg>
