<?xml version="1.0" encoding="UTF-8" standalone="no"?>
<!-- Created with Inkscape (http://www.inkscape.org/) -->

<svg
   version="1.1"
   id="svg1005"
   width="1495.9717"
   height="1224.5936"
   viewBox="0 0 1495.9717 1224.5936"
   xmlns:inkscape="http://www.inkscape.org/namespaces/inkscape"
   xmlns:sodipodi="http://sodipodi.sourceforge.net/DTD/sodipodi-0.dtd"
   xmlns:xlink="http://www.w3.org/1999/xlink"
   xmlns="http://www.w3.org/2000/svg"
   xmlns:svg="http://www.w3.org/2000/svg">
  <defs
     id="defs1009" />
  <sodipodi:namedview
     id="namedview1007"
     pagecolor="#ffffff"
     bordercolor="#000000"
     borderopacity="0.25"
     inkscape:showpageshadow="2"
     inkscape:pageopacity="0.0"
     inkscape:pagecheckerboard="0"
     inkscape:deskcolor="#d1d1d1"
     showgrid="false" />
  <g
     inkscape:groupmode="layer"
     inkscape:label="Image"
     id="g1011">
    <image
       width="1495.9717"
       height="1224.5936"
       preserveAspectRatio="none"
       id="image1013" />
    <path
       style="fill:#000000;stroke-width:3.39223"
       d="m 746.28974,966.78442 v -64.45229 h 8.19789 c 7.36262,0 9.40905,3.54253 20.08554,34.77031 l 11.88768,34.77032 0.26765,-34.77032 c 0.26764,-34.75542 0.27138,-34.77031 8.74838,-34.77031 h 8.48056 v 64.68822 64.68825 l -7.6325,-1.084 c -6.37915,-0.906 -9.68389,-6.9323 -20.12673,-36.70237 l -12.49434,-35.61837 -0.22661,36.46643 -0.22639,36.46641 h -8.48057 -8.48056 z m 81.41342,0 v -64.45229 h 22.04947 c 21.25796,0 22.04947,0.30428 22.04947,8.48056 0,7.63251 -1.35689,8.48057 -13.5689,8.48057 h -13.56891 v 20.35335 20.35336 h 13.56891 c 11.30741,0 13.5689,1.13073 13.5689,6.78445 0,5.65372 -2.26149,6.78445 -13.5689,6.78445 h -13.56891 v 20.35336 20.35337 h 13.56891 c 12.21201,0 13.5689,0.848 13.5689,8.4806 0,8.1761 -0.79151,8.4805 -22.04947,8.4805 h -22.04947 z m 64.4523,0 v -64.45229 h 20.35335 c 19.44876,0 20.35336,0.37691 20.35336,8.48056 0,7.4306 -1.46995,8.48057 -11.87279,8.48057 h -11.87279 v 20.35335 20.35336 h 11.87279 c 9.6113,0 11.87279,1.29227 11.87279,6.78445 0,5.49218 -2.26149,6.78445 -11.87279,6.78445 h -11.87279 v 20.35336 20.35337 h 11.87279 c 10.40284,0 11.87279,1.0499 11.87279,8.4806 0,8.1036 -0.9046,8.4805 -20.35336,8.4805 h -20.35335 z m 57.66784,0 v -64.45229 h 22.04947 c 21.25796,0 22.04947,0.30428 22.04947,8.48056 0,7.64991 -1.34559,8.48057 -13.73818,8.48057 h -13.73821 l 1.01737,19.5053 1.01733,19.5053 12.72084,1.05284 c 9.81348,0.8122 12.72085,2.50981 12.72085,7.42772 0,4.91791 -2.90737,6.61552 -12.72085,7.42772 l -12.72084,1.05285 -0.98524,27.98591 c -0.95759,27.2003 -1.21944,27.9858 -9.32862,27.9858 H 949.8233 Z M 613.99292,790.06485 C 542.16253,760.15433 482.14693,734.45747 480.62494,732.96069 476.48089,728.8853 369.76424,470.63137 369.78772,464.73497 c 0.0204,-4.84054 106.31352,-263.52173 109.6572,-266.86541 0.87842,-0.87841 59.36972,22.38466 129.98067,51.69572 70.61099,29.31106 131.43659,53.93424 135.16803,54.71818 3.77535,0.79316 65.31409,-22.81088 138.74761,-53.21856 72.57973,-30.05414 133.05417,-53.4252 134.38757,-51.93568 1.3335,1.48953 26.8797,61.90965 56.7694,134.26694 l 54.3449,131.55869 -55.8968,134.73104 -55.8967,134.73105 -129.86728,53.63418 c -71.42698,29.4988 -132.72956,54.25567 -136.22797,55.01532 -3.4984,0.75962 -65.13104,-23.09112 -136.96143,-53.00159 z m 178.22722,-59.11348 c 96.39455,-24.60961 165.17658,-126.13426 148.11317,-218.62015 -2.71242,-14.70167 -2.4348,-19.96274 1.33749,-25.34844 10.47479,-14.9549 -1.66324,-42.60117 -18.70399,-42.60117 -3.75489,0 -8.63054,-3.43463 -10.83477,-7.63251 -53.96397,-102.77264 -214.756,-122.54282 -301.2792,-37.04378 -141.6847,140.00761 -10.19788,380.15283 181.3673,331.24605 z m -52.09228,-34.69698 c 5.96214,-14.07926 9.18537,-17.15089 25.53647,-24.33538 59.85081,-26.29769 120.35961,-85.43417 142.11311,-138.88995 l 7.4095,-18.20767 2.35268,10.71177 c 18.43343,83.92679 -73.31944,186.83431 -166.58242,186.83431 h -17.6527 z m -93.42313,-28.3489 c -68.41116,-16.0724 -67.34915,-99.30904 2.21777,-173.82373 13.65945,-14.63091 16.48615,-16.20002 25.58404,-14.20179 18.79249,4.12752 38.59847,-13.12151 35.16812,-30.6279 -0.71149,-3.63101 22.68168,-16.5424 25.27439,-13.94965 4.99407,4.99407 -11.95638,48.11896 -19.06024,48.49255 -8.9993,0.47328 -14.27418,7.42294 -11.76322,15.49813 2.56523,8.24979 -5.72876,19.71748 -14.26065,19.71748 -10.31912,0 -13.46344,10.49464 -5.15903,17.21915 8.02332,6.49689 10.10517,19.16285 4.75084,28.90427 -4.23834,7.71104 -0.21167,14.93665 8.32415,14.93665 5.26901,0 5.30467,-2.6729 -0.50612,37.96027 -6.56735,45.92368 -18.26815,57.46353 -50.57005,49.87457 z m 72.4472,-19.51686 c 0,-30.69809 3.78677,-44.5724 12.1653,-44.5724 4.31803,0 9.55492,-2.67137 11.63754,-5.93639 3.06176,-4.80003 3.4119,-3.71086 1.82916,5.68988 -7.56219,44.91592 -25.632,76.51193 -25.632,44.81891 z m 38.37072,-1.72532 c 1.27154,-3.31353 4.89919,-15.73454 8.06149,-27.60221 4.08767,-15.34056 7.60249,-22.06212 12.15981,-23.25388 4.36905,-1.14253 6.10736,-4.18488 5.45914,-9.55451 -1.33565,-11.06415 5.77669,-22.47139 14.81067,-23.75433 9.06697,-1.28762 12.64944,-15.29144 4.6929,-18.34465 -7.15844,-2.74696 -10.58669,-20.75059 -5.18963,-27.25365 3.45559,-4.16372 3.4865,-6.58554 0.15197,-11.92476 -3.87117,-6.19872 -1.11695,-51.62456 5.08902,-83.93446 3.48395,-18.13824 66.69103,-2.85246 81.63419,19.74214 5.17478,7.82441 6.78327,20.28178 7.69174,59.57034 0.31073,13.43376 -19.62206,52.87551 -38.80934,76.79393 -22.77659,28.39276 -102.05912,85.95188 -95.75209,69.51604 z m -30.80959,-79.03972 c -8.13835,-3.27445 -15.06307,-21.67537 -12.76562,-33.92189 6.49757,-34.635 59.48011,-28.92724 59.48011,6.40775 0,22.82439 -23.69053,36.77773 -46.71449,27.51414 z M 574.53397,558.076 c -17.27518,-45.0184 33.78121,-141.01962 90.18935,-169.58287 28.08855,-14.22313 95.13532,-26.49624 95.13532,-17.41481 0,22.07847 -51.66326,58.90906 -72.76617,51.87477 -13.76514,-4.58839 -29.87513,6.55585 -34.08895,23.58133 -2.36465,9.5542 -10.32566,21.18815 -26.28124,38.40648 -14.49654,15.64382 -27.85808,34.62845 -36.44136,51.77731 -9.76476,19.50937 -14.16573,25.47843 -15.74695,21.35779 z m 190.37675,-73.67884 c -1.88571,-4.28418 -6.08359,-7.57739 -9.32862,-7.31826 -7.28257,0.58153 -7.37284,2.31557 1.46238,-28.09177 10.99451,-37.83868 21.58857,-42.20234 18.20829,-7.4999 -4.24792,43.60985 -6.29523,52.10418 -10.34205,42.90993 z m 37.91613,-96.55266 c -1.24383,-1.24379 -2.2615,-4.21739 -2.2615,-6.60799 0,-4.83314 18.69405,0.0482 22.25592,5.81129 2.16014,3.49518 -16.5504,4.24076 -19.99442,0.7967 z"
       id="path1015" />
  </g>
</svg>
