<?xml version="1.0" encoding="UTF-8" standalone="no"?>
<!-- Created with Inkscape (http://www.inkscape.org/) -->

<svg
   version="1.1"
   id="svg2"
   width="2717.1731"
   height="1021.0601"
   viewBox="0 0 2717.1731 1021.0601"
   sodipodi:docname="neef.png"
   inkscape:export-filename="NEEF-02.svg"
   inkscape:export-xdpi="96"
   inkscape:export-ydpi="96"
   xmlns:inkscape="http://www.inkscape.org/namespaces/inkscape"
   xmlns:sodipodi="http://sodipodi.sourceforge.net/DTD/sodipodi-0.dtd"
   xmlns:xlink="http://www.w3.org/1999/xlink"
   xmlns="http://www.w3.org/2000/svg"
   xmlns:svg="http://www.w3.org/2000/svg">
  <defs
     id="defs6" />
  <sodipodi:namedview
     id="namedview4"
     pagecolor="#ffffff"
     bordercolor="#000000"
     borderopacity="0.25"
     inkscape:showpageshadow="2"
     inkscape:pageopacity="0.0"
     inkscape:pagecheckerboard="0"
     inkscape:deskcolor="#d1d1d1"
     showgrid="false" />
  <g
     inkscape:groupmode="layer"
     inkscape:label="Image"
     id="g8">
    <image
       width="2717.1731"
       height="1021.0601"
       preserveAspectRatio="none"
       xlink:href="neef.png"
       id="image10" />
    <path
       style="fill:#000000;stroke-width:3.39223"
       d="M 630.95405,781.51041 496.96112,725.64204 441.83745,592.52386 c -30.31802,-73.215 -55.12368,-135.09216 -55.12368,-137.50484 0,-2.41269 23.83684,-61.89202 52.97073,-132.17635 29.1339,-70.28431 53.72126,-129.69779 54.63856,-132.02994 0.91729,-2.33216 3.34263,-4.24029 5.3896,-4.24029 2.04697,0 62.77311,24.42403 134.94696,54.27562 72.17385,29.85159 132.16618,54.27562 133.31632,54.27562 1.15013,0 61.08415,-24.42403 133.1867,-54.27562 72.10258,-29.85159 132.77386,-54.2671 134.82506,-54.25669 2.0513,0.0105 28.7178,60.41141 59.2589,134.22446 l 55.5294,134.20556 -54.9915,132.91333 c -30.2453,73.10234 -56.76,134.62691 -58.9216,136.72127 -3.6045,3.4925 -267.04526,113.5452 -270.43199,112.97334 -0.81617,-0.13782 -61.78074,-25.39135 -135.47686,-56.11892 z m 174.07063,-57.19765 c 37.95219,-8.04158 71.19139,-26.18629 98.73494,-53.89776 13.58051,-13.66331 28.87704,-33.33055 35.1398,-45.18038 20.2406,-38.29756 29.45579,-92.66507 21.50329,-126.86485 -2.01688,-8.67369 -1.50737,-13.96583 1.77705,-18.45755 10.84613,-14.83295 -1.27673,-45.48025 -18.13087,-45.83596 -3.47076,-0.0733 -11.63876,-8.10824 -18.95695,-18.64819 -16.28289,-23.45137 -47.01028,-49.12313 -74.41597,-62.17225 -130.65251,-62.20971 -282.0517,33.1369 -282.0517,177.62759 0,94.75224 63.97294,172.5772 159.00823,193.43817 27.02342,5.93182 49.36723,5.92927 77.39218,-0.0102 z m -49.52494,-21.20433 c -0.79921,-1.43752 1.37487,-8.95453 4.83124,-16.70444 5.31769,-11.9233 9.64026,-15.66113 28.10222,-24.30052 62.58494,-29.28706 116.93478,-83.22135 139.28992,-138.22501 l 7.99314,-19.66663 2.36214,12.59133 c 3.96266,21.12275 -3.98101,62.38277 -17.21263,89.40351 -20.83573,42.54941 -55.86772,73.60975 -100.17718,88.81988 -20.22303,6.94196 -62.88238,12.23071 -65.18885,8.08188 z m -98.63837,-46.59328 c -16.0566,-5.72404 -31.96203,-20.20654 -38.19789,-34.78073 -14.42324,-33.70927 6.07225,-91.5683 48.50615,-136.93359 14.61781,-15.62765 16.31165,-16.49094 28.52431,-14.53803 11.35253,1.81535 14.28087,0.77895 23.30917,-8.24932 5.67903,-5.67903 10.3255,-13.91206 10.3255,-18.2956 0,-5.63191 3.48907,-9.84909 11.89308,-14.37496 6.54116,-3.52266 12.51239,-5.77792 13.26933,-5.01168 0.75694,0.76624 -1.6957,12.89015 -5.45039,26.94205 -6.33705,23.71654 -7.47114,25.54119 -15.8135,25.44169 -7.81196,-0.0933 -9.0312,1.31941 -9.32608,10.80492 -0.40303,12.96499 -5.8998,20.51557 -15.98553,21.95846 -9.93956,1.42195 -11.33268,12.05207 -2.64068,20.14986 7.96692,7.42232 9.0567,16.8595 3.05643,26.46747 -4.88524,7.82254 2.0906,18.66301 10.0454,15.61048 3.68521,-1.41415 4.45908,0.039 3.07926,5.78202 -1.01363,4.21894 -3.6788,20.46971 -5.92262,36.11279 -3.5786,24.94836 -5.37777,29.62373 -14.6475,38.06312 -11.89643,10.83077 -23.62522,12.12317 -44.02444,4.85105 z m 83.12982,-6.31833 c -2.92987,-3.53029 -3.08818,-10.92965 -0.60185,-28.12962 1.85558,-12.8366 3.40403,-24.43625 3.44097,-25.77699 0.037,-1.34071 2.55228,-1.48406 5.58961,-0.31853 3.5462,1.36079 7.7679,-0.80165 11.79735,-6.04288 8.39708,-10.92232 8.01651,-5.94311 -2.26411,29.62106 -9.64583,33.36834 -12.15309,37.64621 -17.96197,30.64696 z m 38.68807,-16.3125 c 1.40896,-4.4102 4.57099,-15.60756 7.02676,-24.88303 2.49098,-9.40854 7.74669,-19.33983 11.88778,-22.46346 4.80964,-3.62792 6.65273,-7.60571 5.23543,-11.29916 -2.94703,-7.6798 6.67295,-21.6515 15.80299,-22.95167 10.07325,-1.43451 11.75284,-14.64126 2.49233,-19.5973 -7.81127,-4.18048 -9.58432,-19.90484 -2.98817,-26.50099 3.07471,-3.07471 2.98641,-5.89999 -0.38088,-12.1919 -3.46981,-6.48335 -3.59688,-14.0314 -0.60992,-36.22629 2.07522,-15.42011 3.77313,-34.10056 3.77313,-41.51217 v -13.47562 l 24.85434,1.59503 c 17.57475,1.12788 29.00947,3.93037 39.04092,9.56835 23.83938,13.39851 26.26618,20.07258 27.63053,75.98807 0.34296,14.0543 -19.78441,54.4048 -38.61123,77.40626 -19.48569,23.80644 -50.77566,49.54364 -77.64083,63.86263 -19.90229,10.60783 -20.05291,10.6309 -17.51318,2.68125 z m -27.78627,-74.01007 c -18.80497,-7.92081 -24.21666,-35.12752 -9.84577,-49.49838 18.806,-18.80602 52.73369,-5.83283 52.73369,20.16418 0,21.62934 -23.31711,37.57762 -42.88792,29.3342 z m -156.3899,-37.47141 c 1.82471,-40.57486 6.45938,-54.99925 28.47326,-88.61723 30.41032,-46.44036 80.52243,-74.20963 133.91776,-74.20963 h 22.9419 l -6.71335,16.15412 c -6.22013,14.96725 -8.51164,16.94556 -31.1901,26.92661 -16.44493,7.23762 -29.1398,10.58416 -38.68732,10.19849 -18.46986,-0.74605 -31.58447,10.4772 -31.58447,27.0294 0,6.20482 -1.48139,11.28149 -3.29196,11.28149 -7.00423,0 -48.50459,53.5355 -61.64678,79.5244 l -13.82078,27.33073 z m 189.26054,-42.40283 c 1.54896,-8.15884 -0.62315,-11.87279 -6.94385,-11.87279 -8.31703,0 -8.33779,1.39573 0.45649,-30.69378 5.2609,-19.19661 8.97128,-26.87403 13.5689,-28.07633 3.48402,-0.91109 6.32365,0.10821 6.3184,2.2679 -0.036,14.83635 -7.98649,65.61075 -10.70631,68.375 -2.2251,2.2615 -3.12295,2.2615 -2.69363,0 z m 37.15508,-106.68069 c 0,-5.86774 1.13796,-6.20927 10.18292,-3.05616 14.33525,4.99726 14.77244,7.83292 1.3593,8.81609 -9.46641,0.69388 -11.54222,-0.34204 -11.54222,-5.75993 z m 720.65369,317.27607 c -3.6187,-2.64604 -5.4115,-5.9789 -3.984,-7.40635 1.4274,-1.42745 4.4017,-0.78903 6.6095,1.41876 9.1442,9.14426 29.795,2.62253 29.795,-9.40962 0,-4.15745 -3.1638,-5.03074 -14.8562,-4.10083 -12.4333,0.98887 -15.7527,-0.0984 -20.3533,-6.66674 -7.9555,-11.35803 -7.0658,-33.95968 1.7795,-45.20461 6.0622,-7.7069 9.0345,-8.89855 17.8092,-7.14006 5.7928,1.16089 13.2038,2.15977 16.4689,2.21971 5.2481,0.0963 5.9364,4.01724 5.9364,33.82039 0,29.18848 -0.9103,34.62167 -6.7845,40.49589 -7.9167,7.91674 -23.0341,8.83695 -32.4205,1.97346 z m 25.0478,-27.72419 c 6.5949,-4.6192 7.5596,-7.91088 6.6912,-22.83179 -0.9155,-15.73124 -1.9606,-17.76556 -10.6983,-20.82403 -8.3259,-2.91436 -10.5851,-2.27635 -16.1131,4.55034 -8.4978,10.49432 -8.3232,29.04013 0.3551,37.7184 8.1886,8.18863 9.8846,8.30766 19.7651,1.38708 z m -303.259,-1.85711 c -7.328,-14.17065 -4.596,-36.27236 5.4935,-44.4423 8.5301,-6.90725 20.4304,-7.76725 26.2972,-1.90039 3.1661,3.16606 4.0707,0.52769 4.0707,-11.8728 0,-8.7689 1.5265,-15.94346 3.3922,-15.94346 2.0783,0 3.3922,16.22129 3.3922,41.87944 v 41.87944 l -18.5276,0.60545 c -17.6429,0.57651 -18.7947,0.0892 -24.1182,-10.20538 z m 29.2999,3.74292 c 5.2117,-2.78916 6.5615,-7.18572 6.5615,-21.37103 0,-19.32561 -3.9865,-26.0008 -15.5281,-26.0008 -18.9636,0 -24.1818,36.7223 -6.8616,48.28729 5.0688,3.38452 8.1238,3.20782 15.8282,-0.91546 z m 35.0731,-0.23678 c -9.6518,-10.66513 -8.7422,-33.98472 1.7617,-45.16563 4.5231,-4.81465 11.8434,-8.75388 16.2673,-8.75388 9.8731,0 24.6961,14.15997 24.6961,23.59141 0,6.21141 -2.1122,6.93863 -20.1531,6.93863 -22.1953,0 -24.5194,1.4628 -20.2544,12.74843 4.5448,12.02598 17.8911,16.587 28.3958,9.70404 7.0373,-4.61106 8.6195,-4.76598 8.6195,-0.84412 0,11.09695 -29.6856,12.44119 -39.3329,1.78108 z m 35.9407,-29.41912 c 0,-6.13535 -11.0546,-17.71593 -16.9112,-17.71593 -7.5168,0 -17.0111,8.65502 -17.0111,15.50732 0,3.55377 4.523,4.84603 16.9612,4.84603 9.3286,0 16.9611,-1.18683 16.9611,-2.63742 z m 47.4912,-4.14703 v -40.70671 h 25.4417 c 14.6996,0 25.4416,1.43226 25.4416,3.39222 0,1.91356 -9.6113,3.39223 -22.0494,3.39223 h -22.0495 v 15.26502 15.26502 h 18.6573 c 10.2614,0 18.6572,1.5265 18.6572,3.39222 0,1.86573 -8.3958,3.39223 -18.6572,3.39223 h -18.6573 v 15.26502 15.26501 H 1440 c 12.4381,0 22.0494,1.47868 22.0494,3.39223 0,1.95996 -10.742,3.39223 -25.4416,3.39223 h -25.4417 z m 64.986,13.44777 c -0.4667,-25.31815 0.212,-29.02901 5.4026,-29.54371 3.2651,-0.32362 10.709,-1.55971 16.5422,-2.74655 15.5263,-3.15908 21.6204,7.14562 21.6204,36.55843 0,13.0657 -1.4644,22.99078 -3.3922,22.99078 -1.8887,0 -3.3923,-9.12027 -3.3923,-20.57637 0,-31.21187 -8.8368,-41.16744 -25.6414,-28.88741 -4.9681,3.63056 -7.0783,10.50107 -8.5951,27.98586 l -2.0105,23.17403 z m 125.2248,18.32091 c -8.2456,-10.48256 -9.0217,-24.86299 -2.0678,-38.31052 11.0115,-21.29375 38.4489,-16.77564 43.8903,7.22741 2.0675,9.11997 1.9723,9.17122 -18.8781,10.17668 -12.7028,0.61257 -21.4947,2.64254 -22.3238,5.15445 -2.2158,6.71251 15.4794,22.28588 22.1816,19.52186 3.182,-1.31232 8.8385,-3.2408 12.57,-4.28554 5.9918,-1.67759 6.2405,-1.23629 2.1288,3.77711 -7.6579,9.33721 -29.0546,7.47633 -37.501,-3.26145 z m 33.6761,-31.09023 c 0,-14.80039 -19.7359,-19.4227 -28.6416,-6.7081 -7.9952,11.41484 -6.7198,12.8141 11.6804,12.8141 14.0715,0 16.9612,-1.04029 16.9612,-6.106 z m 20.3533,11.55321 c 0,-27.2425 0.3304,-28.47883 7.6325,-28.5619 4.1979,-0.0478 11.4488,-1.06167 16.1131,-2.25312 15.4602,-3.94916 21.1045,4.23387 22.97,33.30169 1.159,18.06041 0.4969,25.98839 -2.1705,25.98839 -2.3855,0 -3.8384,-6.97846 -3.8384,-18.43641 0,-25.18735 -4.4548,-35.83921 -14.9887,-35.83921 -12.4684,0 -18.9335,11.84083 -18.9335,34.67706 0,10.80421 -1.5222,19.59856 -3.3922,19.59856 -1.9921,0 -3.3923,-11.75319 -3.3923,-28.47506 z m 65.5975,-13.92777 c 0.043,-24.25442 0.6547,-36.71885 1.36,-27.69875 1.0849,13.87604 2.1655,16.02111 7.021,13.9372 25.1246,-10.78297 34.5728,-1.71718 34.5728,33.1736 0,13.0657 -1.4645,22.99078 -3.3923,22.99078 -1.8886,0 -3.3922,-9.12027 -3.3922,-20.57637 0,-31.21187 -8.8369,-41.16744 -25.6414,-28.88741 -4.9682,3.63056 -7.0783,10.50107 -8.5952,27.98586 -1.484,17.1069 -1.9901,11.62859 -1.9327,-20.92491 z m 60.589,38.32781 c -11.7802,-11.78018 0.807,-29.84725 20.7944,-29.84725 10.874,0 12.4538,-1.02967 12.4538,-8.11763 0,-12.33763 -20.4538,-17.51545 -26.5015,-6.70877 -1.7012,3.03981 -5.1163,4.85251 -7.5891,4.02827 -7.6212,-2.5404 9.1623,-16.33968 19.8733,-16.33968 16.5296,0 20.3046,5.93423 21.5827,33.92708 l 1.1618,25.44652 -18.8545,0.8389 c -11.2166,0.49906 -20.5018,-0.80837 -22.9209,-3.22744 z m 25.7089,-4.59789 c 8.2753,-5.79626 10.4482,-21.85713 2.9571,-21.85713 -2.5201,0 -9.3894,1.67583 -15.265,3.72409 -11.9742,4.1742 -14.3703,14.14439 -4.7465,19.74978 7.8405,4.56665 8.2868,4.52434 17.0544,-1.61674 z m 35.2108,-19.20651 c -0.4348,-24.09329 0.3458,-29.23797 4.2115,-27.75459 2.6099,1.00149 5.7529,0.19031 6.9846,-1.80259 2.8322,-4.58253 15.408,-4.77127 15.408,-0.23125 0,1.86572 -1.998,3.39223 -4.44,3.39223 -11.8624,0 -17.6078,9.60437 -19.6199,32.7977 l -2.0105,23.17403 z m 36.7808,-0.95451 c 0,-16.96113 1.3967,-28.83392 3.3922,-28.83392 1.9954,0 3.3922,11.87279 3.3922,28.83392 0,16.96113 -1.3968,28.83393 -3.3922,28.83393 -1.9955,0 -3.3922,-11.8728 -3.3922,-28.83393 z m 23.8649,22.27248 c -1.9314,-3.60879 -3.5116,-8.86497 -3.5116,-11.68042 0,-7.94911 13.7526,-15.6804 27.8926,-15.6804 13.3451,0 15.2067,-2.75998 9.3026,-13.79191 -4.3083,-8.05012 -15.8692,-8.49318 -24.228,-0.92852 -3.4234,3.09809 -7.3598,4.49318 -8.7477,3.10023 -3.837,-3.85123 12.4007,-15.51761 21.598,-15.51761 15.3165,0 21.6737,10.94478 21.6737,37.31449 0,13.56891 -1.4538,23.74559 -3.3922,23.74559 -1.8658,0 -3.3923,-1.83181 -3.3923,-4.07067 0,-3.16607 -0.9046,-3.16607 -4.0706,0 -6.766,6.76593 -29.068,5.08895 -33.1245,-2.49078 z m 33.1186,-4.58161 c 2.4221,-1.94056 3.9486,-6.71488 3.3922,-10.60956 -0.8091,-5.66271 -3.2391,-6.97906 -12.1301,-6.57095 -10.878,0.49934 -21.1078,6.08993 -21.1078,11.53551 0,1.50401 2.4506,5.18515 5.4457,8.18035 5.5516,5.55155 15.6105,4.50634 24.4,-2.53535 z m 54.9599,-29.56366 v -40.70671 h 25.4417 c 30.7043,0 34.1363,6.04654 4.2403,7.47063 l -21.2014,1.00993 -1.0431,14.41696 -1.0431,14.41697 h 18.8523 c 23.932,0 24.7838,6.0884 1.0431,7.45523 l -17.8092,1.02533 -1.0254,17.80919 c -0.5639,9.79505 -2.472,17.80919 -4.2402,17.80919 -1.8465,0 -3.215,-17.32682 -3.215,-40.70672 z m 64.4523,11.87279 c 0,-16.96113 1.3968,-28.83392 3.3922,-28.83392 1.9955,0 3.3923,11.87279 3.3923,28.83392 0,16.96113 -1.3968,28.83393 -3.3923,28.83393 -1.9954,0 -3.3922,-11.8728 -3.3922,-28.83393 z m 25.684,23.50328 c -2.9319,-2.93183 -5.3306,-6.74809 -5.3306,-8.48057 0,-5.02493 6.809,-3.6408 8.9004,1.80928 2.6928,7.0175 13.3642,9.64102 21.5015,5.28608 11.5852,-6.20025 8.0302,-13.54903 -10.2243,-21.13524 -15.8395,-6.58261 -17.0594,-7.91203 -16.1131,-17.55996 0.7578,-7.72562 3.3242,-11.2419 9.8761,-13.53091 10.9109,-3.81198 26.379,-0.2897 29.0265,6.60985 3.046,7.93771 -1.5363,9.94001 -8.4431,3.68942 -7.9454,-7.19046 -19.6086,-7.25027 -22.3468,-0.11465 -2.7587,7.18887 2.7778,13.59607 14.2327,16.47105 5.0438,1.26591 11.0872,3.89235 13.4298,5.83653 6.0997,5.06229 5.3349,21.91884 -1.1066,24.39069 -10.0219,3.8458 -28.0509,2.07994 -33.4025,-3.2716 z m 55.7294,-23.50328 c 0,-16.96113 1.3968,-28.83392 3.3923,-28.83392 1.9954,0 3.3922,11.87279 3.3922,28.83392 0,16.96113 -1.3968,28.83393 -3.3922,28.83393 -1.9955,0 -3.3923,-11.8728 -3.3923,-28.83393 z m 29.256,23.68303 c -13.382,-13.38195 -10.3329,-43.56076 5.2834,-52.29367 10.4391,-5.83772 25.0616,-2.43471 31.1377,7.24654 5.494,8.75394 -0.6195,11.86506 -6.5835,3.35026 -5.8186,-8.30722 -18.956,-9.82846 -24.7358,-2.86426 -6.311,7.60429 -8.186,24.59927 -3.661,33.18452 7.8839,14.95836 16.4551,16.8668 27.2538,6.06815 7.9418,-7.94184 13.287,-5.87526 7.7324,2.98954 -5.0239,8.01783 -29.1897,9.55624 -36.427,2.31892 z m 52.2768,-1.41055 c -4.9886,-9.3214 -4.4225,-12.881 3.2729,-20.57636 4.5229,-4.52296 11.3074,-6.78446 20.3533,-6.78446 10.8049,0 13.569,-1.24382 13.569,-6.106 0,-13.7662 -16.4144,-18.86363 -27.7396,-8.61443 -3.4234,3.09809 -7.3598,4.49318 -8.7477,3.10023 -3.6722,-3.68583 12.2202,-15.51761 20.8433,-15.51761 4.0424,0 10.7426,2.37633 14.8891,5.28068 6.6427,4.65268 7.5393,8.28358 7.5393,30.53004 0,14.57141 -1.4346,25.24936 -3.3922,25.24936 -1.8657,0 -3.3922,-1.83181 -3.3922,-4.07067 0,-3.16607 -0.9047,-3.16607 -4.0707,0 -6.766,6.76593 -29.0679,5.08895 -33.1245,-2.49078 z m 32.9549,-4.44575 c 6.9624,-5.57031 5.302,-19.52284 -2.3234,-19.52284 -11.895,0 -23.9664,6.45035 -23.9664,12.8065 0,13.28861 13.7001,16.78864 26.2898,6.71634 z M 2055.689,600.94981 c 0,-3.83671 13.1815,-15.61289 15.2078,-13.58651 2.2453,2.24531 -8.1239,16.45297 -12.0079,16.45297 -1.76,0 -3.1999,-1.28993 -3.1999,-2.86646 z m -176.3957,-5.6141 c 0,-2.79859 1.5265,-5.08834 3.3922,-5.08834 1.8657,0 3.3922,2.28975 3.3922,5.08834 0,2.79858 -1.5265,5.08834 -3.3922,5.08834 -1.8657,0 -3.3922,-2.28976 -3.3922,-5.08834 z m 257.8091,0 c 0,-2.79859 1.5265,-5.08834 3.3923,-5.08834 1.8657,0 3.3922,2.28975 3.3922,5.08834 0,2.79858 -1.5265,5.08834 -3.3922,5.08834 -1.8658,0 -3.3923,-2.28976 -3.3923,-5.08834 z m -875.1943,-76.32509 c 0,-30.36647 1.0771,-40.6769 4.2403,-40.58942 2.3321,0.0645 14.1625,14.94619 26.2897,33.07038 l 22.0495,32.953 0.9709,-33.07034 c 1.4017,-47.74569 7.5097,-41.53469 7.5097,7.63638 0,24.1578 -1.3435,40.70671 -3.3048,40.70671 -1.8176,0 -12.4668,-13.626 -23.6649,-30.27999 -11.1982,-16.65404 -21.923,-31.24587 -23.8331,-32.42636 -2.2765,-1.40693 -3.4728,9.0244 -3.4728,30.27999 0,19.35608 -1.3674,32.42636 -3.3923,32.42636 -2.073,0 -3.3922,-15.8304 -3.3922,-40.70671 z m 84.4431,35.18152 c -5.5403,-6.6757 -8.8688,-55.53488 -3.7833,-55.53488 1.8592,0 3.9934,10.85193 4.7429,24.1154 1.4386,25.45985 7.4647,35.21708 19.238,31.14932 10.4802,-3.62096 14.0872,-12.2918 14.0872,-33.86361 0,-12.00593 1.4892,-21.40111 3.3922,-21.40111 2.0041,0 3.3923,12.19532 3.3923,29.80155 v 29.80159 l -18.2139,0.76217 c -13.4657,0.56348 -19.424,-0.69578 -22.8554,-4.83043 z m 61.4226,-1.25926 c -10.0812,-10.08126 -9.4689,-37.00213 1.0667,-46.89987 4.3181,-4.05666 11.9507,-7.37575 16.9611,-7.37575 8.9389,0 22.6789,10.27593 22.6789,16.96113 0,5.60056 -4.8727,3.84014 -9.3894,-3.39223 -5.0696,-8.11776 -18.5676,-8.87291 -25.9866,-1.4538 -6.3771,6.37708 -7.0497,28.55359 -1.0904,35.94979 7.7914,9.66998 15.9964,10.02803 24.9362,1.0882 9.6492,-9.64916 11.5302,-10.28279 11.5302,-3.8838 0,14.72057 -28.653,21.05999 -40.7067,9.00633 z m 54.2756,-35.61838 c 0,-26.00708 1.3117,-42.40283 3.3923,-42.40283 2.0805,0 3.3922,16.39575 3.3922,42.40283 0,26.00708 -1.3117,42.40283 -3.3922,42.40283 -2.0806,0 -3.3923,-16.39575 -3.3923,-42.40283 z m 31.4203,37.217 c -14.5563,-10.19561 -12.7771,-44.30488 2.7442,-52.61167 15.7076,-8.40641 30.8104,-0.77027 35.4796,17.93884 l 2.3282,9.32862 h -20.5209 c -22.3049,0 -26.655,2.85541 -20.8564,13.69015 5.5827,10.43147 17.0298,13.78068 26.5191,7.75904 9.2461,-5.8673 13.6092,-3.56357 7.4063,3.91052 -5.5246,6.65674 -23.5862,6.64829 -33.1001,-0.017 z m 30.9943,-31.57583 c 0.9651,-1.56168 -0.5579,-6.14118 -3.3844,-10.17668 -8.7839,-12.54078 -28.5001,-7.76043 -28.5001,6.91007 0,4.96323 2.8194,6.10601 15.0648,6.10601 8.2856,0 15.8545,-1.27772 16.8197,-2.8394 z m 25.8696,30.06351 c -9.2767,-9.27672 -11.6202,-21.31353 -6.9216,-35.55057 10.1494,-30.75304 50.9343,-21.85927 50.9343,11.10703 0,26.77525 -26.798,41.65817 -44.0127,24.44354 z m 35.3389,-14.89218 c 3.7299,-10.42333 -0.4646,-25.17863 -8.6104,-30.28926 -9.639,-6.04746 -22.551,-0.0505 -26.653,12.37885 -10.1222,30.67047 24.4194,48.21425 35.2634,17.91041 z m 54.266,14.58175 c -8.9988,-9.9436 -9.0678,-37.02313 -0.1194,-46.91089 6.7855,-7.49794 20.5414,-9.28635 29.1562,-3.79064 4.187,2.67107 5.4446,0.40852 7.0996,-12.77279 1.2791,-10.18746 2.205,-0.58281 2.5435,26.38396 l 0.5323,42.40283 -16.3153,0.98008 c -13.1449,0.78964 -17.5941,-0.43312 -22.8968,-6.29255 z m 31.5809,-5.9866 c 10.5406,-13.08202 0.8448,-41.28044 -14.1939,-41.28044 -10.9949,0 -17.03,8.69516 -17.03,24.53621 0,22.09011 18.7954,32.1694 31.2239,16.74423 z m 34.1767,9.47364 c -14.1628,-8.26356 -14.4079,-42.08419 -0.382,-52.7231 6.6037,-5.00903 20.8143,-6.18769 26.7576,-2.21933 5.0462,3.3695 11.5325,16.09317 11.5325,22.62259 0,4.22431 -4.1246,5.31134 -20.1531,5.31134 -11.0843,0 -20.9134,1.23013 -21.8426,2.73356 -2.8646,4.6349 5.9796,18.46277 13.5844,21.23944 4.4092,1.60989 10.6645,0.83771 16.1131,-1.98903 7.3748,-3.82609 8.906,-3.84264 8.906,-0.0963 0,8.41004 -23.0241,11.82588 -34.5159,5.1208 z m 30.1619,-35.94338 c 1.946,-5.91893 -8.7515,-14.8107 -17.8184,-14.8107 -7.6615,0 -15.1421,8.36089 -15.1421,16.92399 0,5.05194 31.2637,3.04744 32.9605,-2.11329 z m 48.4529,-1.24179 V 478.3039 h 25.4417 c 14.6997,0 25.4417,1.43227 25.4417,3.39223 0,1.91355 -9.6113,3.39222 -22.0495,3.39222 h -22.0494 v 15.26502 15.26502 h 18.6572 c 10.2615,0 18.6573,1.5265 18.6573,3.39223 0,1.86572 -8.3958,3.39222 -18.6573,3.39222 h -18.6572 v 15.26502 15.26502 h 22.0494 c 12.4382,0 22.0495,1.47867 22.0495,3.39222 0,1.95996 -10.742,3.39223 -25.4417,3.39223 h -25.4417 z m 66.9965,37.04277 c -6.3481,-3.69743 -8.1849,-13.29719 -2.5442,-13.29719 1.8657,0 3.3922,1.57569 3.3922,3.50152 0,4.60743 13.4431,9.46513 20.8403,7.53075 7.4841,-1.95715 10.833,-10.65577 6.2352,-16.19571 -1.9644,-2.36696 -8.9302,-5.30884 -15.4796,-6.5375 -15.7838,-2.96104 -22.353,-15.60122 -13.3044,-25.59978 8.1041,-8.95493 25.8464,-8.95127 33.9535,0.007 7.8701,8.69638 3.8443,13.16852 -4.8066,5.33953 -8.8285,-7.98964 -22.0438,-5.81794 -23.4183,3.84838 -0.8306,5.84145 1.0559,8.00637 8.4806,9.7322 32.2462,7.49549 33.9513,35.57512 2.1393,35.23156 -5.2534,-0.0566 -12.223,-1.65907 -15.488,-3.56079 z m 58.6352,-2.89751 c -1.9313,-3.60878 -3.5115,-15.8208 -3.5115,-27.13781 0,-16.02861 -1.1247,-20.57636 -5.0884,-20.57636 -2.7986,0 -5.0883,-1.5265 -5.0883,-3.39223 0,-1.86572 2.2897,-3.39222 5.0883,-3.39222 2.8269,0 5.0884,-3.01532 5.0884,-6.78445 0,-3.73145 1.5265,-6.78446 3.3922,-6.78446 1.8657,0 3.3922,3.05301 3.3922,6.78446 0,4.52295 2.2615,6.78445 6.7845,6.78445 3.7314,0 6.7844,1.5265 6.7844,3.39222 0,1.86573 -3.053,3.39223 -6.7844,3.39223 -5.8388,0 -6.778,2.24606 -6.7382,16.11308 0.06,20.94184 2.997,31.37809 8.8299,31.37809 2.581,0 4.6927,1.5265 4.6927,3.39222 0,6.06568 -13.232,3.57575 -16.8418,-3.16922 z m 33.9656,0.0811 c -4.5599,-8.52036 -4.6972,-54.5797 -0.1626,-54.5797 1.9091,0 3.3922,9.51882 3.3922,21.77202 0,27.73281 1.9453,32.5036 13.2534,32.5036 14.0407,0 17.2766,-5.84535 17.2766,-31.20848 0,-13.11662 1.4633,-23.06714 3.3922,-23.06714 2.0059,0 3.3923,12.26371 3.3923,30.00665 v 30.00665 l -18.4946,0.60436 c -15.261,0.49869 -19.1161,-0.55697 -22.0495,-6.03806 z m 63.1193,0.2768 c -8.5753,-9.4756 -7.6255,-39.27631 1.5441,-48.44591 5.791,-5.79097 9.6786,-6.75521 20.3534,-5.04824 l 13.1951,2.11 v -13.609 c 0,-7.48495 1.5265,-13.609 3.3922,-13.609 2.0806,0 3.3923,16.39575 3.3923,42.40282 0,26.00708 -1.3117,42.40283 -3.3923,42.40283 -1.8657,0 -3.3922,-1.8318 -3.3922,-4.07067 0,-3.16607 -0.9046,-3.16607 -4.0707,0 -6.179,6.17904 -24.649,4.9092 -31.0219,-2.13283 z m 31.581,-7.1424 c 9.1226,-17.04556 0.3736,-40.92965 -14.993,-40.92965 -11.1185,0 -15.4177,6.62132 -15.4177,23.74558 0,8.58234 1.8318,17.43605 4.0707,19.67492 6.4502,6.45021 22.3601,4.94573 26.34,-2.49078 z m 27.9313,9.27089 c -2.2365,-2.23643 -4.0663,-8.28677 -4.0663,-13.44516 0,-11.20076 8.0685,-16.40202 25.444,-16.40202 11.4399,0 12.2443,-0.66715 11.2477,-9.32862 -0.8949,-7.77784 -2.91,-9.50563 -12.1214,-10.39334 -7.609,-0.7333 -11.6817,0.58661 -13.0838,4.24028 -2.1878,5.70131 -11.4865,7.4055 -11.4865,2.10511 0,-5.36684 14.5497,-13.76124 23.852,-13.76124 15.7358,0 19.5635,6.23511 20.8279,33.92708 l 1.1618,25.44651 -18.8545,0.8389 c -11.2166,0.49906 -20.5018,-0.80837 -22.9209,-3.22743 z m 29.1775,-6.78004 c 2.2388,-2.23887 4.0707,-7.78136 4.0707,-12.31663 0,-7.59964 -0.9742,-8.08789 -12.4281,-6.22918 -15.3702,2.49423 -19.4303,6.30275 -16.5143,15.49056 2.5551,8.0502 17.9817,9.94523 24.8717,3.05525 z m 31.7941,-19.67492 c -0.3188,-21.33109 0.5998,-30.51545 2.7173,-27.16616 2.5477,4.02982 4.0565,4.20249 7.4109,0.84805 6.8706,-6.87061 22.2356,-5.05153 28.1044,3.32733 6.0037,8.57145 7.5897,53.52082 1.8885,53.52082 -1.8887,0 -3.3923,-9.12027 -3.3923,-20.57636 0,-24.38444 -4.1376,-33.69926 -14.969,-33.69926 -11.9712,0 -17.0461,8.84564 -19.2675,33.58328 -1.9388,21.59091 -2.0276,21.24046 -2.4923,-9.8377 z m 66.1282,28.26855 c -1.2439,-1.2438 -2.2615,-13.45581 -2.2615,-27.13781 0,-19.8508 -1.028,-24.87632 -5.0884,-24.87632 -2.7986,0 -5.0883,-1.5265 -5.0883,-3.39223 0,-1.86572 2.2897,-3.39222 5.0883,-3.39222 2.8269,0 5.0884,-3.01532 5.0884,-6.78445 0,-3.73145 1.5265,-6.78446 3.3922,-6.78446 1.8657,0 3.3922,3.05301 3.3922,6.78446 0,3.76913 2.2615,6.78445 5.0883,6.78445 2.7986,0 5.0884,1.5265 5.0884,3.39222 0,1.86573 -2.2898,3.39223 -5.0884,3.39223 -4.0383,0 -5.0883,4.89987 -5.0883,23.74558 0,21.48409 0.6462,23.74559 6.7845,23.74559 3.7314,0 6.7844,1.5265 6.7844,3.39222 0,3.77314 -14.5407,4.68192 -18.0918,1.13074 z m 35.9432,-2.92434 c -14.5563,-10.19561 -12.7771,-44.30488 2.7442,-52.61167 15.6943,-8.39935 37.0723,3.67609 37.0723,20.94049 0,5.4645 -2.7472,6.32697 -20.1532,6.32697 -22.2152,0 -24.5208,1.45853 -20.2351,12.80064 4.0971,10.84284 16.1292,14.64953 27.6674,8.75333 9.6141,-4.91296 12.4399,-2.27659 5.258,4.9054 -5.6907,5.6907 -23.514,5.07636 -32.3536,-1.11516 z m 30.9942,-31.57583 c 0.9652,-1.56168 -0.5578,-6.14118 -3.3844,-10.17668 -8.7839,-12.54078 -28.5001,-7.76043 -28.5001,6.91007 0,4.96323 2.8195,6.10601 15.0649,6.10601 8.2856,0 15.8545,-1.27772 16.8196,-2.8394 z m 24.9353,33.09772 c -3.265,-1.90169 -5.9364,-5.67153 -5.9364,-8.37741 0,-6.47688 3.3767,-6.23786 8.3712,0.59259 4.7994,6.56358 21.8067,7.33067 25.623,1.15566 4.5791,-7.40903 -0.1981,-13.21794 -14.3594,-17.46077 -17.3033,-5.18421 -23.5551,-16.56723 -14.5589,-26.50798 8.1041,-8.95493 25.8464,-8.95127 33.9536,0.007 7.8701,8.69638 3.8443,13.16852 -4.8067,5.33953 -8.8284,-7.98964 -22.0437,-5.81794 -23.4183,3.84838 -0.8306,5.84145 1.0559,8.00637 8.4806,9.7322 32.2463,7.49549 33.9513,35.57512 2.1394,35.23156 -5.2535,-0.0566 -12.2231,-1.65907 -15.4881,-3.56079 z m -921.9385,-70.77612 c 4.1653,-7.78296 9.9163,-11.85784 12.7442,-9.02997 2.3631,2.36322 -8.9153,15.62551 -13.2882,15.62551 -1.6422,0 -1.3974,-2.968 0.544,-6.59554 z M 1251.7314,344.31096 v -62.75618 h 9.4442 c 8.9816,0 10.0471,1.78616 21.755,36.46643 l 12.3109,36.46643 0.2945,-36.46643 0.2944,-36.46643 h 8.4805 8.4806 v 62.9815 62.98149 l -9.067,-1.07337 c -8.2591,-0.97774 -10.1482,-4.24703 -21.2014,-36.69174 l -12.1344,-35.61837 -0.9628,36.46643 c -0.957,36.24237 -1.0143,36.46643 -9.3287,36.46643 h -8.3658 z m 81.4135,0 v -62.75618 h 22.0494 c 19.5593,0 22.0495,0.7431 22.0495,6.57968 0,5.15453 -2.7553,6.80772 -12.7209,7.63251 l -12.7208,1.05283 v 18.65724 18.65725 l 12.7208,1.05282 c 10.9358,0.90509 12.7209,2.21414 12.7209,9.32864 0,7.3936 -1.4464,8.27578 -13.5689,8.27578 h -13.5689 v 18.65724 18.65725 h 13.5689 c 12.212,0 13.5689,0.84805 13.5689,8.48056 0,8.17615 -0.7915,8.48057 -22.0495,8.48057 h -22.0494 z m 64.4523,0 v -62.75618 h 22.0494 c 19.5593,0 22.0495,0.7431 22.0495,6.57968 0,5.15453 -2.7553,6.80772 -12.7209,7.63251 l -12.7208,1.05283 -1.0173,19.5053 -1.0174,19.5053 h 13.7382 c 12.3926,0 13.7382,0.83064 13.7382,8.48056 0,7.63251 -1.3569,8.48057 -13.5689,8.48057 h -13.5689 v 18.65724 18.65725 h 13.5689 c 12.212,0 13.5689,0.84805 13.5689,8.48056 0,8.17615 -0.7915,8.48057 -22.0495,8.48057 h -22.0494 z m 61.06,0 v -62.75618 h 22.0495 c 19.788,0 22.0495,0.69584 22.0495,6.78445 0,5.65371 -2.2615,6.78445 -13.5689,6.78445 h -13.5689 v 20.35336 20.35336 h 13.5689 c 12.212,0 13.5689,0.84805 13.5689,8.48056 0,7.63251 -1.3569,8.48057 -13.5689,8.48057 h -13.5689 v 27.13781 c 0,26.68552 -0.1415,27.13781 -8.4806,27.13781 h -8.4806 z"
       id="path116" />
  </g>
</svg>
