<?xml version="1.0" encoding="UTF-8" standalone="no"?>
<!-- Created with Inkscape (http://www.inkscape.org/) -->

<svg
   version="1.1"
   id="svg953"
   width="1495.9717"
   height="1224.5936"
   viewBox="0 0 1495.9717 1224.5936"
   xmlns:inkscape="http://www.inkscape.org/namespaces/inkscape"
   xmlns:sodipodi="http://sodipodi.sourceforge.net/DTD/sodipodi-0.dtd"
   xmlns:xlink="http://www.w3.org/1999/xlink"
   xmlns="http://www.w3.org/2000/svg"
   xmlns:svg="http://www.w3.org/2000/svg">
  <defs
     id="defs957" />
  <sodipodi:namedview
     id="namedview955"
     pagecolor="#ffffff"
     bordercolor="#000000"
     borderopacity="0.25"
     inkscape:showpageshadow="2"
     inkscape:pageopacity="0.0"
     inkscape:pagecheckerboard="0"
     inkscape:deskcolor="#d1d1d1"
     showgrid="false" />
  <g
     inkscape:groupmode="layer"
     inkscape:label="Image"
     id="g959">
    <image
       width="1495.9717"
       height="1224.5936"
       preserveAspectRatio="none"
       id="image961" />
    <path
       style="fill:#000000;stroke-width:3.39223"
       d="m 739.50528,966.78442 v -64.45229 h 9.44417 c 8.98156,0 10.04712,1.78617 21.75505,36.46643 l 12.3109,36.46643 0.29445,-36.46643 0.29437,-36.46643 h 8.48057 8.48056 v 64.6776 64.67757 l -9.0648,-1.0733 c -8.28636,-0.9812 -10.15701,-4.2779 -21.78274,-38.38788 l -12.7179,-37.31449 -0.26663,38.16254 -0.26686,38.16253 h -8.48057 -8.48057 z m 81.41343,0 v -64.45229 h 22.04947 c 21.25796,0 22.04947,0.30428 22.04947,8.48056 0,7.63251 -1.35689,8.48057 -13.5689,8.48057 h -13.56891 v 18.65724 18.65724 h 13.56891 c 12.21201,0 13.5689,0.84806 13.5689,8.48057 0,7.63251 -1.35689,8.48056 -13.5689,8.48056 h -13.56891 v 20.35336 20.35337 h 13.56891 c 12.21201,0 13.5689,0.848 13.5689,8.4806 0,8.1761 -0.79151,8.4805 -22.04947,8.4805 h -22.04947 z m 61.06007,0 v -64.45229 l 9.32862,0.097 c 7.95637,0.0828 11.53435,3.80215 24.32325,25.28491 17.35306,29.14964 15.54114,29.23302 34.15374,-1.57192 11.36491,-18.80956 16.0855,-23.80997 22.47757,-23.80997 h 8.09138 v 64.45229 64.45226 h -8.48057 -8.48056 V 986.47623 941.7157 l -15.74617,22.80567 -15.74618,22.80566 -15.63192,-22.99214 -15.63192,-22.99216 -0.94653,44.94699 -0.9465,44.94698 h -8.38212 -8.38209 z m 127.05432,56.12588 c -13.37394,-13.3739 -12.89153,-102.92595 0.6116,-113.54751 32.1649,-25.30089 50.4259,-4.30111 50.4259,57.98864 v 47.51157 l -9.5177,8.1868 c -12.8318,11.0374 -30.402,10.9784 -41.5198,-0.1394 z m 32.4643,-17.3361 c 11.3619,-29.8842 1.9824,-87.98883 -13.843,-85.75505 -9.8291,1.38739 -15.213,85.65475 -5.852,91.59475 8.2897,5.2603 16.3877,2.8591 19.695,-5.8397 z m 45.0522,17.4756 -9.5178,-8.1868 v -47.51157 c 0,-45.61475 0.3283,-47.86109 8.2238,-56.26546 18.0616,-19.22565 51.1401,-6.33715 51.1401,19.9259 0,17.29082 -15.9362,18.19862 -17.5942,1.00223 -1.2701,-13.17296 -14.5665,-17.5739 -22.0744,-7.30631 -5.4252,7.41951 -6.1536,73.22486 -0.9187,83.00631 8.6836,16.2255 23.6262,4.9282 23.6262,-17.86254 0,-14.02119 -0.9423,-16.28269 -6.7844,-16.28269 -4.9753,0 -6.7845,-2.26149 -6.7845,-8.48056 0,-7.78957 1.2438,-8.48057 15.265,-8.48057 h 15.265 v 28.9881 c 0,42.90086 -23.2253,60.35226 -49.8461,37.45396 z M 603.81624,788.07317 469.82331,732.21416 416.47866,602.71485 C 387.13909,531.49021 362.22794,470.6948 361.12051,467.61392 c -1.57677,-4.3867 93.383,-241.50693 107.29645,-267.92567 2.52762,-4.79939 20.85459,1.88896 136.86506,49.94828 l 133.94666,55.48969 131.58706,-54.43406 c 72.37288,-29.93874 132.99016,-54.70522 134.70516,-55.03662 2.5955,-0.50157 32.5936,69.32916 103.9516,241.983 l 10.5321,25.48312 -54.7134,132.25539 c -30.0924,72.74049 -56.5528,133.97322 -58.8009,136.07274 -3.2022,2.99055 -251.31391,107.2304 -265.2889,111.45657 -1.86573,0.5642 -63.68905,-24.11072 -137.38516,-54.83319 z m 68.80154,-36.24913 c 6.00366,-2.55332 20.68698,-12.50435 32.62958,-22.11344 33.38375,-26.86077 34.31773,-26.77576 78.31073,7.12971 34.7518,26.78322 53.86926,25.59139 92.69784,-5.77893 32.77657,-26.48077 45.7657,-26.83074 68.37991,-1.84232 11.25181,12.43312 28.93304,7.04169 28.93304,-8.82236 0,-8.7993 -22.75563,-28.87263 -41.70735,-36.7912 -24.30696,-10.15609 -39.94997,-5.39378 -74.23283,22.59911 -29.78846,24.32311 -35.59629,24.11988 -67.28372,-2.35421 -39.60369,-33.08794 -61.22455,-33.37987 -99.98505,-1.35007 -33.90197,28.01497 -38.87755,28.28218 -68.97806,3.70428 -43.54079,-35.55226 -62.69913,-36.50721 -101.52322,-5.06039 -14.74211,11.94081 -18.39489,22.84956 -10.34629,30.89816 6.19766,6.19766 17.90128,4.86862 24.86237,-2.82332 21.99034,-24.29905 36.1059,-24.46646 65.12511,-0.77241 34.0684,27.81666 50.40118,33.03859 73.11794,23.37739 z m 0,-54.27561 c 6.00366,-2.55333 20.68698,-12.50436 32.62958,-22.11345 33.38962,-26.86551 33.44087,-26.86083 78.12294,7.13819 35.16717,26.75904 54.05821,25.582 92.88563,-5.78741 32.77657,-26.48076 45.7657,-26.83074 68.37991,-1.84231 11.25181,12.43312 28.93304,7.04168 28.93304,-8.82237 0,-8.7993 -22.75563,-28.87263 -41.70735,-36.7912 -24.30696,-10.15609 -39.94997,-5.39378 -74.23283,22.59911 -29.78846,24.32311 -35.59629,24.11988 -67.28372,-2.3542 -39.60369,-33.08795 -61.22455,-33.37988 -99.98505,-1.35008 -33.90197,28.01497 -38.87755,28.28218 -68.97806,3.70428 -43.60276,-35.60287 -62.68308,-36.52318 -101.71173,-4.90594 -15.82406,12.81916 -18.34523,25.40299 -6.56667,32.77613 6.38824,3.99889 8.49922,3.04965 35.94097,-16.16151 17.4276,-12.20055 24.39306,-10.74641 50.4554,10.53337 34.0684,27.81666 50.40118,33.03858 73.11794,23.37739 z M 866.3202,606.42879 c 69.22956,-20.68528 62.95317,-123.345 -8.35044,-136.58398 -9.79736,-1.81904 -12.92466,-4.4336 -16.22719,-13.56663 -9.18418,-25.39841 -44.3388,-45.35437 -71.74117,-40.72476 -8.32229,1.40605 -13.70507,0.76729 -15.30149,-1.81572 -21.70248,-35.11534 -100.31277,-13.76555 -115.51028,31.37148 -3.07003,9.11813 -6.52593,11.85226 -20.38318,16.12623 -65.90759,20.32764 -67.92752,111.22007 -3.14211,141.3891 20.17218,9.39372 221.71186,12.45256 250.65586,3.80428 z M 625.10059,576.36231 c -46.998,-23.26372 -32.91666,-91.27399 18.89806,-91.27399 11.30578,0 15.60373,-4.25836 18.83062,-18.65724 9.68593,-43.22015 43.35296,-55.30852 78.27134,-28.10385 14.55723,11.34144 15.60275,11.61495 31.75314,8.30658 26.68044,-5.46542 44.67273,6.07782 44.67273,28.66044 0,13.5049 6.32617,19.96665 19.62464,20.04524 52.85031,0.31243 70.31434,59.11694 24.4067,82.18174 -19.61182,9.85329 -216.15604,8.89 -236.45723,-1.15892 z M 948.23557,474.57018 c 2.66259,-8.38907 1.08816,-9.99807 -17.73513,-18.12456 -26.38236,-11.38994 -34.39012,3.36377 -9.48229,17.47037 16.93704,9.59237 24.32419,9.76992 27.21742,0.65419 z m -45.81208,-27.6444 c 32.28171,-71.11812 -73.43498,-132.01807 -117.24734,-67.54241 -12.62573,18.58044 2.0529,27.33324 17.39961,10.37533 25.5902,-28.27685 72.45862,-18.5298 83.19397,17.30157 3.82049,12.75165 -0.55914,38.31581 -7.27534,42.46664 -7.67196,4.74155 -1.55571,10.12426 12.97886,11.42233 2.42337,0.21643 7.35099,-6.09413 10.95024,-14.02346 z m 55.35044,-36.31531 c 5.04641,-4.97663 0.70233,-15.38154 -6.87448,-16.46569 -21.05392,-3.01254 -42.51833,10.97419 -32.45424,21.14795 3.08367,3.11729 35.31033,-0.71942 39.32872,-4.68226 z m -185.0559,-29.08983 c 1.75653,-12.26574 -37.02744,-27.79213 -41.3414,-16.55023 -2.81294,7.3304 -0.34221,10.49569 14.28487,18.30066 15.32441,8.17706 25.73125,7.50377 27.05653,-1.75043 z m 144.64543,-25.09758 c 21.41815,-21.93417 8.01258,-34.49933 -14.02176,-13.14278 -10.61991,10.2932 -13.91193,19.22371 -8.92475,24.21086 4.63114,4.63114 10.27472,1.90901 22.94651,-11.06808 z M 809.73274,347.1366 c 2.72946,-7.11285 -12.57226,-36.74792 -18.97435,-36.74792 -10.89192,0 -12.45961,11.21599 -3.78677,27.09236 8.67453,15.87948 18.73506,20.14727 22.76112,9.65556 z m 51.04941,-5.36983 c 6.23908,-7.8278 8.37751,-35.01343 3.0988,-39.39438 -10.69745,-8.87811 -19.21666,4.38809 -19.21666,29.92442 0,13.67785 8.69309,18.78542 16.11786,9.46996 z"
       id="path979" />
  </g>
</svg>
