<?xml version="1.0" encoding="UTF-8" standalone="no"?>
<!-- Created with Inkscape (http://www.inkscape.org/) -->

<svg
   version="1.1"
   id="svg59"
   width="505.78629"
   height="631.10486"
   viewBox="0 0 505.78629 631.10486"
   xmlns:inkscape="http://www.inkscape.org/namespaces/inkscape"
   xmlns:sodipodi="http://sodipodi.sourceforge.net/DTD/sodipodi-0.dtd"
   xmlns:xlink="http://www.w3.org/1999/xlink"
   xmlns="http://www.w3.org/2000/svg"
   xmlns:svg="http://www.w3.org/2000/svg">
  <defs
     id="defs63" />
  <sodipodi:namedview
     id="namedview61"
     pagecolor="#ffffff"
     bordercolor="#000000"
     borderopacity="0.25"
     inkscape:showpageshadow="2"
     inkscape:pageopacity="0.0"
     inkscape:pagecheckerboard="0"
     inkscape:deskcolor="#d1d1d1"
     showgrid="false" />
  <g
     inkscape:groupmode="layer"
     inkscape:label="Image"
     id="g65"
     transform="translate(-214.08054,-151.46667)">
    <image
       width="933.76001"
       height="933.76001"
       preserveAspectRatio="none"
       id="image67" />
    <g
       id="g123"
       inkscape:export-filename="..\OneDrive\Ãrea de Trabalho\aauav.svg"
       inkscape:export-xdpi="96"
       inkscape:export-ydpi="96">
      <path
         style="fill:#dddddd;stroke-width:0.64"
         d="m 466.85616,751.36001 v -31.04 l 0.1833,15.52 0.1833,15.52 -0.1833,15.52 -0.1833,15.52 z m 11.50633,12.48 5.6e-4,-18.56 0.19581,9.47917 0.19581,9.4791 -0.19636,9.0809 -0.19637,9.08083 z m 68.48001,0 5.5e-4,-18.56 0.19581,9.47917 0.19581,9.4791 -0.19636,9.0809 -0.19637,9.08083 z m 11.53366,-12.48 v -31.04 l 0.1833,15.52 0.1833,15.52 -0.1833,15.52 -0.1833,15.52 z m 63.36,0 v -31.04 l 0.1833,15.52 0.18331,15.52 -0.18331,15.52 -0.1833,15.52 z m -40.31854,-20.8 2e-4,-33.28 0.18181,16.84486 0.1818,16.84493 -0.182,16.43507 -0.182,16.43514 z m -11.52019,-0.32 v -32.96 l 0.18209,16.48 0.18209,16.48 -0.18209,16.48 -0.18209,16.48 z m 28.8,0 v -32.96 l 0.18209,16.48 0.18209,16.48 -0.18209,16.48 -0.18209,16.48 z m 114.54616,9.92 -5.7e-4,-19.2 0.19539,9.40045 0.19539,9.40044 -0.19488,9.79956 -0.19482,9.79955 z m -11.52345,-1.92 -6.4e-4,-17.28 0.19859,8.44173 0.19853,8.44172 -0.19789,8.83828 -0.19795,8.83827 z m -223.42074,-8.96 0.004,-5.12 0.24582,2.73689 0.24581,2.73696 -0.25004,2.38304 -0.25003,2.38311 0.004,-5.12 z m 68.48,0 0.004,-5.12 0.24582,2.73689 0.24581,2.73696 -0.25004,2.38304 -0.25003,2.38311 0.004,-5.12 z"
         id="path145" />
      <path
         style="fill:#37ade0;stroke-width:0.64"
         d="m 287.36,225.92 v -0.64 h 0.67778 0.67776 l -0.39554,0.64 -0.39554,0.64 H 287.64223 287.36 Z"
         id="path143" />
      <path
         style="fill:#919190;stroke-width:0.64"
         d="m 469.93931,782.24878 3.05932,-0.24045 2.70068,0.24403 2.7007,0.24403 -5.76,-0.006 -5.76001,-0.006 3.05931,-0.24051 z m 28.4607,0 2.72,-0.245 2.72,0.245 2.72,0.24499 h -5.44 -5.44 z m 23.04,0 2.72,-0.245 2.72,0.245 2.72,0.24499 h -5.44 -5.44 z m 28.4993,0 3.05932,-0.24045 2.70068,0.24403 2.7007,0.24403 -5.76,-0.006 -5.76,-0.006 3.0593,-0.24051 z m 39.0207,0.0301 1.12,-0.29268 1.12,0.29268 1.12,0.29267 h -2.24 -2.24 z m 35.85931,-0.0301 3.05931,-0.24045 2.70069,0.24403 2.70069,0.24403 -5.76,-0.006 -5.76,-0.006 3.05931,-0.24051 z m 28.46069,0 2.72,-0.245 2.72,0.245 2.72,0.24499 h -5.44 -5.44 z m 36.48,-0.006 3.36,-0.23508 3.36,0.23508 3.36,0.235 h -6.72 -6.72 z m -207.04,-37.12282 4.32,-0.22387 4.32,0.22387 4.32,0.22394 h -8.64 -8.64 z m 51.2,0 4.32,-0.22387 4.32,0.22387 4.32,0.22394 h -8.64 -8.64 z m 103.012,6.4e-4 4.292,-0.22323 4.66796,0.22144 4.66804,0.22144 h -8.96 -8.96 l 4.292,-0.2233 z m -149.892,-47.52019 -6.72,-0.38944 6.52222,-0.12531 6.52224,-0.12525 0.39554,0.64 0.39553,0.64 -0.19776,-0.12525 -0.19777,-0.12531 z m 44.7257,-0.18445 0.50715,-0.50438 6.34357,0.18828 6.34358,0.18829 -6.85073,0.3161 -6.85072,0.31616 z m 110.1543,0.18445 -6.72,-0.38944 6.52224,-0.12531 6.52224,-0.12525 0.39552,0.64 0.39552,0.64 -0.19776,-0.12525 -0.19776,-0.12531 z m -68.9407,-0.47123 3.05932,-0.24045 2.70068,0.24403 2.7007,0.24403 -5.76,-0.006 -5.76,-0.006 3.0593,-0.24051 z m 28.80001,0 3.05931,-0.24045 2.70069,0.24403 2.70069,0.24403 -5.76,-0.006 -5.76,-0.006 3.05931,-0.24051 z"
         id="path141" />
      <path
         style="fill:#1ea3dc;stroke-width:0.64"
         d="M 250.51685,493.92001 214.09654,406.08 l -0.008,-1.6 -0.008,-1.6 36.48,-88.13205 36.48,-88.13204 0.8327,-0.34042 0.83269,-0.34041 43.78864,18.07246 43.78863,18.07246 0.0417,0.64 0.0417,0.64 -19.36089,69.55257 -19.36089,69.55256 -0.61089,-0.37755 -0.6109,-0.37755 0.4441,1.15728 0.44409,1.15729 -24.77914,88.86771 -24.77916,88.8677 h -0.40758 -0.40759 z m 85.92034,-94.04001 -0.33614,-0.84 -0.0505,1.22667 -0.0505,1.22667 0.38667,-0.38667 0.38666,-0.38667 -0.33614,-0.84 z m -1.28,-4.48 -0.33614,-0.84 -0.0505,1.22667 -0.0505,1.22667 0.38667,-0.38667 0.38666,-0.38667 -0.33614,-0.84 z m -1.92,-7.04 -0.33614,-0.84 -0.0505,1.22667 -0.0505,1.22667 0.38667,-0.38667 0.38666,-0.38667 -0.33614,-0.84 z m -1.28,-4.48 -0.33614,-0.84 -0.0505,1.22667 -0.0505,1.22667 0.38667,-0.38667 0.38666,-0.38667 -0.33614,-0.84 z m -3.2,-11.52 -0.33614,-0.84 -0.0505,1.22667 -0.0505,1.22667 0.38667,-0.38667 0.38666,-0.38667 -0.33614,-0.84 z m -3.2,-11.52 -0.33614,-0.84 -0.0505,1.22667 -0.0506,1.22667 0.38667,-0.38667 0.38666,-0.38667 -0.33614,-0.84 z m -1.28,-4.48 -0.33614,-0.84 -0.0505,1.22667 -0.0506,1.22667 0.38667,-0.38667 0.38666,-0.38667 -0.33614,-0.84 z m -1.92,-7.04 -0.33614,-0.84 -0.0505,1.22667 -0.0506,1.22666 0.38667,-0.38666 0.38666,-0.38667 -0.33614,-0.84 z m -1.28,-4.48 -0.33614,-0.84 -0.0505,1.22667 -0.0506,1.22666 0.38667,-0.38666 0.38666,-0.38667 -0.33614,-0.84 z m -3.2,-11.52 -0.33614,-0.84 -0.0505,1.22667 -0.0506,1.22666 0.38667,-0.38666 0.38666,-0.38667 -0.33614,-0.84 z m -3.2,-11.52 -0.33614,-0.84 -0.0505,1.22667 -0.0506,1.22666 0.38667,-0.38666 0.38666,-0.38667 -0.33614,-0.84 z m -1.28,-4.48 -0.33614,-0.84 -0.0505,1.22667 -0.0506,1.22666 0.38667,-0.38666 0.38666,-0.38667 -0.33614,-0.84 z m -1.92,-7.04 -0.33614,-0.84 -0.0505,1.22667 -0.0506,1.22666 0.38667,-0.38666 0.38666,-0.38667 -0.33614,-0.84 z m -1.28,-4.48 -0.33614,-0.84 -0.0505,1.22667 -0.0506,1.22666 0.38667,-0.38666 0.38666,-0.38667 -0.33614,-0.84 z m -3.2,-11.52 -0.33614,-0.84 -0.0505,1.22667 -0.0506,1.22666 0.38667,-0.38666 0.38666,-0.38667 -0.33614,-0.84 z m -3.2,-11.52 -0.33614,-0.84 -0.0505,1.22667 -0.0506,1.22666 0.38667,-0.38666 0.38666,-0.38667 -0.33614,-0.84 z m -1.28,-4.48 -0.33614,-0.84 -0.0505,1.22667 -0.0506,1.22666 0.38667,-0.38666 0.38666,-0.38667 -0.33614,-0.84 z m -1.92,-7.04 -0.33614,-0.84 -0.0505,1.22667 -0.0506,1.22666 0.38667,-0.38666 0.38666,-0.38667 -0.33614,-0.84 z m -1.28,-4.48 -0.33614,-0.84 -0.0505,1.22667 -0.0506,1.22666 0.38667,-0.38666 0.38666,-0.38667 -0.33614,-0.84 z m -3.2,-11.52 -0.33614,-0.84 -0.0505,1.22667 -0.0506,1.22666 0.38667,-0.38666 0.38666,-0.38667 -0.33614,-0.84 z m -1.28,-4.48 -0.33614,-0.84 -0.0505,1.22667 -0.0506,1.22666 0.38667,-0.38666 0.38666,-0.38667 -0.33614,-0.84 z m -1.92,-7.04 -0.33614,-0.84 -0.0505,1.22667 -0.0506,1.22666 0.38667,-0.38666 0.38666,-0.38667 -0.33614,-0.84 z m -1.28,-4.48 -0.33614,-0.84 -0.0505,1.22667 -0.0506,1.22666 0.38667,-0.38666 0.38666,-0.38667 -0.33614,-0.84 z m -3.2,-11.52 -0.33614,-0.84 -0.0505,1.22667 -0.0506,1.22666 0.38667,-0.38666 0.38666,-0.38667 -0.33614,-0.84 z"
         id="path139" />
      <path
         style="fill:#65b656;stroke-width:0.64"
         d="m 556.1698,263.16223 -0.01,-0.83777 -0.8,0.45166 -0.8,0.45167 0.744,-0.8059 0.744,-0.80589 0.67548,0.232 0.6755,0.232 -0.60969,0.96 -0.60969,0.96 -0.01,-0.83777 z M 377.28,262.4 l -0.39554,-0.64 h 0.67777 0.67777 v 0.64 0.64 h -0.28222 -0.28224 z"
         id="path137" />
      <path
         style="fill:#57af47;stroke-width:0.64"
         d="M 357.76709,476.32001 338.34647,406.72 l -0.27406,-1.36792 -0.27407,-1.36793 19.70968,-70.75021 19.70968,-70.75021 0.51115,0.31591 0.51115,0.3159 v -0.60316 -0.60316 l -1.44,-0.30021 -1.44,-0.3002 -42.88,-17.75554 -42.88,-17.75554 -0.45671,-0.42758 -0.45671,-0.42757 88.7031,-36.73796 88.70311,-36.73795 0.71361,0.0227 0.71361,0.0226 88.32,36.60499 88.32,36.605 0.21465,0.60298 0.21466,0.60298 0.55968,-0.3459 0.55968,-0.34591 -0.58247,1.78192 -0.58246,1.78192 -24.12281,86.72 -24.12284,86.72 -0.397,0.32 -0.397,0.32 -0.1121,1.6 -0.1121,1.6 -19.45515,69.60187 -19.45514,69.60186 -0.34439,0.34439 -0.34438,0.34439 -43.44042,-18.03069 -43.44041,-18.03072 -1.34826,-0.2926 -1.34826,-0.2926 -44.15005,18.29708 -44.15006,18.29707 h -0.30784 -0.30784 z m 198.9564,-214.47201 -0.67548,-0.232 -0.744,0.80589 -0.744,0.8059 0.8,-0.45167 0.8,-0.45166 0.01,0.83777 0.01,0.83777 0.60969,-0.96 0.60969,-0.96 -0.6755,-0.232 z"
         id="path135" />
      <path
         style="fill:#334b96;stroke-width:0.64"
         d="m 288,583.68001 -0.96,-0.6204 0.76223,-0.01 0.76223,-0.01 0.39554,0.64 0.39554,0.64 -0.19776,-0.01 -0.19778,-0.01 z m 176.64,-0.66925 -0.96,-0.64963 1.92,0.42947 1.92001,0.42947 0.26666,0.22997 0.26667,0.22997 -1.22667,-0.01 -1.22667,-0.01 -0.96,-0.64964 z m 5.76001,-1.25075 0.96,-0.6204 h 0.64 0.64 l -0.96,0.6204 -0.96,0.62039 h -0.64 -0.64 z m -176.00001,-1.28 0.96,-0.6204 h 0.64 0.64 l -0.96,0.6204 -0.96,0.62039 h -0.64 -0.64 z m 179.20001,0 0.96,-0.6204 h 0.64 0.64 l -0.96,0.6204 -0.96,0.62039 h -0.64 -0.64 z m -16.64001,-0.64 -0.96,-0.6204 h 0.64 0.64 l 0.96,0.6204 0.96,0.62039 h -0.64 -0.64 z m -3.2,-1.28 -0.96,-0.6204 h 0.64 0.64 l 0.96,0.6204 0.96,0.62039 h -0.64 -0.64 z m -151.68,-1.28 0.96,-0.6204 h 0.64 0.64 l -0.96,0.6204 -0.96,0.62039 h -0.64 -0.64 z m 179.20001,0 0.96,-0.6204 h 0.64 0.64 l -0.96,0.6204 -0.96,0.62039 h -0.64 -0.64 z m -176.00001,-1.28 0.96,-0.6204 h 0.64 0.64 l -0.96,0.6204 -0.96,0.62039 h -0.64 -0.64 z m 140.8,-0.64 -0.96,-0.6204 h 0.64 0.64 l 0.96,0.6204 0.96,0.62039 h -0.64 -0.64 z m -136.32,-1.28 0.96,-0.6204 h 0.64 0.64 l -0.96,0.6204 -0.96,0.62039 h -0.64 -0.64 z m 179.20001,0 0.96,-0.6204 h 0.64 0.64 l -0.96,0.6204 -0.96,0.62039 h -0.64 -0.64 z m -176.00001,-1.28 0.96,-0.6204 h 0.64 0.64 l -0.96,0.6204 -0.96,0.62039 H 312.64 312 Z m 179.20001,0 0.96,-0.6204 h 0.64 0.64 l -0.96,0.6204 -0.96,0.62039 h -0.64 -0.64 z m -53.76001,-0.64 -0.96,-0.6204 h 0.64 0.64 l 0.96,0.6204 0.96,0.62039 H 440 439.36 Z m -3.2,-1.28 -0.96,-0.6204 h 0.64 0.64 l 0.96,0.6204 0.96,0.62039 h -0.64 -0.64 z m -114.56,-1.28 0.96,-0.6204 h 0.64 0.64 l -0.96,0.6204 -0.96,0.62039 h -0.64 -0.64 z m 179.20001,0 0.96,-0.6204 h 0.64 0.64 l -0.96,0.6204 -0.96,0.62039 h -0.64 -0.64 z m -69.12001,-0.64 -0.96,-0.6204 h 0.64 0.64 l 0.96,0.6204 0.96,0.62039 h -0.64 -0.64 z m -106.88,-0.64 0.96,-0.6204 h 0.64 0.64 l -0.96,0.6204 -0.96,0.62039 h -0.64 -0.64 z m 103.68,-0.64 -0.96,-0.6204 h 0.64 0.64 l 0.96,0.6204 0.96,0.62039 h -0.64 -0.64 z m -99.2,-1.28 0.96,-0.6204 h 0.64 0.64 l -0.96,0.6204 -0.96,0.62039 H 328 327.36 Z m 179.20001,0 0.96,-0.6204 h 0.64 0.64 l -0.96,0.6204 -0.96,0.62039 h -0.64 -0.64 z m -176.00001,-1.28 0.96,-0.6204 h 0.64 0.64 l -0.96,0.6204 -0.96,0.62039 h -0.64 -0.64 z m 179.20001,0 0.96,-0.6204 h 0.64 0.64 l -0.96,0.6204 -0.96,0.62039 h -0.64 -0.64 z m -90.88001,-0.64 -0.96,-0.6204 h 0.64 0.64 l 0.96,0.6204 0.96,0.62039 h -0.64 -0.64 z m -3.2,-1.28 -0.96,-0.6204 h 0.64 0.64 l 0.96,0.6204 0.96,0.62039 h -0.64 -0.64 z m -77.44,-1.28 0.96,-0.6204 h 0.64 0.64 l -0.96,0.6204 -0.96,0.62039 h -0.64 -0.64 z m 179.20001,0 0.96,-0.6204 h 0.64 0.64 l -0.96,0.6204 -0.96,0.62039 h -0.64 -0.64 z m -106.24001,-0.64 -0.96,-0.6204 h 0.64 0.64 l 0.96,0.6204 0.96,0.62039 h -0.64 -0.64 z m -69.76,-0.64 0.96,-0.6204 h 0.64 0.64 l -0.96,0.6204 -0.96,0.62039 h -0.64 -0.64 z m 66.56,-0.64 -0.96,-0.6204 h 0.64 0.64 l 0.96,0.6204 0.96,0.62039 h -0.64 -0.64 z m -62.08,-1.28 0.96,-0.6204 h 0.64 0.64 l -0.96,0.6204 -0.96,0.62039 h -0.64 -0.64 z m 179.20001,0 0.96,-0.6204 h 0.64 0.64 l -0.96,0.6204 -0.96,0.62039 h -0.64 -0.64 z m -176.00001,-1.28 0.96,-0.6204 h 0.64 0.64 l -0.96,0.6204 -0.96,0.62039 h -0.64 -0.64 z m 179.20001,0 0.96,-0.6204 h 0.64 0.64 l -0.96,0.6204 -0.96,0.62039 h -0.64 -0.64 z m -128.00001,-0.64 -0.96,-0.6204 h 0.64 0.64 l 0.96,0.6204 0.96,0.62039 h -0.64 -0.64 z m -43.52,-2.56 0.96,-0.6204 h 0.64 0.64 l -0.96,0.6204 -0.96,0.62039 h -0.64 -0.64 z m 179.20001,0 0.96,-0.6204 h 0.64 0.64 l -0.96,0.6204 -0.96,0.62039 h -0.64 -0.64 z m -143.36001,-0.64 -0.96,-0.6204 h 0.64 0.64 l 0.96,0.6204 0.96,0.62039 h -0.64 -0.64 z m -3.2,-1.28 -0.96,-0.6204 h 0.64 0.64 l 0.96,0.6204 0.96,0.62039 H 392 391.36 Z m -24.96,-1.28 0.96,-0.6204 h 0.64 0.64 l -0.96,0.6204 -0.96,0.62039 h -0.64 -0.64 z m 179.20001,0 0.96,-0.6204 h 0.64 0.64 l -0.96,0.6204 -0.96,0.62039 h -0.64 -0.64 z m -176.00001,-1.28 0.96,-0.6204 h 0.64 0.64 l -0.96,0.6204 -0.96,0.62039 h -0.64 -0.64 z m 179.20001,0 0.96,-0.6204 h 0.64 0.64 l -0.96,0.6204 -0.96,0.62039 h -0.64 -0.64 z m -165.12001,-0.64 -0.96,-0.6204 h 0.64 0.64 l 0.96,0.6204 0.96,0.62039 h -0.64 -0.64 z m 172.16001,-2.59778 v -0.67776 l 0.64,0.39554 0.64,0.39554 v 0.28223 0.28223 h -0.64 -0.64 z"
         id="path133" />
      <path
         style="fill:#535351;stroke-width:0.64"
         d="m 495.64249,763.84001 5.6e-4,-18.56 0.19581,9.47917 0.19581,9.4791 -0.19636,9.0809 -0.19637,9.08083 z m 10.89367,-12.48 v -31.04 l 0.1833,15.52 0.1833,15.52 -0.1833,15.52 -0.1833,15.52 z m 12.16,0 v -31.04 l 0.1833,15.52 0.1833,15.52 -0.1833,15.52 -0.1833,15.52 z m 10.86634,12.48 5.5e-4,-18.56 0.19581,9.47917 0.19581,9.4791 -0.19636,9.0809 -0.19637,9.08083 z m 120.96,0 5.1e-4,-18.56 0.19584,9.47917 0.19584,9.4791 -0.19641,9.0809 -0.19635,9.08083 z m 10.89364,-12.48 v -31.04 l 0.18329,15.52 0.18336,15.52 -0.18336,15.52 -0.18329,15.52 z m -85.79694,24.8 -1.21919,-1.44 1.44,1.2192 1.44,1.2192 v 0.2208 0.2208 h -0.22081 -0.22081 z m 28.22081,0.16 1.15838,-1.28 h 0.32 0.32 l -1.15838,1.28 -1.15839,1.28 h -0.32 -0.32 z m 69.72358,-36.16 -5.7e-4,-19.2 0.19539,9.40045 0.19539,9.40044 -0.19488,9.79956 -0.19482,9.79955 z m 10.87719,-1.6 v -17.6 l 0.19769,8.8 0.19763,8.8 -0.19763,8.8 -0.19769,8.8 z m -197.74723,-4.30976 8.61527,-0.20602 0.22954,-5.26214 0.22954,-5.26208 -0.044,5.44 -0.044,5.44 -8.80086,0.0282 -8.80086,0.0282 8.61527,-0.20602 z m 42.85631,-0.39015 -0.32997,-0.8599 0.22289,-4.7401 0.2229,-4.74009 0.12716,5.26195 0.12717,5.26195 8.8,0.19763 8.8,0.1977 -8.82009,0.14042 -8.82009,0.14035 z m 112.02269,0.39015 8.61427,-0.20602 0.22688,-4.62208 0.22695,-4.62214 -0.0403,4.8 -0.0403,4.8 -8.80084,0.0282 -8.80088,0.0282 8.61426,-0.20602 z"
         id="path131" />
      <path
         style="fill:#263e91;stroke-width:0.64"
         d="m 377.6,620.74707 -88,-36.47991 -0.82291,-0.81935 -0.82291,-0.81934 24.33685,-87.31424 L 336.62788,408 l 0.49385,-1.15234 0.49384,-1.15234 19.59307,70.27234 19.59308,70.27235 -0.72086,0.50668 -0.72086,0.50669 1.28,-0.18669 1.28,-0.18668 0.32,-0.39126 0.32,-0.39125 43.74847,-18.11541 43.74846,-18.11542 0.73154,0.024 0.73154,0.024 43.52,18.05149 43.52,18.05148 0.21333,0.59118 0.21333,0.59118 1.06667,-0.0118 1.06667,-0.0118 43.68,18.07515 43.68,18.07515 -0.006,0.3367 -0.006,0.33669 -88.49272,36.64 -88.49273,36.64 -0.94088,-0.0262 -0.94088,-0.0268 z m 90.18667,-37.29703 -0.26666,-0.22997 -1.92001,-0.42947 -1.92,-0.42947 0.96,0.64963 0.96,0.64964 1.22667,0.01 1.22667,0.01 -0.26667,-0.22997 z m 3.89334,-1.69003 0.96,-0.6204 h -0.64 -0.64 l -0.96,0.6204 -0.96,0.62039 h 0.64 0.64 z m -176.00001,-1.28 0.96,-0.6204 H 296 295.36 l -0.96,0.6204 -0.96,0.62039 h 0.64 0.64 z m 179.20001,0 0.96,-0.6204 h -0.64 -0.64 l -0.96,0.6204 -0.96,0.62039 h 0.64 0.64 z m -16.64001,-0.64 -0.96,-0.6204 H 456.64 456 l 0.96,0.6204 0.96,0.62039 h 0.64 0.64 z m -3.2,-1.28 -0.96,-0.6204 h -0.64 -0.64 l 0.96,0.6204 0.96,0.62039 h 0.64 0.64 z m -151.68,-1.28 0.96,-0.6204 h -0.64 -0.64 l -0.96,0.6204 -0.96,0.62039 h 0.64 0.64 z m 179.20001,0 0.96,-0.6204 h -0.64 -0.64 l -0.96,0.6204 -0.96,0.62039 h 0.64 0.64 z m -176.00001,-1.28 0.96,-0.6204 h -0.64 -0.64 l -0.96,0.6204 -0.96,0.62039 h 0.64 0.64 z m 140.8,-0.64 -0.96,-0.6204 h -0.64 -0.64 l 0.96,0.6204 0.96,0.62039 h 0.64 0.64 z m -136.32,-1.28 0.96,-0.6204 h -0.64 -0.64 l -0.96,0.6204 -0.96,0.62039 h 0.64 0.64 z m 179.20001,0 0.96,-0.6204 h -0.64 -0.64 l -0.96,0.6204 -0.96,0.62039 h 0.64 0.64 z m -176.00001,-1.28 0.96,-0.6204 h -0.64 -0.64 l -0.96,0.6204 -0.96,0.62039 h 0.64 0.64 z m 179.20001,0 0.96,-0.6204 h -0.64 -0.64 l -0.96,0.6204 -0.96,0.62039 h 0.64 0.64 z m -53.76001,-0.64 -0.96,-0.6204 h -0.64 -0.64 l 0.96,0.6204 0.96,0.62039 h 0.64 0.64 z m -3.2,-1.28 -0.96,-0.6204 h -0.64 -0.64 l 0.96,0.6204 0.96,0.62039 h 0.64 0.64 z m -114.56,-1.28 0.96,-0.6204 h -0.64 -0.64 l -0.96,0.6204 -0.96,0.62039 h 0.64 0.64 z m 179.20001,0 0.96,-0.6204 h -0.64 -0.64 l -0.96,0.6204 -0.96,0.62039 h 0.64 0.64 z m -69.12001,-0.64 -0.96,-0.6204 h -0.64 -0.64 l 0.96,0.6204 0.96,0.62039 h 0.64 0.64 z m -106.88,-0.64 0.96,-0.6204 h -0.64 -0.64 l -0.96,0.6204 -0.96,0.62039 h 0.64 0.64 z m 103.68,-0.64 -0.96,-0.6204 h -0.64 -0.64 l 0.96,0.6204 0.96,0.62039 h 0.64 0.64 z m -99.2,-1.28 0.96,-0.6204 h -0.64 -0.64 l -0.96,0.6204 -0.96,0.62039 h 0.64 0.64 z m 179.20001,0 0.96,-0.6204 h -0.64 -0.64 l -0.96,0.6204 -0.96,0.62039 h 0.64 0.64 z m -176.00001,-1.28 0.96,-0.6204 h -0.64 -0.64 l -0.96,0.6204 -0.96,0.62039 h 0.64 0.64 z m 179.20001,0 0.96,-0.6204 h -0.64 -0.64 l -0.96,0.6204 -0.96,0.62039 h 0.64 0.64 z m -90.88001,-0.64 -0.96,-0.6204 h -0.64 -0.64 l 0.96,0.6204 0.96,0.62039 h 0.64 0.64 z m -3.2,-1.28 -0.96,-0.6204 h -0.64 -0.64 l 0.96,0.6204 0.96,0.62039 h 0.64 0.64 z m -77.44,-1.28 0.96,-0.6204 h -0.64 -0.64 l -0.96,0.6204 -0.96,0.62039 h 0.64 0.64 z m 179.20001,0 0.96,-0.6204 h -0.64 -0.64 l -0.96,0.6204 -0.96,0.62039 h 0.64 0.64 z m -106.24001,-0.64 -0.96,-0.6204 h -0.64 -0.64 l 0.96,0.6204 0.96,0.62039 h 0.64 0.64 z m -69.76,-0.64 0.96,-0.6204 H 344 343.36 l -0.96,0.6204 -0.96,0.62039 h 0.64 0.64 z m 66.56,-0.64 -0.96,-0.6204 H 408.64 408 l 0.96,0.6204 0.96,0.62039 h 0.64 0.64 z m -62.08,-1.28 0.96,-0.6204 h -0.64 -0.64 l -0.96,0.6204 -0.96,0.62039 h 0.64 0.64 z m 179.20001,0 0.96,-0.6204 h -0.64 -0.64 l -0.96,0.6204 -0.96,0.62039 h 0.64 0.64 z m -176.00001,-1.28 0.96,-0.6204 h -0.64 -0.64 l -0.96,0.6204 -0.96,0.62039 h 0.64 0.64 z m 179.20001,0 0.96,-0.6204 h -0.64 -0.64 l -0.96,0.6204 -0.96,0.62039 h 0.64 0.64 z m -128.00001,-0.64 -0.96,-0.6204 h -0.64 -0.64 l 0.96,0.6204 0.96,0.62039 h 0.64 0.64 z m -43.52,-2.56 0.96,-0.6204 h -0.64 -0.64 l -0.96,0.6204 -0.96,0.62039 h 0.64 0.64 z m 179.20001,0 0.96,-0.6204 h -0.64 -0.64 l -0.96,0.6204 -0.96,0.62039 h 0.64 0.64 z m -143.36001,-0.64 -0.96,-0.6204 h -0.64 -0.64 l 0.96,0.6204 0.96,0.62039 h 0.64 0.64 z m -3.2,-1.28 -0.96,-0.6204 h -0.64 -0.64 l 0.96,0.6204 0.96,0.62039 h 0.64 0.64 z m -24.96,-1.28 0.96,-0.6204 h -0.64 -0.64 l -0.96,0.6204 -0.96,0.62039 h 0.64 0.64 z m 179.20001,0 0.96,-0.6204 h -0.64 -0.64 l -0.96,0.6204 -0.96,0.62039 h 0.64 0.64 z m -176.00001,-1.28 0.96,-0.6204 h -0.64 -0.64 l -0.96,0.6204 -0.96,0.62039 h 0.64 0.64 z m 179.20001,0 0.96,-0.6204 h -0.64 -0.64 l -0.96,0.6204 -0.96,0.62039 h 0.64 0.64 z M 384,549.12001 l -0.96,-0.6204 h -0.64 -0.64 l 0.96,0.6204 0.96,0.62039 h 0.64 0.64 z"
         id="path129" />
      <path
         style="fill:#0d914b;stroke-width:0.64"
         d="m 600.66629,564.81696 -43.49371,-18.09923 -0.21529,-0.64586 -0.21528,-0.64585 19.2408,-69.03301 19.24081,-69.03301 0.42293,-0.96 0.42294,-0.96 0.11906,-0.96 0.11906,-0.96 24.50359,-88 24.50362,-88 0.43584,-0.50126 0.43591,-0.50127 36.84013,88.94457 36.84012,88.94458 -36.92697,89.15439 -36.92692,89.15439 -0.92646,0.1004 -0.92646,0.10039 z"
         id="path127" />
      <path
         style="fill:#1c1c1a;stroke-width:0.64"
         d="m 467.20288,751.52001 0.003,-30.56 6.57655,-11.52 6.57656,-11.52 6.42823,-0.18112 6.42823,-0.18119 6.51234,11.48826 6.51234,11.48826 v 30.77292 30.77287 h -5.12 -5.12 v -18.56 -18.56 h -8.96 -8.96 v 18.56 18.56 h -5.44 -5.44 l 0.003,-30.56 z m 28.79713,-21.95053 v -5.15053 l -4.23339,-7.65709 -4.23339,-7.65702 -0.46465,-0.28717 -0.46466,-0.28717 -4.26196,7.58848 -4.26195,7.58842 v 5.5063 5.50631 h 8.96 8.96 z m 23.04,21.71174 v -30.79878 l 6.54506,-11.46202 6.54506,-11.46201 6.39551,0.1808 6.39551,0.1808 6.57655,11.52 6.57655,11.52 0.003,30.56 0.003,30.56 h -5.44 -5.44 v -18.56 -18.56 h -8.96 -8.96 v 18.56 18.56 h -5.12 -5.12 v -30.79879 z m 28.16,-22.03174 v -5.47053 l -4.22714,-7.64576 -4.22714,-7.64576 -0.49948,0.30874 -0.49947,0.30867 -4.23339,7.65702 -4.23338,7.65709 v 5.15053 5.15053 h 8.96 8.96 z m 37.76,52.27008 -1.6,-0.52646 -2.60366,-1.33024 -2.60366,-1.33018 -2.42845,-2.688 -2.42845,-2.688 -1.36789,-2.95834 -1.36789,-2.95833 -0.18593,-34.72 -0.18593,-34.72 h 5.46593 5.46593 l 0.003,33.76 0.003,33.76 1.2493,2.04896 1.2493,2.04889 1.91653,0.99111 1.91651,0.99104 h 2.75179 2.75178 l 2.11851,-1.29159 2.11851,-1.29164 0.92149,-2.20544 0.92149,-2.20544 v -33.30055 -33.30054 h 5.46593 5.46593 l -0.18593,34.72 -0.18593,34.72 -1.36789,2.95833 -1.36789,2.95834 -2.4315,2.69139 -2.4315,2.69139 -3.24061,1.65018 -3.24061,1.65024 -4.48,0.20307 -4.48,0.20307 -1.6,-0.52646 z m 37.12,-29.9433 v -30.50374 l 6.56,-11.72378 6.56,-11.72377 6.43788,-0.0122 6.43789,-0.0128 6.52212,11.52173 6.52211,11.52172 v 30.71828 30.71827 h -5.12 -5.12 v -18.56 -18.56 h -8.96 -8.96 v 18.56 18.56 h -5.44 -5.44 z m 28.8,-21.97529 v -5.11898 l -4.20199,-7.52102 -4.20198,-7.52096 -0.50503,-0.51501 -0.50502,-0.51501 -4.253,7.63027 -4.25298,7.63028 v 5.52473 5.52474 h 8.96 8.96 z m 29.52985,41.02489 -6.48985,-11.49696 v -18.92441 -18.92448 h 5.12 5.12 v 16.99053 16.99052 l 4.23341,7.65709 4.23334,7.65703 0.45888,0.28358 0.45894,0.28365 4.26772,-7.66439 4.26771,-7.66438 v -17.26682 -17.26681 h 5.44 5.44 l -0.0218,18.72 -0.0218,18.72 -6.58343,11.52 -6.58348,11.52 -6.42464,0.18137 -6.42464,0.18144 -6.48986,-11.49696 z"
         id="path125" />
    </g>
  </g>
</svg>
