<?xml version="1.0" standalone="no"?>
<!DOCTYPE svg PUBLIC "-//W3C//DTD SVG 20010904//EN"
 "http://www.w3.org/TR/2001/REC-SVG-20010904/DTD/svg10.dtd">
<svg version="1.0" xmlns="http://www.w3.org/2000/svg"
 width="332.000000pt" height="73.000000pt" viewBox="0 0 332.000000 73.000000"
 preserveAspectRatio="xMidYMid meet">

<g transform="translate(0.000000,73.000000) scale(0.100000,-0.100000)"
fill="#000000" stroke="none">
<path d="M95 670 c-88 -36 -97 -182 -14 -225 42 -22 111 -19 143 6 24 19 26
23 13 37 -13 13 -18 13 -38 -2 -34 -23 -76 -20 -104 9 -42 41 -27 113 27 136
26 11 35 10 64 -6 32 -17 36 -17 51 -2 15 14 13 17 -18 36 -35 21 -88 26 -124
11z"/>
<path d="M481 563 c-28 -65 -51 -121 -51 -125 0 -15 41 -8 46 7 4 11 21 15 59
15 38 0 55 -4 59 -15 3 -8 16 -15 30 -15 24 0 24 1 -30 122 -31 68 -57 124
-58 126 -2 1 -26 -51 -55 -115z m72 -25 l16 -38 -34 0 c-23 0 -33 4 -30 13 28
80 26 79 48 25z"/>
<path d="M820 557 c0 -120 1 -127 20 -127 18 0 20 7 20 70 0 66 9 85 27 58 5
-7 37 -40 71 -73 l62 -59 0 127 c0 120 -1 127 -20 127 -18 0 -20 -7 -20 -70 0
-38 -4 -70 -9 -70 -5 0 -11 3 -13 8 -1 4 -33 36 -70 71 l-68 64 0 -126z"/>
<path d="M1252 562 c-28 -67 -52 -124 -52 -127 0 -12 41 -4 46 10 4 11 21 15
59 15 38 0 55 -4 59 -15 3 -8 17 -15 30 -15 l25 0 -20 48 c-11 26 -37 83 -57
126 l-37 79 -53 -121z m71 -24 l16 -38 -34 0 -33 0 15 40 c9 22 17 39 19 38 1
-2 9 -20 17 -40z"/>
<path d="M1598 555 c31 -69 59 -121 63 -117 7 6 79 167 100 220 7 19 5 22 -15
22 -23 0 -37 -23 -77 -127 -10 -27 -11 -26 -41 50 -28 70 -33 77 -59 77 l-27
0 56 -125z"/>
<path d="M1980 555 l0 -125 80 0 c73 0 80 2 80 20 0 18 -7 20 -60 20 -53 0
-60 2 -60 20 0 18 7 20 55 20 48 0 55 3 55 19 0 17 -8 20 -52 23 l-53 3 0 40
0 40 58 3 c49 3 57 6 57 22 0 18 -7 20 -80 20 l-80 0 0 -125z"/>
<path d="M2370 660 c0 -17 7 -20 45 -20 25 0 45 -4 45 -9 0 -9 -37 -77 -92
-168 l-20 -33 96 0 c89 0 96 2 96 20 0 16 -8 19 -55 22 l-55 3 55 95 c30 52
55 98 55 103 0 4 -38 7 -85 7 -78 0 -85 -2 -85 -20z"/>
<path d="M2750 555 l0 -125 85 0 c78 0 85 2 85 20 0 18 -7 20 -60 20 -53 0
-60 2 -60 20 0 17 7 20 50 20 43 0 50 3 50 20 0 17 -7 20 -50 20 l-50 0 0 45
0 45 55 0 c48 0 55 2 55 20 0 18 -7 20 -80 20 l-80 0 0 -125z"/>
<path d="M3162 660 c-43 -40 -19 -99 49 -127 31 -12 39 -20 37 -37 -4 -26 -43
-34 -67 -12 -15 14 -20 14 -37 1 -19 -15 -19 -15 5 -35 31 -27 111 -28 134 -2
22 24 22 76 1 97 -9 8 -34 25 -55 36 -40 20 -51 45 -24 55 8 4 22 1 29 -6 11
-9 20 -9 37 1 l23 12 -23 18 c-31 25 -82 24 -109 -1z"/>
<path d="M1160 110 l0 -60 38 2 37 1 -33 4 c-38 5 -38 24 -1 34 23 7 23 7 -4
8 -25 1 -28 4 -25 28 2 22 10 29 33 34 29 6 29 7 -7 8 l-38 1 0 -60z"/>
<path d="M1307 163 c-16 -15 -5 -43 23 -63 36 -25 30 -44 -11 -36 -34 6 -37 1
-9 -14 14 -8 26 -8 40 0 30 16 25 47 -11 65 -34 18 -34 42 1 37 14 -2 20 0 16
7 -8 12 -39 15 -49 4z"/>
<path d="M1435 161 c15 -6 21 -20 26 -62 l6 -54 1 53 c2 44 5 54 25 62 17 7
12 9 -28 9 -34 0 -44 -3 -30 -8z"/>
<path d="M1698 157 c6 -7 12 -35 15 -62 3 -48 3 -48 5 13 2 51 -1 62 -14 62
-12 0 -14 -3 -6 -13z"/>
<path d="M1803 163 c-7 -2 -13 -18 -13 -35 0 -22 6 -31 20 -35 15 -4 19 -11
15 -24 -10 -29 9 -22 28 10 35 60 7 108 -50 84z m46 -17 c15 -18 3 -46 -20
-46 -25 0 -35 26 -19 45 15 19 24 19 39 1z"/>
<path d="M1952 154 c-45 -31 -20 -107 36 -107 42 0 62 19 62 58 0 56 -51 82
-98 49z m68 -14 c23 -23 24 -33 10 -61 -14 -25 -55 -24 -74 2 -16 23 -12 47
12 67 21 16 29 15 52 -8z"/>
<path d="M2115 159 c-10 -15 3 -25 16 -12 15 15 39 5 39 -15 0 -9 -14 -31 -32
-49 l-32 -33 45 1 c30 2 35 3 16 6 l-28 4 26 30 c28 34 31 49 13 67 -15 15
-55 16 -63 1z"/>
<path d="M352 103 c87 -2 229 -2 316 0 86 1 15 3 -158 3 -173 0 -244 -2 -158
-3z"/>
<path d="M2653 103 c86 -2 228 -2 315 0 86 1 15 3 -158 3 -173 0 -244 -2 -157
-3z"/>
</g>
</svg>
