<?xml version="1.0" standalone="no"?>
<!DOCTYPE svg PUBLIC "-//W3C//DTD SVG 20010904//EN"
 "http://www.w3.org/TR/2001/REC-SVG-20010904/DTD/svg10.dtd">
<svg version="1.0" xmlns="http://www.w3.org/2000/svg"
 width="1454.000000pt" height="750.000000pt" viewBox="0 0 1454.000000 750.000000"
 preserveAspectRatio="xMidYMid meet">

<g transform="translate(0.000000,750.000000) scale(0.100000,-0.100000)"
fill="#000000" stroke="none">
<path d="M3890 5335 c0 -11 11 -15 38 -15 49 -1 112 -30 144 -68 53 -63 53
-64 53 -667 l0 -560 -25 -50 c-31 -62 -88 -104 -155 -113 -26 -4 -50 -13 -53
-20 -3 -9 73 -12 357 -12 314 0 361 2 361 15 0 10 -10 15 -27 15 -88 0 -170
60 -195 140 -19 65 -19 1127 0 1183 28 79 105 136 185 137 26 0 37 4 37 15 0
13 -47 15 -360 15 -313 0 -360 -2 -360 -15z"/>
<path d="M5370 5337 c0 -7 24 -17 60 -24 72 -14 113 -41 143 -96 l22 -42 0
-580 0 -580 -24 -48 c-29 -60 -80 -96 -149 -104 -36 -4 -52 -10 -52 -20 0 -22
993 -13 1095 10 251 56 407 207 477 464 28 105 31 304 5 415 -79 338 -306 554
-636 603 -131 20 -941 22 -941 2z m702 -27 c176 -15 287 -61 391 -163 102
-100 174 -233 214 -393 26 -105 23 -334 -5 -438 -45 -164 -136 -303 -243 -375
-77 -51 -140 -71 -254 -78 -155 -10 -252 35 -299 137 -20 44 -21 61 -24 677
l-3 632 48 4 c26 2 50 4 53 5 3 1 57 -3 122 -8z"/>
<path d="M8400 5335 c0 -10 10 -15 33 -15 76 -1 168 -74 184 -147 4 -21 8
-283 8 -583 0 -300 -4 -562 -8 -583 -16 -73 -108 -146 -184 -147 -23 0 -33 -5
-33 -16 0 -14 52 -15 518 -12 449 4 525 7 575 21 198 58 302 225 275 443 -20
172 -149 310 -320 345 -86 17 -86 18 -12 54 76 37 128 86 166 157 20 37 23 57
23 153 0 95 -3 116 -23 152 -53 100 -145 162 -272 182 -38 7 -243 11 -497 11
-378 0 -433 -2 -433 -15z m735 -31 c98 -11 188 -98 222 -213 25 -86 15 -212
-22 -280 -35 -63 -82 -105 -144 -126 -50 -18 -280 -41 -305 -32 -14 6 -16 46
-16 331 l0 325 43 4 c44 4 154 -1 222 -9z m64 -694 c142 -24 230 -88 272 -200
64 -169 35 -347 -74 -447 -76 -70 -143 -94 -268 -94 -135 0 -199 36 -235 131
-14 37 -18 95 -22 317 -2 150 -2 279 2 288 4 12 28 15 133 15 70 0 157 -5 192
-10z"/>
<path d="M7642 3857 c-28 -30 -28 -68 1 -95 30 -28 58 -28 85 1 28 30 28 68
-1 95 -30 28 -58 28 -85 -1z"/>
<path d="M5049 3009 c11 -12 32 -51 47 -86 l28 -65 17 34 c21 39 25 60 6 34
-12 -16 -16 -11 -39 43 -23 52 -30 61 -53 61 l-26 0 20 -21z"/>
<path d="M5182 3005 c-14 -31 -15 -46 -2 -25 7 11 10 -1 10 -40 0 -31 -5 -61
-12 -68 -9 -9 -3 -12 27 -12 30 0 36 3 27 12 -7 7 -12 39 -12 73 0 34 5 66 12
73 9 9 6 12 -13 12 -18 0 -29 -8 -37 -25z"/>
<path d="M5361 3012 c-13 -24 -14 -35 -3 -28 4 3 13 -8 19 -25 11 -27 10 -29
-14 -29 -20 0 -23 4 -19 23 3 12 -3 2 -14 -23 -12 -24 -26 -50 -32 -57 -8 -10
-4 -13 17 -13 22 0 25 3 16 14 -18 21 -2 46 30 46 36 0 58 -34 32 -49 -14 -8
-9 -10 26 -11 42 0 43 1 28 18 -10 10 -29 47 -43 83 -31 77 -30 75 -43 51z"/>
<path d="M5518 3023 c8 -3 12 -29 12 -78 0 -49 -4 -75 -12 -78 -7 -3 17 -6 55
-6 83 -1 107 17 107 79 0 65 -32 90 -112 89 -35 0 -57 -3 -50 -6z m102 -13
c10 -5 23 -23 29 -40 18 -52 -15 -105 -61 -98 -21 3 -23 8 -26 76 -3 68 -2 72
18 72 12 0 30 -4 40 -10z"/>
<path d="M5753 3019 c13 -8 17 -24 17 -74 0 -50 -4 -66 -17 -74 -14 -8 0 -10
55 -11 61 0 72 3 72 17 0 13 -3 14 -12 5 -29 -29 -78 -3 -78 42 0 19 26 21 33
4 3 -7 6 -3 6 9 1 16 -3 20 -19 16 -17 -5 -20 0 -20 31 0 33 2 36 28 36 15 0
33 -5 40 -12 9 -9 12 -8 12 5 0 14 -11 17 -67 17 -51 -1 -64 -3 -50 -11z"/>
<path d="M5948 3018 c7 -7 12 -39 12 -73 0 -34 -5 -66 -12 -73 -9 -9 -3 -12
27 -12 30 0 36 3 27 12 -7 7 -12 39 -12 73 0 34 5 66 12 73 9 9 3 12 -27 12
-30 0 -36 -3 -27 -12z"/>
<path d="M6084 3014 c11 -10 16 -34 16 -69 0 -35 -5 -59 -16 -69 -14 -15 -11
-16 28 -16 34 1 39 3 26 11 -18 10 -26 69 -10 69 13 0 39 -32 46 -57 5 -14 15
-23 28 -23 19 0 19 2 -6 45 -21 38 -23 47 -11 52 18 6 20 44 3 61 -7 7 -36 12
-66 12 -49 0 -52 -1 -38 -16z m85 -11 c12 -23 -4 -53 -29 -53 -16 0 -20 7 -20
35 0 28 4 35 20 35 10 0 23 -8 29 -17z"/>
<path d="M6330 3004 c-12 -31 -13 -44 -1 -26 6 10 11 5 20 -18 11 -32 11 -32
-19 -28 -17 3 -30 1 -30 -4 0 -4 13 -8 30 -8 34 0 57 -29 38 -48 -9 -9 -3 -12
27 -12 35 0 37 1 23 18 -8 9 -27 47 -43 85 -15 37 -30 67 -32 67 -2 0 -8 -12
-13 -26z"/>
<path d="M6506 3014 c-25 -25 -19 -42 25 -69 42 -27 48 -49 17 -69 -13 -8 -23
-8 -39 2 -18 11 -20 11 -17 0 6 -17 52 -22 78 -8 13 7 20 21 20 39 0 22 -8 32
-37 47 -24 13 -38 27 -38 39 0 26 35 32 52 9 12 -17 13 -16 13 4 0 18 -6 22
-29 22 -16 0 -37 -7 -45 -16z"/>
<path d="M6968 3023 c8 -3 12 -29 12 -78 0 -49 -4 -75 -12 -78 -7 -3 17 -6 55
-6 83 -1 107 17 107 79 0 65 -32 90 -112 89 -35 0 -57 -3 -50 -6z m102 -13
c10 -5 23 -23 29 -40 18 -52 -15 -105 -61 -98 -21 3 -23 8 -26 76 -3 68 -2 72
18 72 12 0 30 -4 40 -10z"/>
<path d="M7203 3019 c13 -8 17 -24 17 -74 0 -50 -4 -66 -17 -74 -14 -8 0 -10
55 -11 61 0 72 3 72 17 0 13 -3 14 -12 5 -29 -29 -78 -3 -78 42 0 19 26 21 33
4 3 -7 6 -3 6 9 1 16 -3 20 -19 16 -17 -5 -20 0 -20 31 0 33 2 36 28 36 15 0
33 -5 40 -12 9 -9 12 -8 12 5 0 14 -11 17 -67 17 -51 -1 -64 -3 -50 -11z"/>
<path d="M7404 3014 c11 -10 16 -34 16 -69 0 -35 -5 -59 -16 -69 -14 -15 -11
-16 28 -16 34 1 39 3 26 11 -18 10 -26 69 -10 69 13 0 39 -32 46 -57 5 -14 15
-23 28 -23 19 0 19 2 -6 45 -21 38 -23 47 -11 52 18 6 20 44 3 61 -7 7 -36 12
-66 12 -49 0 -52 -1 -38 -16z m85 -11 c12 -23 -4 -53 -29 -53 -16 0 -20 7 -20
35 0 28 4 35 20 35 10 0 23 -8 29 -17z"/>
<path d="M7598 3023 c8 -3 12 -29 12 -78 0 -49 -4 -75 -12 -78 -7 -3 7 -6 32
-6 35 0 41 2 28 10 -14 8 -18 24 -18 74 0 50 4 66 18 74 13 8 7 10 -28 10 -25
0 -39 -3 -32 -6z"/>
<path d="M7723 3015 c8 -8 27 -47 42 -86 20 -52 30 -67 36 -57 5 10 0 38 -15
77 -23 56 -23 62 -8 71 13 7 7 9 -26 10 -38 0 -42 -2 -29 -15z"/>
<path d="M7830 3026 c0 -2 6 -9 14 -15 10 -9 16 -8 26 4 11 13 8 15 -14 15
-14 0 -26 -2 -26 -4z"/>
<path d="M7990 3004 c-12 -31 -13 -44 -1 -26 6 10 11 5 20 -18 11 -32 11 -32
-19 -28 -17 3 -30 1 -30 -4 0 -4 13 -8 30 -8 34 0 57 -29 38 -48 -9 -9 -3 -12
27 -12 35 0 37 1 23 18 -8 9 -27 47 -43 85 -15 37 -30 67 -32 67 -2 0 -8 -12
-13 -26z"/>
<path d="M8154 3014 c11 -10 16 -34 16 -69 0 -35 -5 -59 -16 -69 -14 -15 -10
-16 48 -16 73 0 103 16 111 57 7 35 -15 88 -41 102 -12 6 -46 11 -77 11 -51 0
-55 -1 -41 -16z m103 -9 c39 -27 38 -101 -1 -127 -19 -13 -54 -9 -60 8 -3 9
-6 42 -6 75 0 55 2 59 23 59 12 0 32 -7 44 -15z"/>
<path d="M8409 3001 c-58 -58 -18 -141 67 -141 34 0 84 51 84 85 0 38 -50 85
-90 85 -22 0 -41 -9 -61 -29z m95 6 c9 -7 20 -31 23 -54 4 -33 1 -45 -16 -62
-43 -43 -101 -13 -101 54 0 61 50 94 94 62z"/>
<path d="M8642 3018 c-23 -23 -14 -55 24 -77 26 -16 35 -27 32 -44 -4 -31 -42
-34 -62 -5 l-16 22 0 -25 c0 -22 5 -25 36 -27 71 -5 99 54 42 88 -53 31 -61
40 -47 56 17 20 36 17 53 -8 l16 -22 0 25 c0 21 -5 25 -33 27 -18 1 -38 -3
-45 -10z"/>
<path d="M6754 2946 c-10 -26 4 -48 28 -44 17 2 23 10 23 28 0 18 -6 26 -23
28 -13 2 -25 -3 -28 -12z"/>
<path d="M6277 2885 c-18 -25 -18 -25 10 -25 20 0 24 3 16 11 -6 6 -9 18 -6
25 8 21 0 16 -20 -11z"/>
<path d="M7937 2885 c-18 -25 -18 -25 10 -25 20 0 24 3 16 11 -6 6 -9 18 -6
25 8 21 0 16 -20 -11z"/>
<path d="M5042 2875 c-11 -13 -9 -15 14 -15 22 0 25 2 14 15 -15 18 -12 18
-28 0z"/>
<path d="M5735 2556 c-53 -54 -16 -148 57 -145 30 2 31 2 6 6 -74 11 -77 153
-3 153 13 0 31 -10 39 -22 l16 -22 0 25 c0 23 -4 25 -45 28 -36 1 -50 -3 -70
-23z"/>
<path d="M5965 2568 c-69 -40 -57 -135 20 -154 59 -15 109 26 107 89 -2 59
-73 96 -127 65z m78 -16 c29 -31 31 -74 7 -105 -41 -52 -100 -24 -100 46 0 67
55 102 93 59z"/>
<path d="M6169 2559 c11 -12 32 -51 47 -86 l28 -65 17 34 c21 39 25 60 6 34
-12 -16 -16 -11 -39 43 -23 52 -30 61 -53 61 l-26 0 20 -21z"/>
<path d="M6302 2555 c-14 -31 -15 -46 -2 -25 7 11 10 -1 10 -40 0 -31 -5 -61
-12 -68 -9 -9 -3 -12 27 -12 30 0 36 3 27 12 -7 7 -12 39 -12 73 0 34 5 66 12
73 9 9 6 12 -13 12 -18 0 -29 -8 -37 -25z"/>
<path d="M6423 2569 c13 -8 17 -24 17 -74 0 -50 -4 -66 -17 -74 -14 -8 -9 -10
25 -11 40 0 42 1 28 16 -9 8 -16 26 -16 40 0 21 5 24 33 24 36 0 57 15 57 41
0 33 -28 49 -88 49 -44 -1 -53 -3 -39 -11z m90 -20 c15 -24 1 -49 -28 -49 -22
0 -25 4 -25 36 0 31 3 35 21 32 12 -2 27 -10 32 -19z"/>
<path d="M6655 2568 c-32 -17 -45 -39 -45 -79 0 -65 65 -98 129 -64 31 15 41
33 41 70 0 37 -10 55 -41 70 -33 18 -57 18 -84 3z m79 -17 c39 -42 12 -131
-39 -131 -31 0 -59 35 -59 75 0 64 60 98 98 56z"/>
<path d="M6889 2523 c27 -32 61 -71 75 -88 l25 -30 1 28 c0 15 -3 27 -7 27 -5
1 -28 27 -53 60 -32 42 -52 59 -68 60 -21 0 -19 -5 27 -57z"/>
<path d="M6960 2576 c0 -2 6 -9 14 -15 10 -9 16 -8 26 4 11 13 8 15 -14 15
-14 0 -26 -2 -26 -4z"/>
<path d="M7084 2564 c11 -10 16 -34 16 -69 0 -35 -5 -59 -16 -69 -14 -15 -9
-16 55 -16 65 0 71 2 71 21 0 19 -1 19 -16 5 -34 -34 -74 -15 -74 35 0 24 27
25 33 2 3 -10 5 -2 5 17 0 19 -2 29 -5 23 -11 -28 -33 -13 -33 22 0 32 2 35
30 35 17 0 33 -7 39 -17 9 -16 10 -16 11 5 0 21 -4 22 -66 22 -59 0 -64 -1
-50 -16z"/>
<path d="M7283 2556 c13 -13 46 -52 73 -86 40 -51 50 -59 52 -42 5 30 -96 152
-125 152 l-24 0 24 -24z"/>
<path d="M7386 2573 c5 -5 11 -12 15 -16 3 -4 12 -1 19 8 11 13 9 15 -15 15
-16 0 -24 -3 -19 -7z"/>
<path d="M7486 2564 c-9 -23 -1 -28 14 -9 7 8 23 15 36 15 23 0 24 -3 24 -70
0 -55 -3 -71 -17 -79 -14 -8 -8 -10 27 -11 31 0 41 3 30 10 -10 6 -16 32 -18
79 -4 68 -3 71 19 71 12 0 30 -7 40 -16 16 -15 17 -14 12 5 -5 19 -13 21 -83
21 -63 0 -79 -3 -84 -16z"/>
<path d="M7718 2568 c7 -7 12 -39 12 -73 0 -34 -5 -66 -12 -73 -9 -9 3 -12 55
-12 55 0 67 3 67 16 0 13 -3 14 -14 4 -8 -6 -25 -10 -38 -8 -18 2 -24 10 -26
37 -3 27 0 33 12 28 10 -4 16 -1 16 8 0 9 -6 12 -15 9 -10 -4 -15 0 -15 14 0
11 -3 27 -6 36 -5 12 1 16 23 16 16 0 34 -5 41 -12 9 -9 12 -8 12 5 0 14 -10
17 -62 17 -48 0 -59 -3 -50 -12z"/>
<path d="M7926 2564 c-25 -25 -19 -42 25 -69 42 -27 48 -49 17 -69 -13 -8 -23
-8 -39 2 -18 11 -20 11 -17 0 6 -17 52 -22 78 -8 13 7 20 21 20 39 0 22 -8 32
-37 47 -24 13 -38 27 -38 39 0 26 35 32 52 9 12 -17 13 -16 13 4 0 18 -6 22
-29 22 -16 0 -37 -7 -45 -16z"/>
<path d="M6162 2425 c-11 -13 -9 -15 14 -15 22 0 25 2 14 15 -15 18 -12 18
-28 0z"/>
<path d="M6850 2425 c-11 -13 -8 -15 15 -15 23 0 26 2 15 15 -7 8 -14 15 -15
15 -1 0 -8 -7 -15 -15z"/>
<path d="M7272 2425 c-11 -13 -9 -15 14 -15 22 0 25 2 14 15 -15 18 -12 18
-28 0z"/>
</g>
</svg>
